<svg id="Layer_1" data-name="Layer 1" xmlns="http://www.w3.org/2000/svg" viewBox="0 0 123 135"><defs><style>.cls-1{fill:#999;}.cls-2{fill:#fff;}</style></defs><title>CM-Creative</title><circle class="cls-1" cx="61.851" cy="61.5" r="60"/><path class="cls-2" d="M41.183,43.072v-4.32c-2.492-1.583-4.926-2.666-6.747-4.373-5.283-4.952-4.649-12.7,1.192-17.053a15.8,15.8,0,0,1,13.124-2.747,2.357,2.357,0,0,0,2.733-.9,14.133,14.133,0,0,1,8.066-5.337C64.339,7.339,68.081,9.393,71.1,12.7c1.43,1.566,2.6,2.182,4.839,1.711a14.584,14.584,0,0,1,9.638,1.452c4.821,2.423,7.5,6.827,7.05,11.627-.443,4.687-3.905,8.672-8.886,10.223-.429.133-.86.259-1.445.435v4.923ZM74.465,18.7c.564,0,.845.011,1.124,0A9.355,9.355,0,0,1,85.717,27.02a12.9,12.9,0,0,0,.772,2.342c.622-.791,1.252-1.576,1.859-2.378a1.125,1.125,0,0,0,.111-.482c.489-3.034-1.147-6.148-4.185-7.971A9.057,9.057,0,0,0,74.465,18.7Z"/><path class="cls-2" d="M82.743,44.778c0,1.953-.021,3.781.007,5.608.019,1.221-.777,1.285-1.712,1.282q-10.11-.04-20.22-.053c-5.94,0-11.881.026-17.822.023-.673,0-1.346-.114-2.045-.177V44.778Z"/><path class="cls-2" d="M82,55.369q.045-.233.091-.465H41.175c.022.162.047.324.068.486-2.273.308-2.864.912-2.839,3.221a24.292,24.292,0,0,0,2.666,10.435c.486,1,1.19,1.784,2.473,1.478,2.5,12.5,10.01,16.887,17.75,16.89,11.012,0,16.154-7.034,18.3-17.024,1.414.56,2.086-.327,2.607-1.347a25.339,25.339,0,0,0,2.728-10.188C85.059,56.512,84.327,55.735,82,55.369Z"/><path class="cls-2" d="M23.44,96.661a51.612,51.612,0,0,0,37.846,17.187q2.685,0,5.38-.207a51.592,51.592,0,0,0,32.5-15.58q.227-.653.41-1.333c.986-3.652-.446-6.637-3.934-8.024-5.466-2.174-10.987-4.208-16.488-6.292-.511-.194-1.049-.318-1.568-.473-2.614,7.947-7.871,12.574-16.256,12.572-8.366,0-13.614-4.531-15.927-12.607a152.875,152.875,0,0,0-18.9,7.238,5.815,5.815,0,0,0-3.3,6.293C23.264,95.852,23.347,96.259,23.44,96.661Z"/><path class="cls-1" d="M62.734,125.411a64.565,64.565,0,0,1-21.783-3.77l21.767,13.174,21.728-13.15A64.567,64.567,0,0,1,62.734,125.411Z"/></svg>