<svg id="Layer_1" data-name="Layer 1" xmlns="http://www.w3.org/2000/svg" viewBox="0 0 172 172"><defs><style>.cls-1{fill:#1e96d2;}</style></defs><title>CM-Creative</title><path class="cls-1" d="M46.527,57.064h3.15V69.938h-3.15Z"/><path class="cls-1" d="M51.891,60.665H54.88v.81a4.878,4.878,0,0,1-.036.576h.036a3.272,3.272,0,0,1,2.952-1.6c1.873,0,3.331.864,3.331,3.476v6.014H58.049V64.5c0-.864-.343-1.225-1.026-1.225a1.825,1.825,0,0,0-1.837,1.332,3.728,3.728,0,0,0-.18,1.225v4.105H51.891Z"/><path class="cls-1" d="M67.372,60.449a4.888,4.888,0,0,1,3.691,1.405l-1.314,2.088a3.379,3.379,0,0,0-2.179-.9,2.133,2.133,0,0,0-2.215,2.215,2.24,2.24,0,0,0,2.322,2.3,4.527,4.527,0,0,0,2.539-1.116l1.135,2.179a5.58,5.58,0,0,1-3.979,1.53,4.862,4.862,0,1,1,0-9.705Z"/><path class="cls-1" d="M72.356,60.665h2.989v1.566a4.9,4.9,0,0,1-.036.576h.036A3.217,3.217,0,0,1,78.3,60.5a2.094,2.094,0,0,1,.36.036V63.6a3.33,3.33,0,0,0-.63-.054,2.34,2.34,0,0,0-2.395,1.62,4.19,4.19,0,0,0-.162,1.261v3.511H72.356Z"/><path class="cls-1" d="M83.806,60.449c2.737,0,4.285,1.909,4.285,4.483,0,.307-.072.973-.072.973H82.167a2.071,2.071,0,0,0,2.161,1.656,4.865,4.865,0,0,0,2.557-.936L88.037,68.8a6.26,6.26,0,0,1-3.961,1.351,4.808,4.808,0,0,1-5.1-4.861A4.616,4.616,0,0,1,83.806,60.449Zm1.152,3.674a1.263,1.263,0,0,0-1.225-1.333,1.52,1.52,0,0,0-1.494,1.333Z"/><path class="cls-1" d="M94.012,64.159h.126V64c0-.774-.595-1.026-1.368-1.026a5.534,5.534,0,0,0-2.5.882l-1.081-2.2a7.012,7.012,0,0,1,3.89-1.207c2.61,0,4.177,1.423,4.177,3.781v5.708H94.407v-.559a4.9,4.9,0,0,1,.036-.576h-.036a2.884,2.884,0,0,1-2.628,1.351,2.966,2.966,0,0,1-3.151-2.988C88.628,64.464,92.571,64.159,94.012,64.159Zm-1.369,3.619a1.721,1.721,0,0,0,1.531-1.639v-.2h-.288c-.99,0-2.125.288-2.125,1.063C91.761,67.435,92.031,67.778,92.643,67.778Z"/><path class="cls-1" d="M99.572,66.7a3.9,3.9,0,0,0,2.358.937c.469,0,.919-.126.919-.432,0-.811-4.34-.9-4.34-3.926,0-1.746,1.675-2.827,3.817-2.827a4.854,4.854,0,0,1,3.259,1.063l-1.062,2.215a3.7,3.7,0,0,0-2.2-.756c-.469,0-.919.126-.919.45,0,.7,4.34.81,4.34,3.8,0,1.584-1.4,2.935-3.8,2.935a5.582,5.582,0,0,1-3.709-1.368Z"/><path class="cls-1" d="M111.147,60.449c2.737,0,4.285,1.909,4.285,4.483,0,.307-.072.973-.072.973h-5.852a2.071,2.071,0,0,0,2.161,1.656,4.865,4.865,0,0,0,2.557-.936l1.152,2.178a6.26,6.26,0,0,1-3.961,1.351,4.808,4.808,0,0,1-5.1-4.861A4.616,4.616,0,0,1,111.147,60.449Zm1.152,3.674a1.263,1.263,0,0,0-1.225-1.333,1.52,1.52,0,0,0-1.494,1.333Z"/><path class="cls-1" d="M120.273,60.449c1.872,0,2.431.738,2.431.738h.035s-.018-.18-.018-.414V57.064h3.115V69.938H122.92v-.612c0-.288.018-.522.018-.522H122.9a3.1,3.1,0,0,1-2.683,1.351c-2.521,0-4.177-1.98-4.177-4.861C116.042,62.358,117.807,60.449,120.273,60.449Zm.72,7.131c.937,0,1.818-.685,1.818-2.287,0-1.116-.594-2.215-1.818-2.215-.973,0-1.818.793-1.818,2.215C119.175,66.679,119.913,67.579,120.993,67.579Z"/><path class="cls-1" d="M60.982,76.848a7.108,7.108,0,0,1,4.951,1.711l-1.513,2.358a5.123,5.123,0,0,0-3.133-1.188,3.434,3.434,0,0,0-3.8,3.637,3.653,3.653,0,0,0,3.691,3.907,4.406,4.406,0,0,0,2.61-.937v-.99H61.973V82.663h4.609v7.274H63.953v-.36c0-.27.018-.54.018-.54h-.035a5.338,5.338,0,0,1-3.386,1.116,6.305,6.305,0,0,1-6.319-6.68A6.517,6.517,0,0,1,60.982,76.848Z"/><path class="cls-1" d="M68.145,80.665h2.989v1.566a4.9,4.9,0,0,1-.036.576h.036a3.217,3.217,0,0,1,2.952-2.3,2.094,2.094,0,0,1,.36.036V83.6a3.33,3.33,0,0,0-.63-.054,2.34,2.34,0,0,0-2.395,1.62,4.19,4.19,0,0,0-.162,1.261v3.511H68.145Z"/><path class="cls-1" d="M79.989,80.449c2.935,0,5.275,1.963,5.275,4.88,0,2.9-2.341,4.825-5.258,4.825s-5.258-1.927-5.258-4.825A4.928,4.928,0,0,1,79.989,80.449Zm.018,7.112a2.1,2.1,0,0,0,2.106-2.232,2.114,2.114,0,1,0-4.213,0A2.1,2.1,0,0,0,80.007,87.561Z"/><path class="cls-1" d="M85.514,80.665H88.79l1.152,5.474a5.206,5.206,0,0,1,.108.972h.036a6.62,6.62,0,0,1,.162-.972l1.278-5.474h2.665l1.278,5.474a5.339,5.339,0,0,1,.144.972h.036a6.345,6.345,0,0,1,.126-.972l1.152-5.474h3.241l-2.593,9.272H94.1l-1.044-4.285a8.461,8.461,0,0,1-.18-.99h-.036a8.589,8.589,0,0,1-.181.99l-1.044,4.285H88.106Z"/><path class="cls-1" d="M101.569,83.258h-1.188V80.827h1.279V78.162h3.024v2.665h1.944v2.431h-1.944V86.1c0,1.044,1.063,1.188,1.656,1.188a4.027,4.027,0,0,0,.414-.019v2.7a6.019,6.019,0,0,1-.846.054c-1.477,0-4.34-.4-4.34-3.511Z"/><path class="cls-1" d="M108.122,77.064h3.115v4.069a7.913,7.913,0,0,1-.036.792h.036a3.184,3.184,0,0,1,2.826-1.477c1.873,0,3.331.864,3.331,3.476v6.014H114.28V84.5c0-.864-.343-1.225-1.026-1.225a1.87,1.87,0,0,0-1.854,1.368,3.588,3.588,0,0,0-.162,1.188v4.105h-3.115Z"/><path class="cls-1" d="M45.836,96.848a7.108,7.108,0,0,1,4.951,1.711l-1.513,2.358a5.123,5.123,0,0,0-3.133-1.188,3.434,3.434,0,0,0-3.8,3.637,3.653,3.653,0,0,0,3.691,3.907,4.406,4.406,0,0,0,2.61-.937v-.99H46.826v-2.683h4.609v7.274H48.807v-.36c0-.27.018-.54.018-.54h-.035a5.338,5.338,0,0,1-3.386,1.116,6.305,6.305,0,0,1-6.319-6.68A6.517,6.517,0,0,1,45.836,96.848Z"/><path class="cls-1" d="M57.157,100.449c2.737,0,4.285,1.909,4.285,4.483,0,.307-.072.973-.072.973H55.519a2.071,2.071,0,0,0,2.161,1.656,4.865,4.865,0,0,0,2.557-.936l1.152,2.178a6.26,6.26,0,0,1-3.961,1.351,4.808,4.808,0,0,1-5.1-4.861A4.616,4.616,0,0,1,57.157,100.449Zm1.152,3.674a1.263,1.263,0,0,0-1.225-1.333,1.52,1.52,0,0,0-1.494,1.333Z"/><path class="cls-1" d="M62.682,100.665h2.989v.81a4.878,4.878,0,0,1-.036.576h.036a3.272,3.272,0,0,1,2.952-1.6c1.873,0,3.331.864,3.331,3.476v6.014H68.84V104.5c0-.864-.343-1.225-1.026-1.225a1.825,1.825,0,0,0-1.837,1.332,3.728,3.728,0,0,0-.18,1.225v4.105H62.682Z"/><path class="cls-1" d="M77.839,100.449c2.737,0,4.285,1.909,4.285,4.483,0,.307-.072.973-.072.973H76.2a2.071,2.071,0,0,0,2.161,1.656,4.865,4.865,0,0,0,2.557-.936L82.07,108.8a6.26,6.26,0,0,1-3.961,1.351,4.808,4.808,0,0,1-5.1-4.861A4.616,4.616,0,0,1,77.839,100.449Zm1.152,3.674a1.263,1.263,0,0,0-1.225-1.333,1.52,1.52,0,0,0-1.494,1.333Z"/><path class="cls-1" d="M83.363,100.665h2.989v1.566a4.9,4.9,0,0,1-.036.576h.036a3.217,3.217,0,0,1,2.952-2.3,2.094,2.094,0,0,1,.36.036V103.6a3.33,3.33,0,0,0-.63-.054,2.34,2.34,0,0,0-2.395,1.62,4.19,4.19,0,0,0-.162,1.261v3.511H83.363Z"/><path class="cls-1" d="M95.335,104.159h.126V104c0-.774-.595-1.026-1.368-1.026a5.534,5.534,0,0,0-2.5.882l-1.08-2.2a7.006,7.006,0,0,1,3.889-1.207c2.61,0,4.178,1.423,4.178,3.781v5.708H95.73v-.559a4.9,4.9,0,0,1,.036-.576H95.73a2.885,2.885,0,0,1-2.629,1.351,2.965,2.965,0,0,1-3.15-2.988C89.951,104.464,93.895,104.159,95.335,104.159Zm-1.368,3.619a1.721,1.721,0,0,0,1.53-1.639v-.2h-.288c-.99,0-2.125.288-2.125,1.063C93.084,107.435,93.355,107.778,93.967,107.778Z"/><path class="cls-1" d="M100.751,103.258H99.563v-2.431h1.279V98.162h3.024v2.665h1.944v2.431h-1.944V106.1c0,1.044,1.063,1.188,1.656,1.188a4.027,4.027,0,0,0,.414-.019v2.7a6.019,6.019,0,0,1-.846.054c-1.477,0-4.34-.4-4.34-3.511Z"/><path class="cls-1" d="M107.3,100.665h3.115v9.272H107.3Zm.036-3.6h3.043v2.431h-3.043Z"/><path class="cls-1" d="M116.826,100.449c2.935,0,5.275,1.963,5.275,4.88,0,2.9-2.341,4.825-5.258,4.825s-5.258-1.927-5.258-4.825A4.928,4.928,0,0,1,116.826,100.449Zm.018,7.112a2.1,2.1,0,0,0,2.106-2.232,2.114,2.114,0,1,0-4.213,0A2.1,2.1,0,0,0,116.844,107.561Z"/><path class="cls-1" d="M123.269,100.665h2.989v.81a4.878,4.878,0,0,1-.036.576h.036a3.272,3.272,0,0,1,2.952-1.6c1.873,0,3.331.864,3.331,3.476v6.014h-3.114V104.5c0-.864-.343-1.225-1.026-1.225a1.825,1.825,0,0,0-1.837,1.332,3.728,3.728,0,0,0-.18,1.225v4.105h-3.115Z"/></svg>