<svg id="Layer_1" data-name="Layer 1" xmlns="http://www.w3.org/2000/svg" viewBox="0 0 165 50"><defs><style>.cls-1{fill:#1e96d2;}.cls-2{fill:#fff;}</style></defs><title>CM-Creative</title><path class="cls-1" d="M27.4,19.687V13.524a8.228,8.228,0,0,0,6.233-7.972h0V2.268H17.2v3.3h0a8.228,8.228,0,0,0,6.235,7.954v6.162ZM20.5,5.571h9.828a4.914,4.914,0,0,1-9.828,0Z"/><path class="cls-1" d="M34.625,21.223H25.4V33.646a4.114,4.114,0,0,1-1.967-3.639V21.223H16.214l-.006,8.864a9.409,9.409,0,0,0,1.778,5.57,14.03,14.03,0,0,0,7.28,5.069.513.513,0,0,0,.312,0,15.325,15.325,0,0,0,5.937-3.462,9.628,9.628,0,0,0,3.111-6.8Z"/><path class="cls-2" d="M43.424,46.154a8.466,8.466,0,0,0,2.14-15.764,12.628,12.628,0,0,0-15.18-14.743c-.467.119-.673.172-1.084.295v3.664l.072-.026,1.037-.329A9.138,9.138,0,0,1,41.838,30.868l-.578,1.724,1.746.506a4.981,4.981,0,0,1-1.341,9.765l-.178,0H12.1A8.138,8.138,0,0,1,9.88,26.9l1.2-.344.059-1.249a10.134,10.134,0,0,1,10.139-9.661c.085,0,.17,0,.255.006V14.9a10.088,10.088,0,0,1-3.441-2.36A13.616,13.616,0,0,0,7.767,23.948a11.625,11.625,0,0,0,2.674,22.281l1.066.122H41.681A13.582,13.582,0,0,0,43.424,46.154Z"/><path class="cls-2" d="M67.412,24.109a6.764,6.764,0,0,0-3.679-.968,4.787,4.787,0,0,0-5.058,4.84c0,2.9,2.251,4.815,5.179,4.815a6.963,6.963,0,0,0,3.8-.919l-.314,3.363a8.076,8.076,0,0,1-4.042.823c-4.065,0-8.422-2.783-8.422-8.083,0-5.324,4.381-8.083,8.422-8.083a9.061,9.061,0,0,1,4.381.943Z"/><path class="cls-2" d="M73.123,36.186a3.747,3.747,0,0,1-3.291-3.969V18.471h3.509V31.95A1.694,1.694,0,0,0,74.7,33.717Z"/><path class="cls-2" d="M81.98,36.04a5.822,5.822,0,1,1,5.954-5.809A5.759,5.759,0,0,1,81.98,36.04Zm0-8.64a2.663,2.663,0,0,0-2.541,2.831,2.552,2.552,0,1,0,5.082,0A2.677,2.677,0,0,0,81.98,27.4Z"/><path class="cls-2" d="M97.2,35.7l-.1-1.089a3.879,3.879,0,0,1-3.292,1.379,3.779,3.779,0,0,1-4.065-3.944V24.738h3.558v6.534a1.515,1.515,0,0,0,1.67,1.524,1.631,1.631,0,0,0,1.791-1.573V24.738h3.558V35.7Z"/><path class="cls-2" d="M110.756,35.7l-.073-.8a3.777,3.777,0,0,1-3.024,1.089,5.564,5.564,0,0,1-5.519-5.639,5.706,5.706,0,0,1,5.905-5.953,4.03,4.03,0,0,1,2.057.46V18.471h3.437V35.7Zm-.654-7.575a2.91,2.91,0,0,0-1.984-.677,2.74,2.74,0,0,0,0,5.469,2.778,2.778,0,0,0,1.984-.75Z"/><path class="cls-1" d="M131.518,35.7l-.629-6.97c-.1-1.041-.193-2.372-.242-3.509H130.6c-.484,1.089-1.234,2.589-1.743,3.581l-3.581,7.019H124.4l-3.63-7.019c-.533-1.016-1.187-2.4-1.719-3.533h-.049c-.048,1.187-.169,2.541-.241,3.461l-.605,6.97h-2.081l1.331-15.439h1.452l4.114,7.938c.629,1.21,1.428,2.783,1.936,3.969h.049c.483-1.186,1.234-2.687,1.888-3.969l4.065-7.937h1.452L133.745,35.7Z"/><path class="cls-1" d="M137.764,22.633a2.031,2.031,0,0,1-1.331-1.331,1.343,1.343,0,1,1,2.686,0A2.019,2.019,0,0,1,137.764,22.633ZM136.65,35.7V24.738h2.226V35.7Z"/><path class="cls-1" d="M149.4,35.7V28.659a2.252,2.252,0,0,0-2.541-2.3,2.379,2.379,0,0,0-2.638,2.3V35.7h-2.2V24.738h1.936l.1,1.089a3.961,3.961,0,0,1,3.388-1.354,3.863,3.863,0,0,1,4.162,3.969V35.7Z"/><path class="cls-1" d="M163.9,29.53l-1.234,1.234h-6.606a3.7,3.7,0,0,0,3.9,3.267,5.727,5.727,0,0,0,3.509-1.113l-.557,2.348a6.653,6.653,0,0,1-3.243.7,5.732,5.732,0,0,1-5.881-5.736,5.55,5.55,0,0,1,5.445-5.759c3.025,0,4.743,2.129,4.743,4.162A4.832,4.832,0,0,1,163.9,29.53Zm-4.55-3.171a3.334,3.334,0,0,0-3.146,2.614h5.519a1.217,1.217,0,0,0,.023-.291A2.4,2.4,0,0,0,159.349,26.359Z"/><path class="cls-2" d="M121.315,39.919a3.62,3.62,0,0,0-1.792-.471,2.774,2.774,0,1,0,0,5.544,3.889,3.889,0,0,0,1.972-.447l-.225,1.041a3.8,3.8,0,1,1-1.87-7.078,4.25,4.25,0,0,1,2.105.471Z"/><path class="cls-2" d="M124.795,45.922a2.66,2.66,0,1,1,2.688-2.654A2.6,2.6,0,0,1,124.795,45.922Zm0-4.424a1.768,1.768,0,1,0,1.658,1.77A1.684,1.684,0,0,0,124.795,41.5Z"/><path class="cls-2" d="M131.905,45.8V42.54a1.043,1.043,0,0,0-1.176-1.064,1.1,1.1,0,0,0-1.222,1.064V45.8h-1.019V40.726h.9l.045.5A1.833,1.833,0,0,1,131,40.6a1.788,1.788,0,0,1,1.926,1.837V45.8Z"/><path class="cls-2" d="M135.5,45.922a2.7,2.7,0,0,1-1.422-.369l-.235-1.12a2.711,2.711,0,0,0,1.68.627c.481,0,.807-.258.807-.6s-.258-.571-.729-.739c-1.008-.37-1.567-.84-1.567-1.658a1.525,1.525,0,0,1,1.7-1.456,2.831,2.831,0,0,1,1.321.325l-.19.852a1.949,1.949,0,0,0-1.143-.325c-.425,0-.705.235-.705.571s.235.493.739.672c1.019.37,1.59.829,1.59,1.714C137.345,45.228,136.729,45.922,135.5,45.922Z"/><path class="cls-2" d="M141.89,45.8l-.045-.5a1.831,1.831,0,0,1-1.568.627,1.787,1.787,0,0,1-1.926-1.837V40.726h1.019v3.259a1.043,1.043,0,0,0,1.177,1.064,1.1,1.1,0,0,0,1.221-1.064V40.726h1.019V45.8Z"/><path class="cls-2" d="M145.247,46a1.352,1.352,0,0,1-1.008-1.4V37.824h1.02v6.642a.863.863,0,0,0,.683.84Z"/><path class="cls-2" d="M150.062,41.543h-1.613v2.822A.663.663,0,0,0,149.2,45a1.676,1.676,0,0,0,.56-.079l-.2.907a1.641,1.641,0,0,1-.46.045,1.511,1.511,0,0,1-1.657-1.545V41.543h-1v-.817h1V39.7l1.008-.527v1.558h1.792Z"/><path class="cls-2" d="M151.729,39.751a.939.939,0,0,1-.616-.616.622.622,0,1,1,1.243,0A.933.933,0,0,1,151.729,39.751Zm-.516,6.048V40.726h1.03V45.8Z"/><path class="cls-2" d="M157.115,45.8V42.54a1.043,1.043,0,0,0-1.176-1.064,1.1,1.1,0,0,0-1.222,1.064V45.8H153.7V40.726h.9l.045.5a1.834,1.834,0,0,1,1.568-.628,1.788,1.788,0,0,1,1.926,1.837V45.8Z"/><path class="cls-2" d="M161.311,48.386c-1.389,0-2.307-.772-2.307-1.825a1.613,1.613,0,0,1,1.053-1.523l-.516-.515a1.01,1.01,0,0,1,.571-.829,1.675,1.675,0,0,1-.75-1.378,1.745,1.745,0,0,1,1.9-1.714,2.313,2.313,0,0,1,.628.079,2.685,2.685,0,0,0,.649.067,1.755,1.755,0,0,0,.75-.18l.19.84a1.358,1.358,0,0,1-.5.135,1.574,1.574,0,0,1,.18.772,1.749,1.749,0,0,1-1.894,1.714c-.4,0-.649.056-.649.28a.212.212,0,0,0,.146.179l1.389.481a1.752,1.752,0,0,1,1.423,1.736C163.574,47.669,162.667,48.386,161.311,48.386Zm.538-2.554-.885-.257a.984.984,0,0,0-1.053.985c0,.5.459,1.008,1.377,1.008.9,0,1.345-.471,1.345-.873S162.376,45.989,161.849,45.832Zm-.583-4.39a.929.929,0,0,0-.974.873.915.915,0,0,0,.974.874.934.934,0,0,0,.964-.874A.919.919,0,0,0,161.266,41.442Z"/></svg>