<svg id="Layer_1" data-name="Layer 1" xmlns="http://www.w3.org/2000/svg" viewBox="0 0 165 50"><defs><style>.cls-1{fill:#fff;}.cls-2{fill:#1e96d2;}</style></defs><title>CM-Creative</title><path class="cls-1" d="M67.323,26.131a6.787,6.787,0,0,0-3.691-.972,4.8,4.8,0,0,0-5.075,4.857c0,2.914,2.258,4.833,5.2,4.833a6.985,6.985,0,0,0,3.812-.923L67.251,37.3a8.105,8.105,0,0,1-4.055.825c-4.08,0-8.451-2.792-8.451-8.111,0-5.342,4.4-8.111,8.451-8.111a9.089,9.089,0,0,1,4.4.947Z"/><path class="cls-1" d="M73.049,38.248a3.759,3.759,0,0,1-3.3-3.983V20.472h3.521V34a1.7,1.7,0,0,0,1.36,1.773Z"/><path class="cls-1" d="M81.936,38.1a5.842,5.842,0,1,1,5.973-5.828A5.779,5.779,0,0,1,81.936,38.1Zm0-8.669a2.671,2.671,0,0,0-2.55,2.841,2.56,2.56,0,1,0,5.1,0A2.686,2.686,0,0,0,81.936,29.433Z"/><path class="cls-1" d="M97.206,37.762l-.1-1.093a3.889,3.889,0,0,1-3.3,1.384,3.792,3.792,0,0,1-4.08-3.958V26.762H93.3v6.556a1.521,1.521,0,0,0,1.676,1.53,1.636,1.636,0,0,0,1.8-1.578V26.762h3.57v11Z"/><path class="cls-1" d="M110.8,37.762l-.073-.8a3.794,3.794,0,0,1-3.036,1.093,5.583,5.583,0,0,1-5.537-5.657,5.725,5.725,0,0,1,5.924-5.974,4.049,4.049,0,0,1,2.065.462V20.472h3.448v17.29Zm-.656-7.6a2.919,2.919,0,0,0-1.991-.681,2.75,2.75,0,0,0,0,5.489,2.794,2.794,0,0,0,1.991-.753Z"/><path class="cls-2" d="M131.633,37.762,131,30.768c-.1-1.044-.194-2.38-.243-3.521h-.049c-.485,1.094-1.238,2.6-1.747,3.595l-3.595,7.042h-.874l-3.643-7.042c-.533-1.021-1.189-2.4-1.724-3.546h-.049c-.048,1.19-.169,2.55-.242,3.472l-.607,6.994h-2.088l1.336-15.493h1.456l4.128,7.965c.632,1.214,1.433,2.792,1.943,3.983h.049c.485-1.19,1.238-2.7,1.894-3.983l4.079-7.965h1.457l1.384,15.493Z"/><path class="cls-2" d="M137.893,24.649a2.039,2.039,0,0,1-1.335-1.336,1.348,1.348,0,1,1,2.7,0A2.026,2.026,0,0,1,137.893,24.649Zm-1.116,13.113v-11h2.234v11Z"/><path class="cls-2" d="M149.571,37.762V30.7a2.26,2.26,0,0,0-2.549-2.307,2.388,2.388,0,0,0-2.648,2.307v7.067h-2.209v-11h1.943l.1,1.093a3.976,3.976,0,0,1,3.4-1.36,3.877,3.877,0,0,1,4.177,3.983v7.285Z"/><path class="cls-2" d="M164.114,31.57l-1.239,1.239h-6.629a3.716,3.716,0,0,0,3.91,3.278,5.754,5.754,0,0,0,3.521-1.116l-.558,2.356a6.672,6.672,0,0,1-3.254.7,5.752,5.752,0,0,1-5.9-5.755,5.569,5.569,0,0,1,5.463-5.78c3.036,0,4.76,2.137,4.76,4.177A4.765,4.765,0,0,1,164.114,31.57Zm-4.566-3.181a3.344,3.344,0,0,0-3.156,2.623h5.536a1.149,1.149,0,0,0,.025-.291A2.41,2.41,0,0,0,159.549,28.389Z"/><path class="cls-1" d="M123.709,41.649a4.727,4.727,0,0,0-2.339-.613,3.621,3.621,0,1,0,0,7.236,5.078,5.078,0,0,0,2.573-.585l-.293,1.36a4.912,4.912,0,0,1-2.441.453,4.85,4.85,0,1,1,0-9.693,5.567,5.567,0,0,1,2.749.614Z"/><path class="cls-1" d="M129,43.74a2.225,2.225,0,0,0-2.354,2.456v3.128h-1.331V42.7h1.257l.059,1.037a2.255,2.255,0,0,1,2.251-1.126l.248,1.126Z"/><path class="cls-1" d="M135.678,45.6l-.745.745h-3.991a2.237,2.237,0,0,0,2.354,1.974,3.458,3.458,0,0,0,2.12-.673l-.336,1.418a4.02,4.02,0,0,1-1.96.424,3.462,3.462,0,0,1-3.552-3.465,3.353,3.353,0,0,1,3.289-3.479,2.655,2.655,0,0,1,2.865,2.515A2.9,2.9,0,0,1,135.678,45.6Zm-2.748-1.915a2.014,2.014,0,0,0-1.9,1.579h3.334a.721.721,0,0,0,.015-.176A1.451,1.451,0,0,0,132.931,43.682Z"/><path class="cls-1" d="M141.612,49.485a1.352,1.352,0,0,1-.965-.848,2.222,2.222,0,0,1-1.857.848,2.035,2.035,0,0,1-2.134-2.032,2.191,2.191,0,0,1,2.178-2.12l1.55-.147v-.424c0-.6-.35-1.081-1.286-1.081a3.438,3.438,0,0,0-1.828.526l-.263-1.1a3.926,3.926,0,0,1,2.163-.57,2.3,2.3,0,0,1,2.544,2.4v2.676a.934.934,0,0,0,.745,1.023Zm-1.228-3.2-1.315.117a1.112,1.112,0,0,0-1.14,1.067.911.911,0,0,0,.921.892,1.607,1.607,0,0,0,1.534-1.491Z"/><path class="cls-1" d="M147.371,43.769h-2.105v3.684a.866.866,0,0,0,.979.834,2.215,2.215,0,0,0,.731-.1l-.263,1.184a2.176,2.176,0,0,1-.6.058,1.972,1.972,0,0,1-2.163-2.017V43.769h-1.3V42.7h1.3V41.357l1.316-.687V42.7h2.339Z"/><path class="cls-1" d="M149.548,41.43a1.226,1.226,0,0,1-.8-.8.811.811,0,1,1,1.623,0A1.219,1.219,0,0,1,149.548,41.43Zm-.673,7.894V42.7h1.344v6.622Z"/><path class="cls-1" d="M154.985,49.441h-.542L151.681,42.7h1.344l1.2,2.923c.176.424.38.95.542,1.447h.029c.161-.5.365-1.023.541-1.447l1.184-2.923h1.243Z"/><path class="cls-1" d="M164.456,45.6l-.745.745H159.72a2.237,2.237,0,0,0,2.354,1.974,3.458,3.458,0,0,0,2.12-.673l-.336,1.418a4.02,4.02,0,0,1-1.96.424,3.462,3.462,0,0,1-3.552-3.465,3.353,3.353,0,0,1,3.289-3.479,2.656,2.656,0,0,1,2.866,2.515A2.89,2.89,0,0,1,164.456,45.6Zm-2.748-1.915a2.014,2.014,0,0,0-1.9,1.579h3.334a.721.721,0,0,0,.015-.176A1.451,1.451,0,0,0,161.709,43.682Z"/><path class="cls-2" d="M33.516,12.842q-7.893.029-15.787,0c-.5,0-.657.108-.657.642.017,13.123.014.577.009,13.7a2.218,2.218,0,0,0,.209.956c1.159,2.532,2.3,5.071,3.453,7.607.985,2.174,1.942,4.361,2.968,6.515a2.114,2.114,0,0,0,3.507.479c.113-.2.321-.517.475-.857Q30.8,35.032,33.9,28.175a2.4,2.4,0,0,0,.223-1.023c-.006-13.123-.008-.578.008-13.7C34.133,12.949,34.008,12.84,33.516,12.842ZM20.762,18.379a2.128,2.128,0,0,1,3.065-2.045,2.36,2.36,0,0,1,.583.43,2.231,2.231,0,0,1,.624,1.756L25.028,22.1a2.141,2.141,0,1,1-4.273-.008ZM31.212,28.6l-4.032,9.1a.258.258,0,0,1-.346.13,2.841,2.841,0,0,0-2.53.036.257.257,0,0,1-.353-.129L19.992,28.6a.287.287,0,0,1,.095-.352,5.181,5.181,0,0,1,5.365.024.26.26,0,0,0,.3,0,5.181,5.181,0,0,1,5.363-.025A.287.287,0,0,1,31.212,28.6Z"/><path class="cls-2" d="M17.613,11.223q7.986-.025,15.972,0c.439,0,.554-.119.55-.553-.02-2.64,0-3.194-.013-5.834a4.049,4.049,0,0,0-1.275-3.054A3.919,3.919,0,0,0,29.891.516C27.03.5,24.168.489,21.307.518a4.2,4.2,0,0,0-4.222,4.239c-.021,2.662,0,3.238-.014,5.9C17.068,11.074,17.156,11.225,17.613,11.223Zm3.824-6.947a2.062,2.062,0,0,1,2.972.057,2.135,2.135,0,0,1,.009,2.992,2.194,2.194,0,0,1-3.058-.009A2.136,2.136,0,0,1,21.436,4.276Z"/><path class="cls-1" d="M45.706,33.4a12.662,12.662,0,0,0-9.359-14.724v3.65a9.163,9.163,0,0,1,5.621,11.553l-.58,1.729,1.752.507a5,5,0,0,1-1.346,9.8l-.178,0H12.14A8.164,8.164,0,0,1,9.909,29.9l1.206-.345.06-1.253a10.143,10.143,0,0,1,3.683-7.362V16.753A13.643,13.643,0,0,0,7.79,26.937a11.662,11.662,0,0,0,2.682,22.351l1.07.122H41.81a13.627,13.627,0,0,0,1.749-.2A8.493,8.493,0,0,0,45.706,33.4Z"/></svg>