<svg id="Layer_1" data-name="Layer 1" xmlns="http://www.w3.org/2000/svg" viewBox="0 0 221 221"><defs><style>.cls-1{fill:#1e96d2;}</style></defs><title>CM-Creative</title><path class="cls-1" d="M81.623,73.126h4.483a6.645,6.645,0,0,1,2.5.307,3.742,3.742,0,0,1,2.376,3.745,3.917,3.917,0,0,1-1.927,3.511v.036a7.3,7.3,0,0,1,.486.774l2.5,4.5H88.537L86.25,81.661H84.773V86h-3.15Zm4.52,5.834a1.473,1.473,0,0,0,1.638-1.585c0-.972-.359-1.548-1.944-1.548H84.773V78.96Z"/><path class="cls-1" d="M97.608,76.511c2.935,0,5.275,1.963,5.275,4.88,0,2.9-2.341,4.825-5.258,4.825s-5.258-1.927-5.258-4.825A4.928,4.928,0,0,1,97.608,76.511Zm.018,7.112a2.1,2.1,0,0,0,2.106-2.232,2.114,2.114,0,1,0-4.213,0A2.1,2.1,0,0,0,97.626,83.623Z"/><path class="cls-1" d="M104.051,73.126h3.115v3.583a7.923,7.923,0,0,1-.036.793h.036a3.442,3.442,0,0,1,2.5-.991c2.521,0,4.178,1.981,4.178,4.862,0,2.935-1.854,4.843-4.321,4.843a3.315,3.315,0,0,1-2.539-1.044h-.036s.019.234.019.522V86h-2.917Zm4.844,10.516c.972,0,1.818-.793,1.818-2.215,0-1.387-.738-2.287-1.818-2.287-.937,0-1.818.685-1.818,2.287C107.076,82.543,107.67,83.642,108.895,83.642Z"/><path class="cls-1" d="M114.94,76.728h3.115v5.438c0,.864.342,1.225.99,1.225,1.332,0,1.962-1.171,1.962-2.558v-4.1h3.115V86h-2.989V85.19a4.9,4.9,0,0,1,.036-.576h-.036a3.213,3.213,0,0,1-2.9,1.6c-1.837,0-3.295-.864-3.295-3.475Z"/><path class="cls-1" d="M126.587,82.759a3.9,3.9,0,0,0,2.358.937c.469,0,.918-.126.918-.432,0-.811-4.339-.9-4.339-3.926,0-1.746,1.675-2.827,3.817-2.827a4.854,4.854,0,0,1,3.259,1.063l-1.062,2.215a3.7,3.7,0,0,0-2.2-.756c-.469,0-.918.126-.918.45,0,.7,4.339.81,4.339,3.8,0,1.584-1.4,2.935-3.8,2.935a5.586,5.586,0,0,1-3.71-1.368Z"/><path class="cls-1" d="M134.47,79.321h-1.188V76.89h1.279V74.225h3.024V76.89h1.944v2.431h-1.944v2.845c0,1.044,1.063,1.188,1.656,1.188a4.027,4.027,0,0,0,.414-.019v2.7a6.019,6.019,0,0,1-.846.054c-1.477,0-4.34-.4-4.34-3.511Z"/><path class="cls-1" d="M39.819,93.126h4.573c4.051,0,6.644,2.358,6.644,6.41S48.443,106,44.393,106H39.819ZM44.267,103.3c2.179,0,3.511-1.3,3.511-3.763,0-2.449-1.387-3.709-3.511-3.709h-1.3V103.3Z"/><path class="cls-1" d="M56.6,96.511c2.737,0,4.285,1.909,4.285,4.483,0,.307-.072.973-.072.973H54.957a2.071,2.071,0,0,0,2.161,1.656,4.865,4.865,0,0,0,2.557-.936l1.152,2.178a6.26,6.26,0,0,1-3.961,1.351,4.808,4.808,0,0,1-5.1-4.861A4.616,4.616,0,0,1,56.6,96.511Zm1.152,3.674a1.263,1.263,0,0,0-1.225-1.333,1.52,1.52,0,0,0-1.494,1.333Z"/><path class="cls-1" d="M62.732,102.759a3.9,3.9,0,0,0,2.358.937c.469,0,.919-.126.919-.432,0-.811-4.34-.9-4.34-3.926,0-1.746,1.675-2.827,3.817-2.827a4.854,4.854,0,0,1,3.259,1.063l-1.062,2.215a3.7,3.7,0,0,0-2.2-.756c-.469,0-.919.126-.919.45,0,.7,4.34.81,4.34,3.8,0,1.584-1.4,2.935-3.8,2.935a5.582,5.582,0,0,1-3.709-1.368Z"/><path class="cls-1" d="M70.148,96.728h3.115V106H70.148Zm.036-3.6h3.043v2.431H70.185Z"/><path class="cls-1" d="M78.879,107.189c1.117,0,2.143-.414,2.143-1.782V105.1c0-.107.019-.342.019-.342H81a2.757,2.757,0,0,1-2.322.972c-2.791,0-4.178-2.286-4.178-4.663,0-2.358,1.351-4.556,4.159-4.556a3.516,3.516,0,0,1,2.521.9h.055a1.451,1.451,0,0,1-.019-.216v-.468h2.917v8.426c0,3.386-2.7,4.628-5.239,4.628a8.2,8.2,0,0,1-3.511-.828l.882-2.359A6.29,6.29,0,0,0,78.879,107.189Zm2.215-6.086c0-1.639-.864-2-1.8-2a1.637,1.637,0,0,0-1.656,1.855c0,1.152.54,2.178,1.783,2.178C80.23,103.137,81.094,102.723,81.094,101.1Z"/><path class="cls-1" d="M85.988,96.728h2.989v.81a4.878,4.878,0,0,1-.036.576h.036a3.272,3.272,0,0,1,2.952-1.6c1.873,0,3.331.864,3.331,3.476V106H92.147v-5.437c0-.864-.343-1.225-1.026-1.225a1.825,1.825,0,0,0-1.837,1.332,3.728,3.728,0,0,0-.18,1.225V106H85.988Z"/><path class="cls-1" d="M101.019,93.126h5.348a4.455,4.455,0,0,1,0,8.895h-2.2V106h-3.15Zm4.7,6.194a1.568,1.568,0,0,0,1.639-1.765,1.527,1.527,0,0,0-1.585-1.729h-1.6v3.493Z"/><path class="cls-1" d="M111.619,96.728h2.989v1.566a4.9,4.9,0,0,1-.036.576h.036a3.217,3.217,0,0,1,2.952-2.3,2.094,2.094,0,0,1,.36.036v3.061a3.33,3.33,0,0,0-.63-.054,2.34,2.34,0,0,0-2.395,1.62,4.19,4.19,0,0,0-.162,1.261V106h-3.115Z"/><path class="cls-1" d="M123.465,96.511c2.935,0,5.275,1.963,5.275,4.88,0,2.9-2.341,4.825-5.258,4.825s-5.258-1.927-5.258-4.825A4.928,4.928,0,0,1,123.465,96.511Zm.018,7.112a2.1,2.1,0,0,0,2.106-2.232,2.114,2.114,0,1,0-4.213,0A2.1,2.1,0,0,0,123.482,103.623Z"/><path class="cls-1" d="M134.391,96.511a4.888,4.888,0,0,1,3.691,1.405L136.768,100a3.379,3.379,0,0,0-2.179-.9,2.133,2.133,0,0,0-2.215,2.215,2.24,2.24,0,0,0,2.322,2.3,4.527,4.527,0,0,0,2.539-1.116l1.135,2.179a5.58,5.58,0,0,1-3.979,1.53,4.862,4.862,0,1,1,0-9.705Z"/><path class="cls-1" d="M143.534,96.511c2.737,0,4.285,1.909,4.285,4.483,0,.307-.072.973-.072.973H141.9a2.071,2.071,0,0,0,2.161,1.656,4.865,4.865,0,0,0,2.557-.936l1.152,2.178a6.26,6.26,0,0,1-3.961,1.351,4.808,4.808,0,0,1-5.1-4.861A4.616,4.616,0,0,1,143.534,96.511Zm1.152,3.674a1.263,1.263,0,0,0-1.225-1.333,1.52,1.52,0,0,0-1.494,1.333Z"/><path class="cls-1" d="M149.671,102.759a3.9,3.9,0,0,0,2.358.937c.469,0,.918-.126.918-.432,0-.811-4.339-.9-4.339-3.926,0-1.746,1.675-2.827,3.817-2.827a4.854,4.854,0,0,1,3.259,1.063l-1.062,2.215a3.7,3.7,0,0,0-2.2-.756c-.469,0-.918.126-.918.45,0,.7,4.339.81,4.339,3.8,0,1.584-1.4,2.935-3.8,2.935a5.586,5.586,0,0,1-3.71-1.368Z"/><path class="cls-1" d="M157.7,102.759a3.9,3.9,0,0,0,2.358.937c.469,0,.919-.126.919-.432,0-.811-4.34-.9-4.34-3.926,0-1.746,1.675-2.827,3.817-2.827a4.854,4.854,0,0,1,3.259,1.063l-1.062,2.215a3.7,3.7,0,0,0-2.2-.756c-.469,0-.919.126-.919.45,0,.7,4.34.81,4.34,3.8,0,1.584-1.4,2.935-3.8,2.935a5.582,5.582,0,0,1-3.709-1.368Z"/><path class="cls-1" d="M169.273,96.511c2.737,0,4.285,1.909,4.285,4.483,0,.307-.072.973-.072.973h-5.852a2.071,2.071,0,0,0,2.161,1.656,4.865,4.865,0,0,0,2.557-.936l1.152,2.178a6.26,6.26,0,0,1-3.961,1.351,4.808,4.808,0,0,1-5.1-4.861A4.616,4.616,0,0,1,169.273,96.511Zm1.152,3.674a1.263,1.263,0,0,0-1.225-1.333,1.52,1.52,0,0,0-1.494,1.333Z"/><path class="cls-1" d="M175.411,102.759a3.9,3.9,0,0,0,2.358.937c.469,0,.918-.126.918-.432,0-.811-4.339-.9-4.339-3.926,0-1.746,1.675-2.827,3.817-2.827a4.854,4.854,0,0,1,3.259,1.063l-1.062,2.215a3.7,3.7,0,0,0-2.2-.756c-.469,0-.918.126-.918.45,0,.7,4.339.81,4.339,3.8,0,1.584-1.4,2.935-3.8,2.935a5.586,5.586,0,0,1-3.71-1.368Z"/><path class="cls-1" d="M59.881,120.221h.126v-.162c0-.774-.595-1.026-1.368-1.026a5.534,5.534,0,0,0-2.5.882l-1.081-2.2a7.012,7.012,0,0,1,3.89-1.207c2.61,0,4.177,1.423,4.177,3.781V126H60.276v-.559a4.9,4.9,0,0,1,.036-.576h-.036a2.884,2.884,0,0,1-2.628,1.351,2.966,2.966,0,0,1-3.151-2.988C54.5,120.527,58.44,120.221,59.881,120.221Zm-1.369,3.619a1.721,1.721,0,0,0,1.531-1.639V122h-.288c-.99,0-2.125.288-2.125,1.063C57.63,123.5,57.9,123.84,58.512,123.84Z"/><path class="cls-1" d="M64.829,116.728h2.989v.81a4.878,4.878,0,0,1-.036.576h.036a3.272,3.272,0,0,1,2.952-1.6c1.873,0,3.331.864,3.331,3.476V126H70.987v-5.437c0-.864-.343-1.225-1.026-1.225a1.825,1.825,0,0,0-1.837,1.332,3.728,3.728,0,0,0-.18,1.225V126H64.829Z"/><path class="cls-1" d="M79.428,116.511c1.873,0,2.432.738,2.432.738h.035s-.018-.18-.018-.414v-3.709h3.115V126H82.075v-.612c0-.288.018-.522.018-.522h-.036a3.1,3.1,0,0,1-2.683,1.351c-2.521,0-4.177-1.98-4.177-4.861C75.2,118.42,76.962,116.511,79.428,116.511Zm.721,7.131c.937,0,1.818-.685,1.818-2.287,0-1.116-.594-2.215-1.818-2.215-.973,0-1.818.793-1.818,2.215C78.33,122.742,79.068,123.642,80.148,123.642Z"/><path class="cls-1" d="M90.875,113.126h4.483a6.645,6.645,0,0,1,2.5.307,3.742,3.742,0,0,1,2.376,3.745,3.917,3.917,0,0,1-1.927,3.511v.036a7.3,7.3,0,0,1,.486.774l2.5,4.5H97.789L95.5,121.661H94.025V126h-3.15Zm4.52,5.834a1.473,1.473,0,0,0,1.638-1.585c0-.972-.359-1.548-1.944-1.548H94.025v3.133Z"/><path class="cls-1" d="M106.464,116.511c2.737,0,4.285,1.909,4.285,4.483,0,.307-.072.973-.072.973h-5.852a2.071,2.071,0,0,0,2.161,1.656,4.865,4.865,0,0,0,2.557-.936l1.152,2.178a6.26,6.26,0,0,1-3.961,1.351,4.808,4.808,0,0,1-5.1-4.861A4.616,4.616,0,0,1,106.464,116.511Zm1.152,3.674a1.263,1.263,0,0,0-1.225-1.333,1.52,1.52,0,0,0-1.494,1.333Z"/><path class="cls-1" d="M112.6,122.759a3.9,3.9,0,0,0,2.358.937c.469,0,.918-.126.918-.432,0-.811-4.339-.9-4.339-3.926,0-1.746,1.675-2.827,3.817-2.827a4.854,4.854,0,0,1,3.259,1.063l-1.062,2.215a3.7,3.7,0,0,0-2.2-.756c-.469,0-.918.126-.918.45,0,.7,4.339.81,4.339,3.8,0,1.584-1.4,2.935-3.8,2.935a5.586,5.586,0,0,1-3.71-1.368Z"/><path class="cls-1" d="M124.176,116.511c2.737,0,4.285,1.909,4.285,4.483,0,.307-.072.973-.072.973h-5.852a2.071,2.071,0,0,0,2.161,1.656,4.865,4.865,0,0,0,2.557-.936l1.152,2.178a6.26,6.26,0,0,1-3.961,1.351,4.808,4.808,0,0,1-5.1-4.861A4.616,4.616,0,0,1,124.176,116.511Zm1.152,3.674a1.263,1.263,0,0,0-1.225-1.333,1.52,1.52,0,0,0-1.494,1.333Z"/><path class="cls-1" d="M134.382,120.221h.126v-.162c0-.774-.595-1.026-1.368-1.026a5.534,5.534,0,0,0-2.5.882l-1.08-2.2a7.006,7.006,0,0,1,3.889-1.207c2.61,0,4.178,1.423,4.178,3.781V126h-2.846v-.559a4.9,4.9,0,0,1,.036-.576h-.036a2.885,2.885,0,0,1-2.629,1.351,2.965,2.965,0,0,1-3.15-2.988C129,120.527,132.941,120.221,134.382,120.221Zm-1.368,3.619a1.721,1.721,0,0,0,1.53-1.639V122h-.288c-.99,0-2.125.288-2.125,1.063C132.131,123.5,132.4,123.84,133.014,123.84Z"/><path class="cls-1" d="M139.33,116.728h2.989v1.566a4.9,4.9,0,0,1-.036.576h.036a3.217,3.217,0,0,1,2.952-2.3,2.094,2.094,0,0,1,.36.036v3.061a3.33,3.33,0,0,0-.63-.054,2.34,2.34,0,0,0-2.395,1.62,4.19,4.19,0,0,0-.162,1.261V126H139.33Z"/><path class="cls-1" d="M151.1,116.511a4.888,4.888,0,0,1,3.691,1.405L153.48,120a3.379,3.379,0,0,0-2.179-.9,2.133,2.133,0,0,0-2.215,2.215,2.24,2.24,0,0,0,2.322,2.3,4.527,4.527,0,0,0,2.539-1.116l1.135,2.179a5.58,5.58,0,0,1-3.979,1.53,4.862,4.862,0,1,1,0-9.705Z"/><path class="cls-1" d="M156.088,113.126H159.2V117.2a7.913,7.913,0,0,1-.036.792h.036a3.184,3.184,0,0,1,2.826-1.477c1.873,0,3.331.864,3.331,3.476V126h-3.114v-5.437c0-.864-.343-1.225-1.026-1.225a1.871,1.871,0,0,0-1.854,1.368,3.588,3.588,0,0,0-.162,1.188V126h-3.115Z"/><path class="cls-1" d="M75.4,133.126h3.421l1.873,5.438c.288.828.647,2.125.647,2.125h.036s.36-1.3.648-2.125l1.872-5.437h3.422L88.359,146H85.208l-.4-5.8a19.091,19.091,0,0,1,0-2.16h-.036s-.433,1.35-.721,2.16l-1.35,3.728H80L78.654,140.2c-.288-.811-.72-2.16-.72-2.16H77.9a19.091,19.091,0,0,1,0,2.16l-.4,5.8H74.333Z"/><path class="cls-1" d="M94.332,136.511c2.737,0,4.285,1.909,4.285,4.483,0,.307-.072.973-.072.973H92.693a2.071,2.071,0,0,0,2.161,1.656,4.865,4.865,0,0,0,2.557-.936l1.152,2.178a6.26,6.26,0,0,1-3.961,1.351,4.808,4.808,0,0,1-5.1-4.861A4.616,4.616,0,0,1,94.332,136.511Zm1.152,3.674a1.263,1.263,0,0,0-1.225-1.333,1.52,1.52,0,0,0-1.494,1.333Z"/><path class="cls-1" d="M100.324,139.321H99.137V136.89h1.278v-2.665h3.024v2.665h1.944v2.431h-1.944v2.845c0,1.044,1.063,1.188,1.656,1.188a4.027,4.027,0,0,0,.414-.019v2.7a6.019,6.019,0,0,1-.846.054c-1.477,0-4.34-.4-4.34-3.511Z"/><path class="cls-1" d="M106.877,133.126h3.115V137.2a7.913,7.913,0,0,1-.036.792h.036a3.184,3.184,0,0,1,2.826-1.477c1.873,0,3.331.864,3.331,3.476V146h-3.114v-5.437c0-.864-.343-1.225-1.026-1.225a1.871,1.871,0,0,0-1.854,1.368,3.588,3.588,0,0,0-.162,1.188V146h-3.115Z"/><path class="cls-1" d="M122.431,136.511c2.935,0,5.275,1.963,5.275,4.88,0,2.9-2.341,4.825-5.258,4.825s-5.258-1.927-5.258-4.825A4.928,4.928,0,0,1,122.431,136.511Zm.018,7.112a2.1,2.1,0,0,0,2.106-2.232,2.114,2.114,0,1,0-4.213,0A2.1,2.1,0,0,0,122.448,143.623Z"/><path class="cls-1" d="M132.473,136.511c1.873,0,2.432.738,2.432.738h.035s-.018-.18-.018-.414v-3.709h3.115V146H135.12v-.612c0-.288.018-.522.018-.522H135.1a3.1,3.1,0,0,1-2.683,1.351c-2.521,0-4.177-1.98-4.177-4.861C128.242,138.42,130.007,136.511,132.473,136.511Zm.721,7.131c.937,0,1.818-.685,1.818-2.287,0-1.116-.594-2.215-1.818-2.215-.973,0-1.818.793-1.818,2.215C131.375,142.742,132.113,143.642,133.193,143.642Z"/><path class="cls-1" d="M140.5,142.759a3.9,3.9,0,0,0,2.358.937c.469,0,.918-.126.918-.432,0-.811-4.339-.9-4.339-3.926,0-1.746,1.675-2.827,3.817-2.827a4.854,4.854,0,0,1,3.259,1.063l-1.062,2.215a3.7,3.7,0,0,0-2.2-.756c-.469,0-.918.126-.918.45,0,.7,4.339.81,4.339,3.8,0,1.584-1.4,2.935-3.8,2.935a5.586,5.586,0,0,1-3.71-1.368Z"/></svg>