<svg id="Layer_1" data-name="Layer 1" xmlns="http://www.w3.org/2000/svg" viewBox="0 0 123 135"><defs><style>.cls-1{fill:#999;}.cls-2{fill:#fff;}</style></defs><title>CM-Creative</title><circle class="cls-1" cx="61.5" cy="61.5" r="60"/><path class="cls-2" d="M64.4,77.85a12.92,12.92,0,0,0-4.869,0c-2.083.412-3.266,1.655-3.346,3.389H67.748C67.667,79.5,66.484,78.262,64.4,77.85Z"/><path class="cls-2" d="M91.247,104.769l1.8-16.683a4.378,4.378,0,0,0-4.353-4.846H35.458A4.378,4.378,0,0,0,31.107,88.1L32.994,105a51.747,51.747,0,0,0,58.254-.229Z"/><path class="cls-2" d="M79.712,54.461c-1.73.018-3.4.027-5.08.027-1.646,0-3.3-.009-5-.026-1.776-.018-3.715-.337-4.631-2.566a40.826,40.826,0,0,1-1.8-5.305c-.336-1.3-.559-2.627-.774-3.914q-.073-.435-.147-.871h-.639q-.075.435-.147.87c-.216,1.287-.438,2.618-.774,3.915a40.815,40.815,0,0,1-1.8,5.305c-.916,2.229-2.855,2.548-4.631,2.566-1.709.017-3.358.026-5,.026-1.686,0-3.37-.009-5.11-.028-.075,0-.143-.009-.216-.011,2.616,12.068,10,16.339,17.621,16.342C72.328,70.795,77.475,64.077,79.712,54.461Z"/><path class="cls-2" d="M76.982,71.1l-.032.1-.083-.044L73.673,81.239H88.69a6.378,6.378,0,0,1,6.341,7.06l-1.6,14.887a52.107,52.107,0,0,0,10.5-10.8,29.9,29.9,0,0,0-.546-4.392c-.032-.155-.071-.3-.106-.455a9.365,9.365,0,0,0-.577-1.856c-.009-.023-.02-.045-.03-.069-.025-.056-.049-.113-.074-.169a10.017,10.017,0,0,0-7.232-5.93c-1.434-.364-2.84-.794-4.223-1.279q-2.756-.991-5.4-2.226a72.262,72.262,0,0,1-7.556-4.17C77.818,71.614,77.455,71.392,76.982,71.1Z"/><path class="cls-2" d="M30.806,103.427l-1.686-15.1a6.378,6.378,0,0,1,6.338-7.085h14.8L47.068,71.157l-.083.044-.032-.1c-.473.293-.836.515-1.2.741a72.286,72.286,0,0,1-7.556,4.17q-2.648,1.232-5.4,2.226c-1.383.485-2.79.915-4.224,1.279a10.017,10.017,0,0,0-7.232,5.93c-.026.056-.05.113-.074.169-.01.023-.02.045-.03.069a9.365,9.365,0,0,0-.577,1.856c-.036.151-.075.3-.106.455A29.9,29.9,0,0,0,20,92.414,52.108,52.108,0,0,0,30.806,103.427Z"/><path class="cls-2" d="M41.005,35.063a5.257,5.257,0,0,1,1.487-.22H48.05c3.017,0,5.87,0,7.509,0a6.929,6.929,0,0,1,4.962,1.7l.068.006h2.734l.068-.006a6.931,6.931,0,0,1,4.962-1.7h.027c1.611,0,4.465,0,7.481,0h5.56a5.249,5.249,0,0,1,1.546.236,27.406,27.406,0,0,0,.188-8.824c-.636-3.943-2.962-6.691-6.336-7.169a1.9,1.9,0,0,1-1.72-1.363A11.16,11.16,0,0,0,64.038,11.6a53,53,0,0,1-12.139.35c-1.742-.126-3.487-.218-5.23-.326l-.279.326,1.864,3.7c-.595.461-1.313.951-1.956,1.527-4.662,4.178-5.85,9.623-5.526,15.557C40.815,33.509,40.9,34.286,41.005,35.063Z"/><path class="cls-2" d="M84.609,49.293l.814-8.8a4.02,4.02,0,0,0-4-4.4h0c-4.547,0-10.429,0-13.042,0h-.015a5.516,5.516,0,0,0-4.205,1.448,1.172,1.172,0,0,1-.791.26h-2.81a1.188,1.188,0,0,1-.806-.26,5.508,5.508,0,0,0-4.2-1.448h-.022c-2.614,0-8.5,0-13.043,0h0a4.02,4.02,0,0,0-4,4.4l.816,8.811c.222,1.865,1.62,3.877,4.878,3.913,3.417.036,6.625.037,10.089,0,1.988-.02,2.966-.521,3.487-1.791a39.449,39.449,0,0,0,1.745-5.144c.322-1.243.54-2.547.751-3.808.1-.568.191-1.139.3-1.708l.038-.205h2.732l.038.205c.1.569.2,1.14.3,1.708.211,1.261.429,2.564.751,3.808a39.449,39.449,0,0,0,1.745,5.144c.521,1.27,1.5,1.771,3.487,1.791,3.466.035,6.674.036,10.089,0C82.988,53.176,84.386,51.164,84.609,49.293ZM57.364,42.338c-.385,2.153-.945,4.3-1.493,6.31a2.4,2.4,0,0,1-2.593,1.907c-.065,0-.131,0-.2,0-1.855-.076-3.746-.06-5.578-.046-.866.006-1.728.011-2.6.012a3.026,3.026,0,0,1-3.007-2.656c-.229-1.946-.435-3.936-.608-5.913a2.586,2.586,0,0,1,2.656-3.015c1.257-.044,2.533-.034,3.769-.022.468,0,.935.008,1.4.009l.246-.017,1.552,0c1.159,0,2.316-.007,3.474.007a3.167,3.167,0,0,1,2.527.952A2.939,2.939,0,0,1,57.364,42.338Zm25.264-.391c-.171,1.945-.375,3.935-.608,5.913a3.025,3.025,0,0,1-3.006,2.656c-.867,0-1.734,0-2.6-.012-1.829-.013-3.723-.029-5.578.046-.066,0-.133,0-.2,0a2.4,2.4,0,0,1-2.593-1.907c-.548-2-1.108-4.156-1.493-6.31A2.939,2.939,0,0,1,67,39.858a3.167,3.167,0,0,1,2.527-.952c1.156-.014,2.315-.011,3.474-.007l1.8.02c.466,0,.932,0,1.4-.009,1.232-.012,2.512-.021,3.769.022a2.586,2.586,0,0,1,2.656,3.015Z"/><path class="cls-1" d="M61.535,125.411a64.565,64.565,0,0,1-21.783-3.77L61.52,134.815l21.728-13.15A64.567,64.567,0,0,1,61.535,125.411Z"/></svg>