<svg id="Layer_1" data-name="Layer 1" xmlns="http://www.w3.org/2000/svg" viewBox="0 0 123 135"><defs><style>.cls-1{fill:#999;}.cls-2{fill:#fff;}</style></defs><title>CM-Creative</title><circle class="cls-1" cx="61.5" cy="61.5" r="60"/><path class="cls-2" d="M82.28,38.747c2.331.366,3.062,1.143,2.931,3.485a25.341,25.341,0,0,1-2.728,10.189c-.52,1.02-1.193,1.907-2.607,1.347-2.148,9.99-7.29,17.027-18.3,17.024-7.739,0-15.245-4.389-17.75-16.89-1.283.307-1.986-.48-2.473-1.478a24.288,24.288,0,0,1-2.665-10.435c-.025-2.309.566-2.914,2.839-3.221-.259-2.012-.644-4.018-.754-6.039-.324-5.935.864-11.379,5.526-15.557.642-.575,1.361-1.065,1.956-1.527l-1.864-3.7.279-.326c1.744.108,3.488.2,5.23.326a53.019,53.019,0,0,0,12.139-.35A11.16,11.16,0,0,1,75.1,17.723a1.9,1.9,0,0,0,1.72,1.363c3.374.477,5.7,3.226,6.336,7.169a30.484,30.484,0,0,1-.588,11.024C82.468,37.767,82.376,38.257,82.28,38.747Z"/><path class="cls-2" d="M61.957,113.859a51.689,51.689,0,0,0,41.971-21.473,29.961,29.961,0,0,0-.546-4.392c-.032-.155-.071-.3-.107-.455a9.333,9.333,0,0,0-.577-1.856c-.009-.023-.02-.045-.029-.069-.025-.056-.049-.113-.074-.169a10.018,10.018,0,0,0-7.232-5.93c-1.434-.364-2.84-.794-4.223-1.279q-2.756-.991-5.4-2.226a72.29,72.29,0,0,1-7.556-4.17c-.36-.227-.723-.448-1.2-.741l-.032.1-.083-.044L68.008,99.131l-.249-.017c-.475-1.312-.956-2.622-1.425-3.936-.568-1.594-1.084-3.208-1.705-4.78a2.062,2.062,0,0,1,.262-1.954,32.715,32.715,0,0,0,2.589-5.392c.863-2.665-.326-4.658-3.078-5.2a12.92,12.92,0,0,0-4.869,0c-2.752.544-3.942,2.537-3.078,5.2a32.7,32.7,0,0,0,2.589,5.392A2.062,2.062,0,0,1,59.3,90.4c-.621,1.573-1.137,3.187-1.705,4.78-.469,1.314-.949,2.624-1.425,3.936l-.249.017L47.068,71.157l-.083.044-.032-.1c-.473.293-.836.515-1.2.741a72.262,72.262,0,0,1-7.556,4.17q-2.648,1.232-5.4,2.226c-1.383.485-2.79.915-4.224,1.279a10.017,10.017,0,0,0-7.232,5.93c-.026.056-.05.113-.074.169-.01.023-.02.045-.03.069a9.365,9.365,0,0,0-.577,1.856c-.036.151-.075.3-.106.455A29.965,29.965,0,0,0,20,92.414,51.689,51.689,0,0,0,61.957,113.859Z"/><path class="cls-1" d="M61.992,125.411a64.565,64.565,0,0,1-21.783-3.77l21.767,13.174L83.7,121.665A64.567,64.567,0,0,1,61.992,125.411Z"/></svg>