<svg id="Layer_1" data-name="Layer 1" xmlns="http://www.w3.org/2000/svg" viewBox="0 0 123 135"><defs><style>.cls-1{fill:#999;}.cls-2{fill:#fff;}</style></defs><title>CM-Creative</title><circle class="cls-1" cx="61.516" cy="61.5" r="60"/><path class="cls-2" d="M66.708,11.5c1.216.69,1.29,1.836,1.166,3.029-.077.745.162,1.1.913,1.351C78.5,19.185,84.17,26.117,86.438,35.948a40.747,40.747,0,0,1,.62,6.245,1.275,1.275,0,0,0,.66,1.186,5.265,5.265,0,0,1,2.5,5.2,3.6,3.6,0,0,1-1.076,2.048A7.7,7.7,0,0,1,86.7,52.319c-4.33,1.781-8.607,3.77-13.073,5.126a42.731,42.731,0,0,1-34.6-3.9c-.6-.338-1.293-.514-1.921-.813a18.16,18.16,0,0,1-1.932-1.04,4.705,4.705,0,0,1-.106-8.141,1.861,1.861,0,0,0,.9-1.762c.357-11.353,5.286-19.866,15.648-24.947a15.29,15.29,0,0,1,2.615-.967c.692-.193,1.039-.5.913-1.245-.033-.194.022-.4,0-.6a2.411,2.411,0,0,1,1.18-2.529Zm-8.422,16q0,5.3,0,10.6c0,1.6.639,2.214,2.256,2.22.766,0,1.533.018,2.3-.005a1.753,1.753,0,0,0,1.882-1.879q.02-10.946,0-21.891a1.743,1.743,0,0,0-1.9-1.854c-.766-.021-1.533-.011-2.3-.008-1.618.007-2.241.62-2.243,2.226Q58.281,22.2,58.286,27.5Zm-6.351-7.187a22.171,22.171,0,0,0-6.206,4.969A1.2,1.2,0,0,0,45.5,26c-.016,2.027-.028,4.055,0,6.082a1.738,1.738,0,0,0,1.825,1.822c.9.028,1.795.025,2.692,0a1.781,1.781,0,0,0,1.91-1.948c.02-1.263,0-2.526,0-3.789C51.936,25.62,51.936,23.067,51.936,20.308Zm19.152.015c0,4.108-.017,7.994.012,11.879a1.706,1.706,0,0,0,1.739,1.7c.862.041,1.728.022,2.592.01,1.427-.02,2.082-.659,2.094-2.07q.024-2.841,0-5.683a1.391,1.391,0,0,0-.2-.834A21.688,21.688,0,0,0,71.088,20.323Z"/><path class="cls-2" d="M36.031,55.808c.637.283,1.254.5,1.821.816a46.413,46.413,0,0,0,23.8,6.049A56.514,56.514,0,0,0,85.033,56.61c.589-.284,1.21-.5,1.995-.827a12.567,12.567,0,0,1-.006,1.3,10.753,10.753,0,0,1-3.51,7.073,3.745,3.745,0,0,0-.763,1.143A57.574,57.574,0,0,1,74.24,78.524a21.431,21.431,0,0,1-5.706,4.643,13.991,13.991,0,0,1-14.453-.216c-4.176-2.421-7.1-6.1-9.606-10.11-1.53-2.451-2.833-5.043-4.264-7.557a6.06,6.06,0,0,0-1.054-1.411A10.508,10.508,0,0,1,36.031,55.808Z"/><path class="cls-2" d="M23.626,97.35a51.6,51.6,0,0,0,37.323,16.5c.546,0,1.093,0,1.64-.009.176,0,.354,0,.53-.009.241-.006.482-.022.722-.031a51.6,51.6,0,0,0,35.533-16.42c.067-.218.141-.431.2-.653.986-3.652-.446-6.637-3.934-8.024-5.466-2.174-10.987-4.208-16.488-6.292-.511-.194-1.049-.318-1.568-.473-2.614,7.947-7.871,12.574-16.256,12.572-8.366,0-13.614-4.531-15.927-12.607a152.875,152.875,0,0,0-18.9,7.238,5.815,5.815,0,0,0-3.3,6.293A16.992,16.992,0,0,0,23.626,97.35Z"/><path class="cls-1" d="M61.516,125.411a64.565,64.565,0,0,1-21.783-3.77L61.5,134.815l21.728-13.15A64.567,64.567,0,0,1,61.516,125.411Z"/></svg>