<svg id="Layer_1" data-name="Layer 1" xmlns="http://www.w3.org/2000/svg" viewBox="0 0 114 114"><defs><style>.cls-1{fill:#1e96d2;}</style></defs><title>CM-Creative</title><path class="cls-1" d="M23.18,42.027H19.272v-2.7H30.237v2.7H26.33V52.2H23.18Z"/><path class="cls-1" d="M34.988,46.42h.126v-.162c0-.774-.595-1.026-1.368-1.026a5.534,5.534,0,0,0-2.5.882l-1.081-2.2a7.012,7.012,0,0,1,3.89-1.207c2.61,0,4.177,1.423,4.177,3.781V52.2H35.384v-.559a4.9,4.9,0,0,1,.036-.576h-.036a2.884,2.884,0,0,1-2.628,1.351A2.966,2.966,0,0,1,29.6,49.427C29.6,46.726,33.548,46.42,34.988,46.42Zm-1.369,3.619A1.721,1.721,0,0,0,35.15,48.4v-.2h-.288c-.99,0-2.125.288-2.125,1.063C32.737,49.7,33.008,50.039,33.619,50.039Z"/><path class="cls-1" d="M39.937,42.927h2.989v1.566a4.9,4.9,0,0,1-.036.576h.036a3.217,3.217,0,0,1,2.952-2.3,2.094,2.094,0,0,1,.36.036v3.061a3.33,3.33,0,0,0-.63-.054,2.34,2.34,0,0,0-2.395,1.62,4.19,4.19,0,0,0-.162,1.261V52.2H39.937Z"/><path class="cls-1" d="M50.989,53.388c1.117,0,2.144-.414,2.144-1.782V51.3c0-.107.018-.342.018-.342h-.036a2.757,2.757,0,0,1-2.322.972c-2.791,0-4.178-2.286-4.178-4.663,0-2.358,1.351-4.556,4.159-4.556a3.516,3.516,0,0,1,2.521.9h.055a1.451,1.451,0,0,1-.019-.216v-.468h2.917v8.426c0,3.386-2.7,4.628-5.239,4.628a8.2,8.2,0,0,1-3.511-.828l.882-2.359A6.29,6.29,0,0,0,50.989,53.388ZM53.2,47.3c0-1.639-.864-2-1.8-2a1.637,1.637,0,0,0-1.657,1.855c0,1.152.54,2.178,1.783,2.178C52.34,49.336,53.2,48.922,53.2,47.3Z"/><path class="cls-1" d="M62.258,42.71c2.737,0,4.285,1.909,4.285,4.483,0,.307-.072.973-.072.973H60.619a2.071,2.071,0,0,0,2.161,1.656,4.865,4.865,0,0,0,2.557-.936l1.152,2.178a6.26,6.26,0,0,1-3.961,1.351,4.808,4.808,0,0,1-5.1-4.861A4.616,4.616,0,0,1,62.258,42.71Zm1.152,3.674a1.263,1.263,0,0,0-1.225-1.333,1.52,1.52,0,0,0-1.494,1.333Z"/><path class="cls-1" d="M68.25,45.52H67.063V43.089h1.278V40.424h3.024v2.665H73.31V45.52H71.365v2.845c0,1.044,1.063,1.188,1.656,1.188a4.027,4.027,0,0,0,.414-.019v2.7a6.019,6.019,0,0,1-.846.054c-1.477,0-4.34-.4-4.34-3.511Z"/><path class="cls-1" d="M78.961,42.71c2.737,0,4.285,1.909,4.285,4.483,0,.307-.072.973-.072.973H77.322a2.071,2.071,0,0,0,2.161,1.656,4.865,4.865,0,0,0,2.557-.936l1.152,2.178a6.26,6.26,0,0,1-3.961,1.351,4.808,4.808,0,0,1-5.1-4.861A4.616,4.616,0,0,1,78.961,42.71Zm1.152,3.674a1.263,1.263,0,0,0-1.225-1.333,1.52,1.52,0,0,0-1.494,1.333Z"/><path class="cls-1" d="M88.086,42.71c1.873,0,2.432.738,2.432.738h.035s-.018-.18-.018-.414V39.326H93.65V52.2H90.733v-.612c0-.288.018-.522.018-.522h-.036a3.1,3.1,0,0,1-2.683,1.351c-2.521,0-4.177-1.98-4.177-4.861C83.855,44.619,85.62,42.71,88.086,42.71Zm.721,7.131c.937,0,1.818-.685,1.818-2.287,0-1.116-.594-2.215-1.818-2.215-.973,0-1.818.793-1.818,2.215C86.988,48.941,87.727,49.841,88.807,49.841Z"/><path class="cls-1" d="M20.913,59.11a6.512,6.512,0,0,1,6.734,6.572,6.591,6.591,0,0,1-6.734,6.733,6.59,6.59,0,0,1-6.734-6.733A6.512,6.512,0,0,1,20.913,59.11Zm0,10.425a3.631,3.631,0,0,0,3.475-3.853,3.481,3.481,0,1,0-6.95,0A3.631,3.631,0,0,0,20.913,69.535Z"/><path class="cls-1" d="M28.849,62.927h3.115v5.438c0,.864.342,1.225.99,1.225,1.332,0,1.962-1.171,1.962-2.558v-4.1h3.115V72.2H35.042v-.811a4.9,4.9,0,0,1,.036-.576h-.036a3.213,3.213,0,0,1-2.9,1.6c-1.837,0-3.295-.864-3.295-3.475Z"/><path class="cls-1" d="M40.351,65.52H39.162V63.089h1.279V60.424h3.024v2.665H45.41V65.52H43.466v2.845c0,1.044,1.063,1.188,1.656,1.188a4.027,4.027,0,0,0,.414-.019v2.7a6.019,6.019,0,0,1-.846.054c-1.477,0-4.34-.4-4.34-3.511Z"/><path class="cls-1" d="M51.387,62.71a4.888,4.888,0,0,1,3.691,1.405L53.764,66.2a3.379,3.379,0,0,0-2.179-.9,2.133,2.133,0,0,0-2.215,2.215,2.24,2.24,0,0,0,2.322,2.3,4.527,4.527,0,0,0,2.539-1.116l1.135,2.179a5.58,5.58,0,0,1-3.979,1.53,4.862,4.862,0,1,1,0-9.705Z"/><path class="cls-1" d="M60.927,62.71c2.935,0,5.275,1.963,5.275,4.88,0,2.9-2.341,4.825-5.258,4.825s-5.258-1.927-5.258-4.825A4.928,4.928,0,0,1,60.927,62.71Zm.018,7.112a2.1,2.1,0,0,0,2.106-2.232,2.114,2.114,0,1,0-4.213,0A2.1,2.1,0,0,0,60.944,69.823Z"/><path class="cls-1" d="M67.368,62.927h2.989v.81a4.878,4.878,0,0,1-.036.576h.036a3.3,3.3,0,0,1,2.755-1.6,2.686,2.686,0,0,1,2.593,1.567h.035a3.584,3.584,0,0,1,2.972-1.567c1.692,0,3.007.919,3.007,3.476V72.2H78.6V66.708c0-.685-.126-1.171-.721-1.171-.99,0-1.512.721-1.71,1.747a5.164,5.164,0,0,0-.072,1.08V72.2H72.986V66.708c0-.685-.127-1.171-.721-1.171-.973,0-1.477.685-1.692,1.675a5.845,5.845,0,0,0-.09,1.152V72.2H67.368Z"/><path class="cls-1" d="M87.6,62.71c2.737,0,4.285,1.909,4.285,4.483,0,.307-.072.973-.072.973H85.963a2.071,2.071,0,0,0,2.161,1.656,4.865,4.865,0,0,0,2.557-.936l1.152,2.178a6.26,6.26,0,0,1-3.961,1.351,4.808,4.808,0,0,1-5.1-4.861A4.616,4.616,0,0,1,87.6,62.71Zm1.152,3.674a1.263,1.263,0,0,0-1.225-1.333,1.52,1.52,0,0,0-1.494,1.333Z"/><path class="cls-1" d="M93.738,68.958a3.9,3.9,0,0,0,2.358.937c.469,0,.919-.126.919-.432,0-.811-4.34-.9-4.34-3.926,0-1.746,1.675-2.827,3.817-2.827a4.854,4.854,0,0,1,3.259,1.063l-1.062,2.215a3.7,3.7,0,0,0-2.2-.756c-.469,0-.919.126-.919.45,0,.7,4.34.81,4.34,3.8,0,1.584-1.4,2.935-3.8,2.935a5.582,5.582,0,0,1-3.709-1.368Z"/></svg>