<svg id="Layer_1" data-name="Layer 1" xmlns="http://www.w3.org/2000/svg" viewBox="0 0 145 145"><defs><style>.cls-1{fill:#fff;}</style></defs><title>CM-Creative</title><path class="cls-1" d="M71.566,112.343c-1.333-.918-2.644-1.869-4.011-2.731a3.008,3.008,0,0,0-1.425-.328c-2.1-.091-2.853-.838-2.888-2.974-.019-1.191-.037-2.385.007-3.575.064-1.731.873-2.652,2.568-2.674q6.682-.087,13.367,0c1.7.022,2.507.943,2.568,2.674.045,1.294.047,2.592,0,3.885-.067,1.815-.89,2.652-2.725,2.622a2.986,2.986,0,0,0-2.228,1.021,20.826,20.826,0,0,1-3.364,2.08Z"/><path class="cls-1" d="M32.647,71.556a4.133,4.133,0,0,1,4.24-2.188c2.534.109,5.077.008,7.616.034,2.151.022,3.447,1.248,3.415,3.164-.03,1.815-1.325,2.986-3.421,3.011-2.539.031-5.082-.081-7.616.037a4.141,4.141,0,0,1-4.234-2.19Z"/><path class="cls-1" d="M112.353,73.424a4.133,4.133,0,0,1-4.24,2.188c-2.534-.109-5.077-.008-7.616-.034-2.151-.022-3.447-1.248-3.415-3.164.03-1.815,1.325-2.986,3.421-3.011,2.539-.031,5.082.081,7.616-.037a4.141,4.141,0,0,1,4.234,2.19Z"/><path class="cls-1" d="M72.5,97.049c-2.127,0-4.254.021-6.381-.007-1.84-.024-2.724-.813-2.731-2.628a10.438,10.438,0,0,0-1.8-5.686c-1.391-2.185-2.828-4.346-4.107-6.6-4.582-8.06-3.431-16.993,2.886-22.9A17.8,17.8,0,0,1,90.3,72.7c-.093,4.723-2.106,8.686-4.584,12.506a29.63,29.63,0,0,0-2.484,3.938,21.131,21.131,0,0,0-1.548,5.115c-.319,1.98-.93,2.764-2.96,2.781C76.651,97.062,74.575,97.049,72.5,97.049Zm5.279-35.161c-4.066-2.7-10.438-1.535-14.057,2.418-3.979,4.346-3.391,10.978-1.031,13.557C63.15,68.261,68.353,63.108,77.779,61.888Z"/><path class="cls-1" d="M56.306,53.225c-.566.762-1.014,1.943-1.825,2.3a3.6,3.6,0,0,1-3.119-.1,96.435,96.435,0,0,1-7.388-7.285,2.87,2.87,0,0,1,.381-3.822,2.84,2.84,0,0,1,3.814-.326c2.5,2.313,4.884,4.76,7.256,7.208A7.535,7.535,0,0,1,56.306,53.225Z"/><path class="cls-1" d="M91.708,56.291c-.748-.575-1.92-1.043-2.263-1.859a3.615,3.615,0,0,1,.144-3.117,94.9,94.9,0,0,1,7.171-7.284,2.87,2.87,0,0,1,3.942.345,2.837,2.837,0,0,1,.266,3.818c-2.318,2.5-4.764,4.879-7.217,7.248A7.317,7.317,0,0,1,91.708,56.291Z"/><path class="cls-1" d="M56.431,91.813a13.811,13.811,0,0,1-1.46,2.53c-1.991,2.1-4.048,4.147-6.135,6.155a3.086,3.086,0,0,1-4.45.2,3.044,3.044,0,0,1,.008-4.44c2.1-2.211,4.281-4.352,6.483-6.466a2.648,2.648,0,0,1,3.42-.463A12.378,12.378,0,0,1,56.431,91.813Z"/><path class="cls-1" d="M88.7,91.743c.571-.758,1.026-1.936,1.838-2.289a3.6,3.6,0,0,1,3.118.115,96.5,96.5,0,0,1,7.383,7.29,2.871,2.871,0,0,1-.4,3.82,2.841,2.841,0,0,1-3.816.3c-2.5-2.315-4.88-4.763-7.249-7.214A7.481,7.481,0,0,1,88.7,91.743Z"/><path class="cls-1" d="M75.59,40.447c0,1.45.042,2.9-.009,4.35a3.077,3.077,0,1,1-6.154.012c-.065-3-.056-6.008,0-9.012a3.076,3.076,0,1,1,6.152-.012C75.64,37.337,75.589,38.893,75.59,40.447Z"/><path class="cls-1" d="M72.5,144.5a72,72,0,1,1,72-72A72.082,72.082,0,0,1,72.5,144.5Zm0-138.59A66.59,66.59,0,1,0,139.09,72.5,66.665,66.665,0,0,0,72.5,5.91Z"/></svg>