<svg id="Layer_1" data-name="Layer 1" xmlns="http://www.w3.org/2000/svg" viewBox="0 0 145 145"><defs><style>.cls-1{fill:#fff;}</style></defs><title>CM-Creative</title><path class="cls-1" d="M101.092,50.557c2.6,2.6,5.12,5.122,7.788,7.792.91-3.327,1.773-6.493,2.638-9.658l.084.009v54.233h-3.1c-6.246-.006-12.491-.026-18.737,0-.844,0-1-.271-1-1.05q.034-19.6,0-39.188a1.821,1.821,0,0,1,.655-1.511c3.591-3.244,7.152-6.523,10.724-9.79.268-.243.541-.479.945-.839"/><path class="cls-1" d="M33.043,102.916V97.97c0-7.058.007-14.114-.013-21.17a1.586,1.586,0,0,1,.625-1.344q7.973-6.818,15.906-13.684a.846.846,0,0,1,1.228-.107c1.488,1,3.009,1.949,4.538,2.883a1.086,1.086,0,0,1,.6,1.062c-.017,6.416-.006,12.834-.006,19.251,0,5.723-.015,11.446.009,17.17,0,.689-.2.9-.9.9-6.581-.022-13.161-.015-19.742-.015H33.043"/><path class="cls-1" d="M60.966,68.159c1.161.732,2.22,1.393,3.276,2.063,1.112.706,2.209,1.434,3.329,2.127a8.377,8.377,0,0,0,10.677-.955c1.6-1.44,3.186-2.9,4.78-4.351.2-.182.416-.348.762-.637v4.029q-.006,15.76.009,31.52c0,.786-.238.975-.99.974q-10.551-.034-21.1,0c-.646,0-.8-.2-.8-.814q.025-16.594.013-33.188c0-.212.026-.425.049-.771"/><path class="cls-1" d="M96.6,39.949,92.9,36.5c.034-.088.066-.178.1-.266,6.01-1.593,12.019-3.186,18.2-4.823-1.662,6.128-3.269,12.055-4.935,18.2l-5.017-5.115c-.311.26-.526.427-.728.61Q87.833,56.676,75.157,68.252c-1.911,1.745-3.057,1.855-5.251.462Q60.116,62.5,50.338,56.257a.855.855,0,0,0-1.23.107q-5.221,4.552-10.471,9.071a3.281,3.281,0,0,1-4.9-.283,3.091,3.091,0,0,1,.082-3.926,6.53,6.53,0,0,1,.721-.7q6.156-5.333,12.317-10.66a3.481,3.481,0,0,1,4.806-.324Q61.475,55.8,71.3,62.052a.889.889,0,0,0,1.294-.11q11.7-10.713,23.434-21.393c.18-.165.341-.35.58-.6"/><path class="cls-1" d="M72.5,144.5a72,72,0,1,1,72-72A72.082,72.082,0,0,1,72.5,144.5Zm0-138.59A66.59,66.59,0,1,0,139.09,72.5,66.665,66.665,0,0,0,72.5,5.91Z"/></svg>