<svg id="Layer_1" data-name="Layer 1" xmlns="http://www.w3.org/2000/svg" viewBox="0 0 139 139"><defs><style>.cls-1{fill:#1e96d2;}</style></defs><title>CM-Creative</title><path class="cls-1" d="M24.9,44.126h3.15V57H24.9Z"/><path class="cls-1" d="M30.267,47.728h2.989v.81a4.878,4.878,0,0,1-.036.576h.036a3.272,3.272,0,0,1,2.952-1.6c1.873,0,3.331.864,3.331,3.476V57H36.425V51.563c0-.864-.343-1.225-1.026-1.225a1.825,1.825,0,0,0-1.837,1.332,3.728,3.728,0,0,0-.18,1.225V57H30.267Z"/><path class="cls-1" d="M41.265,47.728h2.989v.81a4.878,4.878,0,0,1-.036.576h.036a3.272,3.272,0,0,1,2.952-1.6c1.873,0,3.331.864,3.331,3.476V57H47.423V51.563c0-.864-.343-1.225-1.026-1.225A1.825,1.825,0,0,0,44.56,51.67a3.728,3.728,0,0,0-.18,1.225V57H41.265Z"/><path class="cls-1" d="M56.818,47.511c2.935,0,5.275,1.963,5.275,4.88,0,2.9-2.341,4.825-5.258,4.825s-5.258-1.927-5.258-4.825A4.928,4.928,0,0,1,56.818,47.511Zm.018,7.112a2.1,2.1,0,0,0,2.106-2.232,2.114,2.114,0,1,0-4.213,0A2.1,2.1,0,0,0,56.836,54.623Z"/><path class="cls-1" d="M62.071,47.728h3.277l1.44,4.934a15.881,15.881,0,0,1,.342,1.6h.036s.162-.991.342-1.6l1.423-4.934h3.295L69.075,57h-3.8Z"/><path class="cls-1" d="M77.607,51.221h.126v-.162c0-.774-.595-1.026-1.368-1.026a5.534,5.534,0,0,0-2.5.882l-1.081-2.2a7.012,7.012,0,0,1,3.89-1.207c2.61,0,4.177,1.423,4.177,3.781V57H78v-.559a4.9,4.9,0,0,1,.036-.576H78a2.884,2.884,0,0,1-2.628,1.351,2.966,2.966,0,0,1-3.151-2.988C72.224,51.527,76.167,51.221,77.607,51.221ZM76.238,54.84A1.721,1.721,0,0,0,77.77,53.2V53h-.288c-.99,0-2.125.288-2.125,1.063C75.356,54.5,75.627,54.84,76.238,54.84Z"/><path class="cls-1" d="M83.023,50.321H81.836V47.89h1.278V45.225h3.024V47.89h1.944v2.431H86.139v2.845c0,1.044,1.063,1.188,1.656,1.188a4.027,4.027,0,0,0,.414-.019v2.7a6.019,6.019,0,0,1-.846.054c-1.477,0-4.34-.4-4.34-3.511Z"/><path class="cls-1" d="M89.576,47.728h3.115V57H89.576Zm.036-3.6h3.043v2.431H89.612Z"/><path class="cls-1" d="M99.1,47.511c2.935,0,5.275,1.963,5.275,4.88,0,2.9-2.341,4.825-5.258,4.825s-5.258-1.927-5.258-4.825A4.928,4.928,0,0,1,99.1,47.511Zm.018,7.112a2.1,2.1,0,0,0,2.106-2.232,2.114,2.114,0,1,0-4.213,0A2.1,2.1,0,0,0,99.117,54.623Z"/><path class="cls-1" d="M105.541,47.728h2.989v.81a4.878,4.878,0,0,1-.036.576h.036a3.272,3.272,0,0,1,2.952-1.6c1.873,0,3.331.864,3.331,3.476V57H111.7V51.563c0-.864-.343-1.225-1.026-1.225a1.825,1.825,0,0,0-1.837,1.332,3.728,3.728,0,0,0-.18,1.225V57h-3.115Z"/><path class="cls-1" d="M59.4,71.221h.126v-.162c0-.774-.595-1.026-1.368-1.026a5.534,5.534,0,0,0-2.5.882l-1.081-2.2a7.012,7.012,0,0,1,3.89-1.207c2.61,0,4.177,1.423,4.177,3.781V77H59.8v-.559a4.9,4.9,0,0,1,.036-.576H59.8a2.884,2.884,0,0,1-2.628,1.351,2.966,2.966,0,0,1-3.151-2.988C54.017,71.527,57.96,71.221,59.4,71.221ZM58.031,74.84A1.721,1.721,0,0,0,59.563,73.2V73h-.288c-.99,0-2.125.288-2.125,1.063C57.149,74.5,57.42,74.84,58.031,74.84Z"/><path class="cls-1" d="M64.349,67.728h2.989v.81a4.878,4.878,0,0,1-.036.576h.036a3.272,3.272,0,0,1,2.952-1.6c1.873,0,3.331.864,3.331,3.476V77H70.507V71.563c0-.864-.343-1.225-1.026-1.225a1.825,1.825,0,0,0-1.837,1.332,3.728,3.728,0,0,0-.18,1.225V77H64.349Z"/><path class="cls-1" d="M78.947,67.511c1.873,0,2.432.738,2.432.738h.035s-.018-.18-.018-.414V64.126h3.115V77H81.595v-.612c0-.288.018-.522.018-.522h-.036a3.1,3.1,0,0,1-2.683,1.351c-2.521,0-4.177-1.98-4.177-4.861C74.717,69.42,76.481,67.511,78.947,67.511Zm.721,7.131c.937,0,1.818-.685,1.818-2.287,0-1.116-.594-2.215-1.818-2.215-.973,0-1.818.793-1.818,2.215C77.85,73.742,78.588,74.642,79.668,74.642Z"/><path class="cls-1" d="M35.7,83.91a6.709,6.709,0,0,1,4.826,1.818l-1.459,2.377a5.4,5.4,0,0,0-3.223-1.314,3.479,3.479,0,0,0-3.638,3.673,3.662,3.662,0,0,0,3.638,3.871,5.279,5.279,0,0,0,3.421-1.584l1.62,2.3a7.064,7.064,0,0,1-5.186,2.16,6.457,6.457,0,0,1-6.752-6.68A6.549,6.549,0,0,1,35.7,83.91Z"/><path class="cls-1" d="M41.984,87.728h2.989v1.566a4.9,4.9,0,0,1-.036.576h.036a3.217,3.217,0,0,1,2.952-2.3,2.094,2.094,0,0,1,.36.036v3.061a3.33,3.33,0,0,0-.63-.054,2.34,2.34,0,0,0-2.395,1.62A4.19,4.19,0,0,0,45.1,93.49V97H41.984Z"/><path class="cls-1" d="M53.434,87.511c2.737,0,4.285,1.909,4.285,4.483,0,.307-.072.973-.072.973H51.795a2.071,2.071,0,0,0,2.161,1.656,4.865,4.865,0,0,0,2.557-.936l1.152,2.178A6.26,6.26,0,0,1,53.7,97.216a4.808,4.808,0,0,1-5.1-4.861A4.616,4.616,0,0,1,53.434,87.511Zm1.152,3.674a1.263,1.263,0,0,0-1.225-1.333,1.52,1.52,0,0,0-1.494,1.333Z"/><path class="cls-1" d="M63.64,91.221h.126v-.162c0-.774-.595-1.026-1.368-1.026a5.534,5.534,0,0,0-2.5.882l-1.08-2.2A7.006,7.006,0,0,1,62.7,87.511c2.61,0,4.178,1.423,4.178,3.781V97H64.035v-.559a4.9,4.9,0,0,1,.036-.576h-.036a2.885,2.885,0,0,1-2.629,1.351,2.965,2.965,0,0,1-3.15-2.988C58.256,91.527,62.2,91.221,63.64,91.221ZM62.272,94.84A1.721,1.721,0,0,0,63.8,93.2V93h-.288c-.99,0-2.125.288-2.125,1.063C61.389,94.5,61.659,94.84,62.272,94.84Z"/><path class="cls-1" d="M69.056,90.321H67.867V87.89h1.279V85.225h3.024V87.89h1.944v2.431H72.171v2.845c0,1.044,1.063,1.188,1.656,1.188a4.027,4.027,0,0,0,.414-.019v2.7a6.019,6.019,0,0,1-.846.054c-1.477,0-4.34-.4-4.34-3.511Z"/><path class="cls-1" d="M75.607,87.728h3.115V97H75.607Zm.036-3.6h3.043v2.431H75.644Z"/><path class="cls-1" d="M79.388,87.728h3.277l1.44,4.934a15.881,15.881,0,0,1,.342,1.6h.036s.162-.991.342-1.6l1.423-4.934h3.295L86.392,97h-3.8Z"/><path class="cls-1" d="M90.241,87.728h3.115V97H90.241Zm.036-3.6H93.32v2.431H90.277Z"/><path class="cls-1" d="M95.678,90.321H94.49V87.89h1.278V85.225h3.024V87.89h1.944v2.431H98.793v2.845c0,1.044,1.063,1.188,1.656,1.188a4.027,4.027,0,0,0,.414-.019v2.7a6.019,6.019,0,0,1-.846.054c-1.477,0-4.34-.4-4.34-3.511Z"/><path class="cls-1" d="M102.086,97.847a2.068,2.068,0,0,0,.954.342,1.482,1.482,0,0,0,1.494-.937l.18-.432-3.942-9.093H104.3l1.369,4.267c.161.5.342,1.44.342,1.44h.036s.18-.882.306-1.386l1.171-4.321h3.4l-3.8,10.263a4,4,0,0,1-3.871,2.791,4.178,4.178,0,0,1-2.161-.648Z"/></svg>