<svg xmlns="http://www.w3.org/2000/svg" viewBox="0 0 335.321 669.795"><defs><style>.cls-1{isolation:isolate;}.cls-2{fill:#575756;opacity:0.2;mix-blend-mode:multiply;}</style></defs><title>CM-Creative</title><g class="cls-1"><g id="Layer_1" data-name="Layer 1"><path class="cls-2" d="M285.553,410.37,229.294,537.4a3.6,3.6,0,0,1-4.834,1.813,39.653,39.653,0,0,0-35.3.51,3.591,3.591,0,0,1-4.932-1.8L129,410.355a4.01,4.01,0,0,1,1.319-4.907c9.27-6.317,22.494-10.272,37.183-10.272,14.949,0,28.379,4.1,37.672,10.611a3.627,3.627,0,0,0,4.24,0c9.292-6.513,22.722-10.611,37.673-10.611,14.676,0,27.89,3.949,37.159,10.259a4.005,4.005,0,0,1,1.306,4.935M139.742,267.722c.04-23.928,21.9-38.238,42.765-28.53,3.216,1.5,5.629,3.725,8.14,6,7.1,6.68,8.725,15.187,8.711,24.5l-.089,49.888c-.057,24.909-22.993,39.576-44,28.294-11.2-6.013-15.642-15.92-15.616-28.406Zm177.966-77.266q-110.141.408-220.287.018c-7.021-.024-9.172,1.505-9.161,8.96.231,183.108.188,8.059.124,191.165a30.946,30.946,0,0,0,2.911,13.337c16.176,35.33,32.141,70.757,48.182,106.149,13.749,30.331,27.1,60.85,41.415,90.914,9.046,19,33.381,22.721,48.933,6.68,1.575-2.812,4.477-7.217,6.632-11.965q43.385-95.622,86.63-191.307a33.565,33.565,0,0,0,3.112-14.27c-.084-183.108-.115-8.06.11-191.167.008-7.027-1.743-8.542-8.6-8.514M149.149,70.929c11.929-11.54,29.7-11.2,41.464.8,11.414,11.633,11.474,30.416.131,41.745-11.531,11.519-31.526,11.461-42.677-.123-11.532-11.98-11.054-30.686,1.082-42.421M95.8,167.87q111.43-.352,222.862-.012c6.122.018,7.725-1.658,7.68-7.713-.276-36.833-.053-44.568-.175-81.4-.054-16.488-5.48-30.914-17.8-42.618-11.016-11.858-25.1-17.57-41.242-17.664-39.927-.228-79.86-.37-119.786.028-33.307.333-58.65,25.9-58.916,59.149-.3,37.14.039,45.188-.2,82.33-.037,5.823,1.193,7.922,7.57,7.9"/></g></g></svg>