<svg xmlns="http://www.w3.org/2000/svg" viewBox="0 0 145 145"><defs><style>.cls-1{isolation:isolate;}.cls-2,.cls-3{fill:#fff;}.cls-2{mix-blend-mode:multiply;}</style></defs><title>CM-Creative</title><g class="cls-1"><g id="Layer_1" data-name="Layer 1"><path class="cls-2" d="M109.766,71.586a3.968,3.968,0,0,1-.135-1.259,33.206,33.206,0,0,0-2.744-10.491,31.83,31.83,0,0,0-4.858-7.788A33.5,33.5,0,0,0,82.742,40.584a29.983,29.983,0,0,0-3.988-.534c-.909-.061-1.819-.128-2.725-.116a34.209,34.209,0,0,0-12.051,2.258,33.1,33.1,0,0,0-3.049,1.337c-.141.07-.268.125-.259.335a39.326,39.326,0,0,1-.24,4.142c-.034.514-.081,1.027-.13,1.538a.354.354,0,0,0,.122.309c.826.819,1.655,1.633,2.468,2.464.2.2.338.094.508-.007A24.686,24.686,0,0,1,77.73,48.856a24.755,24.755,0,0,1,22.706,20.086,26.389,26.389,0,0,1,.405,4.85,23.763,23.763,0,0,1-2.69,10.842,23.78,23.78,0,0,1-3.138,4.706,24.679,24.679,0,0,1-23.75,8.236A24.577,24.577,0,0,1,51.546,76.359a26.011,26.011,0,0,1-.116-4.578,23.876,23.876,0,0,1,2.764-9.79c.229-.435.473-.864.74-1.277a.286.286,0,0,0-.05-.432q-1.366-1.346-2.719-2.71a.506.506,0,0,0-.457-.148c-.839.082-1.676.194-2.518.227a17.634,17.634,0,0,1-2.34.081.584.584,0,0,0-.666.372,32.645,32.645,0,0,0-2.819,7.6,31.1,31.1,0,0,0-.688,4.1,32.5,32.5,0,0,0-.214,4.262,36.148,36.148,0,0,0,.822,6.708,32.287,32.287,0,0,0,2.15,6.431,32.613,32.613,0,0,0,3.792,6.346,33.032,33.032,0,0,0,9.476,8.534,33.776,33.776,0,0,0,5.831,2.8,32.488,32.488,0,0,0,7.8,1.826c.748.079,1.5.145,2.249.217h3.456c.1-.125.241-.069.364-.076a29.812,29.812,0,0,0,3.421-.39,32.671,32.671,0,0,0,4.556-1.106,34.872,34.872,0,0,0,5.994-2.578,34.37,34.37,0,0,0,7.611-5.715,31.581,31.581,0,0,0,2.335-2.612,33.409,33.409,0,0,0,6.494-12.992,22.956,22.956,0,0,0,.546-2.622,22.245,22.245,0,0,0,.333-3.149.119.119,0,0,1,.076-.122V71.586"/><path class="cls-2" d="M61.084,66.5a13.53,13.53,0,0,0-1.18,3.509,16.155,16.155,0,0,0,5.477,15.974,15.457,15.457,0,0,0,8.894,3.828,16.223,16.223,0,0,0,13.878-5.074,15.708,15.708,0,0,0,4.421-9.577A16.431,16.431,0,0,0,79.652,57.318a16.241,16.241,0,0,0-10.243,1.024c-.27.117-.271.185-.073.381q2.966,2.936,5.914,5.889a.652.652,0,0,0,.528.174,8.469,8.469,0,0,1,8.116,4.823A8.688,8.688,0,1,1,67.432,73.04a.5.5,0,0,0-.145-.42Q64.241,69.6,61.2,66.571a.625.625,0,0,0-.117-.072"/><path class="cls-2" d="M46.37,39.195c-.611-.616-1.157-1.17-1.707-1.72-.238-.24-.472-.49-.733-.7a2.29,2.29,0,0,0-3.047.077q-.791.73-1.522,1.524a2.268,2.268,0,0,0,.053,3.179c.636.653,1.3,1.284,2.013,1.991-.435.042-.775.082-1.117.108-1.407.109-2.815.221-4.224.322a.817.817,0,0,0-.8.52.766.766,0,0,0,.242.88q4.484,4.462,8.974,8.921a4.026,4.026,0,0,0,3.355,1.084c1.55-.133,3.1-.24,4.652-.372a.791.791,0,0,1,.686.266q8.544,8.522,17.094,17.037a2.583,2.583,0,0,0,1.974.863c.548-.013,1.1.059,1.646.071a1.927,1.927,0,0,0,2.082-2.1c-.029-.7-.092-1.4-.166-2.1a2.066,2.066,0,0,0-.692-1.237Q69.2,61.9,63.278,56q-2.567-2.556-5.14-5.109a.748.748,0,0,1-.248-.68c.16-1.842.294-3.686.428-5.531a4.012,4.012,0,0,0-1.3-3.264q-4.3-4.259-8.583-8.537c-.093-.093-.185-.185-.285-.269a.782.782,0,0,0-1.3.542q-.157,2.024-.315,4.05c-.05.63-.105,1.261-.166,1.994"/><path class="cls-3" d="M72.5,144.5a72,72,0,1,1,72-72A72.082,72.082,0,0,1,72.5,144.5Zm0-138.59A66.59,66.59,0,1,0,139.09,72.5,66.665,66.665,0,0,0,72.5,5.91Z"/></g></g></svg>