<svg id="Layer_1" data-name="Layer 1" xmlns="http://www.w3.org/2000/svg" viewBox="0 0 145 145"><defs><style>.cls-1{fill:#fff;}</style></defs><title>CM-Creative</title><path class="cls-1" d="M82.693,99.479l-4.061,4.747-4.788-3.584c-1.178.685-2.368,1.314-3.476,2.064a1.463,1.463,0,0,0-.439,1.162,33.737,33.737,0,0,0,.577,3.735c.152.721.052,1.148-.713,1.376-1.455.434-2.882.969-4.348,1.357a1.256,1.256,0,0,1-1.08-.469c-.69-1.153-1.208-2.41-1.915-3.551a2.113,2.113,0,0,0-1.283-.687,4.373,4.373,0,0,0-1.285.148c-2.569.272-2.569.27-3.265,2.71-.851,2.986-.851,2.986-3.863,2.6-3.228-.411-3.228-.411-3.272-3.7-.033-2.468-.033-2.468-2.281-3.349-2.178-.854-2.175-.852-3.736.841-.707.767-1.426,1.524-2.145,2.28a1.8,1.8,0,0,1-.4.184c-1.394-.933-2.857-1.933-4.343-2.9-.617-.4-.574-.812-.28-1.413.685-1.4,1.29-2.84,1.93-4.268-.955-1.016-1.844-2.026-2.816-2.95a1.289,1.289,0,0,0-1.1-.162c-1.273.434-2.527.934-3.761,1.469a.937.937,0,0,1-1.388-.444c-.874-1.5-1.784-2.976-2.733-4.551,1.2-1.007,2.293-1.989,3.456-2.882.749-.575,1.147-1.144.557-2.041a1.677,1.677,0,0,1-.136-.365c-1.051-2.959-1.051-2.959-4.21-3.151-2.516-.153-2.516-.153-2.718-2.725-.286-3.635-.286-3.635,3.2-4.537a5.615,5.615,0,0,0,1.374-.378,1.921,1.921,0,0,0,.809-.947,8.423,8.423,0,0,0,.181-1.547c.336-2.3.341-2.3-1.747-3.5-2.988-1.717-2.992-1.719-1.708-4.958.333-.84.7-1.665,1.083-2.553,1.591.321,3.082.581,4.549.935a1.3,1.3,0,0,0,1.673-.754c.562-1.022,1.26-1.968,1.919-2.976l-3.05-4.523,4.064-4.708c1.484,1.119,2.664,1.934,3.755,2.854.768.648,1.427.9,2.215.086a3.567,3.567,0,0,1,.765-.493c2.111-1.265,2.111-1.265,1.784-3.648-.018-.129-.036-.258-.058-.387-.49-2.909-.49-2.909,2.273-3.837,3.159-1.061,3.159-1.061,4.684,1.907,1.125,2.188,1.125,2.188,3.533,1.976,2.308-.2,2.305-.2,2.984-2.378.3-.953.607-1.9.916-2.853a3.084,3.084,0,0,1,.258-.41l6.087.82c0,1.506,0,2.847,0,4.188,0,.348-.109.767.044,1.032.85,1.474,2.643,1.192,3.892,1.966.208.129.851-.186,1.125-.463,1.1-1.108,2.126-2.282,3.3-3.56l5.215,3.427-2.341,5.248c.938,1,1.85,2.042,2.847,2.991a1.32,1.32,0,0,0,1.115.111c1.271-.441,2.493-1.027,3.774-1.432a1.368,1.368,0,0,1,1.22.382c.992,1.468,1.876,3.009,2.836,4.588-1.234,1.045-2.328,2.032-3.489,2.932-.716.555-1.073,1.1-.532,1.956a1.361,1.361,0,0,1,.228.606c.146,2.458,1.653,2.948,3.821,2.971,2.8.03,2.8.166,3.046,3.035.285,3.33.285,3.33-2.92,4.109-2.335.568-2.335.568-2.653,2.893-.333,2.43-.333,2.43,1.761,3.618,2.961,1.68,2.961,1.68,1.713,4.843-1.044,2.646-1.044,2.646-3.826,2.109-2.831-.546-2.755-.49-4.473,1.821-.838,1.128-.931,1.931.011,3.008A28.8,28.8,0,0,1,82.693,99.479ZM57.247,87.845a10.47,10.47,0,1,0-.075-20.939,10.47,10.47,0,1,0,.075,20.939Z"/><path class="cls-1" d="M92.832,46.946c.989-.73,1.936-1.414,2.866-2.119.527-.4,1-.476,1.466.084a4.21,4.21,0,0,0,.489.43c2.149,1.882,2.161,1.91,4.8.722a1.86,1.86,0,0,0,.77-1.182c.732-3.09.713-3.052,3.906-3.025.976.008,1.449.339,1.539,1.278a1.825,1.825,0,0,1,.049.255c-.147,2.536,1.724,3.048,3.584,3.547a.989.989,0,0,0,.689-.156,6.387,6.387,0,0,0,.787-.681c2.159-1.919,2.16-1.921,4.428-.118.4.322.795.662,1.236,1.032a26.018,26.018,0,0,0-1.236,2.909,2.527,2.527,0,0,0,.208,1.59,3.137,3.137,0,0,0,4.279,1.894c1.062-.341,1.526.22,1.871,1.178,1.064,2.951,1.117,2.982-1.609,4.446a1.63,1.63,0,0,0-1.046,1.939,3.634,3.634,0,0,1-.022,1.3,1.145,1.145,0,0,0,.751,1.45,3.276,3.276,0,0,1,.676.392c.674.5,1.918,1.049,1.89,1.518a13.743,13.743,0,0,1-1.123,3.705c-.053.146-.427.223-.66.245a5.553,5.553,0,0,1-.91-.054c-2.847-.207-2.857-.214-4.364,2.226a1.355,1.355,0,0,0-.1.93,10.985,10.985,0,0,0,.5,1.2c.26.711.906,1.815.659,2.083a18.7,18.7,0,0,1-3.178,2.44c-.113.079-.413-.032-.584-.13a2.029,2.029,0,0,1-.593-.505c-1.315-1.719-2.909-2.1-4.776-.964a2.191,2.191,0,0,0-.941,1.017c-.324.983-.487,2.018-.755,3.207-1.285,0-2.566.038-3.841-.031-.271-.015-.616-.374-.756-.658a3.687,3.687,0,0,1-.285-1.263c-.177-1.875-1.43-2.45-3.057-2.9-1.086-.3-1.512.28-2.1.813-1.83,1.653-1.836,1.667-3.843.271-.567-.394-1.069-.882-1.634-1.354a10.006,10.006,0,0,1,.593-1.293,3.23,3.23,0,0,0-.439-4.471,1.886,1.886,0,0,0-1.821-.8c-3.16.409-3.134.373-4-2.695-.263-.93-.229-1.6.775-1.962.121-.044.219-.156.341-.188,2.387-.624,2.21-2.535,2.088-4.334-.025-.373-.562-.8-.962-1.045-2.783-1.674-2.752-1.645-1.635-4.694.336-.918.816-1.238,1.722-1.036.084.019.182-.009.259.022,2.3.919,3.386-.6,4.374-2.228a1.379,1.379,0,0,0,.022-1.05C93.8,49.121,93.344,48.138,92.832,46.946ZM116.617,61.43a10.474,10.474,0,1,0-10.39,10.512A10.448,10.448,0,0,0,116.617,61.43Z"/><path class="cls-1" d="M49.159,77.251a8.106,8.106,0,0,1,8.064-7.88,8.006,8.006,0,1,1-8.064,7.88Zm8.071-5.476a5.6,5.6,0,0,0-.109,11.209,5.6,5.6,0,0,0,.109-11.209Z"/><path class="cls-1" d="M106.3,53.475a8.006,8.006,0,1,1-8.139,7.789A8.042,8.042,0,0,1,106.3,53.475Zm-5.743,7.918a5.615,5.615,0,0,0,5.584,5.691,5.725,5.725,0,0,0,5.653-5.659,5.644,5.644,0,0,0-5.616-5.537A5.586,5.586,0,0,0,100.553,61.393Z"/><path class="cls-1" d="M72.5,144.5a72,72,0,1,1,72-72A72.082,72.082,0,0,1,72.5,144.5Zm0-138.59A66.59,66.59,0,1,0,139.09,72.5,66.665,66.665,0,0,0,72.5,5.91Z"/></svg>