<svg xmlns="http://www.w3.org/2000/svg" viewBox="0 0 714.651 381.959"><defs><style>.cls-1{isolation:isolate;}.cls-2{fill:#242425;opacity:0.1;mix-blend-mode:multiply;}</style></defs><title>CM-Creative</title><g class="cls-1"><g id="Layer_1" data-name="Layer 1"><path class="cls-2" d="M264.959,269.249,137.932,212.99a3.6,3.6,0,0,1-1.813-4.834,39.653,39.653,0,0,0-.51-35.3,3.591,3.591,0,0,1,1.8-4.932L264.974,112.7a4.01,4.01,0,0,1,4.907,1.319c6.317,9.27,10.272,22.494,10.272,37.183,0,14.949-4.1,28.379-10.611,37.672a3.627,3.627,0,0,0,0,4.24c6.513,9.292,10.611,22.722,10.611,37.673,0,14.676-3.949,27.89-10.259,37.159a4.005,4.005,0,0,1-4.935,1.306M407.608,123.438c23.928.04,38.238,21.9,28.53,42.765-1.5,3.216-3.725,5.629-6,8.14-6.68,7.1-15.187,8.725-24.5,8.711l-49.888-.089c-24.909-.057-39.576-22.993-28.294-44,6.013-11.2,15.92-15.642,28.406-15.616ZM484.874,301.4q-.408-110.141-.018-220.287c.024-7.021-1.505-9.172-8.96-9.161-183.108.231-8.059.188-191.165.124a30.946,30.946,0,0,0-13.337,2.911c-35.33,16.176-70.757,32.141-106.149,48.182-30.331,13.749-60.85,27.1-90.914,41.415-19,9.046-22.721,33.381-6.68,48.933,2.812,1.575,7.217,4.477,11.965,6.632q95.622,43.385,191.307,86.63a33.565,33.565,0,0,0,14.27,3.112c183.108-.084,8.06-.115,191.167.11,7.027.008,8.542-1.743,8.514-8.6M604.4,132.845c11.54,11.929,11.2,29.7-.8,41.464-11.633,11.414-30.416,11.474-41.745.131-11.519-11.531-11.461-31.526.123-42.677,11.98-11.532,30.686-11.054,42.421,1.082M507.459,79.493q.352,111.43.012,222.862c-.018,6.122,1.658,7.725,7.713,7.68,36.833-.276,44.568-.053,81.4-.175,16.488-.054,30.914-5.48,42.618-17.8,11.858-11.016,17.57-25.1,17.664-41.242.228-39.927.37-79.86-.028-119.786-.333-33.307-25.9-58.65-59.149-58.916-37.14-.3-45.188.039-82.33-.2-5.823-.037-7.922,1.193-7.9,7.57"/></g></g></svg>