<!-- Generator: Adobe Illustrator 20.1.0, SVG Export Plug-In  -->
<svg version="1.1"
	 xmlns="http://www.w3.org/2000/svg" xmlns:xlink="http://www.w3.org/1999/xlink" xmlns:a="http://ns.adobe.com/AdobeSVGViewerExtensions/3.0/"
	 x="0px" y="0px" width="65.094px" height="51.789px" viewBox="0 0 65.094 51.789"
	 style="enable-background:new 0 0 65.094 51.789;" xml:space="preserve">
<style type="text/css">
	.st0{opacity:0.2;fill:#242425;}
</style>
<defs>
</defs>
<path class="st0" d="M56.53,6.532c-0.315-0.126-0.511-0.406-0.76-0.613c-2.172-1.809-4.583-3.207-7.218-4.225
	c-2.221-0.859-4.524-1.406-6.897-1.598c-6.064-0.491-11.67,0.897-16.771,4.266c-0.863,0.571-1.684,1.2-2.466,1.884
	c-0.529,0.463-1.062,0.922-1.549,1.423c-1.235,1.267-2.359,2.625-3.327,4.115c-0.768,1.181-1.441,2.408-2.014,3.689
	c-0.349,0.781-0.665,1.579-0.934,2.392c-0.039,0.115-0.078,0.214,0.041,0.324c0.785,0.728,1.427,1.587,2.128,2.39
	c0.262,0.299,0.516,0.604,0.768,0.91c0.065,0.079,0.138,0.102,0.235,0.102c0.897-0.004,1.793-0.012,2.69-0.002
	c0.22,0.002,0.236-0.133,0.273-0.281c0.515-2.061,1.357-3.979,2.514-5.761c0.956-1.473,2.099-2.789,3.419-3.94
	c3.078-2.684,6.656-4.257,10.715-4.648C41.966,6.517,46.18,7.596,50,10.178c1.045,0.706,1.971,1.542,2.866,2.424
	c1.093,1.076,1.99,2.303,2.771,3.607c0.709,1.182,1.25,2.453,1.675,3.773c0.45,1.395,0.747,2.823,0.855,4.278
	c0.136,1.821,0.04,3.638-0.343,5.438c-0.453,2.126-1.21,4.139-2.341,5.99c-1.479,2.421-3.409,4.431-5.777,6.017
	c-2.101,1.406-4.385,2.361-6.854,2.852c-3.568,0.709-7.066,0.439-10.467-0.841c-1.812-0.682-3.479-1.626-5.004-2.829
	c-0.931-0.735-1.779-1.555-2.56-2.434c-1.773-1.995-3.038-4.293-3.832-6.847c-0.112-0.362-0.213-0.729-0.293-1.1
	c-0.036-0.166-0.106-0.209-0.263-0.208c-0.986,0.007-1.974,0.01-2.961,0.005c-0.152-0.001-0.243,0.063-0.33,0.169
	c-0.413,0.502-0.808,1.02-1.249,1.497c-0.408,0.441-0.765,0.933-1.232,1.32c-0.191,0.159-0.243,0.305-0.16,0.566
	c0.635,2.004,1.503,3.9,2.609,5.684c0.564,0.91,1.18,1.784,1.863,2.614c0.699,0.85,1.405,1.691,2.208,2.441
	c1.274,1.189,2.628,2.274,4.107,3.21c1.484,0.94,3.039,1.727,4.68,2.335c1.789,0.662,3.626,1.148,5.529,1.393
	c1.56,0.2,3.121,0.309,4.694,0.233c1.732-0.083,3.441-0.329,5.128-0.747c1.623-0.401,3.193-0.952,4.707-1.653
	c1.879-0.87,3.634-1.951,5.248-3.256c0.451-0.365,0.896-0.738,1.345-1.108c0.628-0.628,1.256-1.256,1.885-1.885
	c-0.014-0.122,0.094-0.169,0.157-0.24c0.592-0.66,1.14-1.353,1.653-2.078c0.698-0.987,1.332-2.011,1.882-3.088
	c0.766-1.5,1.389-3.058,1.863-4.675c0.696-2.375,1.013-4.803,1.034-7.268c0.008-0.9-0.059-1.801-0.151-2.698
	c-0.168-1.639-0.493-3.243-0.968-4.818c-0.616-2.044-1.479-3.98-2.576-5.809c-0.354-0.59-0.712-1.184-1.132-1.728
	c-0.497-0.643-0.948-1.328-1.536-1.899c-0.03-0.03-0.043-0.065-0.025-0.108C57.98,7.982,57.255,7.257,56.53,6.532"/>
<path class="st0" d="M27.206,30.308c0.313,0.912,0.728,1.772,1.27,2.557c2.821,4.089,6.725,6.037,11.699,5.725
	c2.591-0.162,4.924-1.109,6.938-2.763c3.255-2.674,4.874-6.134,4.802-10.336c-0.049-2.859-1.002-5.42-2.812-7.634
	c-4.146-5.073-11.231-6.215-16.778-2.683c-2.339,1.489-4.013,3.555-5.028,6.145c-0.083,0.211-0.047,0.249,0.168,0.248
	c2.146-0.011,4.291-0.016,6.437-0.014c0.175,0,0.272-0.082,0.383-0.193c1.997-2.013,4.372-2.659,7.057-1.796
	c4.31,1.386,5.93,6.751,3.171,10.345c-2.237,2.913-6.273,3.537-9.248,1.428c-0.378-0.268-0.716-0.584-1.03-0.924
	c-0.085-0.093-0.171-0.151-0.308-0.15c-2.206,0.009-4.412,0.013-6.618,0.02C27.28,30.283,27.252,30.296,27.206,30.308"/>
<path class="st0" d="M4.289,23.441C3.62,23.438,3.02,23.434,2.42,23.434c-0.261-0.001-0.525-0.01-0.784,0.015
	c-0.905,0.088-1.584,0.796-1.62,1.704c-0.022,0.553-0.022,1.108,0.001,1.661c0.039,0.97,0.789,1.692,1.763,1.705
	c0.703,0.009,1.407-0.007,2.184-0.012c-0.214,0.26-0.378,0.467-0.55,0.668c-0.708,0.827-1.415,1.656-2.128,2.479
	c-0.189,0.218-0.271,0.443-0.151,0.718c0.118,0.269,0.341,0.349,0.612,0.348c3.253-0.008,6.507-0.011,9.76-0.029
	c1.004-0.005,1.785-0.483,2.421-1.239c0.773-0.918,1.561-1.823,2.334-2.74c0.144-0.171,0.298-0.228,0.519-0.229
	c6.205-0.008,12.409-0.027,18.614-0.031c0.612,0,1.118-0.158,1.547-0.606c0.292-0.306,0.63-0.566,0.936-0.859
	c0.707-0.676,0.706-1.624-0.011-2.282c-0.399-0.367-0.815-0.715-1.237-1.056c-0.302-0.244-0.669-0.298-1.052-0.297
	c-4.301,0.013-8.602,0.022-12.903,0.032c-1.863,0.004-3.727,0.005-5.59,0.017c-0.22,0.002-0.359-0.06-0.506-0.236
	c-0.917-1.092-1.85-2.171-2.783-3.25c-0.653-0.756-1.495-1.076-2.488-1.072c-3.112,0.015-6.225,0.017-9.337,0.025
	c-0.101,0-0.202,0-0.302,0.009c-0.238,0.022-0.419,0.131-0.517,0.359c-0.102,0.239-0.062,0.453,0.103,0.646
	c0.679,0.793,1.359,1.586,2.037,2.381C3.608,22.634,3.922,23.008,4.289,23.441"/>
</svg>