<!-- Generator: Adobe Illustrator 20.1.0, SVG Export Plug-In  -->
<svg version="1.1"
	 xmlns="http://www.w3.org/2000/svg" xmlns:xlink="http://www.w3.org/1999/xlink" xmlns:a="http://ns.adobe.com/AdobeSVGViewerExtensions/3.0/"
	 x="0px" y="0px" width="70.054px" height="44.54px" viewBox="0 0 70.054 44.54" style="enable-background:new 0 0 70.054 44.54;"
	 xml:space="preserve">
<style type="text/css">
	.st0{opacity:0.2;fill:#242425;}
</style>
<defs>
</defs>
<path class="st0" d="M35.869,1.855c-0.001-0.477-0.365-0.838-0.84-0.833c-0.475,0.004-0.822,0.364-0.822,0.852
	c-0.001,0.476,0.363,0.838,0.84,0.835C35.513,2.705,35.871,2.334,35.869,1.855 M59.833,33.402h-3.768V3.749h-42.03v26.29h7.894
	v3.351H10.246v-0.358c0.001-9.52,0.01-19.041-0.003-28.561c-0.003-1.616,0.602-2.879,1.931-3.787C12.897,0.19,13.717,0,14.585,0
	c2.143,0,4.287,0,6.43,0c0.942,0,1.883,0,2.824,0c5.384,0,10.767,0,16.15,0c5.169,0,10.339,0.005,15.508,0.001
	c2.49-0.002,4.369,1.971,4.345,4.359c-0.035,3.601-0.008,7.203-0.008,10.805c0,5.966-0.001,11.932-0.001,17.899V33.402z"/>
<path class="st0" d="M43.5,10.506c-0.007-0.395-0.372-0.734-0.782-0.727c-0.408,0.006-0.741,0.359-0.729,0.771
	c0.01,0.387,0.367,0.735,0.75,0.732C43.162,11.28,43.507,10.927,43.5,10.506 M44.249,39.246h0.001c0-0.317,0.005-0.635-0.001-0.953
	c-0.007-0.353-0.18-0.546-0.525-0.553c-0.645-0.013-1.29-0.015-1.935-0.006c-0.351,0.005-0.539,0.189-0.545,0.541
	c-0.012,0.645-0.01,1.291,0,1.936c0.005,0.322,0.181,0.514,0.496,0.52c0.664,0.015,1.328,0.015,1.992,0
	c0.347-0.008,0.508-0.201,0.516-0.56C44.254,39.863,44.249,39.555,44.249,39.246 M32.736,12.525v6.676h-1.985c0-0.17,0-0.34,0-0.51
	c-0.001-2.385,0.017-4.77-0.012-7.155c-0.017-1.408,1.081-2.991,2.984-3.016c2.375-0.031,4.75-0.005,7.125-0.005
	c2.259-0.001,4.518-0.002,6.777-0.012c0.101-0.001,0.228-0.075,0.296-0.155c0.227-0.265,0.495-0.425,0.848-0.426
	c0.309-0.001,0.618,0.001,0.927,0.001c0.373-0.001,0.659,0.163,0.898,0.445c0.065,0.077,0.197,0.126,0.302,0.135
	c0.537,0.049,1.088,0.016,1.608,0.13c1.283,0.28,2.23,1.472,2.234,2.786c0.01,2.78-0.006,5.56-0.008,8.34
	c-0.001,1.061,0.013,2.122,0.013,3.183c0.002,5.513-0.011,11.026,0.009,16.539c0.006,1.665-1.326,3.038-2.913,3.053
	c-0.617,0.006-1.235,0.008-1.852,0.007c-3.302-0.002-6.603-0.007-9.905-0.011c-0.537,0-1.074,0-1.542,0
	c0.015-1.926,0.03-3.833,0.046-5.74c0-0.066,0.007-0.132,0.013-0.232h14.134c0.007-0.135,0.016-0.236,0.016-0.338
	c0.001-4.402,0.001-8.805,0.001-13.208c0-3.359,0.001-6.719,0.002-10.078c0-0.411,0.001-0.408-0.394-0.408
	c-2.5-0.003-5-0.008-7.501-0.009c-1.168,0-2.336,0.008-3.504,0.009c-2.771,0.001-5.541-0.001-8.312-0.001H32.736z"/>
<path class="st0" d="M30.264,22.039v0.002c-0.288,0-0.577-0.001-0.866,0c-0.038,0-0.077,0.003-0.115,0.004
	c-0.33,0.015-0.524,0.192-0.526,0.482c-0.002,0.289,0.222,0.507,0.547,0.51c0.635,0.005,1.27,0.003,1.905-0.004
	c0.323-0.004,0.533-0.202,0.537-0.481c0.005-0.312-0.19-0.505-0.529-0.512C30.899,22.035,30.582,22.039,30.264,22.039 M31.75,41.232
	c0-0.319,0.006-0.637-0.002-0.955c-0.009-0.349-0.189-0.536-0.54-0.542c-0.636-0.01-1.273-0.01-1.91-0.001
	c-0.348,0.005-0.529,0.196-0.533,0.545c-0.007,0.646-0.009,1.292-0.005,1.938c0.002,0.328,0.194,0.517,0.525,0.52
	c0.646,0.006,1.293,0.007,1.939,0c0.335-0.003,0.515-0.186,0.524-0.522C31.757,41.888,31.75,41.56,31.75,41.232 M35.247,24.554
	h-9.991v13.982h9.991V24.554z M37.246,32.542c0,2.983,0.002,5.965-0.001,8.948c-0.001,1.418-0.814,2.527-2.165,2.932
	c-0.281,0.084-0.588,0.112-0.883,0.113c-2.616,0.008-5.231,0.005-7.847,0.004c-1.778,0-3.076-1.266-3.095-3.042
	c-0.016-1.505-0.006-3.011-0.006-4.517c0-1.095,0-2.19,0.001-3.285c0.003-2.488,0.006-4.976,0.011-7.464
	c0.002-0.993-0.028-1.989,0.02-2.98c0.069-1.445,1.347-2.69,2.788-2.702c2.78-0.024,5.559-0.025,8.339-0.003
	c1.539,0.012,2.826,1.345,2.833,2.904c0.013,3.03,0.004,6.061,0.004,9.092H37.246z"/>
<path class="st0" d="M0.007,35.57H21.92v5.392c-0.422,0-0.843,0-1.264,0c-4.062-0.007-8.125-0.004-12.187-0.025
	c-1.804-0.009-3.606-0.106-5.389-0.404c-0.777-0.129-1.547-0.3-2.254-0.678c-0.537-0.288-0.844-0.69-0.825-1.335
	c0.025-0.877,0.006-1.756,0.006-2.634V35.57z"/>
<path class="st0" d="M56.071,35.565h13.977v1.191c0,0.637-0.016,1.274,0.005,1.91c0.017,0.47-0.197,0.79-0.561,1.037
	c-0.661,0.449-1.417,0.664-2.188,0.764c-1.355,0.175-2.716,0.355-4.079,0.402c-2.39,0.082-4.783,0.064-7.176,0.088
	c-0.066,0.001-0.132-0.006-0.222-0.011c0.018-0.088,0.038-0.158,0.047-0.23c0.062-0.465,0.163-0.93,0.174-1.397
	c0.025-1.167,0.009-2.334,0.01-3.502C56.058,35.742,56.065,35.668,56.071,35.565"/>
<rect x="42.252" y="38.756" class="st0" width="0.979" height="0.952"/>
<rect x="29.781" y="40.755" class="st0" width="0.961" height="0.975"/>
</svg>