<!-- Generator: Adobe Illustrator 20.1.0, SVG Export Plug-In  -->
<svg version="1.1"
	 xmlns="http://www.w3.org/2000/svg" xmlns:xlink="http://www.w3.org/1999/xlink" xmlns:a="http://ns.adobe.com/AdobeSVGViewerExtensions/3.0/"
	 x="0px" y="0px" width="66.014px" height="52.644px" viewBox="0 0 66.014 52.644"
	 style="enable-background:new 0 0 66.014 52.644;" xml:space="preserve">
<style type="text/css">
	.st0{opacity:0.2;fill:#242425;}
</style>
<defs>
</defs>
<path class="st0" d="M61.349,2.647c-0.967-0.545-1.888-1.181-2.907-1.62C53.05-1.297,46.582,0.414,42.53,5.225
	c-1.619,1.922-2.603,4.128-3.049,6.53c-0.03,0.159,0.024,0.403,0.134,0.486c0.507,0.381,1.047,0.718,1.656,1.124
	c0.157-0.158,0.342-0.343,0.526-0.527c2.018-2.004,3.983-4.066,6.067-5.998c2.759-2.558,6.92-2.937,9.814-1.024
	c3.865,2.555,4.596,7.626,1.671,11.693c-0.271,0.378-0.61,0.714-0.941,1.046c-2.498,2.506-5.002,5.006-7.504,7.508l-0.602,0.602
	c0.66,0.044,1.174,0.13,1.691,0.106c5.18-0.243,9.293-2.597,12.002-7.224c2.662-4.546,2.621-9.064,0.295-13.372
	c-0.282-0.522-0.618-1.011-0.928-1.515L61.349,2.647z"/>
<path class="st0" d="M25.364,10.963c-0.804-3.5-3.966-4.676-6.614-3.942c-0.976,0.27-1.832,0.77-2.557,1.497
	c-3.799,3.805-7.62,7.589-11.374,11.437c-2.962,3.037-4.401,6.695-4.742,10.731c-0.256,3.031,0.131,5.938,1.076,8.724
	c0.123,0.362,0.345,0.714,0.61,0.982c3.284,3.308,6.622,6.563,9.863,9.911c1.548,1.598,3.435,2.301,5.681,2.338
	c2.624,0.043,5.228-0.44,7.744-1.328c4.6-1.622,9.147-3.433,13.732-5.113c2.352-0.862,4.73-1.638,7.108-2.405
	c2.348-0.756,4.107-2.133,4.75-4.59c0.866-3.307-1.721-6.486-5.093-6.34c-1.549,0.067-3.099,0.168-4.649,0.251
	c-0.205,0.011-0.41,0.006-0.753,0.011l0.6-0.6c5.307-5.308,10.616-10.614,15.921-15.923c1.986-1.988,2.342-5.149,0.815-7.158
	c-1.717-2.26-4.769-2.765-7.246-1.17c-0.462,0.298-0.879,0.69-1.274,1.083c-2.543,2.526-5.074,5.065-7.608,7.6
	c-0.235,0.234-0.469,0.469-0.753,0.753c-1.434-3.401-3.943-4.488-7.622-3.231c-0.38-1.647-1.279-2.912-2.818-3.616
	C28.643,10.171,27.045,10.218,25.364,10.963"/>
</svg>