<svg id="Layer_1" data-name="Layer 1" xmlns="http://www.w3.org/2000/svg" viewBox="0 0 39 54"><defs><style>.cls-1{fill:#1e96d2;}</style></defs><title>RecentTiles</title><path class="cls-1" d="M16.831,24.98c-1.878,0-3.757,0-5.635,0-.327,0-.59-.126-.637-.44a.767.767,0,0,1,.208-.589.954.954,0,0,1,.6-.144c2.007-.01,4.013-.007,6.02-.007h4.824c.142,0,.286-.008.427.005a.59.59,0,0,1,.587.607.574.574,0,0,1-.626.565c-.626,0-1.252,0-1.878,0Z"/><path class="cls-1" d="M16.912,26.194c1.85,0,3.7-.01,5.55.012a.942.942,0,0,1,.655.283c.3.378-.027.874-.566.879-1.209.01-2.419,0-3.629,0H11.366c-.085,0-.171,0-.256,0a.578.578,0,0,1-.586-.562.572.572,0,0,1,.582-.606c.654-.018,1.309-.008,1.964-.008h3.842Z"/><path class="cls-1" d="M16.862,29.765H11.355c-.071,0-.143,0-.213,0a.6.6,0,0,1-.618-.621.575.575,0,0,1,.635-.555q1.473,0,2.946,0h8.325c.057,0,.114,0,.171,0a.607.607,0,0,1,.623.573.593.593,0,0,1-.6.6c-.412.019-.825.007-1.238.007Z"/><path class="cls-1" d="M18.272,36.717c.255-.474.572-.871,1.148-.671.483.168.408.621.331,1.157l.436-.38a4.678,4.678,0,0,1,.58-.5c.523-.322.924-.148,1.12.431.053.157.192.409.277.4a.753.753,0,0,0,.48-.277,1.216,1.216,0,0,0,.235-1.164c-.092-.281-.037-.491.24-.586.3-.1.442.111.537.351a2.143,2.143,0,0,1-.936,2.4,1.085,1.085,0,0,1-1.52-.566.907.907,0,0,0-.23-.3,1.932,1.932,0,0,1-.327.486,2.376,2.376,0,0,1-.792.466c-.5.139-.7-.027-.965-.628-.664.34-.9.315-1.409-.23-.272-.292-.487-.131-.7.036-.118.093-.169.281-.293.355a2.308,2.308,0,0,1-.542.167c-.05-.184-.189-.4-.134-.548.306-.814,1.684-1.52,2.35-.47C18.172,36.667,18.205,36.676,18.272,36.717Z"/><path class="cls-1" d="M13.72,16.773c.84,0,1.681,0,2.521,0,.457,0,.687.206.683.579s-.246.588-.689.59q-2.521.01-5.042,0a.607.607,0,0,1-.672-.615c.015-.333.27-.55.678-.553C12.039,16.769,12.879,16.774,13.72,16.773Z"/><path class="cls-1" d="M13.741,20.02c-.841,0-1.681,0-2.522,0-.43,0-.7-.231-.7-.579a.612.612,0,0,1,.692-.594q2.522-.008,5.044,0c.434,0,.676.239.667.607-.009.353-.24.561-.659.564C15.422,20.025,14.582,20.02,13.741,20.02Z"/><path class="cls-1" d="M28.189,17.647c.779,0,1.557,0,2.336,0,.423,0,.637.191.633.537s-.228.545-.639.547q-2.336.01-4.671,0a.562.562,0,0,1-.623-.57c.014-.309.25-.509.628-.512C26.632,17.644,27.411,17.647,28.189,17.647Z"/><path class="cls-1" d="M28.209,20.656c-.779,0-1.558,0-2.337,0-.4,0-.645-.214-.647-.536a.567.567,0,0,1,.641-.55q2.336-.008,4.673,0c.4,0,.627.221.618.562s-.223.52-.611.523C29.767,20.66,28.988,20.656,28.209,20.656Z"/><path class="cls-1" d="M13.719,30.977c.841,0,1.681,0,2.522,0,.453,0,.683.206.682.583s-.242.587-.687.589q-2.5.009-5,0c-.452,0-.73-.252-.715-.614.015-.342.284-.557.72-.559C12.066,30.975,12.892,30.977,13.719,30.977Z"/><path class="cls-1" d="M18.1,30.978a.564.564,0,0,1,.627.592.584.584,0,0,1-.606.581.6.6,0,0,1-.635-.6A.582.582,0,0,1,18.1,30.978Z"/><path class="cls-1" d="M33.386,22.023c0,.555-.187.742-.736.742H23.671c-.578,0-.8-.231-.8-.817,0-5.517,0-.167,0-5.684,0-.6.16-.766.754-.766H32.34c.158,0,.315,0,.473,0,.4.008.572.178.573.579Zm-9.349-.431h8.177V16.671H24.037Z"/><path class="cls-1" d="M26.218,23.447v16.4H7.513V14.155H26.218v.655h1.908q0-.812,0-1.623c0-.653-.276-.929-.932-.942-.256-.005-.513,0-.77,0H6.843c-.966,0-1.226.268-1.226,1.247q0,13.468,0,26.936c0,.954.363,1.33,1.3,1.33q10,0,20.009,0c.895,0,1.2-.3,1.2-1.208q0-6.8,0-13.6,0-.983,0-1.967,0-.77,0-1.54Z"/></svg>