<svg id="Layer_1" data-name="Layer 1" xmlns="http://www.w3.org/2000/svg" viewBox="0 0 39 54"><defs><style>.cls-1{fill:#999;}.cls-2{fill:#fff;}</style></defs><title>RecentTiles</title><circle class="cls-1" cx="19.5" cy="27" r="17.425"/><path class="cls-2" d="M13.5,21.648V20.393a13.342,13.342,0,0,1-1.959-1.27,3.146,3.146,0,0,1,.346-4.953,4.588,4.588,0,0,1,3.811-.8.685.685,0,0,0,.794-.26,4.1,4.1,0,0,1,2.343-1.55,3.418,3.418,0,0,1,3.355,1.265,1.284,1.284,0,0,0,1.405.5,4.235,4.235,0,0,1,2.8.422,3.426,3.426,0,0,1,2.047,3.377,3.535,3.535,0,0,1-2.581,2.969c-.124.039-.25.075-.42.126v1.43Zm9.666-7.078c.164,0,.245,0,.327,0a2.717,2.717,0,0,1,2.941,2.417,3.746,3.746,0,0,0,.224.68c.181-.23.364-.458.54-.691a.327.327,0,0,0,.032-.14,2.325,2.325,0,0,0-1.216-2.315A2.63,2.63,0,0,0,23.163,14.57Z"/><path class="cls-2" d="M25.567,22.144c0,.567-.006,1.1,0,1.629.006.355-.226.373-.5.372q-2.936-.012-5.872-.015c-1.725,0-3.451.007-5.176.007-.2,0-.391-.033-.594-.052V22.144Z"/><path class="cls-2" d="M25.351,25.219l.026-.135H13.5c.007.047.014.094.02.141-.66.089-.832.265-.824.936a7.055,7.055,0,0,0,.774,3.031c.141.29.346.518.718.429.727,3.63,2.907,4.9,5.155,4.905,3.2,0,4.692-2.043,5.315-4.944.411.163.606-.1.757-.391a7.359,7.359,0,0,0,.792-2.959C26.24,25.551,26.028,25.326,25.351,25.219Z"/><path class="cls-2" d="M8.345,37.212A14.989,14.989,0,0,0,19.336,42.2q.78,0,1.563-.06a14.984,14.984,0,0,0,9.439-4.525q.066-.19.119-.387a1.815,1.815,0,0,0-1.142-2.33c-1.587-.631-3.191-1.222-4.789-1.827-.148-.056-.3-.092-.455-.137-.759,2.308-2.286,3.652-4.721,3.651a4.509,4.509,0,0,1-4.626-3.661,44.4,44.4,0,0,0-5.49,2.1,1.689,1.689,0,0,0-.959,1.828C8.293,36.977,8.318,37.095,8.345,37.212Z"/></svg>