<svg id="Layer_1" data-name="Layer 1" xmlns="http://www.w3.org/2000/svg" viewBox="0 0 39 54"><defs><style>.cls-1{fill:#999;}.cls-2{fill:#fff;}</style></defs><title>RecentTiles</title><circle class="cls-1" cx="19.5" cy="27" r="17.425"/><path class="cls-2" d="M20.343,31.748a3.752,3.752,0,0,0-1.414,0,1.057,1.057,0,0,0-.972.984h3.358A1.057,1.057,0,0,0,20.343,31.748Z"/><path class="cls-2" d="M28.139,39.566l.521-4.845A1.272,1.272,0,0,0,27.4,33.314H11.937a1.271,1.271,0,0,0-1.264,1.412l.548,4.907a15.028,15.028,0,0,0,16.918-.067Z"/><path class="cls-2" d="M24.789,24.956c-.5.005-.988.008-1.475.008s-.957,0-1.454-.008a1.28,1.28,0,0,1-1.345-.745,11.857,11.857,0,0,1-.522-1.541c-.1-.377-.162-.763-.225-1.137q-.021-.126-.043-.253H19.54q-.022.126-.043.253c-.063.374-.127.76-.225,1.137a11.854,11.854,0,0,1-.522,1.541,1.28,1.28,0,0,1-1.345.745c-.5.005-.975.008-1.454.008s-.979,0-1.484-.008l-.063,0c.76,3.5,2.9,4.745,5.118,4.746C22.645,29.7,24.14,27.748,24.789,24.956Z"/><path class="cls-2" d="M24,29.788l-.009.03-.024-.013-.927,2.928H27.4a1.852,1.852,0,0,1,1.842,2.05l-.465,4.324a15.133,15.133,0,0,0,3.049-3.137,8.682,8.682,0,0,0-.159-1.276c-.009-.045-.02-.088-.031-.132a2.72,2.72,0,0,0-.168-.539L31.456,34l-.022-.049a2.909,2.909,0,0,0-2.1-1.722c-.416-.106-.825-.231-1.227-.371q-.8-.288-1.569-.646A20.986,20.986,0,0,1,24.344,30Z"/><path class="cls-2" d="M10.586,39.177l-.49-4.386a1.852,1.852,0,0,1,1.841-2.058h4.3L15.309,29.8l-.024.013-.009-.03L14.927,30a20.994,20.994,0,0,1-2.194,1.211q-.769.358-1.569.646c-.4.141-.81.266-1.227.371a2.909,2.909,0,0,0-2.1,1.722L7.815,34l-.009.02a2.72,2.72,0,0,0-.168.539c-.01.044-.022.087-.031.132a8.683,8.683,0,0,0-.159,1.284A15.133,15.133,0,0,0,10.586,39.177Z"/><path class="cls-2" d="M13.548,19.322a1.527,1.527,0,0,1,.432-.064h3.795a2.012,2.012,0,0,1,1.441.495l.02,0h.794l.02,0a2.013,2.013,0,0,1,1.441-.494h3.8a1.525,1.525,0,0,1,.449.069,7.959,7.959,0,0,0,.054-2.563,2.269,2.269,0,0,0-1.84-2.082.551.551,0,0,1-.5-.4,3.241,3.241,0,0,0-3.212-1.779,15.394,15.394,0,0,1-3.525.1c-.506-.037-1.013-.063-1.519-.095l-.081.095.541,1.074c-.173.134-.381.276-.568.443a5.279,5.279,0,0,0-1.6,4.518C13.493,18.871,13.518,19.1,13.548,19.322Z"/><path class="cls-2" d="M26.211,23.455l.237-2.557a1.167,1.167,0,0,0-1.162-1.277h0c-1.321,0-3.029,0-3.788,0h-.007a1.6,1.6,0,0,0-1.219.421.34.34,0,0,1-.23.075h-.816a.345.345,0,0,1-.234-.075,1.6,1.6,0,0,0-1.219-.421h0c-.762,0-2.47,0-3.79,0h0A1.167,1.167,0,0,0,12.817,20.9l.237,2.559a1.3,1.3,0,0,0,1.417,1.136c.992.01,1.924.011,2.93,0,.577-.006.861-.151,1.013-.52a11.457,11.457,0,0,0,.507-1.494c.094-.361.157-.74.218-1.106.028-.165.056-.331.086-.5l.011-.06h.794l.011.06c.03.165.058.331.086.5.061.366.125.745.218,1.106a11.457,11.457,0,0,0,.507,1.494c.151.369.435.514,1.013.52,1.007.01,1.938.01,2.93,0A1.3,1.3,0,0,0,26.211,23.455ZM18.3,21.435c-.112.625-.275,1.25-.434,1.832a.7.7,0,0,1-.753.554h-.057c-.539-.022-1.088-.017-1.62-.013l-.756,0a.879.879,0,0,1-.873-.771c-.067-.565-.126-1.143-.177-1.717a.751.751,0,0,1,.771-.876c.365-.013.736-.01,1.094-.007l.407,0,.071,0h.451c.337,0,.673,0,1.009,0a.92.92,0,0,1,.734.277A.854.854,0,0,1,18.3,21.435Zm7.337-.113c-.05.565-.109,1.143-.177,1.717a.879.879,0,0,1-.873.771c-.252,0-.5,0-.756,0-.531,0-1.081-.009-1.62.013h-.057a.7.7,0,0,1-.753-.554c-.159-.582-.322-1.207-.434-1.832a.854.854,0,0,1,.132-.72.92.92,0,0,1,.734-.277c.336,0,.672,0,1.009,0l.523.006.406,0c.358,0,.729-.006,1.094.007a.751.751,0,0,1,.771.876Z"/></svg>