<svg id="Layer_1" data-name="Layer 1" xmlns="http://www.w3.org/2000/svg" viewBox="0 0 39 54"><defs><style>.cls-1{fill:#999;}.cls-2{fill:#fff;}</style></defs><title>RecentTiles</title><circle class="cls-1" cx="19.5" cy="27" r="17.425"/><path class="cls-2" d="M21.008,12.479a.791.791,0,0,1,.339.88c-.022.216.047.318.265.392a7.521,7.521,0,0,1,5.126,5.828,11.834,11.834,0,0,1,.18,1.814.37.37,0,0,0,.192.344,1.529,1.529,0,0,1,.726,1.511,1.046,1.046,0,0,1-.313.595,2.235,2.235,0,0,1-.709.491c-1.258.517-2.5,1.095-3.8,1.489a12.41,12.41,0,0,1-10.049-1.133c-.175-.1-.376-.149-.558-.236a5.274,5.274,0,0,1-.561-.3,1.367,1.367,0,0,1-.031-2.364.54.54,0,0,0,.26-.512,7.753,7.753,0,0,1,4.544-7.245,4.441,4.441,0,0,1,.76-.281c.2-.056.3-.146.265-.362-.01-.056.006-.117,0-.174a.7.7,0,0,1,.343-.735Zm-2.446,4.645q0,1.539,0,3.077c0,.463.186.643.655.645.223,0,.445.005.668,0a.509.509,0,0,0,.547-.546q.006-3.179,0-6.358a.506.506,0,0,0-.551-.539c-.222-.006-.445,0-.668,0-.47,0-.651.18-.651.647Q18.56,15.586,18.562,17.124Zm-1.844-2.087a6.439,6.439,0,0,0-1.8,1.443.348.348,0,0,0-.067.211c0,.589-.008,1.178,0,1.766a.5.5,0,0,0,.53.529c.26.008.521.007.782,0a.517.517,0,0,0,.555-.566c.006-.367,0-.734,0-1.1C16.718,16.58,16.718,15.838,16.718,15.037Zm5.562,0c0,1.193,0,2.321,0,3.45a.5.5,0,0,0,.505.494c.25.012.5.006.753,0,.415-.006.6-.191.608-.6q.007-.825,0-1.65a.4.4,0,0,0-.059-.242A6.3,6.3,0,0,0,22.28,15.041Z"/><path class="cls-2" d="M12.1,25.347c.185.082.364.146.529.237a13.479,13.479,0,0,0,6.911,1.757A16.413,16.413,0,0,0,26.33,25.58c.171-.083.351-.146.579-.24a3.65,3.65,0,0,1,0,.379,3.123,3.123,0,0,1-1.019,2.054,1.088,1.088,0,0,0-.222.332,16.721,16.721,0,0,1-2.471,3.84,6.224,6.224,0,0,1-1.657,1.348,4.063,4.063,0,0,1-4.2-.063,8.286,8.286,0,0,1-2.79-2.936c-.444-.712-.823-1.465-1.238-2.195a1.76,1.76,0,0,0-.306-.41A3.052,3.052,0,0,1,12.1,25.347Z"/><path class="cls-2" d="M8.5,37.412A14.986,14.986,0,0,0,19.336,42.2c.159,0,.317,0,.476,0l.154,0c.07,0,.14-.006.21-.009A14.986,14.986,0,0,0,30.5,37.421c.019-.063.041-.125.058-.19a1.815,1.815,0,0,0-1.142-2.33c-1.587-.631-3.191-1.222-4.789-1.827-.148-.056-.3-.092-.455-.137-.759,2.308-2.286,3.652-4.721,3.651a4.509,4.509,0,0,1-4.626-3.661,44.4,44.4,0,0,0-5.49,2.1,1.689,1.689,0,0,0-.959,1.828A4.935,4.935,0,0,0,8.5,37.412Z"/></svg>