<svg id="Layer_1" data-name="Layer 1" xmlns="http://www.w3.org/2000/svg" viewBox="0 0 39 54"><defs><style>.cls-1{fill:#1e96d2;}</style></defs><title>RecentTiles</title><path class="cls-1" d="M36.266,42.517H28.216a.376.376,0,0,0-.053-.026.944.944,0,0,1-.727-.975q0-6.711,0-13.422a.907.907,0,0,1,.441-.8,2.387,2.387,0,0,1,.34-.151h8.049c.042.015.083.032.125.046a.945.945,0,0,1,.655.909q0,6.733,0,13.467a.924.924,0,0,1-.516.852A2.089,2.089,0,0,1,36.266,42.517Zm-.191-2.409V29.554H28.4V40.108ZM32.24,27.986H30.987c-.368,0-.736-.006-1.1,0a.332.332,0,0,0-.355.342.341.341,0,0,0,.346.332c.042,0,.085,0,.127,0h4.481a.859.859,0,0,0,.211-.016.315.315,0,0,0,.259-.32.31.31,0,0,0-.251-.325,1.028,1.028,0,0,0-.253-.019Q33.345,27.985,32.24,27.986Zm.717,13.331a.717.717,0,1,0-.717.715A.718.718,0,0,0,32.957,41.317Z"/><path class="cls-1" d="M26.392,36.635V31.312l-21.714,0H4.544c-.666-.008-.782-.12-.782-.782q0-8.134,0-16.269c0-.089,0-.179,0-.268.019-.5.14-.65.638-.655,1.729-.019,3.459-.023,5.188-.025q4.5-.005,9,0v0H32.254c.19,0,.38,0,.569.012.551.037.663.143.669.694.012.982.007,1.964.008,2.946q0,4.6,0,9.2h1.8q0-3.715,0-7.43c0-1.641.01-3.281-.008-4.922a2.109,2.109,0,0,0-2.033-2.3,5.132,5.132,0,0,0-.668-.022q-13.024,0-26.048,0c-.925,0-1.855-.009-2.773.079A1.871,1.871,0,0,0,2.029,13.3a6.636,6.636,0,0,0-.067.966Q1.954,21.9,1.956,29.537c0,1.585-.01,3.17.01,4.754a2.029,2.029,0,0,0,1.8,2.276,6.177,6.177,0,0,0,1,.063q4.989.007,9.977,0h.42c-.062.788-.1,1.522-.181,2.252A2.422,2.422,0,0,1,13.7,40.81c-.473.273-.949.546-1.391.864-.153.11-.208.357-.308.541a1.694,1.694,0,0,0,.522.189c2.388.013,4.777.01,7.165.011,1.763,0,3.527,0,5.29-.008.138,0,.371-.1.391-.193a.757.757,0,0,0-.147-.466c-.05-.086-.175-.132-.27-.19-.448-.272-.9-.538-1.346-.812a2.288,2.288,0,0,1-1.149-1.685c-.1-.783-.14-1.576-.208-2.407.137-.009.235-.021.333-.021ZM18.633,35.5a1.479,1.479,0,0,1,0-2.958,1.48,1.48,0,0,1,0,2.958Z"/></svg>