<svg id="Layer_1" data-name="Layer 1" xmlns="http://www.w3.org/2000/svg" viewBox="0 0 39 54"><defs><style>.cls-1{fill:#1e96d2;}</style></defs><title>RecentTiles</title><path class="cls-1" d="M31.175,20.64a9.6,9.6,0,0,0-.763-1.12.715.715,0,0,0-.847-.2.771.771,0,0,0-.529.679,1.033,1.033,0,0,0,.262.731,9.006,9.006,0,0,1-.053,10.471.819.819,0,1,0,1.333.945,10.5,10.5,0,0,0,2.012-6.062A10.717,10.717,0,0,0,31.175,20.64Z"/><path class="cls-1" d="M29.227,24.433a6.949,6.949,0,0,0-1-2.472.815.815,0,0,0-1.5.373.946.946,0,0,0,.173.585,5.711,5.711,0,0,1,.738,4.13,6.037,6.037,0,0,1-.761,1.936.807.807,0,0,0,.278,1.139.818.818,0,0,0,1.131-.318,7.809,7.809,0,0,0,1.137-3.872C29.36,25.433,29.32,24.928,29.227,24.433Z"/><path class="cls-1" d="M14.333,32.382a1.467,1.467,0,0,0-1.363-.852H10.355a1.5,1.5,0,0,0-1.218.6A1.273,1.273,0,0,0,8.993,33.4l1.519,3.491a1.467,1.467,0,0,0,1.363.852h2.614a1.5,1.5,0,0,0,1.218-.6,1.273,1.273,0,0,0,.145-1.269Zm.229,4.044a.084.084,0,0,1-.072.036H11.875a.087.087,0,0,1-.081-.051l-1.519-3.491a.071.071,0,0,1,.009-.075.084.084,0,0,1,.072-.036H12.97a.087.087,0,0,1,.081.051l1.519,3.491A.071.071,0,0,1,14.561,36.427Z"/><path class="cls-1" d="M24.635,23.329q0-2.655,0-5.31v-.037a2.128,2.128,0,0,0-.007-.231,1.589,1.589,0,0,0-1.017-1.379,1.641,1.641,0,0,0-1.742.351c-.908.788-1.834,1.589-2.728,2.363Q17.971,20.1,16.8,21.112c-1.4,0-6.924,0-8.673,0a1.63,1.63,0,0,0-1.717,1.722q0,3.03,0,6.06A1.619,1.619,0,0,0,8.124,30.6H9.147c1.151,0,6.4,0,7.569,0,.355.3.711.61,1.058.91l.325.281,3.82,3.305a1.621,1.621,0,0,0,2.716-1.268q0-2.675,0-5.349a3.054,3.054,0,0,0,0-5.154Zm-1.6-5.362v.051q0,3.941,0,7.883v2.009q0,2.961,0,5.921a.31.31,0,0,1-.012.094l-.008,0a.317.317,0,0,1-.051-.037l-3.821-3.305-.323-.28c-.387-.335-.787-.682-1.186-1.019a1.23,1.23,0,0,0-.767-.281c-1.039,0-6.149,0-7.179,0H8.124a.5.5,0,0,1-.105-.009.484.484,0,0,1-.009-.1q0-3.03,0-6.06a.5.5,0,0,1,.011-.113.49.49,0,0,1,.109-.01c1.8,0,7.368,0,8.8,0h0a1.2,1.2,0,0,0,.809-.3q1.221-1.059,2.443-2.115c.9-.774,1.821-1.575,2.73-2.364a.48.48,0,0,1,.1-.073l.006,0h0a.28.28,0,0,1,.006.04C23.037,17.913,23.037,17.944,23.036,17.968Z"/></svg>