<svg id="Layer_1" data-name="Layer 1" xmlns="http://www.w3.org/2000/svg" viewBox="0 0 39 54"><defs><style>.cls-1{fill:#1e96d2;}</style></defs><title>RecentTiles</title><path class="cls-1" d="M9.127,29.821c.1.2.189.393.295.575a9.869,9.869,0,0,0,2.547,2.861,10.424,10.424,0,0,0,4.5,1.993,12.693,12.693,0,0,0,1.941.2c.351.011.7-.007,1.051-.014.1,0,.113.028.113.115q0,2.1,0,4.2c0,.095-.03.119-.119.105-.511-.081-1.023-.158-1.534-.237l-1.9-.291-1.817-.281-2.02-.312L10.017,38.4c-.267-.041-.534-.083-.8-.119-.069-.009-.1-.029-.1-.1q0-4.156,0-8.311A.34.34,0,0,1,9.127,29.821Z"/><path class="cls-1" d="M23.028,30.78l.022-.009c.11.181.208.372.331.541a5.609,5.609,0,0,0,2.89,2.05,7.7,7.7,0,0,0,3.714.179v3.573q-.947.124-1.9.249c-.842.112-1.684.228-2.525.34-.793.106-1.586.208-2.38.317-.113.016-.161,0-.161-.133q.007-3.5,0-6.992Z"/><path class="cls-1" d="M22.47,41.744v-.184c0-.43-.074-.519-.494-.594a.015.015,0,0,1-.012-.014V12.667h0V12.1a1.3,1.3,0,0,0-1.545-1.28l-1.07.2c-.391.075-.759.145-1.06.2l-4.528.845-2.537.473-1.371.253-1.043.193-.659.123-.5.094a1.042,1.042,0,0,0-.852,1.03L6.8,15q0,11.119,0,22.238V39.1a.314.314,0,0,0-.128.286v.177c0,.227,0,.461,0,.691a.322.322,0,0,0,.294.348q1.415.225,2.828.454l-.306.162-.011.006a.363.363,0,0,0-.2.21.7.7,0,0,0,.038.549.646.646,0,0,0,.4.321,1.461,1.461,0,0,0,1.032-.067c.385-.182.771-.378,1.144-.566l.386-.195c.025-.012.029-.012.043-.009.26.045.523.087.778.127l.4.063.831.136-.07.038-.343.183-.011.006a.341.341,0,0,0-.189.2.671.671,0,0,0,.232.734,1.434,1.434,0,0,0,.79.253,1.26,1.26,0,0,0,.519-.113c.427-.192.846-.409,1.252-.62l.441-.227a.146.146,0,0,1,.106-.014c.436.074.88.145,1.309.214l.924.149q1.181.191,2.362.384a.421.421,0,0,0,.451-.217.413.413,0,0,1,.126-.13.462.462,0,0,0,.245-.424C22.469,42.054,22.469,41.9,22.47,41.744Zm-14.1-2.661V15.029l1.674-.292,3-.525,2.243-.395,2.366-.416,1.231-.214,1.513-.264V40.989l-.963-.153-3.717-.589-1.266-.2-1.287-.2-1.214-.191-1.906-.3L9.111,39.2C8.869,39.162,8.619,39.121,8.366,39.083Z"/><path class="cls-1" d="M32.333,38.787c-.006-.144-.005-.287,0-.438,0-.079,0-.157,0-.236V38.1a.328.328,0,0,0-.1-.269c0-.016,0-.033,0-.048q0-9.248,0-18.5V17.574a1.14,1.14,0,0,0-.934-1.119c-.633-.116-1.253-.232-1.891-.351L29,16.029l-2.212-.413-3.5-.653a.223.223,0,0,0-.264.22v1.39a.223.223,0,0,0,.185.22l.809.141,1.355.238,1.478.26,2.168.377L30.1,18l.7.122v2.136c0,5.75,0,11.7,0,17.544h0c-.719.108-1.449.223-2.155.335l-.444.07-1.313.209-1.107.176-2.571.406a.223.223,0,0,0-.189.221v1.155a.223.223,0,0,0,.259.221l.234-.038a.52.52,0,0,1,.361.021c.514.283.914.484,1.3.653a1.126,1.126,0,0,0,.457.1,1.193,1.193,0,0,0,.69-.231.542.542,0,0,0,.237-.475.568.568,0,0,0-.309-.463l-.064-.034.242-.039,1.168-.19c.006,0,.017,0,.066.022l.2.1c.32.162.651.329.981.488a1.3,1.3,0,0,0,.9.082.617.617,0,0,0,.468-.531.491.491,0,0,0-.293-.537h0c.677-.111,1.377-.225,2.066-.334A.355.355,0,0,0,32.333,38.787Z"/></svg>