<svg id="Layer_1" data-name="Layer 1" xmlns="http://www.w3.org/2000/svg" viewBox="0 0 39 54"><defs><style>.cls-1{fill:#999;}.cls-2{fill:#fff;}</style></defs><title>RecentTiles</title><circle class="cls-1" cx="19.5" cy="27" r="17.425"/><path class="cls-2" d="M25.535,20.392c.677.106.889.332.851,1.012a7.36,7.36,0,0,1-.792,2.959c-.151.3-.346.554-.757.391-.624,2.9-2.117,4.945-5.315,4.944-2.248,0-4.427-1.275-5.155-4.905-.373.089-.577-.139-.718-.429a7.054,7.054,0,0,1-.774-3.031c-.007-.671.164-.846.824-.936-.075-.584-.187-1.167-.219-1.754a5.279,5.279,0,0,1,1.6-4.518c.186-.167.4-.309.568-.443l-.541-1.074.081-.095c.506.031,1.013.058,1.519.095a15.4,15.4,0,0,0,3.525-.1,3.241,3.241,0,0,1,3.212,1.779.551.551,0,0,0,.5.4,2.269,2.269,0,0,1,1.84,2.082,8.853,8.853,0,0,1-.171,3.2C25.59,20.107,25.563,20.25,25.535,20.392Z"/><path class="cls-2" d="M19.633,42.206A15.012,15.012,0,0,0,31.822,35.97a8.7,8.7,0,0,0-.159-1.276c-.009-.045-.021-.088-.031-.132a2.71,2.71,0,0,0-.168-.539L31.456,34l-.022-.049a2.909,2.909,0,0,0-2.1-1.722c-.416-.106-.825-.231-1.227-.371q-.8-.288-1.569-.646A21,21,0,0,1,24.344,30L24,29.788l-.009.03-.024-.013L21.39,37.929l-.072,0c-.138-.381-.278-.761-.414-1.143-.165-.463-.315-.932-.5-1.388a.6.6,0,0,1,.076-.568,9.5,9.5,0,0,0,.752-1.566,1.072,1.072,0,0,0-.894-1.511,3.752,3.752,0,0,0-1.414,0,1.072,1.072,0,0,0-.894,1.511,9.5,9.5,0,0,0,.752,1.566.6.6,0,0,1,.076.568c-.18.457-.33.925-.5,1.388-.136.382-.276.762-.414,1.143l-.072,0L15.309,29.8l-.024.013-.009-.03L14.927,30a20.986,20.986,0,0,1-2.194,1.211q-.769.358-1.569.646c-.4.141-.81.266-1.227.371a2.909,2.909,0,0,0-2.1,1.722L7.815,34l-.009.02a2.72,2.72,0,0,0-.168.539c-.01.044-.022.087-.031.132a8.7,8.7,0,0,0-.159,1.284A15.012,15.012,0,0,0,19.633,42.206Z"/></svg>