<svg id="Layer_1" data-name="Layer 1" xmlns="http://www.w3.org/2000/svg" viewBox="0 0 39 54"><defs><style>.cls-1{fill:#1e96d2;}</style></defs><title>RecentTiles</title><path class="cls-1" d="M19.442,20.172a6.735,6.735,0,0,0-5.8,3.208c-.5.721-.948,1.486-1.463,2.2a6.984,6.984,0,0,1-2.1,1.925.739.739,0,1,1-.745-1.258,7.765,7.765,0,0,0,2.261-2.382,21.918,21.918,0,0,1,1.934-2.632c3.4-3.755,9.855-3.238,12.841.931a7.4,7.4,0,0,1,1.292,6.027c-.163.827-.246,1.669-.387,2.5a3.411,3.411,0,0,0,.835,2.937c.276.318.58.612.862.926a.725.725,0,0,1,0,1.011.7.7,0,0,1-.977.062,5.67,5.67,0,0,1-2.169-3.5,12.226,12.226,0,0,1,.133-2.551c.079-.789.2-1.575.34-2.357A5.466,5.466,0,0,0,24.825,22.6,6.786,6.786,0,0,0,19.442,20.172Z"/><path class="cls-1" d="M22.92,27.522a6.246,6.246,0,0,1-.95,3.143,20.116,20.116,0,0,1-4.063,4.725c-1.391,1.234-2.858,2.382-4.306,3.551a1.25,1.25,0,0,1-.669.261.623.623,0,0,1-.632-.487.736.736,0,0,1,.3-.85c.969-.754,1.954-1.491,2.891-2.285a26.289,26.289,0,0,0,4.866-5.1A5.661,5.661,0,0,0,21.4,28.152a2.463,2.463,0,0,0-.851-2.344,1.973,1.973,0,0,0-2.888.565,7.719,7.719,0,0,0-.613,1.146,12.535,12.535,0,0,1-3.77,4.634c-1.049.793-2.118,1.56-3.185,2.33a.733.733,0,0,1-1.111-.114.752.752,0,0,1,.278-1.087q1.414-1.03,2.829-2.059a11.712,11.712,0,0,0,3.9-4.889,4.111,4.111,0,0,1,1.146-1.539,3.361,3.361,0,0,1,5.407,1.341A9.8,9.8,0,0,1,22.92,27.522Z"/><path class="cls-1" d="M23.133,31.7c.1-.607.291-1.581.427-2.561a14.652,14.652,0,0,0,.231-2.473,4.367,4.367,0,0,0-3.838-3.891,4.506,4.506,0,0,0-4.1,1.743,6.353,6.353,0,0,0-1.034,1.58,10.3,10.3,0,0,1-3.382,4.078c-.45.349-.92.675-1.4.989a.736.736,0,1,1-.787-1.233,13.364,13.364,0,0,0,3.253-2.809,6.483,6.483,0,0,0,.754-1.231,7.934,7.934,0,0,1,3.345-3.874,5.6,5.6,0,0,1,6,.232,5.386,5.386,0,0,1,2.638,5.374c-.121,1.206-.378,2.4-.575,3.6a5.8,5.8,0,0,0,.443,3.273,3.015,3.015,0,0,0,1.8,1.727c.1.038.21.077.312.121a.729.729,0,1,1-.5,1.37,4.51,4.51,0,0,1-2.864-2.43A8.05,8.05,0,0,1,23.133,31.7Z"/><path class="cls-1" d="M20.01,16.1a11.144,11.144,0,0,1,7.681,3.592,15.919,15.919,0,0,1,1.283,1.494.729.729,0,0,1-.087,1.088.751.751,0,0,1-1.1-.237,11.038,11.038,0,0,0-5.6-4.07,9.174,9.174,0,0,0-10.284,3.4c-.45.623-.886,1.256-1.315,1.894a.767.767,0,0,1-1.067.349.732.732,0,0,1-.195-1.1,16.4,16.4,0,0,1,3.443-4.172C14.709,16.769,16.967,16.141,20.01,16.1Z"/><path class="cls-1" d="M19.348,13.555a13.293,13.293,0,0,1,8.459,2.886.844.844,0,0,1,.409.781.74.74,0,0,1-1.223.453,15.517,15.517,0,0,0-1.921-1.268,11.625,11.625,0,0,0-11.556.219,11.971,11.971,0,0,0-2,1.7c-.376.35-.772.45-1.112.161a.741.741,0,0,1-.01-1.12,10.6,10.6,0,0,1,4.718-3.126A12.786,12.786,0,0,1,19.348,13.555Z"/><path class="cls-1" d="M20.152,27.734c-.042.109-.1.3-.184.476a17.416,17.416,0,0,1-3.021,4.219,35.32,35.32,0,0,1-5.539,4.781.754.754,0,0,1-1.141-.112c-.249-.362-.147-.766.293-1.082a33.678,33.678,0,0,0,5.663-4.974,14.8,14.8,0,0,0,2.533-3.7.7.7,0,0,1,.86-.409A.753.753,0,0,1,20.152,27.734Z"/><path class="cls-1" d="M30.149,28.308a29.6,29.6,0,0,1-.459,3.809c-.088.573-.458.861-.9.764-.466-.1-.664-.477-.541-1.047a17.246,17.246,0,0,0,.425-4.322,9.171,9.171,0,0,0-.59-3.091.731.731,0,1,1,1.35-.554,10.024,10.024,0,0,1,.7,3.483S30.161,28.068,30.149,28.308Z"/><path class="cls-1" d="M18.243,36.706a2.639,2.639,0,0,1,2.364,1.33,8.385,8.385,0,0,1,.622,1.425.709.709,0,0,1-.465.951.755.755,0,0,1-.932-.522,7.388,7.388,0,0,0-.539-1.176.882.882,0,0,0-1.419-.289,12.3,12.3,0,0,0-1.325,1.184.782.782,0,0,1-1.114.155.726.726,0,0,1,.006-1.115,14.646,14.646,0,0,1,1.7-1.487A4.363,4.363,0,0,1,18.243,36.706Z"/><path class="cls-1" d="M21.714,32.7a.71.71,0,0,1,.659,1c-.713,1.515-.151,2.715.894,3.8.257.267.563.485.842.732a.724.724,0,0,1,.14,1,.7.7,0,0,1-.991.175,5.872,5.872,0,0,1-2.6-3.673,3.98,3.98,0,0,1,.352-2.573A.75.75,0,0,1,21.714,32.7Z"/></svg>