<svg xmlns="http://www.w3.org/2000/svg" viewBox="0 0 800 330"><defs><style>.cls-1{isolation:isolate;}.cls-2{fill:#242425;mix-blend-mode:multiply;}</style></defs><title>CM-Creative</title><g class="cls-1"><g id="Layer_1" data-name="Layer 1"><path class="cls-2" d="M279.828,266.9,114.563,193.655a4.682,4.682,0,0,1-2.359-6.293,51.656,51.656,0,0,0-.664-45.956,4.676,4.676,0,0,1,2.341-6.421l165.967-71.9a5.214,5.214,0,0,1,6.384,1.717C294.45,76.87,299.6,94.086,299.6,113.21c0,19.462-5.332,36.947-13.805,49.045a4.725,4.725,0,0,0,0,5.52c8.474,12.1,13.805,29.582,13.805,49.046,0,19.107-5.138,36.31-13.347,48.377a5.209,5.209,0,0,1-6.421,1.7M465.418,77.068c31.131.052,49.749,28.51,37.118,55.676-1.946,4.187-4.846,7.328-7.8,10.6-8.691,9.249-19.759,11.359-31.879,11.341l-64.906-.116c-32.407-.074-51.489-29.935-36.811-57.29,7.823-14.577,20.712-20.364,36.957-20.33ZM565.943,308.761q-.531-143.392-.023-286.791c.031-9.141-1.958-11.941-11.657-11.927-238.228.3-10.485.245-248.71.161a40.239,40.239,0,0,0-17.352,3.79c-45.965,21.06-92.057,41.844-138.1,62.728-39.461,17.9-79.167,35.284-118.281,53.918C7.094,142.418,2.256,174.1,23.126,194.347c3.658,2.051,9.389,5.829,15.567,8.634q124.407,56.482,248.9,112.784a43.644,43.644,0,0,0,18.566,4.052c238.228-.109,10.486-.15,248.713.143,9.142.01,11.113-2.269,11.077-11.2M721.449,89.315c15.014,15.53,14.568,38.66-1.04,53.982-15.135,14.86-39.572,14.938-54.311.171-14.986-15.012-14.911-41.044.16-55.561,15.586-15.014,39.923-14.391,55.191,1.409M595.327,19.856q.459,145.071.016,290.144c-.023,7.97,2.157,10.057,10.035,10,47.921-.359,57.984-.069,105.9-.228,21.451-.07,40.22-7.134,55.447-23.169,15.428-14.342,22.859-32.675,22.981-53.693.3-51.981.481-103.97-.036-155.949-.433-43.362-33.7-76.356-76.954-76.7-48.32-.387-58.791.051-107.113-.256-7.576-.048-10.307,1.553-10.279,9.855"/></g></g></svg>