<svg xmlns="http://www.w3.org/2000/svg" viewBox="0 0 500 330"><defs><style>.cls-1{isolation:isolate;}.cls-2{fill:#242425;mix-blend-mode:multiply;}</style></defs><title>CM-Creative</title><g class="cls-1"><g id="Layer_1" data-name="Layer 1"><path class="cls-2" d="M500,137.062a69.384,69.384,0,0,1-5.265,6.279c-8.691,9.249-19.759,11.359-31.879,11.341l-64.906-.116c-32.407-.074-51.49-29.935-36.811-57.29,7.823-14.577,20.712-20.364,36.957-20.33l67.321.122c15.29.026,27.549,6.912,34.582,17.124V10.117c-146.271.217,22.042.164-194.448.088a40.243,40.243,0,0,0-17.352,3.79c-45.965,21.06-92.056,41.844-138.1,62.728-39.461,17.9-79.167,35.284-118.281,53.918C7.094,142.418,2.256,174.1,23.125,194.346c3.659,2.051,9.39,5.829,15.567,8.634q124.407,56.482,248.9,112.783a43.643,43.643,0,0,0,18.566,4.052c216.2-.1,48.634-.142,193.847.07ZM285.791,167.775c8.474,12.1,13.805,29.582,13.805,49.046,0,19.106-5.138,36.31-13.347,48.377a5.209,5.209,0,0,1-6.421,1.7L114.563,193.655a4.682,4.682,0,0,1-2.359-6.293,51.654,51.654,0,0,0-.664-45.956,4.676,4.676,0,0,1,2.341-6.421l165.966-71.9a5.214,5.214,0,0,1,6.384,1.717C294.45,76.87,299.6,94.086,299.6,113.209c0,19.462-5.332,36.947-13.805,49.045A4.725,4.725,0,0,0,285.791,167.775Z"/></g></g></svg>