<svg xmlns="http://www.w3.org/2000/svg" viewBox="0 0 510 510"><defs><style>.cls-1{isolation:isolate;}.cls-2,.cls-3{fill:#242425;}.cls-3{mix-blend-mode:multiply;}</style></defs><title>CM-Creative</title><g class="cls-1"><g id="Layer_1" data-name="Layer 1"><path class="cls-2" d="M270.949,261.478c3.963,2.128,8.29-.639,8.3-5.337l.017-9.411a5.873,5.873,0,0,0-1.644-4.623,6.21,6.21,0,0,0-1.536-1.131c-3.936-1.831-8.06.868-8.067,5.382L268,256.119A5.559,5.559,0,0,0,270.949,261.478Z"/><path class="cls-2" d="M277.642,217.261a5.62,5.62,0,0,0-.024-7.875,5.429,5.429,0,0,0-7.822-.151,5.622,5.622,0,0,0-.2,8A5.774,5.774,0,0,0,277.642,217.261Z"/><path class="cls-2" d="M295.28,272.337a13.638,13.638,0,0,0-14.116.067.686.686,0,0,1-.8,0,13.638,13.638,0,0,0-14.121-.064.756.756,0,0,0-.249.926l10.418,24.064a.677.677,0,0,0,.93.339,7.48,7.48,0,0,1,6.659-.1.678.678,0,0,0,.912-.342l10.613-23.962A.756.756,0,0,0,295.28,272.337Z"/><path class="cls-2" d="M472.151,271.347q.927-7.737,1.3-15.649a209.476,209.476,0,0,0-12.366-81.32A98.694,98.694,0,1,0,315.431,42.468a210.922,210.922,0,0,0-136.337,11.21A122.6,122.6,0,0,0,54.119,263.692a209.839,209.839,0,0,0,69.246,138.983,80.643,80.643,0,0,0,152.18,53.259,209.637,209.637,0,0,0,137-61.64,68.827,68.827,0,0,0,59.61-122.948ZM306,97.474a88.62,88.62,0,1,1,84.493,92.563A88.72,88.72,0,0,1,306,97.474ZM258.34,210.5a11.046,11.046,0,0,1,11.114-11.158c7.531-.075,15.064-.049,22.6-.005a10.316,10.316,0,0,1,7.78,3.332,10.656,10.656,0,0,1,3.357,8.039c.022,6.948-.019,8.407.033,15.355.009,1.142-.294,1.458-1.449,1.455q-21.021-.061-42.041,0c-1.2,0-1.435-.392-1.428-1.49C258.347,219.025,258.284,217.507,258.34,210.5Zm44.854,58.949a6.33,6.33,0,0,1-.587,2.692q-8.179,18.04-16.342,36.088c-.406.9-.954,1.726-1.251,2.257a5.565,5.565,0,0,1-9.23-1.26c-2.7-5.671-5.219-11.428-7.812-17.15-3.026-6.676-6.038-13.359-9.089-20.024a5.837,5.837,0,0,1-.549-2.516c.012-34.542.021-1.52-.023-36.062,0-1.406.4-1.695,1.729-1.69q20.777.07,41.555,0c1.294,0,1.625.281,1.623,1.606C303.172,267.93,303.178,234.909,303.194,269.451Zm-183.13,6.744a112.513,112.513,0,1,1,80.977-29.3A111.778,111.778,0,0,1,120.064,276.195ZM270.653,430.516a70.57,70.57,0,1,1-67.284-73.71A70.65,70.65,0,0,1,270.653,430.516Zm57.375-103a35.875,35.875,0,0,1-4.6.519H243.752l-2.816-.321a30.7,30.7,0,0,1-7.061-58.833,35.911,35.911,0,0,1,18.605-26.807V253.1a26.7,26.7,0,0,0-9.7,19.378l-.157,3.3-3.175.909a21.489,21.489,0,0,0,5.874,42.144h77.586l.469,0a13.152,13.152,0,0,0,3.542-25.783l-4.611-1.335,1.527-4.551a24.119,24.119,0,0,0-14.8-30.41v-9.607A33.332,33.332,0,0,1,333.678,285.9a22.356,22.356,0,0,1-5.65,41.624Zm165.5,4.328A58.761,58.761,0,1,1,437.5,270.473,58.827,58.827,0,0,1,493.527,331.848Z"/><path class="cls-3" d="M471.027,330.909a3.968,3.968,0,0,1-.135-1.259,33.206,33.206,0,0,0-2.744-10.491,31.83,31.83,0,0,0-4.858-7.788A33.5,33.5,0,0,0,444,299.906a29.983,29.983,0,0,0-3.988-.534c-.909-.061-1.819-.128-2.725-.116a34.209,34.209,0,0,0-12.051,2.258,33.1,33.1,0,0,0-3.049,1.337c-.141.07-.268.125-.259.335a39.326,39.326,0,0,1-.24,4.142c-.034.514-.081,1.027-.13,1.538a.354.354,0,0,0,.122.309c.826.819,1.655,1.633,2.468,2.464.2.2.338.094.508-.007a24.686,24.686,0,0,1,14.333-3.454A24.755,24.755,0,0,1,461.7,328.265a26.389,26.389,0,0,1,.405,4.85,23.763,23.763,0,0,1-2.69,10.842,23.78,23.78,0,0,1-3.138,4.706,24.679,24.679,0,0,1-23.75,8.236,24.577,24.577,0,0,1-19.717-21.217,26.011,26.011,0,0,1-.116-4.578,23.876,23.876,0,0,1,2.764-9.79c.229-.435.473-.864.74-1.277a.286.286,0,0,0-.05-.432q-1.366-1.346-2.719-2.71a.506.506,0,0,0-.457-.148c-.839.082-1.676.194-2.518.227a17.634,17.634,0,0,1-2.34.081.584.584,0,0,0-.666.372,32.645,32.645,0,0,0-2.819,7.6,31.1,31.1,0,0,0-.688,4.1,32.5,32.5,0,0,0-.214,4.262,36.148,36.148,0,0,0,.822,6.708,32.287,32.287,0,0,0,2.15,6.431,32.613,32.613,0,0,0,3.792,6.346,33.032,33.032,0,0,0,9.476,8.534,33.776,33.776,0,0,0,5.831,2.8,32.488,32.488,0,0,0,7.8,1.826c.748.079,1.5.145,2.249.217H439.3c.1-.125.241-.069.364-.076a29.812,29.812,0,0,0,3.421-.39,32.671,32.671,0,0,0,4.556-1.106,34.872,34.872,0,0,0,5.994-2.578,34.37,34.37,0,0,0,7.611-5.715,31.581,31.581,0,0,0,2.335-2.612,33.409,33.409,0,0,0,6.494-12.992,22.956,22.956,0,0,0,.546-2.622,22.245,22.245,0,0,0,.333-3.149.119.119,0,0,1,.076-.122v-3.988"/><path class="cls-3" d="M422.345,325.822a13.53,13.53,0,0,0-1.18,3.509,16.155,16.155,0,0,0,5.477,15.974,15.457,15.457,0,0,0,8.894,3.828,16.223,16.223,0,0,0,13.878-5.074,15.708,15.708,0,0,0,4.421-9.577,16.431,16.431,0,0,0-12.922-17.842,16.241,16.241,0,0,0-10.243,1.024c-.27.117-.271.185-.073.381q2.966,2.936,5.914,5.889a.652.652,0,0,0,.528.174,8.469,8.469,0,0,1,8.116,4.823,8.688,8.688,0,1,1-16.462,3.431.5.5,0,0,0-.145-.42q-3.046-3.021-6.086-6.049a.625.625,0,0,0-.117-.072"/><path class="cls-3" d="M407.631,298.517c-.611-.616-1.157-1.17-1.707-1.72-.238-.24-.472-.49-.733-.7a2.29,2.29,0,0,0-3.047.077q-.791.73-1.522,1.524a2.268,2.268,0,0,0,.053,3.179c.636.653,1.3,1.284,2.013,1.991-.435.042-.775.082-1.117.108-1.407.109-2.815.221-4.224.322a.817.817,0,0,0-.8.52.766.766,0,0,0,.242.88q4.484,4.462,8.974,8.921a4.026,4.026,0,0,0,3.355,1.084c1.55-.133,3.1-.24,4.652-.372a.791.791,0,0,1,.686.266q8.544,8.522,17.094,17.037a2.583,2.583,0,0,0,1.974.863c.548-.013,1.1.059,1.646.071a1.927,1.927,0,0,0,2.082-2.1c-.029-.7-.092-1.4-.166-2.1a2.066,2.066,0,0,0-.692-1.237q-5.933-5.9-11.859-11.8-2.567-2.556-5.14-5.109a.748.748,0,0,1-.248-.68c.16-1.842.294-3.686.428-5.531a4.012,4.012,0,0,0-1.3-3.264q-4.3-4.259-8.583-8.537c-.093-.093-.185-.185-.285-.269a.782.782,0,0,0-1.3.542q-.157,2.024-.315,4.05c-.05.63-.105,1.261-.166,1.994"/><path class="cls-2" d="M142.058,203.09l-6.006,7.021-7.082-5.3c-1.742,1.013-3.5,1.943-5.141,3.052a2.164,2.164,0,0,0-.65,1.719,49.9,49.9,0,0,0,.854,5.524c.224,1.066.077,1.7-1.054,2.036-2.152.642-4.262,1.433-6.431,2.007a1.858,1.858,0,0,1-1.6-.694c-1.021-1.705-1.786-3.565-2.832-5.253a3.126,3.126,0,0,0-1.9-1.017,6.468,6.468,0,0,0-1.9.219c-3.8.4-3.8.4-4.829,4.009-1.259,4.416-1.259,4.416-5.714,3.848-4.775-.609-4.775-.609-4.84-5.473-.049-3.65-.049-3.65-3.374-4.954-3.222-1.264-3.218-1.26-5.526,1.244-1.046,1.135-2.109,2.254-3.172,3.372a2.67,2.67,0,0,1-.587.273c-2.061-1.38-4.226-2.859-6.424-4.286-.913-.593-.849-1.2-.414-2.09,1.013-2.072,1.908-4.2,2.854-6.313-1.412-1.5-2.728-3-4.165-4.363a1.906,1.906,0,0,0-1.62-.239c-1.883.643-3.737,1.381-5.563,2.173a1.386,1.386,0,0,1-2.052-.657c-1.293-2.216-2.639-4.4-4.043-6.731,1.771-1.489,3.391-2.941,5.111-4.263,1.108-.851,1.7-1.692.823-3.019a2.481,2.481,0,0,1-.2-.54c-1.555-4.377-1.555-4.377-6.227-4.661-3.722-.226-3.722-.226-4.021-4.03-.423-5.377-.423-5.377,4.737-6.711a8.3,8.3,0,0,0,2.033-.559,2.841,2.841,0,0,0,1.2-1.4,12.459,12.459,0,0,0,.267-2.289c.5-3.406.5-3.4-2.585-5.18-4.419-2.54-4.426-2.542-2.526-7.334.493-1.243,1.043-2.463,1.6-3.776,2.353.475,4.558.859,6.729,1.382a1.915,1.915,0,0,0,2.475-1.115c.831-1.511,1.864-2.912,2.838-4.4l-4.511-6.69,6.01-6.963c2.2,1.654,3.94,2.86,5.553,4.221,1.137.959,2.111,1.338,3.277.127a5.276,5.276,0,0,1,1.132-.729c3.122-1.872,3.122-1.871,2.638-5.4-.026-.191-.054-.382-.086-.572-.725-4.3-.725-4.3,3.361-5.675,4.672-1.569,4.672-1.569,6.928,2.821,1.663,3.236,1.663,3.236,5.226,2.922,3.414-.3,3.41-.3,4.414-3.518.44-1.41.9-2.815,1.355-4.22a4.561,4.561,0,0,1,.382-.606l9,1.213c0,2.227,0,4.211,0,6.194,0,.514-.161,1.135.065,1.526,1.258,2.179,3.909,1.763,5.756,2.907.308.191,1.259-.276,1.663-.685,1.621-1.639,3.145-3.375,4.879-5.265L135.865,131l-3.463,7.763c1.388,1.482,2.736,3.02,4.212,4.424a1.952,1.952,0,0,0,1.65.163c1.88-.653,3.688-1.519,5.582-2.119a2.024,2.024,0,0,1,1.805.564c1.468,2.171,2.774,4.451,4.194,6.786-1.825,1.545-3.443,3.005-5.161,4.337-1.059.821-1.587,1.627-.787,2.894a2.013,2.013,0,0,1,.338.9c.216,3.635,2.445,4.36,5.652,4.395,4.145.045,4.142.245,4.506,4.489.422,4.925.422,4.925-4.319,6.078-3.454.84-3.454.84-3.924,4.28-.492,3.594-.492,3.594,2.605,5.351,4.38,2.485,4.38,2.485,2.534,7.163-1.545,3.913-1.545,3.913-5.659,3.119-4.187-.808-4.075-.725-6.616,2.694-1.24,1.668-1.377,2.856.017,4.449A42.594,42.594,0,0,1,142.058,203.09Zm-37.637-17.208a15.485,15.485,0,1,0-.11-30.971,15.258,15.258,0,0,0-15.435,15.245C88.9,180.618,97,185.918,104.421,185.882Z"/><path class="cls-2" d="M157.055,125.391c1.463-1.079,2.863-2.091,4.239-3.135.78-.592,1.479-.7,2.169.125a6.227,6.227,0,0,0,.724.636c3.178,2.784,3.2,2.826,7.106,1.068a2.752,2.752,0,0,0,1.139-1.749c1.083-4.57,1.055-4.515,5.777-4.474,1.444.012,2.144.5,2.276,1.891a2.7,2.7,0,0,1,.073.377c-.218,3.751,2.55,4.509,5.3,5.247a1.463,1.463,0,0,0,1.018-.231,9.447,9.447,0,0,0,1.165-1.007c3.193-2.838,3.195-2.841,6.549-.175.6.476,1.175.98,1.829,1.526a38.483,38.483,0,0,0-1.828,4.3,3.738,3.738,0,0,0,.308,2.351c1.239,2.805,3.369,3.751,6.33,2.8,1.571-.5,2.257.325,2.768,1.742,1.573,4.364,1.653,4.411-2.38,6.577a2.412,2.412,0,0,0-1.547,2.869,5.375,5.375,0,0,1-.033,1.921,1.693,1.693,0,0,0,1.111,2.144,4.846,4.846,0,0,1,1,.58c1,.739,2.837,1.552,2.8,2.245a20.327,20.327,0,0,1-1.661,5.481c-.079.217-.632.33-.977.363a8.213,8.213,0,0,1-1.345-.08c-4.211-.307-4.225-.316-6.455,3.293a2,2,0,0,0-.154,1.376,16.247,16.247,0,0,0,.743,1.773c.385,1.052,1.34,2.684.975,3.081a27.657,27.657,0,0,1-4.7,3.609c-.168.117-.611-.047-.863-.192a3,3,0,0,1-.877-.747c-1.946-2.543-4.3-3.108-7.065-1.425a3.24,3.24,0,0,0-1.392,1.5c-.479,1.453-.721,2.984-1.117,4.744-1.9,0-3.8.057-5.681-.045-.4-.022-.911-.553-1.118-.973a5.454,5.454,0,0,1-.422-1.869c-.261-2.774-2.114-3.623-4.521-4.286-1.607-.442-2.236.414-3.109,1.2-2.706,2.445-2.716,2.466-5.685.4-.839-.583-1.582-1.3-2.417-2a14.8,14.8,0,0,1,.877-1.912c1.533-2.393,1.394-4.474-.65-6.613a2.79,2.79,0,0,0-2.694-1.182c-4.674.605-4.635.551-5.92-3.985-.39-1.376-.339-2.363,1.146-2.9.179-.065.324-.231.5-.278,3.531-.923,3.269-3.749,3.089-6.411-.037-.552-.832-1.19-1.423-1.545-4.117-2.475-4.071-2.433-2.418-6.943.5-1.358,1.207-1.832,2.547-1.533.124.028.269-.013.383.032,3.4,1.359,5.008-.892,6.47-3.3a2.04,2.04,0,0,0,.032-1.553C158.491,128.608,157.812,127.153,157.055,125.391Zm35.181,21.423a15.492,15.492,0,1,0-15.368,15.548A15.453,15.453,0,0,0,192.236,146.813Z"/><path class="cls-2" d="M92.459,170.214a11.989,11.989,0,0,1,11.927-11.656,11.841,11.841,0,1,1-11.927,11.656Zm11.938-8.1a8.29,8.29,0,0,0-.161,16.579,8.29,8.29,0,0,0,.161-16.579Z"/><path class="cls-2" d="M176.969,135.046a11.842,11.842,0,1,1-12.039,11.52A11.895,11.895,0,0,1,176.969,135.046Zm-8.494,11.711a8.3,8.3,0,0,0,8.259,8.418,8.468,8.468,0,0,0,8.361-8.369,8.348,8.348,0,0,0-8.307-8.19A8.262,8.262,0,0,0,168.475,146.758Z"/><path class="cls-2" d="M198.845,465.461c-1.333-.918-2.644-1.869-4.011-2.731a3.008,3.008,0,0,0-1.425-.328c-2.1-.091-2.853-.838-2.888-2.974-.019-1.191-.037-2.385.007-3.575.064-1.731.873-2.652,2.568-2.674q6.682-.087,13.367,0c1.7.022,2.507.943,2.568,2.674.045,1.294.047,2.592,0,3.885-.067,1.815-.89,2.652-2.725,2.622a2.986,2.986,0,0,0-2.228,1.021,20.826,20.826,0,0,1-3.364,2.08Z"/><path class="cls-2" d="M159.926,424.674a4.133,4.133,0,0,1,4.24-2.188c2.534.109,5.077.008,7.616.034,2.151.022,3.447,1.248,3.415,3.164-.03,1.815-1.325,2.986-3.421,3.011-2.539.031-5.082-.081-7.616.037a4.141,4.141,0,0,1-4.234-2.19Z"/><path class="cls-2" d="M239.631,426.543a4.133,4.133,0,0,1-4.24,2.188c-2.534-.109-5.077-.008-7.616-.034-2.151-.022-3.447-1.248-3.415-3.164.03-1.815,1.325-2.986,3.421-3.011,2.539-.031,5.082.081,7.616-.037a4.141,4.141,0,0,1,4.234,2.19Z"/><path class="cls-2" d="M199.779,450.167c-2.127,0-4.254.021-6.381-.007-1.84-.024-2.724-.813-2.731-2.628a10.438,10.438,0,0,0-1.8-5.686c-1.391-2.185-2.828-4.346-4.107-6.6-4.582-8.06-3.431-16.993,2.886-22.9a17.8,17.8,0,0,1,29.938,13.478c-.093,4.723-2.106,8.686-4.584,12.506a29.63,29.63,0,0,0-2.484,3.938,21.131,21.131,0,0,0-1.548,5.115c-.319,1.98-.93,2.764-2.96,2.781C203.929,450.18,201.854,450.167,199.779,450.167Zm5.279-35.161c-4.066-2.7-10.438-1.535-14.057,2.418-3.979,4.346-3.391,10.978-1.031,13.557C190.429,421.379,195.632,416.226,205.058,415.006Z"/><path class="cls-2" d="M183.584,406.343c-.566.762-1.014,1.943-1.825,2.3a3.6,3.6,0,0,1-3.119-.1,96.435,96.435,0,0,1-7.388-7.285,2.87,2.87,0,0,1,.381-3.822,2.84,2.84,0,0,1,3.814-.326c2.5,2.313,4.884,4.76,7.256,7.208A7.535,7.535,0,0,1,183.584,406.343Z"/><path class="cls-2" d="M218.987,409.409c-.748-.575-1.92-1.043-2.263-1.859a3.615,3.615,0,0,1,.144-3.117,94.9,94.9,0,0,1,7.171-7.284,2.87,2.87,0,0,1,3.942.345,2.837,2.837,0,0,1,.266,3.818c-2.318,2.5-4.764,4.879-7.217,7.248A7.317,7.317,0,0,1,218.987,409.409Z"/><path class="cls-2" d="M183.709,444.931a13.811,13.811,0,0,1-1.46,2.53c-1.991,2.1-4.048,4.147-6.135,6.155a3.086,3.086,0,0,1-4.45.2,3.044,3.044,0,0,1,.008-4.44c2.1-2.211,4.281-4.352,6.483-6.466a2.648,2.648,0,0,1,3.42-.463A12.378,12.378,0,0,1,183.709,444.931Z"/><path class="cls-2" d="M215.976,444.861c.571-.758,1.026-1.936,1.838-2.289a3.6,3.6,0,0,1,3.118.115,96.5,96.5,0,0,1,7.383,7.29,2.871,2.871,0,0,1-.4,3.82,2.841,2.841,0,0,1-3.816.3c-2.5-2.315-4.88-4.763-7.249-7.214A7.481,7.481,0,0,1,215.976,444.861Z"/><path class="cls-2" d="M202.869,393.565c0,1.45.042,2.9-.009,4.35a3.077,3.077,0,1,1-6.154.012c-.065-3-.056-6.008,0-9.012a3.076,3.076,0,1,1,6.152-.012C202.919,390.455,202.868,392.011,202.869,393.565Z"/><path class="cls-2" d="M427.57,74.517c2.977,2.977,5.87,5.872,8.928,8.932,1.043-3.814,2.032-7.443,3.024-11.072l.1.011v62.17h-3.552c-7.16-.006-14.319-.03-21.479,0-.968,0-1.15-.311-1.148-1.2q.039-22.464,0-44.923a2.087,2.087,0,0,1,.751-1.732c4.116-3.719,8.2-7.477,12.293-11.222.307-.279.62-.549,1.084-.962"/><path class="cls-2" d="M349.563,134.539v-5.67c0-8.091.009-16.18-.015-24.269a1.819,1.819,0,0,1,.717-1.541Q359.4,95.243,368.5,87.373a.969.969,0,0,1,1.408-.122c1.706,1.142,3.449,2.234,5.2,3.305a1.245,1.245,0,0,1,.685,1.217c-.019,7.355-.006,14.712-.006,22.069,0,6.561-.017,13.122.011,19.682,0,.79-.225,1.037-1.028,1.032-7.544-.026-15.087-.017-22.631-.017h-2.575"/><path class="cls-2" d="M381.573,94.7c1.331.839,2.545,1.6,3.756,2.365,1.275.809,2.532,1.644,3.816,2.438a9.6,9.6,0,0,0,12.24-1.095c1.837-1.65,3.653-3.327,5.479-4.988.23-.208.476-.4.873-.73v4.619q-.006,18.066.011,36.133c0,.9-.273,1.118-1.135,1.116q-12.095-.039-24.191,0c-.74,0-.919-.234-.919-.934q.029-19.022.015-38.045c0-.242.03-.487.056-.884"/><path class="cls-2" d="M422.425,62.357,418.178,58.4c.039-.1.075-.2.112-.3,6.889-1.826,13.778-3.653,20.861-5.529-1.906,7.024-3.747,13.819-5.657,20.861l-5.752-5.863c-.356.3-.6.489-.835.7Q412.371,81.532,397.841,94.8c-2.191,2-3.5,2.127-6.02.53Q380.6,88.205,369.389,81.052a.981.981,0,0,0-1.41.122q-5.985,5.218-12,10.4a3.761,3.761,0,0,1-5.621-.324,3.543,3.543,0,0,1,.094-4.5,7.486,7.486,0,0,1,.826-.8q7.057-6.113,14.12-12.22c1.876-1.62,3.423-1.7,5.509-.371q11.251,7.176,22.509,14.341a1.02,1.02,0,0,0,1.483-.127q13.415-12.281,26.863-24.524c.206-.189.391-.4.665-.687"/></g></g></svg>