<svg id="Layer_1" data-name="Layer 1" xmlns="http://www.w3.org/2000/svg" width="120" height="120" viewBox="0 0 120 120"><title>CMicon</title><path d="M81.018,42.121c-1.277.531-2.817,1.22-4.394,1.811A3.507,3.507,0,0,0,74.1,47.217a26.484,26.484,0,0,1-.672,3.89,3.2,3.2,0,0,0,1.159,3.508c1.176.962,2.281,2.01,3.412,3.025a2.691,2.691,0,0,1,.619,3.845q-1.749,2.9-3.575,5.758a2.682,2.682,0,0,1-3.622,1.151c-1.533-.6-3.055-1.226-4.573-1.862a3.211,3.211,0,0,0-3.55.563A36.368,36.368,0,0,1,59.86,69.5a3.243,3.243,0,0,0-1.632,3.214c.115,1.517.208,3.035.291,4.554a2.85,2.85,0,0,1-2.537,3.346q-3,.7-6,1.381a2.848,2.848,0,0,1-3.749-1.892c-.586-1.359-1.127-2.737-1.676-4.112a3.381,3.381,0,0,0-3.024-2.345c-1.349-.13-2.687-.405-4.019-.668A3.166,3.166,0,0,0,34.2,74.074c-1.057,1.257-2.151,2.485-3.266,3.691a2.64,2.64,0,0,1-3.658.517q-2.9-1.752-5.756-3.576a2.743,2.743,0,0,1-1.157-3.73c.59-1.491,1.21-2.972,1.822-4.455a3.205,3.205,0,0,0-.589-3.546,36.623,36.623,0,0,1-2.429-3.42,3.218,3.218,0,0,0-3.212-1.621c-1.556.136-3.118.206-4.678.287a2.775,2.775,0,0,1-3.219-2.375q-.772-3.172-1.485-6.36a2.757,2.757,0,0,1,1.895-3.507c1.476-.628,2.941-1.281,4.428-1.882a2.971,2.971,0,0,0,1.962-2.61,41.208,41.208,0,0,1,.771-4.628,2.9,2.9,0,0,0-1.032-3.089c-1.23-1.026-2.418-2.1-3.606-3.178a2.787,2.787,0,0,1-.581-4.056q1.638-2.682,3.315-5.34a2.83,2.83,0,0,1,3.9-1.294q2.239.879,4.456,1.82a3.035,3.035,0,0,0,3.24-.418c1.218-.913,2.466-1.789,3.729-2.639a3.2,3.2,0,0,0,1.58-3.118c-.126-1.557-.2-3.118-.28-4.679a2.781,2.781,0,0,1,2.422-3.29q3.116-.747,6.239-1.459a2.772,2.772,0,0,1,3.556,1.8c.638,1.516,1.289,3.026,1.918,4.546a2.871,2.871,0,0,0,2.526,1.889,36.25,36.25,0,0,1,4.989.847,2.968,2.968,0,0,0,3.072-1.114c1.061-1.2,2.114-2.409,3.187-3.6A2.618,2.618,0,0,1,61.9,9.907q2.963,1.767,5.871,3.625a2.721,2.721,0,0,1,1.146,3.636c-.6,1.534-1.227,3.055-1.872,4.569a3.107,3.107,0,0,0,.429,3.351c.943,1.246,1.808,2.553,2.7,3.84a3.049,3.049,0,0,0,2.944,1.434c1.6-.136,3.2-.276,4.8-.366a2.656,2.656,0,0,1,3.111,2.313c.522,2.156,1.037,4.313,1.522,6.477A2.774,2.774,0,0,1,81.018,42.121ZM57.7,35.454a15.735,15.735,0,1,0-4.735,21.9A15.806,15.806,0,0,0,57.7,35.454Z" style="fill:#bebec3"/><path d="M57.18,85.235a2.525,2.525,0,0,1,1.671-.253c.658.02,1.315.059,1.973.082a4.276,4.276,0,0,0,.862-.01c1.554-.274,3.637-4.092,3.024-5.539-.321-.757-.67-1.5-1.01-2.25a1.724,1.724,0,0,1,.665-2.363c1.09-.74,2.183-1.476,3.3-2.176a1.659,1.659,0,0,1,2.322.345c.055.061.1.13.158.191,2.7,2.912,2.7,2.9,6.547,2.013a1.844,1.844,0,0,0,1.41-1.234c.337-.884.661-1.773,1-2.655a1.672,1.672,0,0,1,2.144-1.152c1.245.277,2.5.532,3.746.792a1.68,1.68,0,0,1,1.477,1.823,1.058,1.058,0,0,1-.013.246c-.688,2.8.359,4.7,2.915,5.949a2.4,2.4,0,0,0,2.31.209c.776-.377,1.591-.672,2.375-1.034a1.657,1.657,0,0,1,2.338.652c.7,1.068,1.413,2.126,2.121,3.189a1.679,1.679,0,0,1-.27,2.423c-.669.608-1.329,1.227-2,1.829a1.98,1.98,0,0,0-.693,2.207,3.061,3.061,0,0,1,.2.961c-.084,2.327,1.315,3.262,3.319,3.883,2.15.666,2.254,1.037,1.786,3.282-.177.847-.348,1.7-.533,2.539-.333,1.521-.8,2.028-2.273,1.775-2.58-.443-4.416.233-5.629,2.684a2.741,2.741,0,0,0-.276,2.643q.535,1.112,1.032,2.241a1.7,1.7,0,0,1-.676,2.351c-1.068.7-2.126,1.415-3.188,2.123a1.721,1.721,0,0,1-2.514-.358c-.027-.031-.05-.065-.078-.095-2.7-2.913-2.7-2.9-6.559-1.964a1.888,1.888,0,0,0-1.384,1.268c-.331.843-.653,1.689-.976,2.534a1.747,1.747,0,0,1-2.217,1.249q-1.871-.408-3.745-.8a1.618,1.618,0,0,1-1.444-1.83c.032-.781.059-1.562.087-2.343a5.783,5.783,0,0,0,.016-.862c-.192-1.635-3.9-3.776-5.405-3.134-.794.338-1.6.655-2.378,1.026a1.593,1.593,0,0,1-2.25-.579q-1.109-1.637-2.188-3.292a1.62,1.62,0,0,1,.27-2.318,1.945,1.945,0,0,1,.275-.248c2.563-1.531,2.744-3.763,1.948-6.349a2.081,2.081,0,0,0-1.25-1.543c-.922-.351-1.844-.7-2.76-1.071a1.534,1.534,0,0,1-1.139-1.7c.258-1.541.621-3.065.97-4.59A1.219,1.219,0,0,1,57.18,85.235ZM70.519,98.011A9.372,9.372,0,1,0,86.17,87.7a9.44,9.44,0,0,0-12.977-2.61A9.321,9.321,0,0,0,70.519,98.011Z" style="fill:#bebec3"/><path d="M89.942,68.62a3.347,3.347,0,0,0-4.293-1.627c-1.214.394-2,.2-2.375-1.088a3.1,3.1,0,0,0-.288-.545c-1.126-2.155-1.12-2.18.821-3.552a3.07,3.07,0,0,0-.257-5.152c-2.014-1.108-2.014-1.108-1.222-3.337.151-.426.3-.854.46-1.277a1.128,1.128,0,0,1,1.449-.8c.2.046.405.077.608.108a3.474,3.474,0,0,0,4.115-1.961c.4-.713.041-1.366-.139-2.023-.525-1.924-.514-1.97,1.3-2.8.113-.052.223-.106.333-.162,2.187-1.1,2.187-1.1,3.528.845a3.043,3.043,0,0,0,5.058-.212c.279-.5.468-1.153.9-1.457,1.255-.888,2.3.326,3.451.538a1.243,1.243,0,0,1,1.14,1.259,3.587,3.587,0,0,1-.165,1.094,2.663,2.663,0,0,0,.989,3.113,2.633,2.633,0,0,0,2.97.674c1.777-.589,1.941-.476,2.773,1.171.019.036.039.072.057.109,1.232,2.531,1.232,2.531-1.037,4.175-1.294.937-1.178,3.881.218,4.652,2.562,1.416,2.4,1.178,1.392,3.98-.654,1.811-.674,1.823-2.595,1.5a3.369,3.369,0,0,0-3.843,1.978c-.359.766.082,1.446.258,2.144.4,1.609.3,1.867-1.2,2.589-.075.036-.151.068-.226.1-2.418,1.061-2.418,1.061-3.983-1.066-.985-1.338-3.954-1.2-4.743.257-1.453,2.688-1.362,2.287-3.877,1.405-1.879-.659-1.915-.756-1.564-2.8C90.052,69.827,90.373,69.177,89.942,68.62Zm1.811-6.549a6.4,6.4,0,0,0,8.905,1.861,6.464,6.464,0,1,0-7.231-10.716A6.432,6.432,0,0,0,91.753,62.071Z" style="fill:#bebec3"/></svg>