<svg id="Layer_1" data-name="Layer 1" xmlns="http://www.w3.org/2000/svg" width="120" height="120" viewBox="0 0 120 120"><title>CMicon</title><path d="M23.829,54.771c1.921-2.236,4.844-4.128,7.177-6.669A79.9,79.9,0,0,0,39.99,36.833c1.566-2.482,1.524-5.226,1.928-7.909a47.746,47.746,0,0,1,7.12-19.256c3.093-4.747,8.472-7.2,13.4-6.211a11.669,11.669,0,0,1,6.959,4.785A42.958,42.958,0,0,1,76,21.3a41.326,41.326,0,0,1,2.093,10.614c.153,3.283,2.014,5.658,3.711,8.1,4.333,6.226,10.107,11.148,15.5,16.376a30.009,30.009,0,0,1,8.74,16.63c.325,1.748.605,3.5.892,5.259a2.99,2.99,0,0,1-2.679,3.443c-3.35.275-6.7.5-10.06.714-5.036.324-10.072.642-15.112.914-.732.041-.951.282-.918.971.042.875.012,1.753.009,2.628-.012,2.563-1.493,4.083-4.018,4.085q-14.454.009-28.91,0c-2.519,0-3.761-1.292-3.774-3.864-.02-4.023-.025-3.887-4-4.064-5.74-.259-11.471-.746-17.207-1.115-1.354-.087-2.71-.093-4.069-.211-2.478-.216-3.622-1.631-3.327-4.216a46.606,46.606,0,0,1,2.789-11.785C17.32,61.553,20.3,58.261,23.829,54.771ZM57.15,65.165a3.135,3.135,0,0,1,2.367-1.322,3.949,3.949,0,0,1,4.252,4.246c.03,3.395,0,6.789.011,10.183,0,1.969.034,3.938.051,5.908,2.065.038,4.131.039,6.192.133.924.041,1.2-.239,1.21-1.184.052-6.446-.02-12.89.154-19.339.228-8.424-.03-16.86.087-25.289a46.182,46.182,0,0,0-2.19-15.691c-.4-1.17-.457-2.594-1.9-3.4-4.18-2.348-8.52-2.219-12.912-1.037A4.647,4.647,0,0,0,50.91,21.15a42.526,42.526,0,0,0-2.7,14.442q.014,23.321,0,46.64a11.021,11.021,0,0,1-.008,1.15c-.073.735.261.941.956.926,1.751-.036,3.51-.111,5.253.02,1.32.1,1.506-.422,1.49-1.579-.061-4.762-.035-9.525-.021-14.288C55.888,67.2,55.973,65.942,57.15,65.165ZM40.921,77.5V45.563c-.807.521-1.216,1.779-2.12,2.662-4.614,4.509-9.138,9.109-13.717,13.654a19.587,19.587,0,0,0-2.441,3.214c-2.2,3.322-2.859,7.158-3.642,11.031,3.73.32,7.442.651,11.177.763S37.638,77.3,40.921,77.5ZM78.575,45.505l-.4.176,0,11.269q0,9.677,0,19.353c0,.617-.227,1.309.928,1.228,3.947-.28,7.9-.426,11.85-.678,2.915-.186,5.82-.5,8.735-.659.853-.044.858-.441.767-1.006-.916-5.736-3.068-10.843-7.307-14.99-1.714-1.676-3.6-3.142-5.308-4.816A101.684,101.684,0,0,1,78.575,45.505Z" style="fill:#bebec3"/><path d="M59.818,102.012A16.488,16.488,0,0,0,63,95.075c.12-.577.262-.863,1.112-.825,1.376.062,2.762.046,4.142,0,.8-.025,1.232.212,1.454.808a12.752,12.752,0,0,1,.162,9.039,29.169,29.169,0,0,1-6.55,9.851,17.742,17.742,0,0,1-2.749,2.532.91.91,0,0,1-1.315-.01,31.581,31.581,0,0,1-8.211-9.542,13.919,13.919,0,0,1-2.012-6.29,12.99,12.99,0,0,1,.835-5.5c.239-.622.631-.959,1.583-.894a32.577,32.577,0,0,0,3.763.007c.915-.044,1.311.153,1.443.92a18.954,18.954,0,0,0,2.152,5.479A11.882,11.882,0,0,0,59.818,102.012Z" style="fill:#bebec3"/><path d="M52.924,28.482c3.154-3.469,9.2-3.927,12.71-.981a9.5,9.5,0,0,1,3.15,4.676c.288.942.19,1.627-1.085,1.487-.595-.065-1.2-.006-1.8-.012-1.088-.01-1.968.133-2.661-1.316-1.021-2.141-5.187-2-6.759-.106-.388.467-.347,1.374-1.173,1.4-1.42.042-2.846.06-4.261-.026-.532-.032-.292-.648-.254-.95A6.236,6.236,0,0,1,52.924,28.482Z" style="fill:#bebec3"/></svg>