<svg id="Layer_1" data-name="Layer 1" xmlns="http://www.w3.org/2000/svg" width="120" height="120" viewBox="0 0 120 120"><title>CMicon</title><path d="M61.241,27.273a1.331,1.331,0,1,0-1.316,1.368,1.325,1.325,0,0,0,1.316-1.368M99.629,77.809H93.593v-47.5H26.265V72.422H38.911V77.79H20.2v-.574q0-22.875,0-45.752A6.848,6.848,0,0,1,23.284,25.4a6.664,6.664,0,0,1,3.862-1.1H67.841q12.42,0,24.843,0a6.875,6.875,0,0,1,6.96,6.983c-.056,5.769-.013,11.539-.013,17.309q0,14.336,0,28.672Z" style="fill:#bebec3"/><path d="M73.466,41.131a1.241,1.241,0,0,0-1.253-1.165A1.206,1.206,0,0,0,71.045,41.2a1.249,1.249,0,0,0,1.2,1.173,1.231,1.231,0,0,0,1.219-1.243m1.2,46.039h0c0-.508.008-1.018,0-1.527a.788.788,0,0,0-.841-.886q-1.551-.031-3.1-.009a.79.79,0,0,0-.873.866c-.019,1.033-.016,2.068,0,3.1a.756.756,0,0,0,.794.833q1.6.037,3.191,0c.556-.012.814-.322.827-.9.01-.493,0-.986,0-1.481m-18.443-42.8V55.059h-3.18v-.817c0-3.82.027-7.641-.019-11.461a4.8,4.8,0,0,1,4.78-4.832c3.8-.049,7.609-.008,11.414-.008q5.427,0,10.856-.019a.728.728,0,0,0,.474-.248,1.731,1.731,0,0,1,1.358-.683c.495,0,.99,0,1.485,0a1.806,1.806,0,0,1,1.439.713.766.766,0,0,0,.484.216,21.238,21.238,0,0,1,2.575.208,4.634,4.634,0,0,1,3.579,4.463c.016,4.454-.01,8.907-.013,13.36,0,1.7.021,3.4.021,5.1,0,8.831-.018,17.663.014,26.494a4.837,4.837,0,0,1-4.666,4.891q-1.482.014-2.967.011-7.934,0-15.867-.018H65.52c.024-3.085.048-6.14.074-9.2,0-.105.011-.211.021-.371H88.256c.011-.217.026-.378.026-.542q0-10.577,0-21.158,0-8.071,0-16.144c0-.658,0-.653-.631-.653q-6.008-.007-12.016-.015c-1.871,0-3.742.013-5.614.015q-6.657,0-13.315,0Z" style="fill:#bebec3"/><path d="M52.263,59.606v0c-.461,0-.924,0-1.387,0-.061,0-.123,0-.184.007-.529.024-.84.307-.843.772a.82.82,0,0,0,.876.817q1.527.012,3.052-.007a.788.788,0,0,0,.86-.77.768.768,0,0,0-.847-.82c-.51-.008-1.017,0-1.527,0m2.381,30.746c0-.511.009-1.021,0-1.53a.79.79,0,0,0-.865-.868q-1.527-.024-3.059,0a.784.784,0,0,0-.854.873q-.017,1.552-.008,3.105a.77.77,0,0,0,.841.833c1.035.009,2.071.011,3.106,0a.767.767,0,0,0,.839-.837c.015-.523,0-1.049,0-1.574m5.6-26.717H44.241v22.4H60.246Zm3.2,12.8q0,7.168,0,14.334a4.71,4.71,0,0,1-3.468,4.7,5.091,5.091,0,0,1-1.414.181c-4.191.013-8.38.008-12.571.006a4.774,4.774,0,0,1-4.958-4.873c-.025-2.411-.009-4.823-.009-7.236q0-2.631,0-5.262.007-5.978.018-11.957c0-1.59-.045-3.186.032-4.773a4.655,4.655,0,0,1,4.466-4.329q6.68-.057,13.359,0a4.69,4.69,0,0,1,4.538,4.651c.021,4.854.006,9.71.006,14.565Z" style="fill:#bebec3"/><path d="M3.794,81.281H38.9v8.638H36.872c-6.507-.011-13.016-.006-19.523-.04a53.909,53.909,0,0,1-8.633-.647,11.537,11.537,0,0,1-3.61-1.086,2.192,2.192,0,0,1-1.322-2.139c.04-1.405.01-2.813.01-4.219Z" style="fill:#bebec3"/><path d="M93.6,81.274h22.39v1.908c0,1.021-.025,2.041.008,3.06a1.813,1.813,0,0,1-.9,1.661,7.953,7.953,0,0,1-3.5,1.224c-2.171.28-4.351.569-6.535.644-3.828.131-7.661.1-11.5.141-.106,0-.211-.01-.355-.018.028-.141.06-.253.075-.368a21.012,21.012,0,0,0,.279-2.238c.04-1.869.014-3.739.016-5.61,0-.12.011-.239.02-.4" style="fill:#bebec3"/><rect x="71.467" y="86.385" width="1.568" height="1.525" style="fill:#bebec3"/><rect x="51.489" y="89.587" width="1.539" height="1.562" style="fill:#bebec3"/></svg>