<svg id="Layer_1" data-name="Layer 1" xmlns="http://www.w3.org/2000/svg" width="120" height="120" viewBox="0 0 120 120"><title>CMicon</title><path d="M8.312,59.908c12-12.565,25.225-22.813,42.533-26.521,11.7-2.507,22.663,0,33.156,5.186a92.563,92.563,0,0,1,27,20.761c.171.186.3.408.685.929-3.077,2.929-6.071,5.967-9.264,8.779A84.852,84.852,0,0,1,81.48,82.7c-14.953,6.816-29.76,6.436-44.485-.682A93.552,93.552,0,0,1,9.08,60.881C8.865,60.648,8.685,60.382,8.312,59.908Zm51.712,20.04A19.913,19.913,0,1,0,39.935,60.032,19.879,19.879,0,0,0,60.024,79.948Zm-25.118-31.8-.523-.441L18.7,59.766A86.542,86.542,0,0,0,35.1,72.338C31.451,63.964,31.473,56.06,34.906,48.152ZM85.1,72.233A86.552,86.552,0,0,0,101.253,59.74L85.564,47.72C88.284,60.8,88.284,60.8,85.1,72.233Z" style="fill:#bebec3"/><path d="M47.445,57.071c4.58,3.468,8.068,3.9,11.416,1.42,3.373-2.5,4.032-6.081,2.055-11.164,4.07-.509,9.071,2.944,11.061,7.637a13,13,0,0,1-3.733,15.152,13.155,13.155,0,0,1-15.759.592C48.064,67.629,45.883,61.728,47.445,57.071Z" style="fill:#bebec3"/></svg>