<svg id="Layer_1" data-name="Layer 1" xmlns="http://www.w3.org/2000/svg" width="120" height="120" viewBox="0 0 120 120"><title>CMicon</title><path d="M26.246,106.658a5.1,5.1,0,0,1-5.976-2.879L11.834,84.558a4.388,4.388,0,0,1,2.388-5.838c1.018-.405,2.04-.8,3.069-1.189A103.717,103.717,0,0,0,35.446,69.2a3.781,3.781,0,0,0,1.265-1.346,9.314,9.314,0,0,1,9.1-5.012,2.034,2.034,0,0,0,2.057-1.066,6.664,6.664,0,0,1,2.808-2.341c3.239-1.262,6.542-1.69,9.623.578a3.03,3.03,0,0,0,.57.248c-2-3.6-.442-7.031.445-10.37a39.811,39.811,0,0,1,12.77-19.9c.326-.285.651-.571.968-.866a.909.909,0,0,0,.14-.242c-1.31.055-4.289,1.38-7.567,3.705-2.34,1.659-4.483,3.595-6.954,5.6a47.055,47.055,0,0,1-2.846-6.742,8.3,8.3,0,0,1,3.907-9.615A55.3,55.3,0,0,1,69.2,18.109c3.606-1.59,7.321-2.939,10.906-4.573A21.32,21.32,0,0,0,89.05,6.361l.411.065a65.366,65.366,0,0,1,1.781,6.461,49.989,49.989,0,0,1-.461,21.354,31.174,31.174,0,0,1-1.521,4.353c-2.826,6.614-8.475,8.711-14.712,8.485-1.464-.053-2.917-.391-4.382-.436a1.568,1.568,0,0,0-1.271.7,10.987,10.987,0,0,0-1.247,7.809,1.372,1.372,0,0,0,1.072.754c5.059-.113,8.566,2.082,10.515,6.792a1.64,1.64,0,0,0,1.264.788,7.664,7.664,0,0,1,6.353,3.148,5.2,5.2,0,0,0,1.351.858,12.454,12.454,0,0,1,1.684,1.054c.794.687,1.5,1.472,2.027,2A33.75,33.75,0,0,1,97.107,68.4a8.916,8.916,0,0,1,9.491,3.422c2.448,3.087,2.474,6.492.661,9.884a30.737,30.737,0,0,1-2.47,3.5l-.572.73C91.772,100.551,95.986,97.373,74.839,106.6c-.529.231-1.089.4-1.6.657-4.93,2.495-10.034,2.047-15.226,1.06-6.658-1.265-13.325-2.522-20.034-3.463a21.132,21.132,0,0,0-7.5.731C29.563,105.788,27.874,106.225,26.246,106.658Zm-.939-6.568a1.573,1.573,0,0,0,1.351.557c2.178-.379,4.319-.974,6.5-1.315a18.637,18.637,0,0,1,5.541-.414c7.647,1.171,15.254,2.6,22.886,3.876,2.309.386,4.648.927,6.964-.08,6.525-2.838,13.071-5.63,19.572-8.524a7.653,7.653,0,0,0,2.59-1.888q5.085-5.694,10-11.541a8.84,8.84,0,0,0,1.484-2.617,2.722,2.722,0,0,0-.652-3.191,2.974,2.974,0,0,0-3.341-.664,7.672,7.672,0,0,0-2.194,1.562c-1.349,1.375-2.638,2.816-3.874,4.3a15.546,15.546,0,0,1-8.89,5.749,21.763,21.763,0,0,0-2.444.867c-3.164,1.068-6.254,2.613-9.761,1.507a9.143,9.143,0,0,0-1.423-.214c-3.9-.568-7.8-1.114-11.7-1.732-.541-.085-1.316-.4-1.487-.815a2.754,2.754,0,0,1,2.39-3.9A30.717,30.717,0,0,1,63.7,81.8c3.248.285,6.486.836,9.736.907,2.661.058,4.093-2.2,3.486-4.8a4.256,4.256,0,0,0-3.529-3.381c-2.017-.448-4.03-.932-6.065-1.276-4.594-.775-9.177-1.769-13.807-2.127-6.881-.534-13.077,2.528-19.043,5.729-1.454.78-2.925,1.527-4.433,2.2-3.42,1.517-6.9,2.9-10.424,4.341a1.445,1.445,0,0,0-.776,1.914Z" style="fill:#bebec3"/><path d="M40.95,33.833c4.592-.1,9.235-.267,13.537,1.731,3.349,1.555,4.549,4.8,5.443,8.112.059.216-.4.759-.706.858-4.925,1.578-8.941,1.586-12.4-2.45-2.152-2.512-4.142-5.162-6.2-7.75Z" style="fill:#bebec3"/></svg>