<svg id="Layer_1" data-name="Layer 1" xmlns="http://www.w3.org/2000/svg" width="120" height="120" viewBox="0 0 120 120"><title>CMicon</title><path d="M7.873,60.021q0-17.655,0-35.309c0-.4,0-.8.025-1.2a3.4,3.4,0,0,1,3.453-3.465c1.959-.072,3.924.011,5.884-.035.943-.022.825.574.825,1.157q0,9.918,0,19.835c0,13.7.038,27.391-.041,41.086-.015,2.569,1.378,4.372,4.351,4.337,3.305-.038,6.611,0,9.916-.006a48.725,48.725,0,0,1,15.858,2.256,22.23,22.23,0,0,1,9.124,5.537,3.577,3.577,0,0,0,5.333.115c3.916-4.043,8.882-5.874,14.231-6.965,6.1-1.245,12.284-.887,18.445-.951.836-.009,1.672.022,2.507,0,2.94-.083,4.3-1.462,4.31-4.411.014-5.159,0-10.317,0-15.475q0-22.5,0-45.009c0-1.483.014-1.485,1.478-1.488q2.289,0,4.577,0c2.536,0,3.941,1.33,3.949,3.859.025,7.955.017,15.911.018,23.866q0,23.486,0,46.97c0,.472,0,.945-.009,1.417-.063,2.613-1.386,3.926-4,3.929q-11.661.012-23.322,0c-3.778,0-7.556.017-11.334-.017a1.725,1.725,0,0,0-1.591.849,13.92,13.92,0,0,1-13.3,5.977,13.833,13.833,0,0,1-10.631-6.18,1.848,1.848,0,0,0-1.339-.6q-17.274-.049-34.547-.027c-2.829,0-4.154-1.266-4.157-4.09Q7.872,78,7.885,60.021Z" style="fill:#bebec3"/><path d="M56.345,84.365A41.492,41.492,0,0,0,45.6,80.446a64.857,64.857,0,0,0-15.351-1.307c-1.307.026-2.619-.061-3.921.024-1.021.067-1.113-.447-1.111-1.25.017-5.994.008-11.987.008-17.98q0-22.666,0-45.332c0-1.542,0-1.562,1.548-1.538,3.812.058,7.63.022,11.434.237,4.34.245,8.572,1.046,12.231,3.653a19.946,19.946,0,0,1,5.746,6.6,2.191,2.191,0,0,1,.223,1.039q.012,29.477,0,58.954C56.414,83.756,56.38,83.966,56.345,84.365Z" style="fill:#bebec3"/><path d="M63.574,84.316V69.434q0-22.224.03-44.45a4.392,4.392,0,0,1,.614-2.12A17.682,17.682,0,0,1,78.37,13.731c5.12-.461,10.28-.464,15.422-.684.667-.029.905.259.906.895.005,4.063.031,8.127.039,12.19q.012,5.713.005,11.428,0,5.17,0,10.339-.006,5.606-.018,11.211,0,5.442,0,10.883c.006,2.5.033,5.007.051,7.51.012,1.6-.033,1.644-1.618,1.645-2.76,0-5.523-.075-8.279.026-7.2.264-14.182,1.52-20.651,4.9C64.073,84.153,63.9,84.2,63.574,84.316Z" style="fill:#bebec3"/></svg>