<svg id="Layer_1" data-name="Layer 1" xmlns="http://www.w3.org/2000/svg" width="120" height="120" viewBox="0 0 120 120"><title>CMicon</title><path d="M105.659,23.13a50.352,50.352,0,0,0-4.654-2.593c-8.633-3.721-18.988-.982-25.475,6.721a22.275,22.275,0,0,0-4.882,10.454.921.921,0,0,0,.215.779c.812.609,1.676,1.149,2.651,1.8l.842-.844c3.231-3.208,6.377-6.509,9.714-9.6A12.981,12.981,0,0,1,99.782,28.2c6.188,4.091,7.358,12.209,2.675,18.721a14.006,14.006,0,0,1-1.506,1.674q-6,6.018-12.014,12.021l-.964.963a25.606,25.606,0,0,0,2.707.17A22.327,22.327,0,0,0,109.9,50.187c4.262-7.278,4.2-14.511.473-21.408-.452-.836-.99-1.619-1.486-2.426Z" style="fill:#bebec3"/><path d="M48.047,36.444a8.267,8.267,0,0,0-10.589-6.311,9.152,9.152,0,0,0-4.094,2.4c-6.082,6.092-12.2,12.15-18.21,18.311a27.061,27.061,0,0,0-7.592,17.18A34.1,34.1,0,0,0,9.285,81.988a4.229,4.229,0,0,0,.977,1.572c5.257,5.3,10.6,10.508,15.79,15.868a12.3,12.3,0,0,0,9.1,3.743,35.471,35.471,0,0,0,12.4-2.126c7.364-2.6,14.644-5.5,21.985-8.186,3.765-1.38,7.573-2.622,11.38-3.85,3.759-1.211,6.575-3.415,7.605-7.349a8.1,8.1,0,0,0-8.154-10.15c-2.48.107-4.962.269-7.443.4-.329.017-.657.009-1.206.017l.961-.96Q85.418,58.221,98.163,45.476c3.18-3.183,3.75-8.244,1.305-11.46a8.5,8.5,0,0,0-11.6-1.873,12.929,12.929,0,0,0-2.039,1.733Q79.72,39.944,73.647,46.044c-.376.375-.751.751-1.206,1.206-2.3-5.445-6.312-7.186-12.2-5.173a7.957,7.957,0,0,0-4.512-5.789,8.982,8.982,0,0,0-7.68.156" style="fill:#bebec3"/></svg>