<svg id="Layer_1" data-name="Layer 1" xmlns="http://www.w3.org/2000/svg" width="120" height="120" viewBox="0 0 120 120"><title>CMicon</title><path d="M83.748,30.658a12.287,12.287,0,0,1,14.873-1.552,11.543,11.543,0,0,1,5.067,11.8,13.784,13.784,0,0,1-3.9,7.269L87.443,60.7a24.516,24.516,0,0,0,2.562.16A21.136,21.136,0,0,0,108.2,49.916c4.034-6.89,3.972-13.737.447-20.266-.266-.492-.564-.965-.864-1.436a9.225,9.225,0,0,0-1.255-1.572h0a23.52,23.52,0,0,0-5.833-4.362c-.3-.154-.6-.3-.911-.432-8.172-3.522-17.974-.929-24.115,6.362a21.086,21.086,0,0,0-4.621,9.9.865.865,0,0,0,.2.736c.768.578,1.587,1.089,2.51,1.7Z" style="fill:#bebec3"/><path d="M72.74,47.135c-2.173-5.154-5.975-6.8-11.551-4.9a7.531,7.531,0,0,0-4.271-5.48,8.5,8.5,0,0,0-7.27.149,7.826,7.826,0,0,0-10.024-5.975A8.665,8.665,0,0,0,35.749,33.2C29.992,38.968,24.2,44.7,18.511,50.534A25.619,25.619,0,0,0,11.325,66.8c-.078.918-.142,1.841-.18,2.76a19.738,19.738,0,0,0,5.6,14.4L28.828,96.528a11.638,11.638,0,0,0,8.609,3.543,33.613,33.613,0,0,0,11.737-2.012L80.757,86.665c3.559-1.146,6.225-3.233,7.2-6.957A7.665,7.665,0,0,0,80.238,70.1l-8.187.4L97.089,45.456c3.01-3.013,3.549-7.8,1.235-10.848a7.909,7.909,0,0,0-8.048-3,8.3,8.3,0,0,0-4,2.269Z" style="fill:#bebec3"/></svg>