<svg id="Layer_1" data-name="Layer 1" xmlns="http://www.w3.org/2000/svg" width="120" height="120" viewBox="0 0 120 120"><title>CMicon</title><path d="M110.642,57.788A50.642,50.642,0,1,1,60.025,7.234,50.643,50.643,0,0,1,110.642,57.788Zm-94.049.136A43.407,43.407,0,1,0,59.925,14.47,43.413,43.413,0,0,0,16.593,57.924Z" style="fill:#bebec3"/><path d="M31.611,83.638Q39.719,66.307,47.84,48.983a7.262,7.262,0,0,1,3.629-3.571l5.937-2.761Q71.481,36.11,85.551,29.559a1.991,1.991,0,0,1,2.575.265,2.031,2.031,0,0,1,.174,2.5Q80.356,49.231,72.464,66.164A8.712,8.712,0,0,1,68.027,70.6c-8.816,4.064-17.61,8.177-26.412,12.27-2.491,1.158-4.974,2.333-7.482,3.452a1.948,1.948,0,0,1-2.809-1.876A7.474,7.474,0,0,1,31.611,83.638ZM52.766,57.927a7.234,7.234,0,1,0,7.212-7.284A7.246,7.246,0,0,0,52.766,57.927Z" style="fill:#bebec3"/><path d="M39.2,51.093a61.132,61.132,0,0,0-6.352,2.2c-3.778,1.347-7.542,2.732-11.311,4.1-.338.123-.672.258-1.275.49,1.845.67,3.444,1.249,5.041,1.83,3.558,1.294,7.122,2.572,10.667,3.9.659.246.938.167,1.272-.493a8.335,8.335,0,0,0,1.1-4.812,16.964,16.964,0,0,1,.774-6.342c.078-.277.249-.555.1-.862Z" style="fill:#bebec3"/><path d="M80.8,64.66a61.034,61.034,0,0,0,6.351-2.2c3.778-1.347,7.543-2.732,11.312-4.1.338-.123.672-.258,1.275-.49-1.845-.67-3.444-1.249-5.041-1.83-3.558-1.294-7.122-2.572-10.667-3.9-.659-.246-.938-.168-1.272.493a8.332,8.332,0,0,0-1.1,4.811,16.939,16.939,0,0,1-.774,6.342c-.078.277-.249.556-.1.863Z" style="fill:#bebec3"/><path d="M53.22,37.079c1.39-.243,2.78-.48,4.168-.732a9.4,9.4,0,0,1,3.258-.136c1.878.328,3.32-.645,4.881-1.328.7-.306.3-.725.163-1.108q-2.334-6.456-4.681-12.906c-.3-.826-.609-1.649-1.012-2.743-.947,2.58-1.8,4.885-2.638,7.193Q55.432,30.605,53.521,35.9a2.133,2.133,0,0,0-.3,1.18Z" style="fill:#bebec3"/><path d="M66.765,78.663c-1.391.248-2.784.492-4.174.744a9.84,9.84,0,0,1-3.369.132c-1.845-.313-3.233.695-4.765,1.337-.536.225-.364.553-.233.912L59.867,97.3c.4.058.341-.254.407-.435q3.2-8.769,6.389-17.543a3.829,3.829,0,0,0,.12-.647Z" style="fill:#bebec3"/><path d="M53.217,37.077l-.138.112.1.037.045-.147Z" style="fill:#bebec3"/><path d="M39.213,51.111a1.235,1.235,0,0,0,.135-.071.509.509,0,0,0-.041-.087l-.107.14Z" style="fill:#bebec3"/><path d="M80.787,64.642a1.235,1.235,0,0,0-.135.071.509.509,0,0,0,.041.087l.107-.14Z" style="fill:#bebec3"/><path d="M66.783,78.677l.14-.108a.509.509,0,0,0-.087-.041,1.09,1.09,0,0,0-.07.136Z" style="fill:#bebec3"/></svg>