<svg id="Layer_1" data-name="Layer 1" xmlns="http://www.w3.org/2000/svg" width="120" height="120" viewBox="0 0 120 120"><title>CMicon</title><path d="M41.573,34.308c.585,1.253,1.34,2.762,2,4.312A3.506,3.506,0,0,0,46.962,41a26.461,26.461,0,0,1,3.915.505,3.2,3.2,0,0,0,3.455-1.31c.91-1.216,1.909-2.366,2.875-3.54a2.693,2.693,0,0,1,3.815-.784Q64,37.5,66.929,39.2a2.681,2.681,0,0,1,1.306,3.569c-.533,1.557-1.094,3.1-1.664,4.649a3.214,3.214,0,0,0,.716,3.523,36.445,36.445,0,0,1,2.555,3.33,3.241,3.241,0,0,0,3.281,1.491c1.51-.18,3.023-.338,4.537-.487a2.851,2.851,0,0,1,3.453,2.39q.825,2.968,1.637,5.939a2.847,2.847,0,0,1-1.728,3.828c-1.332.643-2.686,1.244-4.035,1.851A3.381,3.381,0,0,0,74.774,72.4c-.072,1.353-.289,2.7-.5,4.043a3.167,3.167,0,0,0,1.235,3.263c1.3,1,2.576,2.042,3.829,3.1a2.642,2.642,0,0,1,.675,3.632c-1.084,1.982-2.187,3.955-3.325,5.906a2.742,2.742,0,0,1-3.676,1.316c-1.516-.525-3.022-1.08-4.53-1.629a3.208,3.208,0,0,0-3.517.742,36.763,36.763,0,0,1-3.312,2.575,3.218,3.218,0,0,0-1.482,3.279c.2,1.548.341,3.106.489,4.661a2.774,2.774,0,0,1-2.234,3.318q-3.136.909-6.29,1.758a2.758,2.758,0,0,1-3.585-1.743c-.691-1.447-1.407-2.883-2.072-4.342a2.968,2.968,0,0,0-2.692-1.847,41.2,41.2,0,0,1-4.657-.571,2.9,2.9,0,0,0-3.042,1.164c-.971,1.274-2,2.506-3.02,3.74a2.786,2.786,0,0,1-4.026.755q-2.751-1.521-5.478-3.081a2.83,2.83,0,0,1-1.461-3.838q.782-2.275,1.626-4.531a3.035,3.035,0,0,0-.557-3.219c-.965-1.177-1.894-2.386-2.8-3.611A3.2,3.2,0,0,0,17.2,85.8c-1.55.193-3.107.335-4.662.482a2.783,2.783,0,0,1-3.392-2.279q-.88-3.079-1.726-6.17a2.771,2.771,0,0,1,1.647-3.63c1.487-.7,2.968-1.419,4.46-2.113A2.87,2.87,0,0,0,15.3,69.487a36.209,36.209,0,0,1,.631-5.021,2.969,2.969,0,0,0-1.245-3.021c-1.246-1.008-2.5-2.008-3.734-3.028a2.618,2.618,0,0,1-.74-3.618q1.638-3.036,3.368-6.022a2.722,2.722,0,0,1,3.584-1.3c1.557.53,3.1,1.094,4.645,1.673a3.112,3.112,0,0,0,3.33-.573c1.2-1,2.472-1.916,3.719-2.86a3.047,3.047,0,0,0,1.306-3c-.2-1.59-.413-3.18-.573-4.775a2.657,2.657,0,0,1,2.178-3.208c2.131-.614,4.264-1.222,6.4-1.8A2.774,2.774,0,0,1,41.573,34.308ZM35.917,57.9A15.734,15.734,0,1,0,58,61.682,15.806,15.806,0,0,0,35.917,57.9Z" style="fill:#bebec3"/><path d="M84,56.905a2.53,2.53,0,0,1-.325-1.658c-.008-.658,0-1.316,0-1.975a4.237,4.237,0,0,0-.047-.86c-.341-1.542-4.244-3.458-5.664-2.783-.742.353-1.471.735-2.2,1.106a1.723,1.723,0,0,1-2.389-.562c-.786-1.057-1.569-2.118-2.316-3.2a1.659,1.659,0,0,1,.245-2.336c.058-.057.125-.107.183-.165,2.794-2.823,2.783-2.82,1.729-6.628a1.844,1.844,0,0,0-1.293-1.355c-.9-.3-1.8-.584-2.7-.887a1.672,1.672,0,0,1-1.243-2.092c.224-1.257.424-2.517.63-3.777a1.68,1.68,0,0,1,1.758-1.554,1.011,1.011,0,0,1,.246,0c2.825.566,4.677-.561,5.818-3.169a2.4,2.4,0,0,0,.109-2.317c-.41-.758-.74-1.56-1.135-2.328A1.657,1.657,0,0,1,75.95,18c1.037-.745,2.064-1.5,3.095-2.256a1.678,1.678,0,0,1,2.432.165c.637.643,1.284,1.275,1.914,1.924a1.978,1.978,0,0,0,2.234.6,3.088,3.088,0,0,1,.952-.244c2.329-.016,3.2-1.454,3.736-3.484.573-2.176.939-2.3,3.2-1.925.853.14,1.707.275,2.559.423,1.534.267,2.06.711,1.871,2.194-.331,2.6.423,4.4,2.924,5.508a2.742,2.742,0,0,0,2.653.162q1.088-.583,2.2-1.127a1.7,1.7,0,0,1,2.377.574c.745,1.037,1.5,2.062,2.258,3.093a1.721,1.721,0,0,1-.248,2.527c-.03.028-.063.053-.092.082-2.794,2.822-2.784,2.819-1.68,6.638a1.89,1.89,0,0,0,1.328,1.328c.856.294,1.715.579,2.573.866a1.746,1.746,0,0,1,1.343,2.16c-.218,1.258-.426,2.517-.633,3.777a1.618,1.618,0,0,1-1.766,1.521c-.782,0-1.564.008-2.345.014a5.75,5.75,0,0,0-.862.021c-1.625.263-3.605,4.055-2.9,5.535.372.779.723,1.57,1.128,2.332a1.6,1.6,0,0,1-.481,2.273q-1.588,1.178-3.195,2.328a1.622,1.622,0,0,1-2.328-.17,1.9,1.9,0,0,1-.259-.264c-1.641-2.495-3.879-2.58-6.427-1.672a2.078,2.078,0,0,0-1.488,1.315c-.311.936-.624,1.872-.951,2.8a1.535,1.535,0,0,1-1.652,1.211c-1.55-.192-3.089-.488-4.627-.771A1.22,1.22,0,0,1,84,56.905ZM96.188,43.027A9.371,9.371,0,1,0,85.21,27.836a9.44,9.44,0,0,0-2.048,13.077A9.319,9.319,0,0,0,96.188,43.027Z" style="fill:#bebec3"/></svg>