<svg id="Layer_1" data-name="Layer 1" xmlns="http://www.w3.org/2000/svg" width="120" height="120" viewBox="0 0 120 120"><title>CMicon</title><path d="M103.167,68.211c-1.554-.968-3.085-1.979-4.681-2.873a3.852,3.852,0,0,1-2.11-3.919,31.962,31.962,0,0,0-.016-4.754,4.223,4.223,0,0,1,2.306-4.425c1.747-1.031,3.429-2.171,4.833-3.068,1.514-1.337,1.805-2.61,1.11-4.275-1.029-2.465-2.092-4.916-3.162-7.363a3.2,3.2,0,0,0-4.174-2.093c-1.88.443-3.746.943-5.612,1.439A3.669,3.669,0,0,1,87.869,35.8c-1.325-1.34-2.623-2.709-4-3.99a3.745,3.745,0,0,1-1.21-3.885c.448-1.931.876-3.867,1.263-5.811a3.277,3.277,0,0,0-2.12-4.073q-3.838-1.59-7.723-3.07a3.154,3.154,0,0,0-4.2,1.456c-1.024,1.637-2.019,3.29-3.026,4.937a3.58,3.58,0,0,1-3.41,1.965,43.505,43.505,0,0,0-6.095.04,3.459,3.459,0,0,1-3.392-1.712c-1.064-1.671-2.153-3.326-3.228-4.99a3.338,3.338,0,0,0-4.594-1.394q-3.556,1.5-7.095,3.037c-2.043.89-2.691,2.2-2.184,4.41.421,1.834.837,3.67,1.312,5.491a3.856,3.856,0,0,1-1.22,4.029c-1.321,1.272-2.617,2.573-3.87,3.911a3.655,3.655,0,0,1-3.756,1.174q-2.825-.652-5.667-1.225A3.408,3.408,0,0,0,19.3,38.447q-1.434,3.5-2.813,7.027c-.826,2.108-.372,3.489,1.539,4.689,1.634,1.026,3.268,2.056,4.941,3.015a3.5,3.5,0,0,1,1.872,3.448,49.784,49.784,0,0,0,.054,5.651,3.575,3.575,0,0,1-1.78,3.506c-1.637,1.024-3.238,2.106-4.857,3.159-1.823,1.187-2.321,2.611-1.514,4.557q1.507,3.633,3.094,7.232a3.34,3.34,0,0,0,4.314,2.143c1.834-.422,3.672-.833,5.489-1.32a3.876,3.876,0,0,1,4.149,1.25,44.116,44.116,0,0,0,3.6,3.548,3.862,3.862,0,0,1,1.441,4.082c-.416,1.888-.841,3.773-1.228,5.666a3.3,3.3,0,0,0,2.153,4.181c2.51,1.051,5.039,2.057,7.577,3.037a3.181,3.181,0,0,0,4.23-1.38c1.07-1.664,2.11-3.35,3.1-5.062a3.813,3.813,0,0,1,3.7-1.99c1.635.034,3.279.08,4.906-.049a4.073,4.073,0,0,1,4.078,2.148c.939,1.515,1.869,3.037,2.848,4.526,1.277,1.942,2.708,2.357,4.844,1.458q3.42-1.438,6.832-2.894c2.127-.906,2.83-2.266,2.308-4.5-.417-1.784-.844-3.566-1.3-5.341a3.9,3.9,0,0,1,1.263-4.153,44.311,44.311,0,0,0,3.572-3.576A3.867,3.867,0,0,1,91.8,81.093c1.933.436,3.87.861,5.813,1.251a3.23,3.23,0,0,0,4.056-2.124q1.574-3.765,3.034-7.579C105.458,70.69,104.958,69.326,103.167,68.211ZM79.1,62.682,56.163,77.522a4.207,4.207,0,0,1-6.492-3.532V44.309a4.207,4.207,0,0,1,6.492-3.532L79.1,55.618A4.207,4.207,0,0,1,79.1,62.682Z" style="fill:#bebec3"/></svg>