<svg id="Layer_1" data-name="Layer 1" xmlns="http://www.w3.org/2000/svg" width="120" height="120" viewBox="0 0 120 120"><title>CMicon</title><path d="M106.211,81.322c-.109.373-.213.748-.326,1.12a5.565,5.565,0,0,1-4.769,4.014,10.622,10.622,0,0,1-1.853.132q-24.444.011-48.887.005h-.868v-7.06h.827q21.67,0,43.34-.015a5.09,5.09,0,0,0,4.351-1.776,5.754,5.754,0,0,0,1.1-3.618q.014-17.832,0-35.665c0-1.246.053-2.5-.012-3.74-.1-1.966-.612-3.767-2.408-4.919a5.652,5.652,0,0,0-3.1-.859Q72,28.925,50.394,28.934h-.88V21.375H63.463a18.538,18.538,0,0,1,.384-2.183c.645-2.132,2.3-3.067,4.332-3.523.381-.085.76-.174,1.14-.262h3.87c.565.132,1.137.239,1.693.4a4.636,4.636,0,0,1,3.646,3.624,14.759,14.759,0,0,1,.126,1.918h.819q9.337,0,18.677.006a20.39,20.39,0,0,1,2.5.132,5.69,5.69,0,0,1,5.035,3.868c.2.546.354,1.106.53,1.659Z" style="fill:#bebec3"/><path d="M34.1,15.407a16.9,16.9,0,0,1,2.507.808,9.534,9.534,0,0,1,5.6,7.176c.725,4.446-.994,7.866-4.775,10.216a8.978,8.978,0,0,1-6.153,1.169,9.735,9.735,0,0,1-6.516-15.362,9.506,9.506,0,0,1,6.305-3.909c.026,0,.045-.064.068-.1Z" style="fill:#bebec3"/><path d="M33.207,100.545a7.127,7.127,0,0,1-2.42,2.819c-1.974,1.211-4.095,1.709-6.262.649a5.251,5.251,0,0,1-3.015-4.869c-.072-9.414-.031-18.829-.031-28.244v-.932c-1.18,0-2.333.038-3.482-.016a5.479,5.479,0,0,1-1.723-.354A2.953,2.953,0,0,1,14.38,66.61c-.023-6.083-.011-12.166-.011-18.249,0-1.354-.033-2.71.007-4.063a5.715,5.715,0,0,1,5.867-5.927c1.375-.01,2.753.037,4.126-.02a1.515,1.515,0,0,1,1.422.714,22.41,22.41,0,0,0,4.668,4.659,2.785,2.785,0,0,0,3.509.215,14.023,14.023,0,0,0,5.376-5.187.682.682,0,0,1,.71-.39q14.154.012,28.309.006A2.571,2.571,0,0,1,70.9,40.111a9.38,9.38,0,0,1-.032,7.224,2.179,2.179,0,0,1-2.2,1.357Q57,48.67,45.324,48.671h-.9v.868c0,16.422.027,32.845-.026,49.267a5.092,5.092,0,0,1-4.023,5.322,6.014,6.014,0,0,1-6.945-3.209C33.376,100.827,33.32,100.738,33.207,100.545Z" style="fill:#bebec3"/><path d="M88.14,104.54H84.684a15.275,15.275,0,0,0-1.739.013,1.956,1.956,0,0,1-1.8-.808c-2.141-2.373-4.331-4.7-6.5-7.046L71.3,93.1c-.54.578-1.066,1.124-1.574,1.687q-2.8,3.1-5.592,6.215c-.788.877-1.561,1.769-2.382,2.614a1.371,1.371,0,0,1-.866.387c-1.818.035-3.637.017-5.607.017.593-.707,1.085-1.31,1.594-1.9q5.3-6.129,10.6-12.252a10.842,10.842,0,0,1,.807-.914,1,1,0,0,1,.605-.254c1.547-.021,3.095-.023,4.642,0a1,1,0,0,1,.654.291c2.44,2.707,4.86,5.432,7.291,8.146q2.448,2.731,4.912,5.447Z" style="fill:#bebec3"/></svg>