<svg id="Layer_1" data-name="Layer 1" xmlns="http://www.w3.org/2000/svg" width="120" height="120" viewBox="0 0 120 120"><title>CMicon</title><path d="M91.571,35.381a23.76,23.76,0,0,0-9.706,2.061,19.543,19.543,0,0,0-31.287-4.114A21.6,21.6,0,0,0,13.548,54.98a18.783,18.783,0,0,0,9.288,34.99,18.422,18.422,0,0,0,3.819-.4,20.022,20.022,0,0,0,37.2.9,17.556,17.556,0,0,0,22.985-7.209,24.161,24.161,0,1,0,4.727-47.886ZM33.948,93.765a16.315,16.315,0,0,1-3.919-6.021,3.6,3.6,0,0,0-3.372-2.351,3.646,3.646,0,0,0-.745.077,14.606,14.606,0,0,1-6.769-.166q0-3.624,0-7.248h0c0-4.5,0-6.678,0-11.182,0-1.867.382-2.229,2.285-2.229q5.732,0,11.462,0c1.613,0,2.1.458,2.1,2.069.012,9.17.014,16.008,0,25.178C34.995,92.989,34.706,93.544,33.948,93.765Zm21.9.982a16.307,16.307,0,0,1-15.8,2.8c-.006-14.96-.007-26.715,0-41.675,0-1.864.5-2.453,2.047-2.457q5.916-.015,11.832.005c1.491.006,1.926.556,1.928,2.41.005,8.172,0,13.139,0,21.312Q55.85,85.944,55.849,94.747Zm15.684-6.686a13.814,13.814,0,0,1-6.1-1.4A3.567,3.567,0,0,0,61,87.734Q61,81,61,74.269H61c0-5.837,0-8.177,0-14.013,0-1.687.439-2.116,2.154-2.118q5.736-.007,11.471,0c1.66,0,2.179.5,2.18,2.14.006,10.08.005,16.664,0,26.744A13.9,13.9,0,0,1,71.533,88.061Zm26.141-9.447a20.138,20.138,0,0,1-6.1.943,20.4,20.4,0,0,1-4.017-.4,3.593,3.593,0,0,0-3.847,1.765,13.959,13.959,0,0,1-1.856,2.561c0-12.545,0-22.758.006-35.3,0-1.716.44-2.164,2.119-2.168q5.794-.014,11.59-.006c1.716,0,2.1.4,2.106,2.161.006,7.686,0,13.041,0,20.727Q97.676,73.755,97.674,78.614Z" style="fill:#bebec3"/></svg>