<svg id="Layer_1" data-name="Layer 1" xmlns="http://www.w3.org/2000/svg" width="120" height="120" viewBox="0 0 120 120"><title>CMicon</title><path d="M58.832,108.141c-1.667-1.148-3.308-2.339-5.018-3.417a3.763,3.763,0,0,0-1.782-.411c-2.624-.114-3.57-1.048-3.613-3.72-.025-1.49-.047-2.982.008-4.471.08-2.165,1.092-3.318,3.213-3.346q8.358-.108,16.72,0c2.121.028,3.137,1.181,3.212,3.346.057,1.618.059,3.242,0,4.86-.083,2.271-1.113,3.317-3.408,3.279a3.739,3.739,0,0,0-2.787,1.278,26.1,26.1,0,0,1-4.208,2.6Z" style="fill:#bebec3"/><path d="M10.146,57.119c1.151-2.113,2.931-2.84,5.305-2.738,3.17.137,6.351.01,9.527.043,2.691.027,4.311,1.56,4.272,3.958-.038,2.27-1.658,3.735-4.28,3.767-3.176.038-6.358-.1-9.527.046a5.18,5.18,0,0,1-5.3-2.74Z" style="fill:#bebec3"/><path d="M109.854,59.455c-1.151,2.113-2.931,2.84-5.3,2.737-3.17-.136-6.351-.01-9.527-.042-2.691-.027-4.311-1.56-4.272-3.958.038-2.27,1.658-3.735,4.28-3.767,3.176-.038,6.358.1,9.527-.046a5.18,5.18,0,0,1,5.3,2.74Z" style="fill:#bebec3"/><path d="M60,89.008c-2.661,0-5.322.026-7.982-.008-2.3-.03-3.408-1.018-3.416-3.288A13.056,13.056,0,0,0,46.346,78.6c-1.741-2.734-3.538-5.437-5.138-8.252-5.732-10.083-4.292-21.258,3.61-28.652a22.27,22.27,0,0,1,37.451,16.86c-.116,5.908-2.635,10.865-5.735,15.644a37.222,37.222,0,0,0-3.108,4.927,26.5,26.5,0,0,0-1.936,6.4c-.4,2.478-1.163,3.458-3.7,3.48C65.192,89.025,62.6,89.008,60,89.008Zm6.6-43.984c-5.086-3.38-13.058-1.92-17.585,3.025-4.977,5.437-4.242,13.734-1.289,16.959C48.3,53,54.812,46.55,66.6,45.024Z" style="fill:#bebec3"/><path d="M39.742,34.187c-.709.953-1.269,2.431-2.283,2.877-1.11.488-3.11.566-3.9-.122a120.582,120.582,0,0,1-9.243-9.113c-1.2-1.3-.784-3.523.477-4.781a3.554,3.554,0,0,1,4.771-.408c3.131,2.893,6.109,5.954,9.077,9.017A9.431,9.431,0,0,1,39.742,34.187Z" style="fill:#bebec3"/><path d="M84.029,38.023c-.936-.72-2.4-1.3-2.831-2.325-.47-1.117-.515-3.1.18-3.9a118.821,118.821,0,0,1,8.971-9.112,3.59,3.59,0,0,1,4.931.431,3.55,3.55,0,0,1,.333,4.777c-2.9,3.125-5.96,6.1-9.028,9.066A9.178,9.178,0,0,1,84.029,38.023Z" style="fill:#bebec3"/><path d="M39.9,82.458a17.222,17.222,0,0,1-1.827,3.165c-2.49,2.632-5.063,5.188-7.675,7.7a3.861,3.861,0,0,1-5.566.248,3.807,3.807,0,0,1,.01-5.554c2.631-2.765,5.355-5.445,8.11-8.088a3.31,3.31,0,0,1,4.278-.58A15.5,15.5,0,0,1,39.9,82.458Z" style="fill:#bebec3"/><path d="M80.262,82.371c.713-.949,1.283-2.423,2.3-2.863,1.112-.482,3.106-.547,3.9.143A120.937,120.937,0,0,1,95.7,88.77c1.2,1.293.765,3.531-.5,4.779a3.554,3.554,0,0,1-4.774.382c-3.127-2.9-6.1-5.959-9.068-9.024A9.362,9.362,0,0,1,80.262,82.371Z" style="fill:#bebec3"/><path d="M63.866,18.2c0,1.814.052,3.63-.011,5.442a3.849,3.849,0,1,1-7.7.015c-.082-3.756-.07-7.516,0-11.273a3.849,3.849,0,1,1,7.7-.014C63.928,14.312,63.864,16.258,63.866,18.2Z" style="fill:#bebec3"/></svg>