<svg id="Layer_1" data-name="Layer 1" xmlns="http://www.w3.org/2000/svg" width="120" height="120" viewBox="0 0 120 120"><title>CMicon</title><path d="M107.158,59.559a5.335,5.335,0,0,1-.181-1.691,44.611,44.611,0,0,0-3.687-14.1,42.72,42.72,0,0,0-6.527-10.464A45.011,45.011,0,0,0,70.85,17.9a40.3,40.3,0,0,0-5.359-.717c-1.222-.081-2.444-.172-3.661-.155a45.982,45.982,0,0,0-16.192,3.034,44.474,44.474,0,0,0-4.1,1.8c-.19.093-.36.167-.348.449a53.089,53.089,0,0,1-.323,5.566c-.046.691-.109,1.379-.175,2.067a.475.475,0,0,0,.164.415c1.11,1.1,2.223,2.194,3.316,3.311.268.273.454.127.682-.01a33.016,33.016,0,0,1,10.193-4,33.349,33.349,0,0,1,27.99,6.832A32.6,32.6,0,0,1,94.623,56.006a35.427,35.427,0,0,1,.545,6.517A31.939,31.939,0,0,1,91.554,77.09a31.9,31.9,0,0,1-4.217,6.323A33.156,33.156,0,0,1,55.426,94.479,33.237,33.237,0,0,1,31.613,75.62a32.43,32.43,0,0,1-2.679-9.648,34.968,34.968,0,0,1-.156-6.152,32.088,32.088,0,0,1,3.714-13.154c.308-.584.636-1.161.994-1.716a.385.385,0,0,0-.067-.581q-1.836-1.807-3.654-3.641a.682.682,0,0,0-.615-.2c-1.127.11-2.251.261-3.382.3a23.738,23.738,0,0,1-3.144.109.783.783,0,0,0-.894.5,43.872,43.872,0,0,0-3.788,10.215,41.814,41.814,0,0,0-.925,5.515A43.725,43.725,0,0,0,16.73,62.9a48.582,48.582,0,0,0,1.105,9.013,43.331,43.331,0,0,0,2.889,8.641,43.83,43.83,0,0,0,5.094,8.527A44.367,44.367,0,0,0,38.55,100.547a45.279,45.279,0,0,0,7.835,3.762,43.656,43.656,0,0,0,10.475,2.454c1.005.106,2.013.195,3.021.292h4.644c.133-.168.324-.092.489-.1a40.127,40.127,0,0,0,4.6-.524,43.9,43.9,0,0,0,6.122-1.485,46.908,46.908,0,0,0,8.054-3.464A46.178,46.178,0,0,0,94.012,93.8a42.338,42.338,0,0,0,3.138-3.51,44.9,44.9,0,0,0,8.725-17.456,31.033,31.033,0,0,0,.734-3.523,29.847,29.847,0,0,0,.447-4.231.16.16,0,0,1,.1-.164V59.559" style="fill:#bebec3"/><path d="M41.749,52.725a18.155,18.155,0,0,0-1.585,4.714c-1.562,8.512.847,15.72,7.359,21.463a20.77,20.77,0,0,0,11.949,5.143,21.8,21.8,0,0,0,18.647-6.817,21.1,21.1,0,0,0,5.94-12.868A22.076,22.076,0,0,0,66.7,40.388a21.823,21.823,0,0,0-13.763,1.376c-.362.158-.365.249-.1.512q3.985,3.945,7.947,7.912a.874.874,0,0,0,.709.234c4.94-.019,8.661,2.11,10.905,6.481a11.673,11.673,0,1,1-22.118,4.609.67.67,0,0,0-.2-.564q-4.092-4.059-8.176-8.127a.808.808,0,0,0-.158-.1" style="fill:#bebec3"/><path d="M21.979,16.037c-.821-.828-1.555-1.572-2.294-2.311-.32-.322-.634-.659-.984-.947a3.076,3.076,0,0,0-4.094.1q-1.063.981-2.045,2.047a3.047,3.047,0,0,0,.071,4.272c.855.877,1.742,1.724,2.705,2.675-.584.057-1.041.11-1.5.146-1.891.146-3.783.3-5.675.432a1.1,1.1,0,0,0-1.071.7,1.03,1.03,0,0,0,.326,1.183q6.026,6,12.058,11.987a5.411,5.411,0,0,0,4.508,1.456c2.083-.179,4.169-.323,6.25-.5a1.062,1.062,0,0,1,.922.357q11.479,11.449,22.967,22.89a3.473,3.473,0,0,0,2.652,1.16c.737-.018,1.473.078,2.211.094a2.588,2.588,0,0,0,2.8-2.824c-.04-.944-.124-1.885-.223-2.825a2.777,2.777,0,0,0-.93-1.661Q52.66,46.547,44.7,38.615q-3.45-3.435-6.907-6.865a1,1,0,0,1-.332-.914c.215-2.474.4-4.953.575-7.431a5.393,5.393,0,0,0-1.744-4.386Q30.511,13.3,24.757,7.549c-.125-.125-.249-.249-.383-.361a1.05,1.05,0,0,0-1.748.728q-.212,2.719-.424,5.442c-.068.846-.142,1.694-.223,2.679" style="fill:#bebec3"/></svg>