<svg id="Layer_1" data-name="Layer 1" xmlns="http://www.w3.org/2000/svg" width="120" height="120" viewBox="0 0 120 120"><title>CMicon</title><path d="M21.757,92.149a3.448,3.448,0,0,1-.687-.99c-6.618-14.4-5.761-28.125,2.486-39.727,4.813-6.758,10.921-12.561,16.828-18.177q1.075-1.076,2.2-2.09c9.067-8.666,24.29-8.283,33.363.79l.17.17c9.171,9.365,9.39,24.534.468,33.844-4.065,4.248-8.319,8.417-12.446,12.446l-.316.316c-4.071,4-9.273,4.412-13.011.978a8.436,8.436,0,0,1-2.789-6.01A10.458,10.458,0,0,1,51.3,66.206l4.862-4.862c2.352-2.352,4.783-4.783,7.1-7.189a6.361,6.361,0,0,0,.259-8.991q-.191-.2-.4-.386c-2.771-2.7-6.441-2.626-9.352.2-5,4.85-9.292,9.146-13.145,13.145-8.065,8.381-7.852,22.437.456,30.745l.072.073a22.15,22.15,0,0,0,30.812.425c2.619-2.534,5.244-5.184,7.766-7.767l6.017-6.016a35.029,35.029,0,0,0,9.176-15.825,36.858,36.858,0,0,0-3.069-28.131,3.438,3.438,0,1,1,6.059-3.251,43.53,43.53,0,0,1,3.665,33.248A41.811,41.811,0,0,1,90.6,80.505l-5.955,5.956-7.87,7.87c-11.122,10.757-29.268,10.55-40.42-.492l-.091-.091c-10.9-10.9-11.139-29.371-.547-40.377,3.9-4.06,8.253-8.411,13.309-13.309,5.652-5.482,13.437-5.561,18.943-.189s5.6,13.352.3,18.992c-2.352,2.51-4.874,4.995-7.281,7.377l-4.8,4.8a3.83,3.83,0,0,0-1.3,2.516,1.521,1.521,0,0,0,.571,1.131c.924.85,2.121.577,3.543-.821l.28-.279c4.071-4,8.283-8.138,12.3-12.3,6.277-6.545,6.095-17.678-.395-24.3l-.122-.122c-6.5-6.5-17.332-6.818-23.762-.668q-1.075,1.075-2.212,2.1c-5.67,5.39-11.534,10.963-15.964,17.18-6.855,9.626-7.469,20.68-1.848,32.853a3.437,3.437,0,0,1-5.554,3.877Z" style="fill:#bebec3"/><path d="M43.933,87.257C35.966,79.29,35.984,67.835,44,59.369c3.925-4.157,7.578-7.773,11.163-11.054a3.441,3.441,0,1,1,4.649,5.074C56.348,56.561,52.818,60.068,49,64.1c-5.579,5.9-5.658,12.951-.134,18.365,5.166,5.166,12.076,4.844,17.952-.778,4.352-4.156,8.186-7.991,11.638-11.637,5.913-6.242,9-14.02,8.63-21.842a26.274,26.274,0,0,0-9.213-18.632,21.2,21.2,0,0,0-10.015-5.044,3.438,3.438,0,1,1,1.476-6.716,28.021,28.021,0,0,1,13.072,6.57A33.086,33.086,0,0,1,93.942,47.871c.462,9.711-3.276,19.259-10.5,26.9-3.549,3.743-7.42,7.614-11.881,11.88-8.593,8.217-19.659,8.49-27.541.693Z" style="fill:#bebec3"/></svg>