<svg id="Layer_1" data-name="Layer 1" xmlns="http://www.w3.org/2000/svg" width="120" height="120" viewBox="0 0 120 120"><title>CMicon</title><path d="M60.046,18.056q22.822,0,45.645,0c4.646,0,7.575,2.894,7.577,7.53q.013,26.711,0,53.42a7.028,7.028,0,0,1-7.171,7.172q-46.091,0-92.18,0a7.012,7.012,0,0,1-7.185-7.149q-.012-26.709,0-53.419c0-4.652,2.9-7.548,7.558-7.551q22.878-.016,45.756,0ZM96.1,52.213q0-10.6,0-21.207c0-1.623-.358-1.985-1.937-1.987q-5.33-.008-10.659.005c-1.544,0-1.948.416-1.949,1.994q-.007,21.1-.006,42.191c0,1.556.428,1.986,1.966,1.989q5.218.011,10.436,0c1.833,0,2.15-.308,2.15-2.113Q96.1,62.649,96.1,52.213ZM57.63,55.152q0-9.16,0-18.321c0-1.385-.4-1.8-1.773-1.8q-5.44-.016-10.881,0c-1.427,0-1.882.444-1.883,1.836q-.006,18.21,0,36.42c0,1.5.429,1.914,1.913,1.916q5.33.008,10.659,0c1.607,0,1.962-.353,1.962-1.944Q57.631,64.2,57.63,55.152Zm4.736,2h0q0,8.107,0,16.215c0,1.4.4,1.816,1.749,1.821q5.5.018,11,.006c1.332,0,1.8-.467,1.8-1.811q.009-16.16,0-32.317c0-1.513-.478-1.968-2.005-1.969q-5.274,0-10.55,0c-1.577,0-1.98.4-1.981,1.948Q62.363,49.1,62.366,57.154Zm-38.5,3.484h0c0,4.216-.009,8.433,0,12.649,0,1.52.408,1.908,1.916,1.911q5.381.011,10.763,0c1.412,0,1.9-.457,1.9-1.835q.014-12.65,0-25.3c0-1.482-.448-1.9-1.932-1.9q-5.269-.006-10.541,0c-1.75,0-2.1.333-2.1,2.05Q23.867,54.423,23.871,60.638Z" style="fill:#bebec3"/><path d="M75.508,93.23v6.7c.966,0,1.837,0,2.708,0,1.333,0,2.667-.021,4,.017,1.845.053,3.176,1.234,3.157,2.747a3.027,3.027,0,0,1-3.291,2.763c-4.443.023-8.886.01-13.329.009-10.144,0-20.289.014-30.434-.031a5.7,5.7,0,0,1-2.511-.661,2.32,2.32,0,0,1-1.1-2.774,2.93,2.93,0,0,1,2.659-2.018q3-.112,6-.04c.881.02,1.155-.259,1.126-1.137-.062-1.84-.019-3.683-.019-5.578Z" style="fill:#bebec3"/></svg>