<svg id="Layer_1" data-name="Layer 1" xmlns="http://www.w3.org/2000/svg" width="120" height="120" viewBox="0 0 120 120"><title>CMicon</title><path d="M62.575,11.246a5.341,5.341,0,0,1-1.692.182,44.638,44.638,0,0,0-14.1,3.686,42.754,42.754,0,0,0-10.464,6.528,45.006,45.006,0,0,0-15.4,25.913,40.3,40.3,0,0,0-.717,5.359c-.081,1.222-.173,2.444-.155,3.661a45.922,45.922,0,0,0,3.034,16.192,44.474,44.474,0,0,0,1.8,4.1c.093.189.167.359.449.348a52.819,52.819,0,0,1,5.566.323c.691.046,1.379.108,2.067.175a.475.475,0,0,0,.415-.164c1.1-1.11,2.194-2.223,3.311-3.316.273-.268.127-.454-.01-.682a33.012,33.012,0,0,1-4-10.194,33.337,33.337,0,0,1,6.832-27.989A32.6,32.6,0,0,1,59.022,23.781a35.5,35.5,0,0,1,6.516-.544,31.939,31.939,0,0,1,14.568,3.614,31.959,31.959,0,0,1,6.323,4.217A33.156,33.156,0,0,1,97.5,62.979,33.237,33.237,0,0,1,78.636,86.792a32.428,32.428,0,0,1-9.649,2.679,34.861,34.861,0,0,1-6.151.155,32.072,32.072,0,0,1-13.155-3.713c-.584-.308-1.16-.636-1.716-.994a.384.384,0,0,0-.58.067q-1.809,1.835-3.641,3.654a.679.679,0,0,0-.2.614c.109,1.128.261,2.252.3,3.383a23.738,23.738,0,0,1,.109,3.144.783.783,0,0,0,.5.894,43.855,43.855,0,0,0,10.215,3.788,41.814,41.814,0,0,0,5.515.925,43.725,43.725,0,0,0,5.727.287,48.582,48.582,0,0,0,9.013-1.105,43.331,43.331,0,0,0,8.641-2.889A43.777,43.777,0,0,0,92.1,92.586a44.363,44.363,0,0,0,11.466-12.731,45.387,45.387,0,0,0,3.762-7.835,43.656,43.656,0,0,0,2.454-10.475c.106-1.005.194-2.013.292-3.022V53.879c-.168-.133-.093-.324-.1-.489a40.152,40.152,0,0,0-.524-4.6,43.83,43.83,0,0,0-1.486-6.122,46.849,46.849,0,0,0-3.463-8.053,46.211,46.211,0,0,0-7.68-10.227,42.494,42.494,0,0,0-3.509-3.137A44.866,44.866,0,0,0,75.851,12.53a30.817,30.817,0,0,0-3.523-.734,29.847,29.847,0,0,0-4.231-.447.16.16,0,0,1-.164-.1H62.575" style="fill:#bebec3"/><path d="M55.74,76.656a18.168,18.168,0,0,0,4.714,1.585c8.512,1.562,15.721-.847,21.464-7.359A20.762,20.762,0,0,0,87.06,58.933a21.8,21.8,0,0,0-6.817-18.648,21.1,21.1,0,0,0-12.867-5.939A22.076,22.076,0,0,0,43.4,51.708,21.823,21.823,0,0,0,44.78,65.471c.157.362.249.365.512.1q3.945-3.986,7.912-7.946a.874.874,0,0,0,.234-.709c-.02-4.94,2.11-8.661,6.481-10.906a11.673,11.673,0,1,1,4.609,22.119.669.669,0,0,0-.564.194q-4.059,4.094-8.128,8.177a.881.881,0,0,0-.1.158" style="fill:#bebec3"/><path d="M19.053,96.426c-.828.82-1.572,1.554-2.311,2.294a13.517,13.517,0,0,0-.947.984,3.077,3.077,0,0,0,.1,4.094q.981,1.064,2.048,2.045a3.048,3.048,0,0,0,4.272-.071c.877-.855,1.724-1.742,2.675-2.705.057.584.11,1.041.145,1.5.147,1.891.3,3.783.433,5.675a1.1,1.1,0,0,0,.7,1.07,1.03,1.03,0,0,0,1.183-.325q6-6.025,11.986-12.058a5.407,5.407,0,0,0,1.456-4.508c-.178-2.083-.322-4.169-.5-6.251a1.062,1.062,0,0,1,.358-.921Q52.1,75.77,63.542,64.282A3.469,3.469,0,0,0,64.7,61.63c-.017-.737.079-1.473.1-2.211a2.589,2.589,0,0,0-2.824-2.8c-.944.04-1.885.123-2.825.223a2.782,2.782,0,0,0-1.662.93q-7.923,7.971-15.854,15.934-3.435,3.449-6.865,6.906a1,1,0,0,1-.914.333c-2.475-.216-4.953-.395-7.431-.575a5.393,5.393,0,0,0-4.386,1.744q-5.722,5.778-11.47,11.532c-.125.125-.249.249-.361.383a1.051,1.051,0,0,0,.728,1.748q2.719.212,5.442.424c.846.068,1.694.142,2.679.223" style="fill:#bebec3"/></svg>