<svg id="Layer_1" data-name="Layer 1" xmlns="http://www.w3.org/2000/svg" xmlns:xlink="http://www.w3.org/1999/xlink" width="244" height="61" viewBox="0 0 244 61"><defs><linearGradient id="New_Gradient_Swatch_2" x1="48.418" y1="33.46" x2="35.066" y2="2.816" gradientUnits="userSpaceOnUse"><stop offset="0" stop-color="#f37928"/><stop offset="0.362" stop-color="#f37527"/><stop offset="0.714" stop-color="#f16925"/><stop offset="1" stop-color="#f05a22"/></linearGradient><linearGradient id="linear-gradient" x1="-3020.697" y1="-209.481" x2="-2991.727" y2="-209.481" gradientTransform="translate(-2976.437 334.669) rotate(170.592)" gradientUnits="userSpaceOnUse"><stop offset="0" stop-color="#003d6a"/><stop offset="0.01" stop-color="#003e6b"/><stop offset="0.335" stop-color="#004b7e"/><stop offset="0.664" stop-color="#00528a"/><stop offset="1" stop-color="#00558e"/></linearGradient><radialGradient id="radial-gradient" cx="-3017.439" cy="-179.448" r="37.08" gradientTransform="translate(-2976.437 334.669) rotate(170.592)" gradientUnits="userSpaceOnUse"><stop offset="0" stop-color="#d0d2d3"/><stop offset="0.787" stop-color="#5f6061"/><stop offset="1" stop-color="#404041"/></radialGradient><linearGradient id="linear-gradient-2" x1="-3035.772" y1="-165.162" x2="-3023.64" y2="-222.236" gradientTransform="translate(-2976.437 334.669) rotate(170.592)" gradientUnits="userSpaceOnUse"><stop offset="0" stop-color="#d0d2d3"/><stop offset="0.17" stop-color="#cccecf"/><stop offset="0.335" stop-color="#c1c2c3"/><stop offset="0.499" stop-color="#adafb0"/><stop offset="0.662" stop-color="#929394"/><stop offset="0.824" stop-color="#6f7071"/><stop offset="0.983" stop-color="#454546"/><stop offset="1" stop-color="#404041"/></linearGradient><linearGradient id="linear-gradient-3" x1="178.877" y1="4.578" x2="187.797" y2="-36.402" gradientTransform="translate(-134.397 84.727) rotate(-13.571)" xlink:href="#linear-gradient-2"/><linearGradient id="linear-gradient-4" x1="162.308" y1="-1.944" x2="169.51" y2="-15.679" gradientTransform="translate(-134.397 84.727) rotate(-13.571)" gradientUnits="userSpaceOnUse"><stop offset="0" stop-color="#a6a8ab"/><stop offset="0.265" stop-color="#a3a5a8"/><stop offset="0.45" stop-color="#9b9c9f"/><stop offset="0.609" stop-color="#8c8d90"/><stop offset="0.755" stop-color="#77787a"/><stop offset="0.89" stop-color="#5c5c5e"/><stop offset="1" stop-color="#404041"/></linearGradient></defs><title>OmnivoLogo</title><path d="M80.675,52.973A4.967,4.967,0,0,1,81.26,53a2.411,2.411,0,0,1,2.2,1.338,5.838,5.838,0,0,1,.371,2.573,10.944,10.944,0,0,1-.123,1.71,3.532,3.532,0,0,1-.439,1.259,2.087,2.087,0,0,1-.618.584,3.657,3.657,0,0,1-1.866.449H74.2V52.973Zm-5.5,7.094h5.059a4.128,4.128,0,0,0,1.709-.293,1.626,1.626,0,0,0,.708-.955,7.287,7.287,0,0,0,.191-1.878q0-.438-.034-.877c-.067-1.123-.3-1.629-.787-1.956a2.353,2.353,0,0,0-1.483-.336H75.178Z" style="fill:#6d6e70"/><path d="M95.882,52.973v7.936H94.9V52.973Z" style="fill:#6d6e70"/><path d="M115.574,55.323a1.546,1.546,0,0,0-.3-1.192,2.3,2.3,0,0,0-1.349-.359c-.708-.034-1.416-.057-2.125-.057-.753,0-1.494.023-2.248.034a2.235,2.235,0,0,0-1.427.449,2.219,2.219,0,0,0-.349,1.349V58.29a2.037,2.037,0,0,0,.405,1.406,2.231,2.231,0,0,0,1.405.382h4.159a2.128,2.128,0,0,1,.259-.011c.82-.046,1.2-.3,1.393-.653a4.14,4.14,0,0,0,.248-1.63h-4.137V57h5.1a8.023,8.023,0,0,1-.225,2.652,1.8,1.8,0,0,1-.832.979,2.875,2.875,0,0,1-1.327.3c-.753.034-1.5.067-2.259.067-.888,0-1.764-.033-2.664-.067-.18-.011-.359-.023-.551-.045a1.984,1.984,0,0,1-1.652-.933,4.035,4.035,0,0,1-.393-1.731c-.012-.416-.035-.832-.035-1.259,0-.517.035-1.023.068-1.54.011-.147.033-.292.045-.45a2.172,2.172,0,0,1,.967-1.675,3.223,3.223,0,0,1,1.517-.371c.7-.033,1.406-.067,2.1-.067.91,0,1.821.034,2.731.067a2.47,2.47,0,0,1,2.181,1.035,3.035,3.035,0,0,1,.292,1.36Z" style="fill:#6d6e70"/><path d="M128.623,52.973v7.936h-.978V52.973Z" style="fill:#6d6e70"/><path d="M147.8,52.973v.832h-3.956v7.1h-.99V53.827h-4.058v-.854Z" style="fill:#6d6e70"/><path d="M163.106,52.973l4.665,7.936h-1.124L165.579,59.1h-6.385l-1.012,1.809h-1.146l4.743-7.936Zm-3.474,5.373h5.508l-2.7-4.743Z" style="fill:#6d6e70"/><path d="M179.009,52.973v7.071h6.262v.865h-7.24V52.973Z" style="fill:#6d6e70"/><path d="M73.571,41.688q-3.52-3.741-3.521-11.112,0-7.7,3.493-11.222t10.589-3.52q7.1,0,10.672,3.6T98.38,30.576q0,7.262-3.686,11.057t-10.562,3.8Q77.091,45.429,73.571,41.688ZM88.7,36.765a10.445,10.445,0,0,0,1.541-6.189q0-4.455-1.513-6.353a5.519,5.519,0,0,0-4.594-1.9q-3.191,0-4.593,1.9t-1.4,6.353q0,4.238,1.458,6.271a5.2,5.2,0,0,0,4.538,2.035A5.283,5.283,0,0,0,88.7,36.765Z" style="fill:#003d6a"/><path d="M140.99,18.282q2.805,2.283,2.8,7.618V44.6h-8.2V27.551q0-4.786-5.391-4.786a6.611,6.611,0,0,0-3.8,1.045q.109,1.32.11,2.09V44.6h-8.2V27.551q0-4.786-5.391-4.786a8.978,8.978,0,0,0-4.071.935V44.6h-8.2V19.134a27.071,27.071,0,0,1,6.546-2.145,36.267,36.267,0,0,1,7.867-.99q5.555,0,8.2,1.98a24.379,24.379,0,0,1,4.538-1.458A21.316,21.316,0,0,1,132.353,16Q138.184,16,140.99,18.282Z" style="fill:#003d6a"/><path d="M153.6,16.989a36.265,36.265,0,0,1,7.866-.99q5.886,0,8.857,2.31t2.97,7.591V44.6h-8.2V27.551q0-4.786-5.391-4.786a11.665,11.665,0,0,0-2.476.275,7.8,7.8,0,0,0-1.98.66V44.6h-8.2V19.134A27.086,27.086,0,0,1,153.6,16.989Z" style="fill:#003d6a"/><path d="M186.041,9.722a4.5,4.5,0,0,1-1.458,3.548,5.217,5.217,0,0,1-6.876,0,4.5,4.5,0,0,1-1.458-3.548,4.5,4.5,0,0,1,1.458-3.548,5.217,5.217,0,0,1,6.876,0A4.5,4.5,0,0,1,186.041,9.722Z" style="fill:#003d6a"/><rect x="177.074" y="17.154" width="8.197" height="27.449" style="fill:#003d6a"/><path d="M202.779,44.6c7.472-6.031,11.438-15.494,12.954-27.45h-8.374c-.743,7.587-2.778,14.376-8.153,20.918a86.673,86.673,0,0,1-2.176-20.918h-8.2a95.877,95.877,0,0,0,3.659,27.45Z" style="fill:#003d6a"/><path d="M219.169,41.688q-3.52-3.741-3.521-11.112,0-7.7,3.494-11.222t10.588-3.52q7.1,0,10.672,3.6t3.576,11.139q0,7.262-3.686,11.057t-10.562,3.8Q222.689,45.429,219.169,41.688ZM234.3,36.765a10.445,10.445,0,0,0,1.541-6.189q0-4.455-1.513-6.353a5.518,5.518,0,0,0-4.594-1.9q-3.19,0-4.592,1.9t-1.4,6.353q0,4.238,1.459,6.271a5.2,5.2,0,0,0,4.537,2.035A5.283,5.283,0,0,0,234.3,36.765Z" style="fill:#003d6a"/><path d="M43.845,49.154c-.909-15.576-11.727-18.91-14.89-30.885S26.829,6.214,26.829,6.214s2.1-10.147,15.139-4.508C57.313,8.344,56.3,32.691,56.3,32.691S49.347,47.089,43.845,49.154Z" style="fill:url(#New_Gradient_Swatch_2)"/><path d="M27.256,36.73S38.734,48.305,39.421,57.173C36.36,64.1,20.584,59.68,18.346,58.806c-2.48-.968-8.935-5.8-8.935-5.8l3.377-10.688Z" style="fill:url(#linear-gradient)"/><path d="M18.346,58.806C8.161,54.749,1.027,44.662.121,32.963-.753,21.685,4.217,10.64,13.165,5.284c5.161-3.09,17.192-4.061,22.32,5.748,4.373,8.366,2.526,18.329-.35,22.651-2.319,3.488-5.913,7.927-14.461,11.6-4.253,1.83-6.864,3.939-7.09,6.212C13.343,53.921,14.834,56.569,18.346,58.806Z" style="fill:url(#radial-gradient)"/><path d="M42.157,59.377a30.913,30.913,0,0,0-.189-57.671,26.7,26.7,0,0,1,7.855,16.959c.874,11.286-5.669,20.913-14.956,26.168C18.2,54.268,25.2,65.181,42.157,59.377Z" style="fill:url(#linear-gradient-2)"/><path d="M35.064,44.993c9.481-4.9,16.387-14.266,15.945-25.577C50.758,12.987,48.9,6.624,44.134,3.025a9.071,9.071,0,0,0-2.166-1.319,26.7,26.7,0,0,1,7.855,16.959c.874,11.286-5.669,20.913-14.956,26.168a31.228,31.228,0,0,0-5.355,3.739A31.059,31.059,0,0,1,35.064,44.993Z" style="fill:url(#linear-gradient-3)"/><path d="M32.275,37.066c-2.872,2.554-4.12,4.592-12.851,7.807-4.345,1.6-7.064,3.567-7.412,5.826-.32,2.087.654,4.412,3.128,6.572a26.96,26.96,0,0,0,3.206,1.535c-3.512-2.237-5-4.885-4.762-7.307.226-2.274,2.837-4.382,7.09-6.212,8.548-3.677,12.142-8.116,14.461-11.6A40.729,40.729,0,0,1,32.275,37.066Z" style="fill:url(#linear-gradient-4)"/></svg>