<svg id="Layer_1" data-name="Layer 1" xmlns="http://www.w3.org/2000/svg" width="48" height="54" viewBox="0 0 48 54"><title>RecentTiles</title><path d="M44.119,45.621h-9.66a.378.378,0,0,0-.064-.031,1.133,1.133,0,0,1-.872-1.17q0-8.053,0-16.106a1.088,1.088,0,0,1,.53-.965,2.866,2.866,0,0,1,.407-.182h9.66c.05.019.1.039.15.056a1.133,1.133,0,0,1,.786,1.091q0,8.081,0,16.16a1.111,1.111,0,0,1-.62,1.022A2.628,2.628,0,0,1,44.119,45.621ZM43.89,42.73V30.065h-9.2V42.73Zm-4.6-14.547h-1.5c-.442,0-.884-.007-1.325,0a.4.4,0,0,0-.427.411.41.41,0,0,0,.416.4c.051,0,.1,0,.153,0h5.377a1.064,1.064,0,0,0,.253-.019.378.378,0,0,0,.311-.384.371.371,0,0,0-.3-.39,1.225,1.225,0,0,0-.3-.023Q40.613,28.181,39.288,28.183Zm.861,16a.86.86,0,1,0-.861.859A.863.863,0,0,0,40.149,44.18Z" style="fill:#a7a9ac"/><path d="M32.27,38.562V32.174l-26.057,0H6.052c-.8-.01-.938-.144-.938-.938q0-9.762,0-19.523c0-.107,0-.214,0-.321.022-.6.168-.78.765-.786,2.076-.023,4.151-.028,6.226-.031q5.4-.006,10.806,0v0h16.39c.227,0,.455,0,.682.014.662.045.8.171.8.832.014,1.178.008,2.357.009,3.535l.006,11.039H42.97q0-4.457,0-8.915c0-1.969.012-3.938-.009-5.906a2.533,2.533,0,0,0-2.44-2.757,6.3,6.3,0,0,0-.8-.026q-15.629,0-31.257,0c-1.11,0-2.226-.012-3.328.1a2.246,2.246,0,0,0-2.1,2.087,7.876,7.876,0,0,0-.081,1.159q-.009,9.16-.006,18.321c0,1.9-.013,3.8.012,5.7a2.434,2.434,0,0,0,2.163,2.731,7.292,7.292,0,0,0,1.2.075q5.986.009,11.973.006h.5c-.075.945-.125,1.826-.217,2.7a2.906,2.906,0,0,1-1.542,2.308c-.568.328-1.139.656-1.67,1.038-.183.132-.249.428-.369.649a2.059,2.059,0,0,0,.627.227c2.866.016,5.732.012,8.6.013,2.116,0,4.232,0,6.348-.01.165,0,.445-.122.469-.231a.908.908,0,0,0-.176-.559c-.061-.1-.21-.159-.325-.228-.537-.326-1.079-.646-1.615-.974a2.743,2.743,0,0,1-1.378-2.022c-.125-.94-.168-1.891-.25-2.888.165-.011.282-.026.4-.026Q29.984,38.56,32.27,38.562ZM22.959,37.2a1.775,1.775,0,0,1,0-3.549,1.776,1.776,0,0,1,0,3.549Z" style="fill:#a7a9ac"/></svg>