<svg id="Layer_1" data-name="Layer 1" xmlns="http://www.w3.org/2000/svg" width="48" height="54" viewBox="0 0 48 54"><title>RecentTiles</title><path d="M11.552,30.385c.122.239.226.472.354.69a11.843,11.843,0,0,0,3.057,3.434,12.5,12.5,0,0,0,5.4,2.391,15.15,15.15,0,0,0,2.33.241c.421.014.84-.008,1.26-.016.115,0,.137.033.137.138q0,2.522,0,5.042c0,.113-.036.143-.142.126-.614-.1-1.228-.19-1.842-.285L19.837,41.8l-2.18-.337-2.424-.375-2.612-.405c-.321-.049-.641-.1-.962-.143-.084-.012-.118-.036-.118-.126q0-4.988,0-9.973A.405.405,0,0,1,11.552,30.385Z" style="fill:#a7a9ac"/><path d="M28.234,31.536l.026-.01c.132.217.25.446.4.649a6.727,6.727,0,0,0,3.468,2.46,9.226,9.226,0,0,0,4.457.215v4.289q-1.137.148-2.274.3l-3.03.408c-.952.127-1.9.25-2.857.381-.135.018-.193,0-.193-.159q.009-4.2.005-8.39Z" style="fill:#a7a9ac"/><path d="M27.564,44.693v-.222c0-.515-.089-.622-.593-.713a.017.017,0,0,1-.014-.017V9.8h0V9.115A1.563,1.563,0,0,0,25.1,7.579c-.426.08-.866.165-1.285.245l-1.272.242L17.113,9.079l-3.045.568-1.645.3-1.252.231-.791.148-.6.112a1.25,1.25,0,0,0-1.022,1.236l0,.918q0,13.342,0,26.685V41.52a.378.378,0,0,0-.154.344v.212c0,.272,0,.553,0,.829a.388.388,0,0,0,.353.418q1.7.27,3.394.544c-.123.064-.245.129-.367.194l-.014.007a.438.438,0,0,0-.236.252.84.84,0,0,0,.046.659.779.779,0,0,0,.482.386,1.753,1.753,0,0,0,1.239-.081c.462-.219.925-.453,1.372-.68l.463-.233c.03-.015.035-.014.052-.011.311.054.628.1.934.152l.478.076,1,.163-.084.045-.412.219-.014.007a.411.411,0,0,0-.226.242.806.806,0,0,0,.278.881,1.722,1.722,0,0,0,.948.3,1.52,1.52,0,0,0,.623-.135c.512-.23,1.015-.491,1.5-.744.177-.092.353-.183.53-.273a.176.176,0,0,1,.127-.017c.523.089,1.056.174,1.571.257l1.108.179q1.418.23,2.835.462a.506.506,0,0,0,.542-.261.491.491,0,0,1,.151-.156.554.554,0,0,0,.294-.509C27.562,45.065,27.563,44.879,27.564,44.693ZM10.639,41.5V12.635l2.009-.351,3.6-.631,2.691-.473q1.421-.25,2.839-.5.738-.13,1.477-.257l1.816-.317v33.68L23.918,43.6l-4.46-.707-1.518-.241L16.4,42.411l-1.457-.23-2.288-.362-1.118-.178C11.242,41.594,10.943,41.546,10.639,41.5Z" style="fill:#a7a9ac"/><path d="M39.4,41.144c-.007-.172-.006-.344,0-.525,0-.094,0-.189,0-.283v-.01A.394.394,0,0,0,39.28,40c0-.02,0-.039,0-.058q0-11.1,0-22.2v-2.06a1.367,1.367,0,0,0-1.121-1.342l-2.269-.421-.487-.091-2.655-.5-4.2-.784a.272.272,0,0,0-.221.058.267.267,0,0,0-.1.206v1.668a.268.268,0,0,0,.223.264l.971.17q.813.141,1.625.285l1.774.312,2.6.453,1.292.224.844.146V18.9c0,6.9,0,14.035,0,21.053h0c-.864.129-1.739.268-2.586.4l-.533.084-1.576.25-1.329.212-3.085.487a.269.269,0,0,0-.227.265v1.385a.27.27,0,0,0,.312.265l.281-.046a.621.621,0,0,1,.433.026c.617.339,1.1.58,1.557.783a1.345,1.345,0,0,0,.549.119,1.425,1.425,0,0,0,.828-.278.651.651,0,0,0,.285-.57.682.682,0,0,0-.37-.555l-.077-.041.29-.047,1.4-.228c.007,0,.021,0,.08.026l.245.124c.384.194.781.395,1.177.585a1.563,1.563,0,0,0,1.079.1.739.739,0,0,0,.562-.638.587.587,0,0,0-.351-.644h0c.812-.133,1.652-.27,2.479-.4A.426.426,0,0,0,39.4,41.144Z" style="fill:#a7a9ac"/></svg>