<svg id="Layer_1" data-name="Layer 1" xmlns="http://www.w3.org/2000/svg" width="48" height="54" viewBox="0 0 48 54"><title>RecentTiles</title><path d="M38.01,19.368a11.443,11.443,0,0,0-.915-1.344.859.859,0,0,0-1.017-.234.924.924,0,0,0-.635.815,1.237,1.237,0,0,0,.314.876,10.806,10.806,0,0,1-.064,12.565.983.983,0,1,0,1.6,1.134,12.6,12.6,0,0,0,2.414-7.273A12.859,12.859,0,0,0,38.01,19.368Z" style="fill:#a7a9ac"/><path d="M35.673,23.919a8.336,8.336,0,0,0-1.2-2.966.977.977,0,0,0-1.8.448,1.127,1.127,0,0,0,.208.7,6.85,6.85,0,0,1,.886,4.956,7.264,7.264,0,0,1-.913,2.323.968.968,0,0,0,.333,1.367.982.982,0,0,0,1.357-.381,9.377,9.377,0,0,0,1.365-4.647C35.832,25.12,35.784,24.514,35.673,23.919Z" style="fill:#a7a9ac"/><path d="M17.8,33.459a1.759,1.759,0,0,0-1.635-1.022H13.026a1.8,1.8,0,0,0-1.461.718,1.53,1.53,0,0,0-.174,1.524l1.823,4.189a1.759,1.759,0,0,0,1.635,1.022h3.138a1.8,1.8,0,0,0,1.461-.719,1.528,1.528,0,0,0,.174-1.523Zm.275,4.853a.1.1,0,0,1-.087.043H14.849a.1.1,0,0,1-.1-.061L12.929,34.1a.083.083,0,0,1,.011-.09.1.1,0,0,1,.086-.043h3.138a.1.1,0,0,1,.1.061l1.823,4.188A.086.086,0,0,1,18.074,38.312Z" style="fill:#a7a9ac"/><path d="M30.162,22.6V16.179c0-.075,0-.169-.009-.277a1.908,1.908,0,0,0-1.22-1.655,1.97,1.97,0,0,0-2.091.421c-1.09.946-2.2,1.907-3.274,2.836q-1.4,1.213-2.807,2.43c-1.675,0-8.309,0-10.408,0A1.957,1.957,0,0,0,8.293,22v7.273a1.945,1.945,0,0,0,2.056,2.049h1.228c1.382,0,7.676,0,9.083,0,.425.361.853.732,1.269,1.092l.389.337L26.9,36.721a1.956,1.956,0,0,0,1.3.515,1.917,1.917,0,0,0,.443-.052A1.95,1.95,0,0,0,30.162,35.2q0-3.208,0-6.419a3.665,3.665,0,0,0,0-6.185Zm-1.918-6.434V28.093q0,3.553,0,7.106a.385.385,0,0,1-.014.113l-.01,0a.409.409,0,0,1-.061-.044L23.574,31.3l-.389-.336c-.464-.4-.944-.818-1.423-1.223a1.483,1.483,0,0,0-.92-.338c-1.247,0-7.379,0-8.615,0H10.349a.539.539,0,0,1-.126-.012.563.563,0,0,1-.011-.119V22a.587.587,0,0,1,.013-.136.625.625,0,0,1,.131-.013c2.165,0,8.842,0,10.563,0h0a1.441,1.441,0,0,0,.97-.36l2.931-2.538c1.075-.929,2.185-1.89,3.277-2.837a.6.6,0,0,1,.123-.088l.008,0h0c0,.011,0,.027.007.048S28.244,16.133,28.244,16.161Z" style="fill:#a7a9ac"/></svg>