<svg id="Layer_1" data-name="Layer 1" xmlns="http://www.w3.org/2000/svg" width="48" height="54" viewBox="0 0 48 54"><title>RecentTiles</title><path d="M23.931,18.806a8.081,8.081,0,0,0-6.964,3.85c-.606.865-1.138,1.783-1.756,2.639a8.391,8.391,0,0,1-2.519,2.31A.887.887,0,1,1,11.8,26.1a9.32,9.32,0,0,0,2.714-2.859,26.2,26.2,0,0,1,2.321-3.158c4.078-4.506,11.826-3.886,15.409,1.116a8.885,8.885,0,0,1,1.551,7.232c-.2.993-.3,2-.465,3a4.092,4.092,0,0,0,1,3.525c.331.382.7.735,1.034,1.111a.87.87,0,0,1,0,1.213.834.834,0,0,1-1.173.074,6.8,6.8,0,0,1-2.6-4.194,14.672,14.672,0,0,1,.159-3.06c.094-.947.242-1.891.407-2.829A6.558,6.558,0,0,0,30.39,21.72,8.144,8.144,0,0,0,23.931,18.806Z" style="fill:#a7a9ac"/><path d="M28.105,27.627A7.491,7.491,0,0,1,26.964,31.4a24.14,24.14,0,0,1-4.875,5.669c-1.67,1.481-3.43,2.859-5.167,4.262a1.5,1.5,0,0,1-.8.313.749.749,0,0,1-.759-.584.883.883,0,0,1,.359-1.019c1.163-.906,2.345-1.79,3.469-2.743a31.572,31.572,0,0,0,5.84-6.125,6.8,6.8,0,0,0,1.253-2.789A2.954,2.954,0,0,0,25.26,25.57a2.367,2.367,0,0,0-3.465.678,9.323,9.323,0,0,0-.736,1.374,15.044,15.044,0,0,1-4.524,5.561c-1.259.952-2.542,1.871-3.822,2.8a.878.878,0,0,1-1.333-.137.9.9,0,0,1,.334-1.3q1.7-1.236,3.394-2.471A14.055,14.055,0,0,0,19.787,26.2a4.942,4.942,0,0,1,1.376-1.847,4.034,4.034,0,0,1,6.489,1.609A11.833,11.833,0,0,1,28.105,27.627Z" style="fill:#a7a9ac"/><path d="M28.359,32.642c.124-.729.349-1.9.513-3.074A17.616,17.616,0,0,0,29.15,26.6c-.089-2.687-2.649-4.454-4.606-4.669a5.407,5.407,0,0,0-4.916,2.092,7.6,7.6,0,0,0-1.241,1.9,12.351,12.351,0,0,1-4.058,4.893c-.54.419-1.1.81-1.675,1.187a.882.882,0,1,1-.944-1.479,16.033,16.033,0,0,0,3.9-3.372,7.751,7.751,0,0,0,.9-1.476,9.52,9.52,0,0,1,4.015-4.648,6.711,6.711,0,0,1,7.205.278,6.463,6.463,0,0,1,3.166,6.449c-.146,1.448-.453,2.879-.69,4.317A6.962,6.962,0,0,0,30.747,36,3.621,3.621,0,0,0,32.9,38.069c.126.046.252.092.375.145a.875.875,0,1,1-.6,1.644,5.415,5.415,0,0,1-3.437-2.916A9.678,9.678,0,0,1,28.359,32.642Z" style="fill:#a7a9ac"/><path d="M24.613,13.921c3.226,0,6.473,1.587,9.217,4.31a19.243,19.243,0,0,1,1.54,1.793.875.875,0,0,1-.1,1.306.9.9,0,0,1-1.315-.285,13.249,13.249,0,0,0-6.714-4.884A11.008,11.008,0,0,0,14.9,20.246q-.81,1.122-1.578,2.274a.921.921,0,0,1-1.281.418.879.879,0,0,1-.234-1.319,19.681,19.681,0,0,1,4.132-5.006C18.251,14.723,20.96,13.969,24.613,13.921Z" style="fill:#a7a9ac"/><path d="M23.817,10.865a15.957,15.957,0,0,1,10.151,3.464,1.015,1.015,0,0,1,.491.937.888.888,0,0,1-1.468.544,18.533,18.533,0,0,0-2.3-1.521c-4.656-2.272-9.313-2.388-13.867.262a14.377,14.377,0,0,0-2.406,2.036c-.451.42-.926.54-1.335.193a.889.889,0,0,1-.012-1.345,12.728,12.728,0,0,1,5.662-3.751A15.361,15.361,0,0,1,23.817,10.865Z" style="fill:#a7a9ac"/><path d="M24.783,27.881c-.05.131-.119.359-.221.572a20.913,20.913,0,0,1-3.625,5.062,42.421,42.421,0,0,1-6.647,5.738.9.9,0,0,1-1.369-.135c-.3-.434-.176-.919.351-1.3a40.384,40.384,0,0,0,6.8-5.969,17.744,17.744,0,0,0,3.039-4.44.845.845,0,0,1,1.032-.491A.905.905,0,0,1,24.783,27.881Z" style="fill:#a7a9ac"/><path d="M36.779,28.569a35.717,35.717,0,0,1-.551,4.571c-.106.687-.55,1.033-1.076.916-.56-.124-.8-.572-.649-1.256a20.7,20.7,0,0,0,.51-5.187,11,11,0,0,0-.708-3.709.877.877,0,1,1,1.62-.665,12.048,12.048,0,0,1,.845,4.18S36.793,28.282,36.779,28.569Z" style="fill:#a7a9ac"/><path d="M22.491,38.647a3.168,3.168,0,0,1,2.837,1.595,10.128,10.128,0,0,1,.746,1.71.851.851,0,0,1-.557,1.142.906.906,0,0,1-1.119-.626,8.885,8.885,0,0,0-.647-1.411,1.058,1.058,0,0,0-1.7-.346,14.827,14.827,0,0,0-1.59,1.42.938.938,0,0,1-1.337.187.871.871,0,0,1,.007-1.338A17.472,17.472,0,0,1,21.166,39.2,5.23,5.23,0,0,1,22.491,38.647Z" style="fill:#a7a9ac"/><path d="M26.657,33.838a.852.852,0,0,1,.791,1.2c-.856,1.818-.182,3.258,1.072,4.561.308.32.676.583,1.01.879a.869.869,0,0,1,.168,1.2.844.844,0,0,1-1.19.21,7.043,7.043,0,0,1-3.116-4.407,4.777,4.777,0,0,1,.422-3.088A.9.9,0,0,1,26.657,33.838Z" style="fill:#a7a9ac"/></svg>