<svg id="Layer_1" data-name="Layer 1" xmlns="http://www.w3.org/2000/svg" width="48" height="54" viewBox="0 0 48 54"><title>RecentTiles</title><path d="M21.365,24.576c-2.254,0-4.509,0-6.763,0-.392,0-.708-.152-.764-.528a.918.918,0,0,1,.25-.707,1.137,1.137,0,0,1,.714-.173c2.408-.012,4.816-.009,7.224-.009h5.789c.171,0,.343-.009.512.007a.709.709,0,0,1,.7.729.688.688,0,0,1-.751.677c-.751,0-1.5,0-2.254,0Q23.7,24.578,21.365,24.576Z" style="fill:#a7a9ac"/><path d="M21.462,26.033c2.22,0,4.44-.012,6.659.015a1.136,1.136,0,0,1,.786.339c.361.454-.033,1.05-.679,1.055-1.451.012-2.9,0-4.354,0H14.806c-.1,0-.2,0-.307,0a.7.7,0,1,1,0-1.4c.785-.022,1.571-.01,2.356-.01h4.611Z" style="fill:#a7a9ac"/><path d="M21.4,30.318H14.793c-.085,0-.171,0-.256,0a.72.72,0,0,1-.741-.746.69.69,0,0,1,.762-.665q1.767-.006,3.534,0l9.99,0c.069,0,.137,0,.2,0a.729.729,0,0,1,.748.688.711.711,0,0,1-.717.718c-.5.023-.99.009-1.486.009Z" style="fill:#a7a9ac"/><path d="M23.094,38.66c.306-.569.686-1.045,1.377-.8.58.2.489.744.4,1.388l.523-.456a5.676,5.676,0,0,1,.7-.6c.627-.386,1.109-.177,1.345.517.064.188.23.491.333.484a.906.906,0,0,0,.576-.333,1.458,1.458,0,0,0,.281-1.4c-.11-.338-.044-.59.289-.7.36-.122.53.133.644.421a2.572,2.572,0,0,1-1.123,2.876,1.3,1.3,0,0,1-1.824-.679,1.076,1.076,0,0,0-.275-.361,2.368,2.368,0,0,1-.393.582,2.836,2.836,0,0,1-.951.559c-.6.167-.846-.033-1.157-.754-.8.408-1.084.378-1.691-.276-.326-.35-.584-.157-.839.044-.142.111-.2.337-.352.425a2.757,2.757,0,0,1-.651.2c-.059-.221-.226-.482-.161-.657.367-.977,2.021-1.823,2.821-.563C22.974,38.6,23.014,38.611,23.094,38.66Z" style="fill:#a7a9ac"/><path d="M17.631,14.728c1.008,0,2.016,0,3.025,0,.548,0,.824.248.819.7s-.3.706-.827.708q-3.025.014-6.05,0a.727.727,0,0,1-.806-.738c.017-.4.323-.659.814-.663C15.614,14.723,16.622,14.728,17.631,14.728Z" style="fill:#a7a9ac"/><path d="M17.656,18.625c-1.008,0-2.017,0-3.026,0-.515,0-.836-.277-.838-.7s.32-.71.83-.712q3.026-.011,6.052,0c.521,0,.812.286.8.728-.012.424-.288.673-.791.677C19.674,18.63,18.665,18.624,17.656,18.625Z" style="fill:#a7a9ac"/><path d="M34.994,15.777c.934,0,1.869,0,2.8,0,.508,0,.764.23.759.645s-.273.654-.766.656q-2.8.01-5.606,0a.675.675,0,0,1-.747-.684c.017-.37.3-.611.754-.614C33.125,15.772,34.06,15.777,34.994,15.777Z" style="fill:#a7a9ac"/><path d="M35.018,19.387c-.935,0-1.869,0-2.8,0-.478,0-.774-.256-.777-.643a.68.68,0,0,1,.769-.66q2.8-.009,5.608,0c.482,0,.752.266.741.675-.011.393-.267.624-.733.628C36.887,19.392,35.953,19.387,35.018,19.387Z" style="fill:#a7a9ac"/><path d="M17.629,31.773c1.009,0,2.018,0,3.027,0,.544,0,.819.247.818.7s-.291.7-.824.706q-3,.011-6,0c-.542,0-.876-.3-.858-.736.018-.411.341-.669.864-.671C15.646,31.77,16.638,31.773,17.629,31.773Z" style="fill:#a7a9ac"/><path d="M22.883,31.774a.676.676,0,0,1,.752.71.7.7,0,0,1-.727.7.714.714,0,0,1-.762-.721A.7.7,0,0,1,22.883,31.774Z" style="fill:#a7a9ac"/><path d="M41.23,21.027c0,.667-.224.891-.884.891-4.918,0-5.855,0-10.774,0-.694,0-.961-.277-.961-.981,0-6.621,0-.2,0-6.821,0-.722.191-.92.9-.92H39.975c.189,0,.379,0,.568,0,.483.01.686.213.687.7ZM30.011,20.51h9.812V14.605H30.011Z" style="fill:#a7a9ac"/><path d="M32.629,22.736V42.417H10.183V11.586H32.629v.786h2.289V10.424c0-.784-.331-1.115-1.118-1.131-.308-.007-.616,0-.924,0H9.378c-1.159,0-1.471.322-1.471,1.5q0,16.161,0,32.323c0,1.145.435,1.6,1.565,1.6H33.48c1.074,0,1.438-.365,1.438-1.449q0-8.158,0-16.316V22.736Z" style="fill:#a7a9ac"/></svg>