<?xml version="1.0" encoding="utf-8"?>
<!-- Generator: Adobe Illustrator 22.1.0, SVG Export Plug-In . SVG Version: 6.00 Build 0)  -->
<svg version="1.1" id="Layer_1" xmlns="http://www.w3.org/2000/svg" xmlns:xlink="http://www.w3.org/1999/xlink" x="0px" y="0px"
	 viewBox="0 0 250 72.8" style="enable-background:new 0 0 250 72.8;" xml:space="preserve">
<style type="text/css">
	.st0{fill:#7C868D;}
	.st1{fill:#00A1E0;}
	.st2{fill:#FFFFFF;}
</style>
<title>Salesforce-Registered-Consulting-Partner</title>
<g>
	<path class="st0" d="M110.5,14.4c0-0.5,0-1.1-0.1-1.6h1.4c0.1,0.3,0.1,0.6,0.1,1l0,0c0.2-0.4,0.5-0.7,0.8-0.9
		c0.4-0.2,0.9-0.3,1.3-0.3h0.4l-0.1,1.3c-0.2,0-0.3,0-0.5,0c-0.6,0-1.1,0.2-1.5,0.6c-0.4,0.5-0.5,1-0.5,1.6v3.8h-1.4L110.5,14.4z"/>
	<path class="st0" d="M121.8,16.9h-5.1c0,0.6,0.2,1.1,0.6,1.5c0.4,0.4,1,0.6,1.5,0.5c0.4,0,0.8,0,1.1-0.2c0.4-0.1,0.7-0.3,1-0.5
		l0.6,0.9c-0.4,0.3-0.8,0.5-1.3,0.7c-0.5,0.2-1,0.2-1.5,0.2c-0.7,0-1.3-0.1-1.9-0.5c-0.5-0.3-0.9-0.8-1.1-1.3
		c-0.3-0.6-0.4-1.3-0.4-2c0-1,0.3-1.9,0.9-2.7c0.6-0.7,1.5-1.1,2.5-1c0.9-0.1,1.8,0.3,2.4,1c0.6,0.8,0.9,1.7,0.8,2.7
		C121.9,16.5,121.9,16.7,121.8,16.9z M120.4,15.8c0-0.5-0.2-1.1-0.5-1.5c-0.3-0.4-0.8-0.6-1.3-0.6c-0.5,0-1,0.2-1.4,0.6
		c-0.3,0.4-0.5,0.9-0.5,1.5L120.4,15.8z"/>
	<path class="st0" d="M122.7,21.3c0-0.4,0.1-0.7,0.3-1c0.3-0.4,0.6-0.7,1-0.8c-0.2-0.1-0.3-0.2-0.5-0.4c-0.1-0.2-0.2-0.3-0.2-0.5
		c0-0.3,0.1-0.5,0.3-0.7c0.2-0.2,0.4-0.4,0.7-0.4c-0.8-0.4-1.3-1.2-1.3-2.1c0-0.7,0.3-1.4,0.8-1.9c0.6-0.5,1.4-0.7,2.2-0.7
		c0.2,0,0.5,0,0.7,0c0.2,0,0.4,0.1,0.6,0.1h2.5V14l-1.5-0.2c0.2,0.2,0.4,0.4,0.5,0.6c0.1,0.3,0.2,0.6,0.2,0.9c0,0.7-0.3,1.3-0.8,1.7
		c-0.6,0.5-1.4,0.7-2.2,0.6c-0.4,0-0.7,0-1,0.2c-0.2,0.1-0.4,0.3-0.4,0.4c0,0.2,0.1,0.4,0.3,0.4c0.3,0.1,0.7,0.2,1,0.1
		c1,0,1.9,0.2,2.8,0.6c0.6,0.3,0.9,0.9,0.9,1.5c0,0.8-0.4,1.5-1,1.9c-0.9,0.5-1.8,0.7-2.8,0.7c-0.8,0.1-1.7-0.1-2.4-0.6
		C123,22.5,122.7,21.9,122.7,21.3z M128.4,21c0-0.4-0.2-0.7-0.7-0.8c-0.8-0.2-1.7-0.3-2.6-0.3c-0.3,0.1-0.5,0.3-0.7,0.6
		c-0.2,0.2-0.2,0.5-0.2,0.7c0,0.8,0.6,1.1,1.9,1.1c0.6,0,1.2-0.1,1.8-0.3C128.1,21.8,128.4,21.5,128.4,21L128.4,21z M127.8,15.2
		c0-0.4-0.1-0.8-0.4-1.1c-0.3-0.3-0.8-0.4-1.2-0.4c-0.4,0-0.8,0.1-1.1,0.4c-0.3,0.3-0.5,0.7-0.4,1.1c0,0.4,0.1,0.8,0.4,1.1
		c0.3,0.3,0.8,0.4,1.2,0.4C127.3,16.7,127.8,16.2,127.8,15.2L127.8,15.2z"/>
	<path class="st0" d="M131.2,10.5c0-0.6,0.3-0.9,0.9-0.9c0.2,0,0.5,0.1,0.7,0.2c0.2,0.2,0.2,0.4,0.2,0.6c0,0.2-0.1,0.4-0.2,0.6
		c-0.2,0.2-0.4,0.3-0.7,0.2c-0.4,0.1-0.8-0.2-0.9-0.7C131.2,10.7,131.2,10.6,131.2,10.5L131.2,10.5z M132.8,12.8v7.1h-1.4v-7
		L132.8,12.8z"/>
	<path class="st0" d="M139.5,13.4l-0.6,0.9c-0.5-0.3-1.1-0.5-1.7-0.5c-0.3,0-0.6,0.1-0.9,0.2c-0.2,0.1-0.4,0.4-0.3,0.6
		c0,0.2,0,0.4,0.1,0.5c0.1,0.2,0.3,0.3,0.5,0.3c0.3,0.1,0.7,0.2,1,0.3c0.6,0.1,1.1,0.4,1.6,0.8c0.4,0.4,0.5,0.8,0.5,1.3
		c0,0.4-0.1,0.9-0.4,1.2c-0.3,0.3-0.6,0.6-1,0.8c-0.4,0.2-0.9,0.3-1.4,0.3c-0.9,0-1.8-0.2-2.6-0.8l0.7-0.9c0.3,0.2,0.6,0.3,0.9,0.4
		c0.3,0.1,0.6,0.2,1,0.1c0.4,0,0.7-0.1,1-0.3c0.2-0.2,0.4-0.5,0.4-0.8c0-0.2,0-0.4-0.1-0.5c-0.1-0.1-0.3-0.3-0.5-0.3
		c-0.3-0.1-0.7-0.2-1-0.3c-0.6-0.1-1.1-0.4-1.6-0.8c-0.4-0.4-0.5-0.9-0.5-1.4c0-0.6,0.3-1.1,0.7-1.4c0.6-0.4,1.2-0.6,1.9-0.6
		C138,12.6,138.8,12.9,139.5,13.4z"/>
	<path class="st0" d="M143.2,12.9h1.8V14h-1.8v3.8c0,0.7,0.3,1.1,1,1.1c0.2,0,0.4,0,0.7-0.1l0.2,1.1c-0.4,0.1-0.8,0.2-1.1,0.2
		c-0.6,0-1.1-0.2-1.6-0.6c-0.4-0.4-0.6-1-0.6-1.6v-4h-1.2V13l1.1-0.2v-1.7l1.5-0.5L143.2,12.9z"/>
	<path class="st0" d="M152.5,16.9h-5.1c0,0.6,0.2,1.1,0.6,1.5c0.4,0.4,1,0.6,1.5,0.5c0.4,0,0.8,0,1.1-0.2c0.4-0.1,0.7-0.3,1-0.5
		l0.6,0.9c-0.4,0.3-0.8,0.5-1.3,0.7c-0.5,0.2-1,0.2-1.5,0.2c-0.7,0-1.3-0.1-1.9-0.5c-0.5-0.3-0.9-0.8-1.1-1.3
		c-0.3-0.6-0.4-1.3-0.4-2c0-1,0.3-1.9,0.9-2.7c0.6-0.7,1.5-1.1,2.5-1c0.9-0.1,1.8,0.3,2.4,1c0.6,0.8,0.9,1.7,0.8,2.7
		C152.7,16.5,152.6,16.7,152.5,16.9z M151.2,15.8c0-0.5-0.2-1.1-0.5-1.5c-0.3-0.4-0.8-0.6-1.3-0.6c-0.5,0-1,0.2-1.4,0.6
		c-0.3,0.4-0.5,0.9-0.5,1.5L151.2,15.8z"/>
	<path class="st0" d="M154.3,14.4c0-0.5,0-1.1-0.1-1.6h1.4c0.1,0.3,0.1,0.6,0.1,1l0,0c0.2-0.4,0.5-0.7,0.8-0.9
		c0.4-0.2,0.9-0.3,1.3-0.3h0.4l-0.1,1.3c-0.2,0-0.3,0-0.5,0c-0.6,0-1.1,0.2-1.5,0.6c-0.4,0.5-0.5,1-0.5,1.6v3.8h-1.4L154.3,14.4z"/>
	<path class="st0" d="M165.6,16.9h-5.1c0,0.6,0.2,1.1,0.6,1.5c0.4,0.4,1,0.6,1.5,0.5c0.4,0,0.8,0,1.1-0.2c0.4-0.1,0.7-0.3,1-0.5
		l0.6,0.9c-0.4,0.3-0.8,0.5-1.3,0.7c-0.5,0.2-1,0.2-1.5,0.2c-0.7,0-1.3-0.1-1.9-0.5c-0.5-0.3-0.9-0.8-1.1-1.3
		c-0.3-0.6-0.4-1.3-0.4-2c0-1,0.3-1.9,0.9-2.7c0.6-0.7,1.5-1.1,2.5-1c0.9-0.1,1.8,0.3,2.4,1c0.6,0.8,0.9,1.7,0.8,2.7
		C165.7,16.5,165.6,16.7,165.6,16.9z M164.2,15.8c0-0.5-0.2-1.1-0.5-1.5c-0.3-0.4-0.8-0.6-1.3-0.6c-0.5,0-1,0.2-1.4,0.6
		c-0.3,0.4-0.5,0.9-0.5,1.5L164.2,15.8z"/>
	<path class="st0" d="M173.9,19.9h-1.3c-0.1-0.4-0.1-0.7-0.1-0.9l0,0c-0.3,0.4-0.6,0.6-1,0.8c-0.5,0.2-1,0.3-1.4,0.3
		c-0.9,0.1-1.7-0.3-2.3-1c-0.5-0.8-0.8-1.7-0.8-2.7c0-0.7,0.1-1.3,0.4-1.9c0.3-0.5,0.6-1,1.1-1.3c0.5-0.3,1.1-0.5,1.7-0.5
		c0.8,0,1.6,0.3,2.1,0.8v-3.2h1.4v8.1C173.8,18.9,173.8,19.4,173.9,19.9z M172.4,16.9v-2.2c-0.5-0.6-1.2-0.9-1.9-0.9
		c-0.6,0-1.1,0.2-1.5,0.7c-0.4,0.6-0.6,1.2-0.5,1.9c0,0.7,0.1,1.3,0.5,1.9c0.3,0.4,0.9,0.7,1.4,0.7c0.5,0,1.1-0.2,1.4-0.6
		C172.2,18,172.4,17.4,172.4,16.9L172.4,16.9z"/>
	<path class="st0" d="M182.7,12.7c0.4,0,0.9,0.1,1.3,0.2c0.4,0.1,0.8,0.3,1.1,0.6l-0.6,1c-0.5-0.4-1.1-0.6-1.8-0.6
		c-0.6,0-1.2,0.2-1.6,0.7c-0.4,0.5-0.6,1.2-0.5,1.8c0,0.7,0.2,1.3,0.5,1.8c0.4,0.5,1,0.7,1.6,0.7c0.7,0,1.3-0.2,1.8-0.6l0.5,1
		c-0.7,0.5-1.6,0.8-2.5,0.8c-0.7,0-1.4-0.2-2-0.6c-0.5-0.3-0.9-0.8-1.1-1.4c-0.2-0.6-0.3-1.2-0.3-1.8c0-0.7,0.1-1.3,0.4-2
		c0.3-0.5,0.7-1,1.2-1.3C181.4,12.8,182.1,12.6,182.7,12.7z"/>
	<path class="st0" d="M193.1,16.4c0,0.7-0.1,1.3-0.4,2c-0.3,0.6-0.7,1-1.3,1.3c-0.6,0.3-1.3,0.5-1.9,0.5c-0.7,0-1.3-0.1-1.9-0.5
		c-0.5-0.3-1-0.8-1.2-1.3c-0.6-1.2-0.6-2.7,0-3.9c0.3-0.5,0.7-1,1.2-1.3c0.6-0.3,1.3-0.5,1.9-0.5c0.7,0,1.4,0.1,2,0.5
		c0.5,0.3,1,0.7,1.2,1.3C193,15,193.1,15.7,193.1,16.4z M187.4,16.4c0,0.7,0.1,1.3,0.5,1.9c0.4,0.5,1,0.8,1.6,0.7
		c0.6,0,1.2-0.2,1.6-0.7c0.4-0.6,0.6-1.2,0.5-1.9c0-0.7-0.2-1.3-0.5-1.9c-0.4-0.5-1-0.7-1.6-0.7c-0.6-0.1-1.2,0.2-1.6,0.7
		C187.5,15.1,187.4,15.7,187.4,16.4L187.4,16.4z"/>
	<path class="st0" d="M194.9,14.4c0-0.5,0-1.1-0.1-1.6h1.4c0.1,0.3,0.1,0.5,0.1,0.8l0,0c0.2-0.3,0.6-0.6,0.9-0.7
		c0.4-0.2,0.9-0.3,1.4-0.3c0.7-0.1,1.5,0.2,2,0.8c0.4,0.5,0.7,1.2,0.7,1.9v4.6h-1.4v-4.2c0-0.4-0.1-0.9-0.4-1.2
		c-0.3-0.4-0.8-0.5-1.2-0.5c-0.5,0-1,0.2-1.4,0.6c-0.4,0.4-0.5,0.9-0.5,1.5v4h-1.4V14.4z"/>
	<path class="st0" d="M207.9,13.4l-0.6,0.9c-0.5-0.3-1.1-0.5-1.7-0.5c-0.3,0-0.6,0.1-0.9,0.2c-0.2,0.1-0.4,0.4-0.3,0.6
		c0,0.2,0,0.4,0.1,0.5c0.1,0.2,0.3,0.3,0.5,0.3c0.3,0.1,0.7,0.2,1,0.3c0.6,0.1,1.1,0.4,1.6,0.8c0.4,0.4,0.5,0.8,0.5,1.3
		c0,0.4-0.1,0.9-0.4,1.2c-0.3,0.3-0.6,0.6-1,0.8c-0.4,0.2-0.9,0.3-1.4,0.3c-0.9,0-1.8-0.2-2.6-0.8l0.7-0.9c0.3,0.2,0.6,0.3,0.9,0.4
		c0.3,0.1,0.7,0.1,1,0.1c0.4,0,0.7-0.1,1-0.3c0.2-0.2,0.4-0.5,0.4-0.8c0-0.2,0-0.4-0.1-0.5c-0.1-0.1-0.3-0.3-0.5-0.3
		c-0.3-0.1-0.7-0.2-1-0.3c-0.6-0.1-1.1-0.4-1.6-0.8c-0.4-0.4-0.5-0.9-0.5-1.4c0-0.6,0.3-1.1,0.7-1.5c0.6-0.4,1.2-0.6,1.9-0.6
		C206.4,12.6,207.2,12.9,207.9,13.4z"/>
	<path class="st0" d="M209.5,17.2v-4.3h1.4V17c0,0.5,0.1,1,0.4,1.5c0.3,0.4,0.7,0.6,1.1,0.5c0.5,0,1.1-0.2,1.4-0.7
		c0.4-0.5,0.6-1.1,0.5-1.7v-3.8h1.4v5.5c0,0.5,0,1.1,0.1,1.6h-1.4c-0.1-0.3-0.1-0.6-0.1-0.9l0,0c-0.5,0.7-1.4,1.1-2.3,1.1
		c-0.8,0.1-1.5-0.2-2-0.8C209.7,18.7,209.5,18,209.5,17.2z"/>
	<path class="st0" d="M218.1,10.2h1.4v9.7h-1.4V10.2z"/>
	<path class="st0" d="M223.5,12.9h1.8V14h-1.8v3.8c0,0.7,0.3,1.1,1,1.1c0.2,0,0.4,0,0.7-0.1l0.2,1.1c-0.4,0.1-0.8,0.2-1.1,0.2
		c-0.6,0-1.1-0.2-1.6-0.6c-0.4-0.4-0.6-1-0.6-1.6v-4h-1.2V13l1.1-0.2v-1.7l1.5-0.5L223.5,12.9z"/>
	<path class="st0" d="M226.6,10.5c0-0.6,0.3-0.9,0.9-0.9c0.2,0,0.5,0.1,0.7,0.2c0.2,0.2,0.2,0.4,0.2,0.6c0,0.2-0.1,0.4-0.2,0.6
		c-0.2,0.2-0.4,0.3-0.7,0.2c-0.4,0.1-0.8-0.2-0.9-0.7C226.6,10.7,226.6,10.6,226.6,10.5L226.6,10.5z M228.2,12.8v7.1h-1.4v-7
		L228.2,12.8z"/>
	<path class="st0" d="M230.4,14.4c0-0.5,0-1.1-0.1-1.6h1.3c0.1,0.3,0.1,0.5,0.1,0.8l0,0c0.2-0.3,0.6-0.6,0.9-0.7
		c0.4-0.2,0.9-0.3,1.4-0.3c0.7-0.1,1.5,0.2,2,0.8c0.4,0.5,0.7,1.2,0.7,1.9v4.6h-1.4v-4.2c0-0.4-0.1-0.9-0.4-1.3
		c-0.3-0.4-0.8-0.5-1.2-0.5c-0.5,0-1,0.2-1.4,0.6c-0.4,0.4-0.5,0.9-0.5,1.5v4h-1.4L230.4,14.4z"/>
	<path class="st0" d="M238.1,21.3c0-0.4,0.1-0.7,0.3-1c0.3-0.4,0.6-0.7,1-0.8c-0.2-0.1-0.3-0.2-0.5-0.4c-0.1-0.2-0.2-0.3-0.2-0.5
		c0-0.3,0.1-0.5,0.3-0.7c0.2-0.2,0.4-0.4,0.7-0.4c-0.8-0.4-1.3-1.2-1.3-2.1c0-0.7,0.3-1.4,0.8-1.9c0.6-0.5,1.4-0.7,2.2-0.7
		c0.2,0,0.5,0,0.7,0c0.2,0,0.4,0.1,0.6,0.1h2.5V14l-1.5-0.2c0.2,0.2,0.4,0.4,0.5,0.6c0.1,0.3,0.2,0.6,0.2,0.9c0,0.7-0.3,1.3-0.8,1.7
		c-0.6,0.5-1.4,0.7-2.2,0.6c-0.4,0-0.7,0-1,0.2c-0.2,0.1-0.4,0.3-0.4,0.4c0,0.2,0.1,0.4,0.3,0.4c0.3,0.1,0.7,0.2,1,0.1
		c1,0,1.9,0.2,2.8,0.6c0.6,0.3,0.9,0.9,0.9,1.5c0,0.8-0.4,1.5-1,1.9c-0.9,0.5-1.8,0.7-2.8,0.7c-0.8,0.1-1.7-0.1-2.4-0.6
		C238.4,22.5,238,21.9,238.1,21.3z M243.7,21c0-0.4-0.2-0.7-0.7-0.8c-0.8-0.2-1.7-0.3-2.6-0.3c-0.3,0.1-0.5,0.3-0.7,0.6
		c-0.2,0.2-0.2,0.5-0.2,0.7c0,0.8,0.6,1.1,1.9,1.1c0.6,0,1.2-0.1,1.8-0.3C243.5,21.8,243.7,21.5,243.7,21L243.7,21z M243.1,15.2
		c0-0.4-0.1-0.8-0.4-1.1c-0.3-0.3-0.8-0.4-1.2-0.4c-0.4,0-0.8,0.1-1.1,0.4c-0.3,0.3-0.5,0.7-0.4,1.1c0,0.4,0.1,0.8,0.4,1.1
		c0.3,0.3,0.8,0.4,1.2,0.4C242.6,16.7,243.1,16.2,243.1,15.2z"/>
	<path class="st0" d="M110.5,34.3c0-1.9-0.1-3.4-0.1-4.9h2.4l0.1,2.5h0.1c1.1-1.9,3.1-3,5.3-2.9c3.6,0,6.3,3,6.3,7.6
		c0,5.4-3.3,8-6.8,8c-1.8,0.1-3.6-0.8-4.6-2.3h-0.1v8h-2.7L110.5,34.3z M113.1,38.3c0,0.4,0,0.8,0.1,1.1c0.5,1.9,2.1,3.2,4.1,3.2
		c2.9,0,4.5-2.3,4.5-5.7c0-3-1.6-5.5-4.4-5.5c-1.9,0.1-3.6,1.4-4.1,3.3c-0.1,0.4-0.2,0.8-0.2,1.1L113.1,38.3z"/>
	<path class="st0" d="M136.2,44.4l-0.2-1.9h-0.1c-1.1,1.4-2.8,2.3-4.6,2.2c-2.3,0.2-4.4-1.6-4.6-3.9c0-0.1,0-0.3,0-0.4
		c0-3.6,3.2-5.6,9-5.5v-0.3c0.2-1.7-1-3.2-2.6-3.4c-0.2,0-0.5,0-0.7,0c-1.4,0-2.7,0.4-3.9,1.1l-0.5-1.8c1.5-0.9,3.2-1.3,4.9-1.3
		c4.6,0,5.7,3.1,5.7,6.1v5.6c0,1.2,0.1,2.4,0.3,3.6L136.2,44.4z M135.8,36.7c-3-0.1-6.3,0.5-6.3,3.4c-0.1,1.3,0.9,2.5,2.2,2.6
		c0.1,0,0.2,0,0.3,0c1.6,0,3.1-1,3.6-2.5c0.1-0.3,0.1-0.6,0.1-0.9V36.7z"/>
	<path class="st0" d="M142.8,34.1c0-1.8,0-3.3-0.1-4.6h2.4l0.1,2.9h0.1c0.5-1.9,2.2-3.2,4.1-3.3c0.3,0,0.5,0,0.8,0.1v2.5
		c-0.3-0.1-0.6-0.1-0.9-0.1c-1.9,0.1-3.5,1.5-3.6,3.4c-0.1,0.4-0.1,0.8-0.1,1.3v7.9h-2.7L142.8,34.1z"/>
	<path class="st0" d="M156.9,25.2v4.3h3.9v2.1h-3.9v8c0,1.8,0.5,2.9,2,2.9c0.5,0,1.1-0.1,1.6-0.2l0.1,2c-0.8,0.3-1.6,0.4-2.4,0.4
		c-1.1,0.1-2.2-0.4-2.9-1.1c-0.8-1.1-1.2-2.5-1-3.9v-8.1h-2.3v-2.1h2.3v-3.6L156.9,25.2z"/>
	<path class="st0" d="M163.8,33.5c0-1.5,0-2.8-0.1-4h2.4l0.1,2.5h0.1c1-1.8,2.9-2.9,4.9-2.8c2.1,0,5.3,1.2,5.3,6.3v8.9h-2.7v-8.6
		c0-2.4-0.9-4.4-3.4-4.4c-1.7,0-3.2,1.1-3.6,2.8c-0.1,0.4-0.2,0.8-0.2,1.3v9h-2.7L163.8,33.5z"/>
	<path class="st0" d="M182.4,37.4c0.1,3.7,2.4,5.2,5.1,5.2c1.4,0,2.8-0.2,4.1-0.8l0.5,1.9c-1.6,0.7-3.3,1-5,0.9
		c-4.6,0-7.3-3-7.3-7.5s2.6-8,7-8c4.9,0,6.2,4.3,6.2,7c0,0.4,0,0.8-0.1,1.3L182.4,37.4z M190.3,35.5c0-1.7-0.7-4.4-3.8-4.4
		c-2.7,0-3.9,2.5-4.2,4.4H190.3z"/>
	<path class="st0" d="M196.3,34.1c0-1.8,0-3.3-0.1-4.6h2.4l0.1,2.9h0.1c0.5-1.9,2.2-3.2,4.1-3.3c0.3,0,0.5,0,0.8,0.1v2.5
		c-0.3-0.1-0.6-0.1-0.9-0.1c-1.9,0.1-3.5,1.5-3.6,3.4c-0.1,0.4-0.1,0.8-0.1,1.3v7.9h-2.7L196.3,34.1z"/>
	<g id="g3003">
		<path id="path3005" class="st1" d="M42.2,11.3C45.2,8,49.5,6.2,54,6.2c6,0,11.5,3.3,14.4,8.5c2.6-1.1,5.3-1.7,8.1-1.7
			c11.2,0.3,20.1,9.6,19.8,20.8c-0.3,10.8-9,19.5-19.8,19.8c-1.3,0-2.7-0.1-4-0.4c-3.8,6.8-12.2,9.4-19.2,6
			c-3.6,8.5-13.5,12.5-22,8.9c-4.3-1.8-7.6-5.3-9.2-9.6c-1,0.2-2.1,0.3-3.2,0.3c-8.7-0.1-15.7-7.2-15.6-15.9
			c0.1-5.5,3-10.6,7.8-13.4c-3.9-9.2,0.4-19.8,9.5-23.8C28.3,2.4,37.1,4.7,42.2,11.3"/>
	</g>
	<g id="g3007">
		<path id="path3009" class="st2" d="M16.9,38c-0.1,0.1,0,0.2,0,0.2c0.2,0.1,0.3,0.2,0.5,0.3c0.9,0.5,1.8,0.7,2.8,0.7
			c1.9,0,3.1-1,3.1-2.7l0,0c0-1.5-1.3-2.1-2.6-2.5h-0.2c-1-0.3-1.8-0.6-1.8-1.1l0,0c0-0.5,0.5-0.9,1.2-0.9c0.8,0,1.7,0.2,2.4,0.6
			c0,0,0.2,0.1,0.3-0.1l0.4-1c0-0.1,0-0.2-0.1-0.2c-0.8-0.5-1.8-0.7-2.7-0.7H20c-1.5-0.2-2.8,0.9-3,2.4c0,0.1,0,0.1,0,0.2l0,0
			c0,1.6,1.3,2.1,2.6,2.5l0.2,0.1c0.9,0.3,1.7,0.5,1.7,1.1l0,0c0,0.6-0.5,1-1.3,1c-0.9,0-1.7-0.2-2.5-0.7l-0.3-0.2
			c-0.1-0.1-0.2-0.1-0.2,0c0,0,0,0.1,0,0.1L16.9,38z"/>
	</g>
	<g id="g3011">
		<path id="path3013" class="st2" d="M44.9,38c-0.1,0.1,0,0.2,0,0.2c0.2,0.1,0.3,0.2,0.5,0.3c0.9,0.5,1.8,0.7,2.8,0.7
			c1.9,0,3.1-1,3.1-2.7l0,0c0-1.5-1.3-2.1-2.6-2.5h-0.2c-1-0.3-1.8-0.6-1.8-1.1l0,0c0-0.5,0.5-0.9,1.2-0.9c0.8,0,1.7,0.2,2.4,0.6
			c0,0,0.2,0.1,0.3-0.1l0.4-1c0-0.1,0-0.2-0.1-0.2c-0.8-0.5-1.8-0.7-2.7-0.7H48c-1.5-0.2-2.8,0.9-3,2.4c0,0.1,0,0.1,0,0.2l0,0
			c0,1.6,1.3,2.1,2.6,2.5l0.2,0.1c0.9,0.3,1.7,0.5,1.7,1.1l0,0c0,0.6-0.5,1-1.3,1c-0.9,0-1.7-0.2-2.5-0.7l-0.3-0.2
			c-0.1-0.1-0.2,0-0.2,0c0,0,0,0,0,0.1L44.9,38z"/>
	</g>
	<g id="g3015">
		<path id="path3017" class="st2" d="M64,34.8c0,0.8-0.1,1.5-0.5,2.2c-0.3,0.5-0.9,0.8-1.5,0.8c-0.6,0-1.2-0.2-1.5-0.8
			c-0.4-0.7-0.5-1.4-0.5-2.2c0-0.8,0.1-1.5,0.5-2.2c0.3-0.5,0.9-0.8,1.5-0.7c0.6,0,1.2,0.2,1.5,0.7C63.8,33.3,64,34,64,34.8
			 M65.6,33.1c-0.1-0.5-0.4-1-0.7-1.4c-0.3-0.4-0.8-0.7-1.2-0.9c-1.1-0.5-2.3-0.5-3.4,0c-0.5,0.2-0.9,0.5-1.2,0.9
			c-0.3,0.4-0.6,0.9-0.7,1.4c-0.3,1.1-0.3,2.3,0,3.4c0.1,0.5,0.4,1,0.7,1.4c0.3,0.4,0.8,0.7,1.2,0.9c1.1,0.4,2.3,0.4,3.4,0
			c0.5-0.2,0.9-0.5,1.2-0.9c0.3-0.4,0.6-0.9,0.7-1.4C65.9,35.4,65.9,34.2,65.6,33.1"/>
	</g>
	<g id="g3019">
		<path id="path3021" class="st2" d="M78.7,37.5c0-0.1-0.1-0.1-0.2-0.1c0,0,0,0,0,0c-0.2,0.1-0.5,0.2-0.7,0.2
			c-0.3,0-0.6,0.1-0.9,0.1c-0.7,0-1.3-0.2-1.8-0.7c-0.5-0.6-0.8-1.4-0.7-2.2c0-0.7,0.2-1.5,0.6-2.1c0.4-0.5,1.1-0.8,1.8-0.8
			c0.6,0,1.1,0.1,1.7,0.2c0,0,0.1,0,0.2-0.1c0.1-0.4,0.2-0.7,0.4-1.1c0-0.1,0-0.2-0.1-0.2c0,0,0,0,0,0c-0.3-0.1-0.7-0.2-1.1-0.3
			c-0.4-0.1-0.8-0.1-1.1-0.1c-0.6,0-1.2,0.1-1.8,0.3c-0.5,0.2-0.9,0.5-1.3,0.9C73.2,32,73,32.5,72.8,33c-0.2,0.6-0.3,1.1-0.3,1.7
			c-0.1,1.2,0.3,2.3,1.1,3.2c0.8,0.8,2,1.2,3.1,1.1c0.8,0,1.6-0.1,2.3-0.4c0.1,0,0.1-0.1,0.1-0.2L78.7,37.5z"/>
	</g>
	<g id="g3023">
		<path id="path3025" class="st2" d="M81.5,33.9c0.1-0.5,0.2-0.9,0.4-1.3c0.3-0.5,0.9-0.8,1.5-0.8c0.6,0,1.2,0.3,1.5,0.8
			c0.2,0.4,0.3,0.8,0.3,1.3H81.5z M86.8,32.8c-0.1-0.5-0.4-0.9-0.7-1.3c-0.3-0.3-0.6-0.6-1-0.8c-0.5-0.2-1-0.3-1.5-0.3
			c-0.6,0-1.2,0.1-1.8,0.3c-0.5,0.2-0.9,0.5-1.2,1c-0.3,0.4-0.6,0.9-0.7,1.4c-0.2,0.6-0.2,1.1-0.2,1.7c0,0.6,0.1,1.2,0.2,1.7
			c0.3,1.1,1.1,1.9,2.1,2.3c0.6,0.2,1.3,0.3,2,0.3c0.9,0,1.9-0.1,2.7-0.5c0.1,0,0.1-0.1,0-0.3l-0.3-1c0-0.1-0.1-0.1-0.2-0.1
			c-0.7,0.3-1.5,0.4-2.2,0.4c-1.2,0.2-2.3-0.7-2.5-1.9c0-0.2,0-0.3,0-0.5h5.4c0.1,0,0.1-0.1,0.2-0.1C87.1,34.3,87.1,33.5,86.8,32.8"
			/>
	</g>
	<g id="g3027">
		<path id="path3029" class="st2" d="M38.2,33.9c0.1-0.5,0.2-0.9,0.4-1.3c0.3-0.5,0.9-0.8,1.5-0.8c0.6,0,1.2,0.3,1.5,0.8
			c0.2,0.4,0.3,0.8,0.3,1.3H38.2z M43.6,32.8c-0.1-0.5-0.4-0.9-0.7-1.3c-0.3-0.3-0.6-0.6-1-0.8c-0.5-0.2-1-0.3-1.5-0.3
			c-0.6,0-1.2,0.1-1.8,0.3c-0.5,0.2-0.9,0.5-1.2,1c-0.3,0.4-0.6,0.9-0.7,1.4c-0.2,0.6-0.2,1.1-0.2,1.7c0,0.6,0.1,1.2,0.2,1.7
			c0.3,1.1,1.1,1.9,2.1,2.3c0.6,0.2,1.3,0.3,2,0.3c0.9,0,1.9-0.1,2.7-0.5c0.1,0,0.1-0.1,0-0.3l-0.4-1c0-0.1-0.1-0.1-0.2-0.1
			c-0.7,0.3-1.5,0.4-2.2,0.4c-1.2,0.2-2.3-0.7-2.5-1.9c0-0.2,0-0.3,0-0.5h5.4c0.1,0,0.1-0.1,0.2-0.1C43.8,34.3,43.8,33.5,43.6,32.8"
			/>
	</g>
	<g id="g3031">
		<path id="path3033" class="st2" d="M26.6,37.4c-0.1-0.1-0.2-0.2-0.3-0.3c-0.1-0.2-0.2-0.5-0.2-0.7c0-0.4,0.1-0.8,0.5-1
			c0.5-0.3,1-0.4,1.6-0.4c0.5,0,1,0.1,1.5,0.1v2.5l0,0c-0.5,0.1-1,0.2-1.5,0.2C27.6,37.8,27,37.7,26.6,37.4 M28.7,33.6h-0.8
			c-0.4,0-0.9,0.1-1.3,0.2c-0.4,0.1-0.8,0.3-1.1,0.5c-0.7,0.5-1.1,1.3-1.1,2.1c0,0.4,0.1,0.8,0.3,1.2c0.2,0.3,0.4,0.6,0.7,0.8
			c0.3,0.2,0.7,0.4,1.1,0.5c0.5,0.1,1,0.2,1.4,0.1c0.6,0,1.1,0,1.6-0.1c0.5-0.1,1.1-0.2,1.4-0.3l0.4-0.1c0.1,0,0.1-0.1,0.1-0.2v-4.9
			c0.1-0.9-0.2-1.8-0.9-2.4c-0.7-0.5-1.6-0.8-2.5-0.7c-0.5,0-1,0.1-1.4,0.1c-0.6,0.1-1.1,0.3-1.7,0.6c-0.1,0.1-0.1,0.2,0,0.2l0.4,1
			c0,0.1,0.1,0.1,0.2,0.1c0,0,0,0,0,0h0.1c0.7-0.4,1.5-0.5,2.4-0.6c0.5,0,0.9,0.1,1.3,0.3c0.3,0.2,0.4,0.6,0.4,1.3v0.2
			C29.2,33.7,28.8,33.7,28.7,33.6"/>
	</g>
	<g id="g3035">
		<path id="path3037" class="st2" d="M72.3,30.8c0-0.1,0-0.2-0.1-0.2c-0.3-0.1-0.6-0.1-0.9-0.2c-0.5,0-1,0-1.4,0.2
			c-0.4,0.2-0.7,0.4-0.9,0.7v-0.7c0-0.1-0.1-0.2-0.2-0.2h-1.4c-0.1,0-0.2,0.1-0.2,0.2v8c0,0.1,0.1,0.2,0.2,0.2h1.4
			c0.1,0,0.2-0.1,0.2-0.2v-4c0-0.5,0.1-1,0.2-1.4c0.1-0.3,0.3-0.6,0.5-0.8c0.2-0.2,0.4-0.3,0.7-0.4c0.2-0.1,0.5-0.1,0.7-0.1
			c0.2,0,0.4,0,0.6,0.1c0.1,0,0.2,0,0.2-0.1C71.9,31.8,72.2,31,72.3,30.8"/>
	</g>
	<g id="g3039">
		<path id="path3041" class="st2" d="M58.9,27.1c-0.2-0.1-0.3-0.1-0.5-0.1c-0.2,0-0.5,0-0.7,0c-0.8-0.1-1.7,0.2-2.3,0.8
			c-0.6,0.7-1,1.5-1.1,2.5l-0.1,0.4H53c-0.1,0-0.2,0.1-0.2,0.2l-0.2,1.1c0,0.1,0,0.2,0.2,0.2h1.1l-1.2,6.8c-0.1,0.5-0.2,0.9-0.3,1.3
			c-0.1,0.3-0.2,0.5-0.4,0.8c-0.1,0.2-0.3,0.3-0.5,0.4c-0.2,0.1-0.4,0.1-0.6,0.1c-0.1,0-0.3,0-0.4,0c-0.1,0-0.2,0-0.3-0.1
			c-0.1,0-0.2,0-0.2,0.1c0,0,0,0,0,0l-0.4,1.1c0,0.1,0,0.2,0.1,0.2c0,0,0,0,0,0c0.2,0.1,0.3,0.1,0.5,0.1c0.3,0.1,0.5,0.1,0.8,0.1
			c0.5,0,0.9-0.1,1.3-0.2c0.4-0.1,0.7-0.4,1-0.7c0.3-0.4,0.5-0.8,0.7-1.2c0.2-0.6,0.4-1.2,0.5-1.8l1.2-6.9h1.8
			c0.1,0,0.2-0.1,0.2-0.2l0.2-1.1c0-0.1,0-0.2-0.2-0.2H56c0.1-0.5,0.1-1,0.3-1.4c0.1-0.2,0.2-0.4,0.4-0.6c0.1-0.1,0.3-0.2,0.4-0.3
			c0.2-0.1,0.4-0.1,0.6-0.1c0.1,0,0.3,0,0.4,0l0.3,0.1c0.2,0,0.2,0,0.2-0.1l0.4-1.1C59,27.1,59,27.1,58.9,27.1"/>
	</g>
	<g id="g3043">
		<path id="path3045" class="st2" d="M34.8,38.8c0,0.1-0.1,0.2-0.2,0.2h-1.4c-0.1,0-0.1-0.1-0.1-0.2V27.3c0-0.1,0.1-0.2,0.1-0.2h1.4
			c0.1,0,0.2,0.1,0.2,0.2L34.8,38.8z"/>
	</g>
</g>
</svg>
