<svg id="Layer_1" data-name="Layer 1" xmlns="http://www.w3.org/2000/svg" width="300" height="185" viewBox="0 0 300 185"><title>SF_Crt</title><rect width="300" height="102.041" style="fill:#003c4d"/><rect y="101.733" width="300" height="83.267" style="fill:#00a1e0"/><path d="M15.324,43.913l2.4-3.161a10.574,10.574,0,0,0,3.218,1.637,12.635,12.635,0,0,0,3.638.495,6.529,6.529,0,0,0,3.79-.99A3.375,3.375,0,0,0,29.8,38.923a3.579,3.579,0,0,0-.686-2.3,4.832,4.832,0,0,0-1.961-1.39,29.663,29.663,0,0,0-3.523-1.143,12.147,12.147,0,0,1-5.542-2.8,6.639,6.639,0,0,1-1.886-4.97A6.76,6.76,0,0,1,17.458,22.2a7.724,7.724,0,0,1,3.408-2.59,12.783,12.783,0,0,1,4.857-.876A14.729,14.729,0,0,1,34.445,21.4L32.2,24.64a13.178,13.178,0,0,0-3.124-1.448,11.231,11.231,0,0,0-3.237-.457,6.249,6.249,0,0,0-3.409.819,2.727,2.727,0,0,0-1.276,2.457,2.839,2.839,0,0,0,1.295,2.533,15.515,15.515,0,0,0,4.3,1.657,14.066,14.066,0,0,1,6.056,2.952,7.2,7.2,0,0,1,2.095,5.58,7.653,7.653,0,0,1-1.371,4.627,8.106,8.106,0,0,1-3.714,2.8,14.182,14.182,0,0,1-5.2.914,15.354,15.354,0,0,1-5.066-.819A13.722,13.722,0,0,1,15.324,43.913Z" style="fill:#fff"/><path d="M58.137,40.523H47.167L45,46.351H39.778l10.36-26.968H55.28L65.6,46.351H60.193ZM48.5,36.714h8.342L52.69,24.487Z" style="fill:#fff"/><path d="M77.409,42.2H89.064v4.152H72.42V19.383h4.989Z" style="fill:#fff"/><path d="M113.137,23.383H101.1v7.2h10.284v3.847H101.1v7.846h12.683v4.076H96.111V19.383h17.026Z" style="fill:#fff"/><path d="M119.535,43.913l2.4-3.161a10.574,10.574,0,0,0,3.218,1.637,12.635,12.635,0,0,0,3.638.495,6.529,6.529,0,0,0,3.79-.99,3.375,3.375,0,0,0,1.428-2.971,3.579,3.579,0,0,0-.686-2.3,4.832,4.832,0,0,0-1.961-1.39,29.663,29.663,0,0,0-3.523-1.143,12.147,12.147,0,0,1-5.542-2.8,6.639,6.639,0,0,1-1.886-4.97,6.766,6.766,0,0,1,1.257-4.114,7.732,7.732,0,0,1,3.409-2.59,12.783,12.783,0,0,1,4.857-.876,14.729,14.729,0,0,1,8.722,2.666l-2.247,3.238a13.178,13.178,0,0,0-3.124-1.448,11.231,11.231,0,0,0-3.237-.457,6.247,6.247,0,0,0-3.409.819,2.727,2.727,0,0,0-1.276,2.457,2.839,2.839,0,0,0,1.3,2.533,15.515,15.515,0,0,0,4.3,1.657,14.066,14.066,0,0,1,6.056,2.952,7.2,7.2,0,0,1,2.095,5.58,7.653,7.653,0,0,1-1.371,4.627,8.106,8.106,0,0,1-3.714,2.8,14.182,14.182,0,0,1-5.2.914,15.354,15.354,0,0,1-5.066-.819A13.71,13.71,0,0,1,119.535,43.913Z" style="fill:#fff"/><path d="M164.367,23.459H152.33v7.5H162.8v4.075H152.33V46.351h-4.99V19.383h17.027Z" style="fill:#fff"/><path d="M169.737,32.867a16.2,16.2,0,0,1,1.638-7.446,11.762,11.762,0,0,1,4.742-4.99,16.421,16.421,0,0,1,14.836,0,11.734,11.734,0,0,1,4.761,4.99,16.2,16.2,0,0,1,1.638,7.446,16.2,16.2,0,0,1-1.638,7.447,11.721,11.721,0,0,1-4.761,4.989,16.421,16.421,0,0,1-14.836,0,11.748,11.748,0,0,1-4.742-4.989A16.2,16.2,0,0,1,169.737,32.867Zm22.511,0a11.066,11.066,0,0,0-2.19-7.237q-2.19-2.665-6.533-2.666-4.3,0-6.494,2.666a11.065,11.065,0,0,0-2.189,7.237,11.063,11.063,0,0,0,2.189,7.237q2.19,2.667,6.494,2.666,4.344,0,6.533-2.666A11.064,11.064,0,0,0,192.248,32.867Z" style="fill:#fff"/><path d="M220.776,46.351l-5.332-9.142h-4.57v9.142h-4.99V19.383h9.446a11.129,11.129,0,0,1,7.352,2.343,8.2,8.2,0,0,1,2.818,6.685,7.747,7.747,0,0,1-5.447,7.808l6.437,10.132ZM215.063,33.4a5.75,5.75,0,0,0,3.809-1.238,4.606,4.606,0,0,0,1.485-3.752,4.594,4.594,0,0,0-1.523-3.79,5.9,5.9,0,0,0-3.847-1.238h-4.151V33.4Z" style="fill:#fff"/><path d="M255.742,22.05l-2.818,3.2a9.608,9.608,0,0,0-2.971-1.714,10.211,10.211,0,0,0-3.5-.609q-4.418,0-6.512,2.685a11.42,11.42,0,0,0-2.095,7.218,11.288,11.288,0,0,0,2.095,7.142q2.092,2.685,6.4,2.685a9.291,9.291,0,0,0,3.733-.743,10.332,10.332,0,0,0,3.009-1.961l3.009,3.275a13.03,13.03,0,0,1-4.285,2.781,14.539,14.539,0,0,1-5.618,1.066,14.149,14.149,0,0,1-7.351-1.809,11.611,11.611,0,0,1-4.609-5.028,16.766,16.766,0,0,1-1.562-7.408,16.663,16.663,0,0,1,1.581-7.466,11.494,11.494,0,0,1,4.647-4.97,14.5,14.5,0,0,1,7.37-1.771,15.472,15.472,0,0,1,5.333.914A11.446,11.446,0,0,1,255.742,22.05Z" style="fill:#fff"/><path d="M280.729,23.383H268.692v7.2h10.285v3.847H268.692v7.846h12.684v4.076H263.7V19.383h17.027Z" style="fill:#fff"/><path d="M38.711,58.555,36.73,60.726A9.967,9.967,0,0,0,33.512,58.8a11.018,11.018,0,0,0-3.828-.666q-4.952,0-7.466,3.085A12.5,12.5,0,0,0,19.7,69.372a12.442,12.442,0,0,0,2.513,8.113q2.515,3.086,7.39,3.085a10.478,10.478,0,0,0,4.113-.819,10.822,10.822,0,0,0,3.39-2.228l2.057,2.247a12.6,12.6,0,0,1-4.247,2.762,14.355,14.355,0,0,1-5.427,1.009,13.813,13.813,0,0,1-7.219-1.79,11.5,11.5,0,0,1-4.532-4.99,18.463,18.463,0,0,1,0-14.778,11.36,11.36,0,0,1,4.551-4.971,14.1,14.1,0,0,1,7.276-1.771,14.719,14.719,0,0,1,5.065.857A11.8,11.8,0,0,1,38.711,58.555Z" style="fill:#fff"/><path d="M63.621,58.631H50.633V67.7H61.945v2.59H50.633v9.827H64.269v2.781H47.281V55.926h16.34Z" style="fill:#fff"/><path d="M87.731,82.894,81.6,73.028H75.961v9.866H72.572V55.926h8.874a11.5,11.5,0,0,1,4.781.972,7.747,7.747,0,0,1,3.408,2.933,8.67,8.67,0,0,1,1.258,4.78,7.651,7.651,0,0,1-1.658,5.142,8.88,8.88,0,0,1-4.4,2.742l6.78,10.4Zm-6.4-12.455a6.466,6.466,0,0,0,4.361-1.486,5.4,5.4,0,0,0,1.733-4.342,5.516,5.516,0,0,0-1.79-4.476,6.634,6.634,0,0,0-4.418-1.5h-5.3V70.439Z" style="fill:#fff"/><path d="M116.374,58.783H107.88V82.894h-3.39V58.783H95.958V55.926h20.416Z" style="fill:#fff"/><path d="M129.019,80.3h3.2v2.59h-9.751V80.3h3.2V58.441h-3.2V55.926h9.751v2.515h-3.2Z" style="fill:#fff"/><path d="M157.929,58.707H144.94v9.217h11.5v2.743h-11.5V82.894h-3.389V55.926h16.378Z" style="fill:#fff"/><path d="M171.07,80.3h3.2v2.59h-9.752V80.3h3.2V58.441h-3.2V55.926h9.752v2.515h-3.2Z" style="fill:#fff"/><path d="M199.941,58.631H186.953V67.7h11.313v2.59H186.953v9.827h13.636v2.781H183.6V55.926h16.34Z" style="fill:#fff"/><path d="M231.479,69.372q0,6.59-3.676,10.055t-10.227,3.467h-8.684V55.926H217.5q6.7,0,10.341,3.333T231.479,69.372ZM212.244,58.707V80.075h4.989q5.256,0,8.018-2.628t2.762-8.075q0-10.665-10.742-10.665Z" style="fill:#fff"/><path d="M33.645,127.789q0,4.324-2.413,6.6a9.392,9.392,0,0,1-6.712,2.276h-5.7v-17.7h5.65q4.4,0,6.788,2.188T33.645,127.789Zm-12.625-7v14.025h3.274a7.346,7.346,0,0,0,5.263-1.726q1.812-1.724,1.812-5.3,0-7-7.05-7Z" style="fill:#fff"/><path d="M35.669,133.189a3.558,3.558,0,0,1,1.788-3.437,11.725,11.725,0,0,1,5.387-.963q.874,0,1.325.025v-.726a2.721,2.721,0,0,0-.775-2.125,3.466,3.466,0,0,0-2.375-.7,7.355,7.355,0,0,0-3.825,1.075l-.75-1.424a8.792,8.792,0,0,1,4.7-1.326,5.32,5.32,0,0,1,3.913,1.25,5.2,5.2,0,0,1,1.237,3.8v5.2a23.73,23.73,0,0,0,.175,2.826h-1.95a11.663,11.663,0,0,1-.175-1.725h-.075a4.562,4.562,0,0,1-1.762,1.55,6.205,6.205,0,0,1-2.738.524,4.348,4.348,0,0,1-2.975-.987A3.573,3.573,0,0,1,35.669,133.189Zm8.5-1.226v-1.649l-1.125-.025a14.228,14.228,0,0,0-2.987.25,3.05,3.05,0,0,0-1.65.849,2.423,2.423,0,0,0-.538,1.676,2.158,2.158,0,0,0,.65,1.688,2.589,2.589,0,0,0,1.8.586,4.029,4.029,0,0,0,2.075-.512,3.574,3.574,0,0,0,1.325-1.287A3.1,3.1,0,0,0,44.169,131.963Z" style="fill:#fff"/><path d="M52.869,123.939h3.375v1.625H52.869v7.675q0,2.049,1.875,2.05a4.3,4.3,0,0,0,1.25-.175l.325,1.575a5.529,5.529,0,0,1-1.975.324,3.617,3.617,0,0,1-2.637-.937,3.545,3.545,0,0,1-.963-2.662v-7.85h-2.25v-1.375l2.225-.25v-3.125l2.15-.75Z" style="fill:#fff"/><path d="M58.094,133.189a3.558,3.558,0,0,1,1.787-3.437,11.733,11.733,0,0,1,5.388-.963q.874,0,1.325.025v-.726a2.724,2.724,0,0,0-.775-2.125,3.466,3.466,0,0,0-2.375-.7,7.355,7.355,0,0,0-3.825,1.075l-.75-1.424a8.792,8.792,0,0,1,4.7-1.326,5.315,5.315,0,0,1,3.912,1.25,5.2,5.2,0,0,1,1.238,3.8v5.2a23.522,23.522,0,0,0,.175,2.826h-1.95a11.663,11.663,0,0,1-.175-1.725h-.075a4.562,4.562,0,0,1-1.762,1.55,6.205,6.205,0,0,1-2.738.524,4.347,4.347,0,0,1-2.975-.987A3.573,3.573,0,0,1,58.094,133.189Zm8.5-1.226v-1.649l-1.125-.025a14.245,14.245,0,0,0-2.988.25,3.047,3.047,0,0,0-1.649.849,2.423,2.423,0,0,0-.538,1.676,2.158,2.158,0,0,0,.65,1.688,2.589,2.589,0,0,0,1.8.586,4.032,4.032,0,0,0,2.075-.512,3.581,3.581,0,0,0,1.325-1.287A3.1,3.1,0,0,0,66.594,131.963Z" style="fill:#fff"/><path d="M89.519,132.364h-8.3l-1.651,4.3H77.244l7-17.7h2.324l6.951,17.7h-2.4Zm-7.675-1.726h7.05l-3.525-9.574Z" style="fill:#fff"/><path d="M95.793,126.789a23.909,23.909,0,0,0-.175-2.85h2.025a19.972,19.972,0,0,1,.175,2.024h.05a4.021,4.021,0,0,1,4-2.375,6.2,6.2,0,0,1,.725.076l-.125,1.825a4.369,4.369,0,0,0-.775-.05,3.368,3.368,0,0,0-2.8,1.225,4.941,4.941,0,0,0-.975,3.174v6.826H95.793Z" style="fill:#fff"/><path d="M109.818,123.588a7.2,7.2,0,0,1,2.288.363,6.621,6.621,0,0,1,1.937,1.012l-.85,1.476a5.508,5.508,0,0,0-3.375-1.075,3.7,3.7,0,0,0-3.1,1.337,6.606,6.606,0,0,0,0,7.15,3.642,3.642,0,0,0,3.074,1.362,6.357,6.357,0,0,0,3.426-1.075l.775,1.5a7.229,7.229,0,0,1-4.35,1.375,6,6,0,0,1-3.525-.962,5.462,5.462,0,0,1-1.988-2.487,8.711,8.711,0,0,1-.612-3.275,6.929,6.929,0,0,1,1.674-4.875A5.965,5.965,0,0,1,109.818,123.588Z" style="fill:#fff"/><path d="M117.018,118.963h2.125v6.75h.05a4.686,4.686,0,0,1,1.7-1.537,5.474,5.474,0,0,1,2.65-.588,4.347,4.347,0,0,1,3.55,1.388,5.242,5.242,0,0,1,1.15,3.463v8.225h-2.125v-7.8a4.037,4.037,0,0,0-.75-2.513,2.851,2.851,0,0,0-2.425-.987,3.554,3.554,0,0,0-2.762,1.138,4.079,4.079,0,0,0-1.038,2.862v7.3h-2.125Z" style="fill:#fff"/><path d="M132.068,119.588q0-1.349,1.4-1.349a1.2,1.2,0,0,1,1.375,1.349,1.2,1.2,0,0,1-1.375,1.3,1.381,1.381,0,0,1-1.075-.362A1.349,1.349,0,0,1,132.068,119.588Zm2.45,17.076h-2.125V123.939h2.125Z" style="fill:#fff"/><path d="M141.417,123.939h3.375v1.625h-3.375v7.675q0,2.049,1.875,2.05a4.291,4.291,0,0,0,1.25-.175l.326,1.575a5.529,5.529,0,0,1-1.975.324,3.618,3.618,0,0,1-2.638-.937,3.545,3.545,0,0,1-.963-2.662v-7.85h-2.25v-1.375l2.226-.25v-3.125l2.149-.75Z" style="fill:#fff"/><path d="M158.117,131.064h-9.45a4.915,4.915,0,0,0,1.176,3.1,3.856,3.856,0,0,0,3,1.15,6.368,6.368,0,0,0,2.063-.312,7.884,7.884,0,0,0,1.836-.938l.951,1.375a8.426,8.426,0,0,1-2.287,1.175,8.57,8.57,0,0,1-2.688.4,5.776,5.776,0,0,1-4.563-1.849,7.158,7.158,0,0,1-1.637-4.925,8.134,8.134,0,0,1,.7-3.476,5.358,5.358,0,0,1,2.037-2.337,5.935,5.935,0,0,1,3.213-.838,5.144,5.144,0,0,1,4.237,1.8,7.349,7.349,0,0,1,1.462,4.776A5.991,5.991,0,0,1,158.117,131.064Zm-2.024-1.65a4.945,4.945,0,0,0-.976-3.05,3.23,3.23,0,0,0-2.674-1.151,3.363,3.363,0,0,0-2.751,1.188,4.919,4.919,0,0,0-1.049,3.013Z" style="fill:#fff"/><path d="M166.942,123.588a7.212,7.212,0,0,1,2.288.363,6.634,6.634,0,0,1,1.937,1.012l-.85,1.476a5.512,5.512,0,0,0-3.375-1.075,3.7,3.7,0,0,0-3.1,1.337,6.611,6.611,0,0,0,0,7.15,3.645,3.645,0,0,0,3.075,1.362,6.354,6.354,0,0,0,3.425-1.075l.775,1.5a7.229,7.229,0,0,1-4.35,1.375,6.007,6.007,0,0,1-3.525-.962,5.475,5.475,0,0,1-1.988-2.487,8.711,8.711,0,0,1-.612-3.275,6.929,6.929,0,0,1,1.675-4.875A5.962,5.962,0,0,1,166.942,123.588Z" style="fill:#fff"/><path d="M177.218,123.939h3.375v1.625h-3.375v7.675q0,2.049,1.875,2.05a4.3,4.3,0,0,0,1.25-.175l.325,1.575a5.535,5.535,0,0,1-1.976.324,3.613,3.613,0,0,1-2.636-.937,3.541,3.541,0,0,1-.963-2.662v-7.85h-2.251v-1.375l2.225-.25v-3.125l2.151-.75Z" style="fill:#fff"/><path d="M183.367,131.739v-7.8h2.151v7.5a4.722,4.722,0,0,0,.762,2.813,2.712,2.712,0,0,0,2.363,1.062,3.4,3.4,0,0,0,2.8-1.312,5.053,5.053,0,0,0,1.05-3.263v-6.8h2.125v9.9a23.527,23.527,0,0,0,.176,2.826h-2.025a18.139,18.139,0,0,1-.175-2.026h-.05a4.705,4.705,0,0,1-4.4,2.375,4.356,4.356,0,0,1-3.576-1.462A5.823,5.823,0,0,1,183.367,131.739Z" style="fill:#fff"/><path d="M198.918,126.789a23.7,23.7,0,0,0-.176-2.85h2.026a20,20,0,0,1,.174,2.024h.05a4.022,4.022,0,0,1,4-2.375,6.214,6.214,0,0,1,.726.076l-.125,1.825a4.374,4.374,0,0,0-.776-.05,3.367,3.367,0,0,0-2.8,1.225,4.936,4.936,0,0,0-.975,3.174v6.826h-2.125Z" style="fill:#fff"/><path d="M218.241,131.064h-9.449a4.909,4.909,0,0,0,1.175,3.1,3.859,3.859,0,0,0,3,1.15,6.353,6.353,0,0,0,2.062-.312,7.851,7.851,0,0,0,1.837-.938l.95,1.375a8.383,8.383,0,0,1-2.287,1.175,8.559,8.559,0,0,1-2.687.4,5.776,5.776,0,0,1-4.563-1.849,7.163,7.163,0,0,1-1.637-4.925,8.134,8.134,0,0,1,.7-3.476,5.358,5.358,0,0,1,2.037-2.337,5.937,5.937,0,0,1,3.213-.838,5.146,5.146,0,0,1,4.237,1.8,7.343,7.343,0,0,1,1.463,4.776A5.963,5.963,0,0,1,218.241,131.064Zm-2.024-1.65a4.939,4.939,0,0,0-.976-3.05,3.23,3.23,0,0,0-2.675-1.151,3.362,3.362,0,0,0-2.75,1.188,4.925,4.925,0,0,0-1.049,3.013Z" style="fill:#fff"/><path d="M227.017,133.189a3.556,3.556,0,0,1,1.788-3.437,11.723,11.723,0,0,1,5.386-.963q.876,0,1.326.025v-.726a2.724,2.724,0,0,0-.775-2.125,3.464,3.464,0,0,0-2.375-.7,7.355,7.355,0,0,0-3.825,1.075l-.75-1.424a8.792,8.792,0,0,1,4.7-1.326,5.315,5.315,0,0,1,3.912,1.25,5.2,5.2,0,0,1,1.238,3.8v5.2a23.725,23.725,0,0,0,.174,2.826h-1.949a11.69,11.69,0,0,1-.176-1.725h-.074a4.565,4.565,0,0,1-1.763,1.55,6.2,6.2,0,0,1-2.737.524,4.347,4.347,0,0,1-2.975-.987A3.573,3.573,0,0,1,227.017,133.189Zm8.5-1.226v-1.649l-1.125-.025a14.245,14.245,0,0,0-2.988.25,3.05,3.05,0,0,0-1.65.849,2.428,2.428,0,0,0-.537,1.676,2.161,2.161,0,0,0,.65,1.688,2.589,2.589,0,0,0,1.8.586,4.032,4.032,0,0,0,2.075-.512,3.571,3.571,0,0,0,1.324-1.287A3.1,3.1,0,0,0,235.517,131.963Z" style="fill:#fff"/><path d="M241.767,126.789a23.7,23.7,0,0,0-.176-2.85h2.025a13.628,13.628,0,0,1,.175,1.8h.05a4.5,4.5,0,0,1,1.75-1.563,5.715,5.715,0,0,1,2.676-.588,4.386,4.386,0,0,1,3.562,1.388,5.208,5.208,0,0,1,1.162,3.463v8.225h-2.125v-7.8a4.037,4.037,0,0,0-.75-2.513,2.851,2.851,0,0,0-2.425-.987,3.554,3.554,0,0,0-2.762,1.138,4.079,4.079,0,0,0-1.037,2.862v7.3h-2.125Z" style="fill:#fff"/><path d="M268.541,136.664h-1.976a12.419,12.419,0,0,1-.174-1.9h-.05a4.986,4.986,0,0,1-4.55,2.25,4.928,4.928,0,0,1-4.138-1.849,7.64,7.64,0,0,1-1.437-4.826,8.064,8.064,0,0,1,.713-3.437,5.759,5.759,0,0,1,2.037-2.425,6,6,0,0,1,7.275.763v-6.276h2.125v14.875A23.522,23.522,0,0,0,268.541,136.664Zm-2.3-5.475v-4a4.955,4.955,0,0,0-1.687-1.413,4.837,4.837,0,0,0-2.163-.462,3.457,3.457,0,0,0-2.912,1.4,6.841,6.841,0,0,0-.039,7.263,3.363,3.363,0,0,0,2.826,1.338,3.765,3.765,0,0,0,2.887-1.163A4.163,4.163,0,0,0,266.241,131.189Z" style="fill:#fff"/><path d="M37.419,167.664H35.244l.05-15.125h-.05L28.9,167.664H27.219L20.9,152.539h-.051l.051,15.125H18.819v-17.7h3.275l5.975,14.726h.05l6-14.726h3.3Z" style="fill:#fff"/><path d="M40.694,164.189a3.559,3.559,0,0,1,1.787-3.437,11.733,11.733,0,0,1,5.388-.963q.874,0,1.325.025v-.726a2.721,2.721,0,0,0-.775-2.125,3.466,3.466,0,0,0-2.375-.7,7.355,7.355,0,0,0-3.825,1.075l-.75-1.424a8.792,8.792,0,0,1,4.7-1.326,5.32,5.32,0,0,1,3.913,1.25,5.2,5.2,0,0,1,1.237,3.8v5.2a23.522,23.522,0,0,0,.175,2.826h-1.95a11.663,11.663,0,0,1-.175-1.725h-.075a4.562,4.562,0,0,1-1.762,1.55,6.205,6.205,0,0,1-2.738.524,4.348,4.348,0,0,1-2.975-.987A3.573,3.573,0,0,1,40.694,164.189Zm8.5-1.226v-1.649l-1.125-.025a14.228,14.228,0,0,0-2.987.25,3.05,3.05,0,0,0-1.65.849,2.423,2.423,0,0,0-.538,1.676,2.158,2.158,0,0,0,.65,1.688,2.589,2.589,0,0,0,1.8.586,4.032,4.032,0,0,0,2.075-.512,3.581,3.581,0,0,0,1.325-1.287A3.1,3.1,0,0,0,49.194,162.963Z" style="fill:#fff"/><path d="M55.444,157.789a23.909,23.909,0,0,0-.175-2.85h2.025a13.628,13.628,0,0,1,.175,1.8h.05a4.5,4.5,0,0,1,1.75-1.563,5.714,5.714,0,0,1,2.675-.588,4.385,4.385,0,0,1,3.562,1.388,5.208,5.208,0,0,1,1.163,3.463v8.225H64.544v-7.8a4.037,4.037,0,0,0-.75-2.513,2.852,2.852,0,0,0-2.425-.987,3.558,3.558,0,0,0-2.763,1.138,4.083,4.083,0,0,0-1.037,2.862v7.3H55.444Z" style="fill:#fff"/><path d="M69.444,164.189a3.559,3.559,0,0,1,1.787-3.437,11.733,11.733,0,0,1,5.388-.963q.874,0,1.325.025v-.726a2.721,2.721,0,0,0-.775-2.125,3.466,3.466,0,0,0-2.375-.7,7.355,7.355,0,0,0-3.825,1.075l-.75-1.424a8.792,8.792,0,0,1,4.7-1.326,5.32,5.32,0,0,1,3.913,1.25,5.2,5.2,0,0,1,1.237,3.8v5.2a23.522,23.522,0,0,0,.175,2.826h-1.95a11.663,11.663,0,0,1-.175-1.725h-.075a4.562,4.562,0,0,1-1.762,1.55,6.205,6.205,0,0,1-2.738.524,4.348,4.348,0,0,1-2.975-.987A3.573,3.573,0,0,1,69.444,164.189Zm8.5-1.226v-1.649l-1.125-.025a14.228,14.228,0,0,0-2.987.25,3.05,3.05,0,0,0-1.65.849,2.423,2.423,0,0,0-.538,1.676,2.158,2.158,0,0,0,.65,1.688,2.589,2.589,0,0,0,1.8.586,4.032,4.032,0,0,0,2.075-.512,3.581,3.581,0,0,0,1.325-1.287A3.1,3.1,0,0,0,77.944,162.963Z" style="fill:#fff"/><path d="M82.544,170.263a3.268,3.268,0,0,1,.612-1.937,5.34,5.34,0,0,1,2.013-1.563,1.781,1.781,0,0,1-1.225-1.675,1.712,1.712,0,0,1,.488-1.2,2.9,2.9,0,0,1,1.362-.774,3.94,3.94,0,0,1-1.837-1.45,4.311,4.311,0,0,1-.663-2.475,4.222,4.222,0,0,1,1.4-3.351,5.729,5.729,0,0,1,3.9-1.224,7.137,7.137,0,0,1,1.137.075,11.337,11.337,0,0,1,1.113.25h4.425v1.7l-2.825-.3a3.081,3.081,0,0,1,.975,1.2,4.206,4.206,0,0,1,.375,1.849,3.88,3.88,0,0,1-1.375,3.163,5.873,5.873,0,0,1-3.85,1.138,4.844,4.844,0,0,0-1.963.324,1,1,0,0,0-.712.9q0,1.025,2.425,1.049a11.377,11.377,0,0,1,5.113.938,2.889,2.889,0,0,1,1.587,2.687,3.755,3.755,0,0,1-1.788,3.326,9.083,9.083,0,0,1-5.012,1.174,7.416,7.416,0,0,1-4.238-1A3.24,3.24,0,0,1,82.544,170.263Zm10.375-.5a1.527,1.527,0,0,0-.563-1.224,4.213,4.213,0,0,0-1.912-.725,21.328,21.328,0,0,0-3.7-.25,4.18,4.18,0,0,0-1.625,1.137,2.3,2.3,0,0,0-.5,1.463q0,2.324,3.675,2.325a6.852,6.852,0,0,0,3.45-.7A2.228,2.228,0,0,0,92.919,169.763Zm-1.1-10.55a2.976,2.976,0,0,0-.825-2.2,3.324,3.324,0,0,0-2.45-.824,3.435,3.435,0,0,0-2.388.8,2.749,2.749,0,0,0-.887,2.149,2.982,2.982,0,0,0,.813,2.226,3.38,3.38,0,0,0,2.462.8Q91.819,162.164,91.819,159.213Z" style="fill:#fff"/><path d="M108.444,162.064h-9.45a4.915,4.915,0,0,0,1.175,3.1,3.859,3.859,0,0,0,3,1.15,6.359,6.359,0,0,0,2.063-.312,7.871,7.871,0,0,0,1.837-.938l.95,1.375a8.4,8.4,0,0,1-2.287,1.175,8.57,8.57,0,0,1-2.688.4,5.774,5.774,0,0,1-4.562-1.849,7.159,7.159,0,0,1-1.638-4.925,8.149,8.149,0,0,1,.7-3.476,5.366,5.366,0,0,1,2.038-2.337,5.931,5.931,0,0,1,3.212-.838,5.146,5.146,0,0,1,4.238,1.8,7.343,7.343,0,0,1,1.462,4.776A5.859,5.859,0,0,1,108.444,162.064Zm-2.025-1.65a4.932,4.932,0,0,0-.975-3.05,3.23,3.23,0,0,0-2.675-1.151,3.36,3.36,0,0,0-2.75,1.188,4.926,4.926,0,0,0-1.05,3.013Z" style="fill:#fff"/><path d="M111.869,157.789a23.909,23.909,0,0,0-.175-2.85h2.025a13.8,13.8,0,0,1,.175,1.8h.05a4.523,4.523,0,0,1,1.687-1.55,5.118,5.118,0,0,1,2.513-.6,4.674,4.674,0,0,1,2.65.688,3.98,3.98,0,0,1,1.5,1.888h.05a4.905,4.905,0,0,1,1.775-1.888,5.083,5.083,0,0,1,2.7-.688,4.7,4.7,0,0,1,2.625.688,4.163,4.163,0,0,1,1.55,1.8,5.883,5.883,0,0,1,.5,2.437v8.151h-2.125v-7.85a4.161,4.161,0,0,0-.713-2.476,2.615,2.615,0,0,0-2.287-1,3.267,3.267,0,0,0-1.975.6,3.736,3.736,0,0,0-1.25,1.6,5.427,5.427,0,0,0-.425,2.15v6.975h-2.125v-7.9a4.01,4.01,0,0,0-.725-2.437,2.636,2.636,0,0,0-2.275-.988,3.247,3.247,0,0,0-2.625,1.164,4.3,4.3,0,0,0-.975,2.862v7.3h-2.125Z" style="fill:#fff"/><path d="M146.319,162.064h-9.45a4.909,4.909,0,0,0,1.175,3.1,3.859,3.859,0,0,0,3,1.15,6.353,6.353,0,0,0,2.062-.312,7.9,7.9,0,0,0,1.838-.938l.95,1.375a8.389,8.389,0,0,1-2.288,1.175,8.559,8.559,0,0,1-2.687.4,5.777,5.777,0,0,1-4.563-1.849,7.163,7.163,0,0,1-1.637-4.925,8.134,8.134,0,0,1,.7-3.476,5.358,5.358,0,0,1,2.037-2.337,5.937,5.937,0,0,1,3.213-.838,5.144,5.144,0,0,1,4.237,1.8,7.343,7.343,0,0,1,1.463,4.776A5.991,5.991,0,0,1,146.319,162.064Zm-2.025-1.65a4.945,4.945,0,0,0-.975-3.05,3.233,3.233,0,0,0-2.675-1.151,3.36,3.36,0,0,0-2.75,1.188,4.926,4.926,0,0,0-1.05,3.013Z" style="fill:#fff"/><path d="M149.743,157.789a23.7,23.7,0,0,0-.175-2.85h2.025a13.628,13.628,0,0,1,.175,1.8h.05a4.5,4.5,0,0,1,1.75-1.563,5.715,5.715,0,0,1,2.676-.588,4.386,4.386,0,0,1,3.562,1.388,5.208,5.208,0,0,1,1.162,3.463v8.225h-2.125v-7.8a4.037,4.037,0,0,0-.75-2.513,2.851,2.851,0,0,0-2.425-.987,3.554,3.554,0,0,0-2.762,1.138,4.079,4.079,0,0,0-1.037,2.862v7.3h-2.126Z" style="fill:#fff"/><path d="M167.543,154.939h3.375v1.625h-3.375v7.675q0,2.049,1.875,2.05a4.291,4.291,0,0,0,1.25-.175l.326,1.575a5.539,5.539,0,0,1-1.976.324,3.617,3.617,0,0,1-2.637-.937,3.545,3.545,0,0,1-.963-2.662v-7.85h-2.25v-1.375l2.225-.25v-3.125l2.15-.75Z" style="fill:#fff"/><path d="M195.244,158.789q0,4.325-2.413,6.6a9.391,9.391,0,0,1-6.712,2.276h-5.7v-17.7h5.65q4.4,0,6.787,2.188T195.244,158.789Zm-12.625-7v14.025h3.275a7.342,7.342,0,0,0,5.262-1.726q1.812-1.724,1.813-5.3,0-7-7.05-7Z" style="fill:#fff"/><path d="M209.318,162.064h-9.449a4.909,4.909,0,0,0,1.175,3.1,3.859,3.859,0,0,0,3,1.15,6.349,6.349,0,0,0,2.062-.312,7.851,7.851,0,0,0,1.837-.938l.951,1.375a8.4,8.4,0,0,1-2.288,1.175,8.559,8.559,0,0,1-2.687.4,5.776,5.776,0,0,1-4.563-1.849,7.163,7.163,0,0,1-1.637-4.925,8.134,8.134,0,0,1,.7-3.476,5.358,5.358,0,0,1,2.037-2.337,5.937,5.937,0,0,1,3.213-.838,5.143,5.143,0,0,1,4.237,1.8,7.343,7.343,0,0,1,1.463,4.776A5.832,5.832,0,0,1,209.318,162.064Zm-2.024-1.65a4.933,4.933,0,0,0-.976-3.05,3.228,3.228,0,0,0-2.674-1.151,3.36,3.36,0,0,0-2.75,1.188,4.926,4.926,0,0,0-1.05,3.013Z" style="fill:#fff"/><path d="M220.443,155.939l-.949,1.324a5.507,5.507,0,0,0-3.2-1.024,3.286,3.286,0,0,0-1.875.462,1.5,1.5,0,0,0-.675,1.312,1.769,1.769,0,0,0,.275,1.026,2.047,2.047,0,0,0,.924.674,12.925,12.925,0,0,0,1.9.576,6.184,6.184,0,0,1,2.887,1.387,3.185,3.185,0,0,1,.938,2.388,3.415,3.415,0,0,1-1.4,2.912,5.632,5.632,0,0,1-3.451,1.037,7.145,7.145,0,0,1-4.6-1.474l.974-1.326a6.9,6.9,0,0,0,1.676.851,5.9,5.9,0,0,0,1.875.274,3.292,3.292,0,0,0,2.012-.549,1.847,1.847,0,0,0,.738-1.576,1.925,1.925,0,0,0-.275-1.086,2.021,2.021,0,0,0-.912-.688,13.7,13.7,0,0,0-1.913-.6,6.511,6.511,0,0,1-2.875-1.349,3.388,3.388,0,0,1,.362-4.938,5.368,5.368,0,0,1,3.338-.963A6.776,6.776,0,0,1,220.443,155.939Z" style="fill:#fff"/><path d="M223.493,150.588q0-1.349,1.4-1.349a1.2,1.2,0,0,1,1.375,1.349,1.2,1.2,0,0,1-1.375,1.3,1.385,1.385,0,0,1-1.076-.362A1.353,1.353,0,0,1,223.493,150.588Zm2.45,17.076h-2.125V154.939h2.125Z" style="fill:#fff"/><path d="M228.594,170.263a3.268,3.268,0,0,1,.612-1.937,5.34,5.34,0,0,1,2.013-1.563,1.781,1.781,0,0,1-1.225-1.675,1.715,1.715,0,0,1,.487-1.2,2.909,2.909,0,0,1,1.363-.774,3.948,3.948,0,0,1-1.838-1.45,4.31,4.31,0,0,1-.662-2.475,4.226,4.226,0,0,1,1.4-3.351,5.729,5.729,0,0,1,3.9-1.224,7.137,7.137,0,0,1,1.137.075,11.337,11.337,0,0,1,1.113.25h4.424v1.7l-2.824-.3a3.081,3.081,0,0,1,.975,1.2,4.206,4.206,0,0,1,.375,1.849,3.88,3.88,0,0,1-1.375,3.163,5.873,5.873,0,0,1-3.85,1.138,4.841,4.841,0,0,0-1.963.324,1.007,1.007,0,0,0-.713.9q0,1.025,2.426,1.049a11.369,11.369,0,0,1,5.112.938,2.889,2.889,0,0,1,1.587,2.687,3.755,3.755,0,0,1-1.787,3.326,9.083,9.083,0,0,1-5.012,1.174,7.416,7.416,0,0,1-4.238-1A3.238,3.238,0,0,1,228.594,170.263Zm10.375-.5a1.527,1.527,0,0,0-.563-1.224,4.213,4.213,0,0,0-1.912-.725,21.336,21.336,0,0,0-3.7-.25,4.18,4.18,0,0,0-1.625,1.137,2.3,2.3,0,0,0-.5,1.463q0,2.324,3.675,2.325a6.854,6.854,0,0,0,3.45-.7A2.228,2.228,0,0,0,238.969,169.763Zm-1.1-10.55a2.976,2.976,0,0,0-.825-2.2,3.324,3.324,0,0,0-2.45-.824,3.435,3.435,0,0,0-2.388.8,2.749,2.749,0,0,0-.888,2.149,2.985,2.985,0,0,0,.813,2.226,3.384,3.384,0,0,0,2.463.8Q237.868,162.164,237.869,159.213Z" style="fill:#fff"/><path d="M244.044,157.789a23.7,23.7,0,0,0-.176-2.85h2.026a13.654,13.654,0,0,1,.174,1.8h.05a4.5,4.5,0,0,1,1.75-1.563,5.718,5.718,0,0,1,2.676-.588,4.385,4.385,0,0,1,3.562,1.388,5.208,5.208,0,0,1,1.163,3.463v8.225h-2.125v-7.8a4.037,4.037,0,0,0-.75-2.513,2.852,2.852,0,0,0-2.425-.987,3.555,3.555,0,0,0-2.763,1.138,4.083,4.083,0,0,0-1.037,2.862v7.3h-2.125Z" style="fill:#fff"/><path d="M270.093,162.064h-9.449a4.909,4.909,0,0,0,1.174,3.1,3.862,3.862,0,0,0,3,1.15,6.359,6.359,0,0,0,2.063-.312,7.871,7.871,0,0,0,1.837-.938l.95,1.375a8.412,8.412,0,0,1-2.287,1.175,8.566,8.566,0,0,1-2.688.4,5.774,5.774,0,0,1-4.562-1.849,7.159,7.159,0,0,1-1.638-4.925,8.149,8.149,0,0,1,.7-3.476,5.364,5.364,0,0,1,2.037-2.337,5.937,5.937,0,0,1,3.213-.838,5.146,5.146,0,0,1,4.238,1.8,7.349,7.349,0,0,1,1.463,4.776A5.963,5.963,0,0,1,270.093,162.064Zm-2.025-1.65a4.938,4.938,0,0,0-.975-3.05,3.23,3.23,0,0,0-2.675-1.151,3.36,3.36,0,0,0-2.75,1.188,4.932,4.932,0,0,0-1.05,3.013Z" style="fill:#fff"/><path d="M273.519,157.789a23.7,23.7,0,0,0-.176-2.85h2.025a19.972,19.972,0,0,1,.175,2.024h.05a4.02,4.02,0,0,1,4-2.375,6.182,6.182,0,0,1,.725.076l-.125,1.825a4.361,4.361,0,0,0-.775-.05,3.369,3.369,0,0,0-2.8,1.225,4.941,4.941,0,0,0-.974,3.174v6.826h-2.125Z" style="fill:#fff"/><g id="g3003"><path id="path3005" d="M260.557,58.506a6.71,6.71,0,0,1,4.857-2.084,6.78,6.78,0,0,1,5.905,3.5,8.166,8.166,0,0,1,3.338-.707,8.328,8.328,0,0,1,0,16.651,8.223,8.223,0,0,1-1.641-.165,6.036,6.036,0,0,1-7.889,2.481,6.885,6.885,0,0,1-12.8-.312,6.276,6.276,0,0,1-1.311.137,6.47,6.47,0,0,1-3.2-12.049A7.436,7.436,0,0,1,260.552,58.5" style="fill:#00a1e0"/></g></svg>