<svg id="Layer_1" data-name="Layer 1" xmlns="http://www.w3.org/2000/svg" width="100" height="60" viewBox="0 0 100 60"><title>SF_Crt</title><path d="M5,0H95a5,5,0,0,1,5,5V33.094a0,0,0,0,1,0,0H0a0,0,0,0,1,0,0V5A5,5,0,0,1,5,0Z" style="fill:#003c4d"/><path d="M0,32.994H100a0,0,0,0,1,0,0V55a5,5,0,0,1-5,5H5a5,5,0,0,1-5-5V32.994a0,0,0,0,1,0,0Z" style="fill:#00a1e0"/><path d="M7.764,14.7l.756-1a3.334,3.334,0,0,0,1.014.516,3.99,3.99,0,0,0,1.146.156,2.058,2.058,0,0,0,1.194-.312,1.063,1.063,0,0,0,.45-.936,1.129,1.129,0,0,0-.216-.726,1.522,1.522,0,0,0-.618-.438,9.366,9.366,0,0,0-1.11-.36,3.821,3.821,0,0,1-1.746-.882A2.092,2.092,0,0,1,8.04,9.153a2.131,2.131,0,0,1,.4-1.3A2.435,2.435,0,0,1,9.51,7.041a4.023,4.023,0,0,1,1.53-.276,4.639,4.639,0,0,1,2.748.84l-.708,1.02a4.142,4.142,0,0,0-.984-.456,3.5,3.5,0,0,0-1.02-.144A1.97,1.97,0,0,0,10,8.283a.858.858,0,0,0-.4.774.9.9,0,0,0,.408.8,4.876,4.876,0,0,0,1.356.522,4.432,4.432,0,0,1,1.908.93,2.271,2.271,0,0,1,.66,1.758,2.412,2.412,0,0,1-.432,1.458,2.557,2.557,0,0,1-1.17.882,4.471,4.471,0,0,1-1.638.288,4.838,4.838,0,0,1-1.6-.258A4.331,4.331,0,0,1,7.764,14.7Z" style="fill:#fff"/><path d="M21.252,13.629H17.8l-.684,1.836H15.468l3.264-8.5h1.62l3.252,8.5H21.9Zm-3.036-1.2h2.628L19.536,8.577Z" style="fill:#fff"/><path d="M27.324,14.157H31v1.308H25.752v-8.5h1.572Z" style="fill:#fff"/><path d="M38.58,8.229H34.788V10.5h3.24v1.212h-3.24v2.472h4v1.284H33.216v-8.5H38.58Z" style="fill:#fff"/><path d="M40.6,14.7l.756-1a3.334,3.334,0,0,0,1.014.516,3.99,3.99,0,0,0,1.146.156,2.058,2.058,0,0,0,1.194-.312,1.063,1.063,0,0,0,.45-.936,1.129,1.129,0,0,0-.216-.726,1.522,1.522,0,0,0-.618-.438,9.366,9.366,0,0,0-1.11-.36,3.821,3.821,0,0,1-1.746-.882,2.092,2.092,0,0,1-.594-1.566,2.131,2.131,0,0,1,.4-1.3,2.435,2.435,0,0,1,1.074-.816,4.027,4.027,0,0,1,1.53-.276,4.639,4.639,0,0,1,2.748.84l-.708,1.02a4.142,4.142,0,0,0-.984-.456,3.5,3.5,0,0,0-1.02-.144,1.967,1.967,0,0,0-1.074.258.859.859,0,0,0-.4.774.9.9,0,0,0,.408.8,4.889,4.889,0,0,0,1.356.522,4.432,4.432,0,0,1,1.908.93,2.267,2.267,0,0,1,.66,1.758,2.418,2.418,0,0,1-.431,1.458,2.565,2.565,0,0,1-1.171.882,4.471,4.471,0,0,1-1.638.288,4.838,4.838,0,0,1-1.6-.258A4.331,4.331,0,0,1,40.6,14.7Z" style="fill:#fff"/><path d="M54.72,8.253H50.928v2.364h3.3V11.9h-3.3v3.564H49.356v-8.5H54.72Z" style="fill:#fff"/><path d="M56.412,11.217a5.1,5.1,0,0,1,.516-2.346A3.7,3.7,0,0,1,58.422,7.3a5.165,5.165,0,0,1,4.674,0,3.689,3.689,0,0,1,1.5,1.572,5.1,5.1,0,0,1,.516,2.346,5.1,5.1,0,0,1-.516,2.346,3.7,3.7,0,0,1-1.5,1.572,5.173,5.173,0,0,1-4.674,0,3.7,3.7,0,0,1-1.494-1.572A5.1,5.1,0,0,1,56.412,11.217Zm7.092,0a3.486,3.486,0,0,0-.69-2.28,2.926,2.926,0,0,0-4.1,0,3.485,3.485,0,0,0-.689,2.28,3.485,3.485,0,0,0,.689,2.28,2.926,2.926,0,0,0,4.1,0A3.486,3.486,0,0,0,63.5,11.217Z" style="fill:#fff"/><path d="M72.492,15.465l-1.68-2.88H69.373v2.88H67.8v-8.5h2.976a3.5,3.5,0,0,1,2.316.738,2.58,2.58,0,0,1,.888,2.106,2.442,2.442,0,0,1-1.715,2.46l2.027,3.192Zm-1.8-4.08a1.814,1.814,0,0,0,1.2-.39,1.449,1.449,0,0,0,.467-1.182,1.449,1.449,0,0,0-.48-1.194,1.858,1.858,0,0,0-1.212-.39H69.36v3.156Z" style="fill:#fff"/><path d="M83.509,7.809l-.888,1.008a3.017,3.017,0,0,0-.936-.54,3.209,3.209,0,0,0-1.1-.192,2.442,2.442,0,0,0-2.053.846,3.6,3.6,0,0,0-.659,2.274,3.558,3.558,0,0,0,.659,2.25,2.4,2.4,0,0,0,2.016.846,2.931,2.931,0,0,0,1.177-.234,3.257,3.257,0,0,0,.947-.618l.949,1.032a4.105,4.105,0,0,1-1.35.876,4.575,4.575,0,0,1-1.77.336,4.453,4.453,0,0,1-2.316-.57,3.66,3.66,0,0,1-1.452-1.584,5.27,5.27,0,0,1-.493-2.334,5.249,5.249,0,0,1,.5-2.352A3.623,3.623,0,0,1,78.2,7.287a4.562,4.562,0,0,1,2.322-.558,4.862,4.862,0,0,1,1.68.288A3.6,3.6,0,0,1,83.509,7.809Z" style="fill:#fff"/><path d="M91.381,8.229H87.589V10.5h3.24v1.212h-3.24v2.472h4v1.284H86.017v-8.5h5.364Z" style="fill:#fff"/><path d="M15.132,19.31l-.624.683a3.154,3.154,0,0,0-1.014-.6,3.438,3.438,0,0,0-1.206-.21,2.853,2.853,0,0,0-2.352.972,3.938,3.938,0,0,0-.792,2.568,3.92,3.92,0,0,0,.792,2.556,2.827,2.827,0,0,0,2.328.971,3.3,3.3,0,0,0,1.3-.258,3.382,3.382,0,0,0,1.068-.7l.648.708a3.968,3.968,0,0,1-1.338.87,4.517,4.517,0,0,1-1.71.319,4.349,4.349,0,0,1-2.274-.565,3.622,3.622,0,0,1-1.428-1.571,5.819,5.819,0,0,1,0-4.656,3.584,3.584,0,0,1,1.433-1.567,4.447,4.447,0,0,1,2.293-.557,4.667,4.667,0,0,1,1.6.269A3.731,3.731,0,0,1,15.132,19.31Z" style="fill:#fff"/><path d="M22.98,19.333H18.888V22.19h3.564v.816H18.888v3.1h4.3v.876H17.832v-8.5H22.98Z" style="fill:#fff"/><path d="M30.576,26.978l-1.932-3.109H26.868v3.109H25.8v-8.5h2.8a3.619,3.619,0,0,1,1.506.3,2.446,2.446,0,0,1,1.074.924,2.74,2.74,0,0,1,.4,1.507,2.411,2.411,0,0,1-.522,1.62,2.806,2.806,0,0,1-1.386.863L31.8,26.978ZM28.56,23.054a2.037,2.037,0,0,0,1.374-.468,1.7,1.7,0,0,0,.546-1.368,1.738,1.738,0,0,0-.564-1.41,2.086,2.086,0,0,0-1.392-.475H26.856v3.721Z" style="fill:#fff"/><path d="M39.6,19.382H36.924v7.6H35.855v-7.6H33.167v-.9H39.6Z" style="fill:#fff"/><path d="M43.584,26.161h1.008v.817H41.52v-.817h1.008V19.274H41.52v-.792h3.072v.792H43.584Z" style="fill:#fff"/><path d="M52.692,19.358H48.6v2.9h3.624v.863H48.6v3.853H47.532v-8.5h5.16Z" style="fill:#fff"/><path d="M56.832,26.161H57.84v.817H54.768v-.817h1.008V19.274H54.768v-.792H57.84v.792H56.832Z" style="fill:#fff"/><path d="M65.928,19.333H61.836V22.19H65.4v.816H61.836v3.1h4.3v.876H60.78v-8.5h5.148Z" style="fill:#fff"/><path d="M75.864,22.718a4.148,4.148,0,0,1-1.158,3.168,4.515,4.515,0,0,1-3.222,1.092H68.748v-8.5H71.46a4.651,4.651,0,0,1,3.258,1.049A4.117,4.117,0,0,1,75.864,22.718Zm-6.06-3.36V26.09h1.572a3.527,3.527,0,0,0,2.526-.828,3.363,3.363,0,0,0,.87-2.544q0-3.36-3.384-3.36Z" style="fill:#fff"/><g id="g3003"><path id="path3005" d="M85.026,19.3a2.109,2.109,0,0,1,1.53-.656,2.133,2.133,0,0,1,1.86,1.1,2.561,2.561,0,0,1,1.052-.223,2.624,2.624,0,0,1,0,5.246,2.562,2.562,0,0,1-.517-.052,1.9,1.9,0,0,1-2.486.782,2.169,2.169,0,0,1-4.032-.1,2.035,2.035,0,0,1-1.42-3.753,2.343,2.343,0,0,1,4.011-2.349" style="fill:#00a1e0"/></g><path d="M14.939,48.721H11.29l-.723,1.938H8.832l3.446-8.97h1.711l3.433,8.97h-1.8Zm-3.206-1.268h2.775l-1.381-4.067Z" style="fill:#fff"/><path d="M24.493,50.659h-1.47a6.078,6.078,0,0,1-.1-.823H22.9a2.3,2.3,0,0,1-.9.754,3.135,3.135,0,0,1-1.318.247,2.427,2.427,0,0,1-2.091-.95,4.106,4.106,0,0,1-.7-2.484,4.19,4.19,0,0,1,.367-1.774,3.032,3.032,0,0,1,1.058-1.268,2.831,2.831,0,0,1,1.628-.468,2.683,2.683,0,0,1,1.863.659V41.689h1.584v7.463A14,14,0,0,0,24.493,50.659Zm-1.685-2.876V45.857a2.139,2.139,0,0,0-1.622-.684,1.405,1.405,0,0,0-1.216.6,2.74,2.74,0,0,0-.431,1.628,2.647,2.647,0,0,0,.424,1.616,1.359,1.359,0,0,0,1.147.563,1.614,1.614,0,0,0,1.223-.5A1.812,1.812,0,0,0,22.808,47.783Z" style="fill:#fff"/><path d="M26.368,45.578q0-.482-.114-1.508h1.521a7.019,7.019,0,0,1,.1.749H27.9a2.377,2.377,0,0,1,.856-.672,2.753,2.753,0,0,1,1.21-.254,2.182,2.182,0,0,1,2.078,1.09h.025a2.766,2.766,0,0,1,3.567-.729,2.17,2.17,0,0,1,.811.944,3.051,3.051,0,0,1,.26,1.254v4.207H35.124V46.681a1.808,1.808,0,0,0-.291-1.077,1.12,1.12,0,0,0-.976-.406,1.306,1.306,0,0,0-1.122.551,2.22,2.22,0,0,0-.4,1.337v3.573h-1.6v-4.1a1.531,1.531,0,0,0-.3-.963,1.142,1.142,0,0,0-.963-.393,1.346,1.346,0,0,0-1.116.513,2.016,2.016,0,0,0-.4,1.286v3.662H26.368Z" style="fill:#fff"/><path d="M38.431,42.018q0-.913.975-.912a.964.964,0,0,1,.748.253.947.947,0,0,1,.228.659.913.913,0,0,1-.235.646,1.22,1.22,0,0,1-1.488,0A.931.931,0,0,1,38.431,42.018Zm1.761,8.641H38.608V44.07h1.584Z" style="fill:#fff"/><path d="M42.181,45.578q0-.482-.114-1.508h1.521a6.46,6.46,0,0,1,.1.76h.025a2.277,2.277,0,0,1,.875-.677,3.064,3.064,0,0,1,1.3-.26,2.489,2.489,0,0,1,1.362.343,2.07,2.07,0,0,1,.792.886A2.762,2.762,0,0,1,48.3,46.3v4.358H46.717V46.643a1.633,1.633,0,0,0-.31-1.033,1.229,1.229,0,0,0-1.032-.4,1.475,1.475,0,0,0-1.179.5A1.9,1.9,0,0,0,43.765,47v3.662H42.181Z" style="fill:#fff"/><path d="M50.024,42.018q0-.913.976-.912a.964.964,0,0,1,.748.253.952.952,0,0,1,.228.659.917.917,0,0,1-.235.646,1.222,1.222,0,0,1-1.489,0A.935.935,0,0,1,50.024,42.018Zm1.762,8.641H50.2V44.07h1.584Z" style="fill:#fff"/><path d="M58.121,44.59l-.634,1a2.918,2.918,0,0,0-1.558-.481,1.5,1.5,0,0,0-.785.17.544.544,0,0,0-.279.489.665.665,0,0,0,.126.424.985.985,0,0,0,.412.272,6.652,6.652,0,0,0,.881.254,3.123,3.123,0,0,1,1.451.716,1.662,1.662,0,0,1,.488,1.248,1.842,1.842,0,0,1-.786,1.6,3.242,3.242,0,0,1-1.926.558,3.881,3.881,0,0,1-2.433-.748l.684-.988a3.544,3.544,0,0,0,.8.38,2.836,2.836,0,0,0,.868.127,1.478,1.478,0,0,0,.842-.2.682.682,0,0,0,.3-.607.639.639,0,0,0-.126-.419,1.054,1.054,0,0,0-.406-.266,6.312,6.312,0,0,0-.861-.252,3.02,3.02,0,0,1-1.439-.71,1.747,1.747,0,0,1-.462-1.281,1.705,1.705,0,0,1,.709-1.45,3.079,3.079,0,0,1,1.876-.526A3.672,3.672,0,0,1,58.121,44.59Z" style="fill:#fff"/><path d="M61.492,44.134h1.634v1.2H61.492v3.282q0,.938.848.938a1.973,1.973,0,0,0,.583-.076l.228,1.166a3.126,3.126,0,0,1-1.152.19,2.109,2.109,0,0,1-1.54-.539,2.033,2.033,0,0,1-.551-1.526V45.337h-1.09V44.323l1.077-.189V42.575l1.6-.557Z" style="fill:#fff"/><path d="M64.5,45.578q0-.482-.114-1.508H65.9a7.078,7.078,0,0,1,.1.913h.026a2.036,2.036,0,0,1,1.951-1.09,1.478,1.478,0,0,1,.406.051l-.064,1.369a2.461,2.461,0,0,0-.481-.038,1.61,1.61,0,0,0-1.3.544,2.058,2.058,0,0,0-.462,1.381v3.459H64.5Z" style="fill:#fff"/><path d="M68.765,48.81a1.876,1.876,0,0,1,.918-1.8,5.563,5.563,0,0,1,2.642-.507c.279,0,.49.005.634.013v-.329q0-1.065-1.356-1.065a3.986,3.986,0,0,0-1.914.507l-.531-1.052a4.856,4.856,0,0,1,1.2-.5,5.045,5.045,0,0,1,1.331-.183,2.978,2.978,0,0,1,2.179.677,2.839,2.839,0,0,1,.671,2.073v2.509q0,.481.115,1.507H73.2c-.06-.346-.1-.595-.115-.748h-.038a2.226,2.226,0,0,1-.848.7,3.15,3.15,0,0,1-1.3.228,2.244,2.244,0,0,1-1.521-.526A1.876,1.876,0,0,1,68.765,48.81Zm4.207-.7V47.58l-.482-.012a3.582,3.582,0,0,0-1.6.259.907.907,0,0,0-.482.868.859.859,0,0,0,.254.666.966.966,0,0,0,.684.234,1.655,1.655,0,0,0,.836-.209,1.59,1.59,0,0,0,.576-.545A1.35,1.35,0,0,0,72.972,48.112Z" style="fill:#fff"/><path d="M78.293,44.134h1.635v1.2H78.293v3.282q0,.938.849.938a1.978,1.978,0,0,0,.583-.076l.228,1.166a3.132,3.132,0,0,1-1.153.19,2.108,2.108,0,0,1-1.539-.539,2.033,2.033,0,0,1-.552-1.526V45.337H75.62V44.323l1.077-.189V42.575l1.6-.557Z" style="fill:#fff"/><path d="M87.53,47.34a3.872,3.872,0,0,1-.412,1.817,2.964,2.964,0,0,1-1.191,1.237,3.645,3.645,0,0,1-1.831.443,3.56,3.56,0,0,1-1.824-.45,3.017,3.017,0,0,1-1.185-1.242,4.2,4.2,0,0,1-.006-3.617,2.907,2.907,0,0,1,1.172-1.2,3.718,3.718,0,0,1,1.843-.43,3.756,3.756,0,0,1,1.85.43,2.906,2.906,0,0,1,1.179,1.2A3.85,3.85,0,0,1,87.53,47.34Zm-5.208,0a2.813,2.813,0,0,0,.425,1.628,1.539,1.539,0,0,0,1.362.614,1.558,1.558,0,0,0,1.369-.614,2.783,2.783,0,0,0,.43-1.628,2.643,2.643,0,0,0-.43-1.591A1.6,1.6,0,0,0,84.1,45.16a1.547,1.547,0,0,0-1.355.589A2.7,2.7,0,0,0,82.322,47.34Z" style="fill:#fff"/><path d="M89.088,45.578q0-.482-.113-1.508H90.5a7.078,7.078,0,0,1,.1.913h.026a2.035,2.035,0,0,1,1.951-1.09,1.478,1.478,0,0,1,.406.051l-.064,1.369a2.461,2.461,0,0,0-.481-.038,1.61,1.61,0,0,0-1.3.544,2.059,2.059,0,0,0-.463,1.381v3.459H89.088Z" style="fill:#fff"/></svg>