<svg id="Layer_1" data-name="Layer 1" xmlns="http://www.w3.org/2000/svg" width="300" height="185" viewBox="0 0 300 185"><title>SF_Crt</title><rect width="300" height="102.041" style="fill:#003c4d"/><rect y="101.733" width="300" height="83.267" style="fill:#00a1e0"/><path d="M15.324,43.913l2.4-3.161a10.574,10.574,0,0,0,3.218,1.637,12.635,12.635,0,0,0,3.638.495,6.529,6.529,0,0,0,3.79-.99A3.375,3.375,0,0,0,29.8,38.923a3.579,3.579,0,0,0-.686-2.3,4.832,4.832,0,0,0-1.961-1.39,29.663,29.663,0,0,0-3.523-1.143,12.147,12.147,0,0,1-5.542-2.8,6.639,6.639,0,0,1-1.886-4.97A6.76,6.76,0,0,1,17.458,22.2a7.724,7.724,0,0,1,3.408-2.59,12.783,12.783,0,0,1,4.857-.876A14.729,14.729,0,0,1,34.445,21.4L32.2,24.64a13.178,13.178,0,0,0-3.124-1.448,11.231,11.231,0,0,0-3.237-.457,6.249,6.249,0,0,0-3.409.819,2.727,2.727,0,0,0-1.276,2.457,2.839,2.839,0,0,0,1.295,2.533,15.515,15.515,0,0,0,4.3,1.657,14.066,14.066,0,0,1,6.056,2.952,7.2,7.2,0,0,1,2.095,5.58,7.653,7.653,0,0,1-1.371,4.627,8.106,8.106,0,0,1-3.714,2.8,14.182,14.182,0,0,1-5.2.914,15.354,15.354,0,0,1-5.066-.819A13.722,13.722,0,0,1,15.324,43.913Z" style="fill:#fff"/><path d="M58.137,40.523H47.167L45,46.351H39.778l10.36-26.968H55.28L65.6,46.351H60.193ZM48.5,36.714h8.342L52.69,24.487Z" style="fill:#fff"/><path d="M77.409,42.2H89.064v4.152H72.42V19.383h4.989Z" style="fill:#fff"/><path d="M113.137,23.383H101.1v7.2h10.284v3.847H101.1v7.846h12.683v4.076H96.111V19.383h17.026Z" style="fill:#fff"/><path d="M119.535,43.913l2.4-3.161a10.574,10.574,0,0,0,3.218,1.637,12.635,12.635,0,0,0,3.638.495,6.529,6.529,0,0,0,3.79-.99,3.375,3.375,0,0,0,1.428-2.971,3.579,3.579,0,0,0-.686-2.3,4.832,4.832,0,0,0-1.961-1.39,29.663,29.663,0,0,0-3.523-1.143,12.147,12.147,0,0,1-5.542-2.8,6.639,6.639,0,0,1-1.886-4.97,6.766,6.766,0,0,1,1.257-4.114,7.732,7.732,0,0,1,3.409-2.59,12.783,12.783,0,0,1,4.857-.876,14.729,14.729,0,0,1,8.722,2.666l-2.247,3.238a13.178,13.178,0,0,0-3.124-1.448,11.231,11.231,0,0,0-3.237-.457,6.247,6.247,0,0,0-3.409.819,2.727,2.727,0,0,0-1.276,2.457,2.839,2.839,0,0,0,1.3,2.533,15.515,15.515,0,0,0,4.3,1.657,14.066,14.066,0,0,1,6.056,2.952,7.2,7.2,0,0,1,2.095,5.58,7.653,7.653,0,0,1-1.371,4.627,8.106,8.106,0,0,1-3.714,2.8,14.182,14.182,0,0,1-5.2.914,15.354,15.354,0,0,1-5.066-.819A13.71,13.71,0,0,1,119.535,43.913Z" style="fill:#fff"/><path d="M164.367,23.459H152.33v7.5H162.8v4.075H152.33V46.351h-4.99V19.383h17.027Z" style="fill:#fff"/><path d="M169.737,32.867a16.2,16.2,0,0,1,1.638-7.446,11.756,11.756,0,0,1,4.742-4.99,16.421,16.421,0,0,1,14.836,0,11.726,11.726,0,0,1,4.76,4.99,16.2,16.2,0,0,1,1.638,7.446,16.2,16.2,0,0,1-1.638,7.447,11.713,11.713,0,0,1-4.76,4.989,16.421,16.421,0,0,1-14.836,0,11.742,11.742,0,0,1-4.742-4.989A16.2,16.2,0,0,1,169.737,32.867Zm22.511,0a11.066,11.066,0,0,0-2.191-7.237q-2.19-2.665-6.532-2.666-4.3,0-6.494,2.666a11.066,11.066,0,0,0-2.19,7.237,11.064,11.064,0,0,0,2.19,7.237q2.19,2.667,6.494,2.666,4.342,0,6.532-2.666A11.064,11.064,0,0,0,192.248,32.867Z" style="fill:#fff"/><path d="M220.776,46.351l-5.332-9.142h-4.57v9.142h-4.991V19.383h9.447a11.128,11.128,0,0,1,7.351,2.343,8.2,8.2,0,0,1,2.819,6.685,7.748,7.748,0,0,1-5.448,7.808l6.438,10.132ZM215.063,33.4a5.752,5.752,0,0,0,3.809-1.238,4.606,4.606,0,0,0,1.485-3.752,4.6,4.6,0,0,0-1.524-3.79,5.9,5.9,0,0,0-3.846-1.238h-4.152V33.4Z" style="fill:#fff"/><path d="M255.742,22.05l-2.819,3.2a9.6,9.6,0,0,0-2.97-1.714,10.215,10.215,0,0,0-3.5-.609q-4.419,0-6.513,2.685a11.426,11.426,0,0,0-2.095,7.218,11.294,11.294,0,0,0,2.095,7.142q2.094,2.685,6.4,2.685a9.3,9.3,0,0,0,3.734-.743,10.359,10.359,0,0,0,3.009-1.961l3.008,3.275a13.02,13.02,0,0,1-4.285,2.781,14.539,14.539,0,0,1-5.618,1.066,14.148,14.148,0,0,1-7.35-1.809,11.608,11.608,0,0,1-4.61-5.028,16.766,16.766,0,0,1-1.561-7.408,16.649,16.649,0,0,1,1.581-7.466,11.486,11.486,0,0,1,4.646-4.97,14.5,14.5,0,0,1,7.37-1.771,15.468,15.468,0,0,1,5.333.914A11.451,11.451,0,0,1,255.742,22.05Z" style="fill:#fff"/><path d="M280.728,23.383H268.692v7.2h10.284v3.847H268.692v7.846h12.683v4.076H263.7V19.383h17.026Z" style="fill:#fff"/><path d="M38.711,58.555,36.73,60.726A9.967,9.967,0,0,0,33.512,58.8a11.018,11.018,0,0,0-3.828-.666q-4.952,0-7.466,3.085A12.5,12.5,0,0,0,19.7,69.372a12.442,12.442,0,0,0,2.513,8.113q2.515,3.086,7.39,3.085a10.478,10.478,0,0,0,4.113-.819,10.822,10.822,0,0,0,3.39-2.228l2.057,2.247a12.6,12.6,0,0,1-4.247,2.762,14.355,14.355,0,0,1-5.427,1.009,13.813,13.813,0,0,1-7.219-1.79,11.5,11.5,0,0,1-4.532-4.99,18.463,18.463,0,0,1,0-14.778,11.36,11.36,0,0,1,4.551-4.971,14.1,14.1,0,0,1,7.276-1.771,14.719,14.719,0,0,1,5.065.857A11.8,11.8,0,0,1,38.711,58.555Z" style="fill:#fff"/><path d="M63.621,58.631H50.633V67.7H61.945v2.59H50.633v9.827H64.269v2.781H47.281V55.926h16.34Z" style="fill:#fff"/><path d="M87.731,82.894,81.6,73.028H75.961v9.866H72.572V55.926h8.874a11.5,11.5,0,0,1,4.781.972,7.747,7.747,0,0,1,3.408,2.933,8.67,8.67,0,0,1,1.258,4.78,7.651,7.651,0,0,1-1.658,5.142,8.88,8.88,0,0,1-4.4,2.742l6.78,10.4Zm-6.4-12.455a6.466,6.466,0,0,0,4.361-1.486,5.4,5.4,0,0,0,1.733-4.342,5.516,5.516,0,0,0-1.79-4.476,6.634,6.634,0,0,0-4.418-1.5h-5.3V70.439Z" style="fill:#fff"/><path d="M116.374,58.783H107.88V82.894h-3.39V58.783H95.958V55.926h20.416Z" style="fill:#fff"/><path d="M129.019,80.3h3.2v2.59h-9.751V80.3h3.2V58.441h-3.2V55.926h9.751v2.515h-3.2Z" style="fill:#fff"/><path d="M157.929,58.707H144.94v9.217h11.5v2.743h-11.5V82.894h-3.389V55.926h16.378Z" style="fill:#fff"/><path d="M171.07,80.3h3.2v2.59h-9.751V80.3h3.2V58.441h-3.2V55.926h9.751v2.515h-3.2Z" style="fill:#fff"/><path d="M199.941,58.631H186.953V67.7h11.312v2.59H186.953v9.827h13.635v2.781H183.6V55.926h16.341Z" style="fill:#fff"/><path d="M231.478,69.372q0,6.59-3.676,10.055t-10.226,3.467h-8.685V55.926H217.5q6.7,0,10.34,3.333T231.478,69.372ZM212.244,58.707V80.075h4.989q5.256,0,8.017-2.628t2.762-8.075q0-10.665-10.741-10.665Z" style="fill:#fff"/><path d="M17.319,135.013l1.125-1.4a7.191,7.191,0,0,0,2.225,1.224,8.375,8.375,0,0,0,2.6.375,4.721,4.721,0,0,0,2.912-.836,2.867,2.867,0,0,0,1.112-2.438,2.97,2.97,0,0,0-.524-1.825,3.7,3.7,0,0,0-1.451-1.125,15.307,15.307,0,0,0-2.45-.825,8.808,8.808,0,0,1-3.7-1.763,3.99,3.99,0,0,1-1.225-3.112,4.1,4.1,0,0,1,1.663-3.475,6.851,6.851,0,0,1,4.237-1.25,9.517,9.517,0,0,1,2.938.425,8.542,8.542,0,0,1,2.437,1.25l-1,1.45a8.666,8.666,0,0,0-2.087-1,7.616,7.616,0,0,0-2.288-.325,4.638,4.638,0,0,0-2.7.712,2.632,2.632,0,0,0-.088,4.1,9.382,9.382,0,0,0,3.062,1.238,9.954,9.954,0,0,1,4.05,1.9,4.457,4.457,0,0,1,1.375,3.55,4.825,4.825,0,0,1-.837,2.875,5.1,5.1,0,0,1-2.263,1.763,8.354,8.354,0,0,1-3.2.586A8.919,8.919,0,0,1,17.319,135.013Z" style="fill:#fff"/><path d="M31.594,133.189a3.558,3.558,0,0,1,1.787-3.437,11.733,11.733,0,0,1,5.388-.963q.874,0,1.325.025v-.726a2.724,2.724,0,0,0-.775-2.125,3.466,3.466,0,0,0-2.375-.7,7.355,7.355,0,0,0-3.825,1.075l-.75-1.424a8.792,8.792,0,0,1,4.7-1.326,5.315,5.315,0,0,1,3.912,1.25,5.2,5.2,0,0,1,1.238,3.8v5.2a23.522,23.522,0,0,0,.175,2.826h-1.95a11.663,11.663,0,0,1-.175-1.725h-.075a4.562,4.562,0,0,1-1.762,1.55,6.205,6.205,0,0,1-2.738.524,4.347,4.347,0,0,1-2.975-.987A3.573,3.573,0,0,1,31.594,133.189Zm8.5-1.226v-1.649l-1.125-.025a14.245,14.245,0,0,0-2.988.25,3.047,3.047,0,0,0-1.649.849,2.423,2.423,0,0,0-.538,1.676,2.158,2.158,0,0,0,.65,1.688,2.589,2.589,0,0,0,1.8.586,4.032,4.032,0,0,0,2.075-.512,3.581,3.581,0,0,0,1.325-1.287A3.1,3.1,0,0,0,40.094,131.963Z" style="fill:#fff"/><path d="M48.494,118.963v17.7H46.369v-17.7Z" style="fill:#fff"/><path d="M63.494,131.064H54.043a4.915,4.915,0,0,0,1.176,3.1,3.856,3.856,0,0,0,3,1.15A6.357,6.357,0,0,0,60.281,135a7.9,7.9,0,0,0,1.838-.938l.949,1.375a8.383,8.383,0,0,1-2.287,1.175,8.559,8.559,0,0,1-2.687.4,5.777,5.777,0,0,1-4.563-1.849,7.158,7.158,0,0,1-1.637-4.925,8.134,8.134,0,0,1,.7-3.476,5.358,5.358,0,0,1,2.037-2.337,5.935,5.935,0,0,1,3.213-.838,5.146,5.146,0,0,1,4.237,1.8,7.343,7.343,0,0,1,1.462,4.776A6.02,6.02,0,0,1,63.494,131.064Zm-2.025-1.65a4.945,4.945,0,0,0-.975-3.05,3.234,3.234,0,0,0-2.676-1.151,3.362,3.362,0,0,0-2.75,1.188,4.919,4.919,0,0,0-1.049,3.013Z" style="fill:#fff"/><path d="M74.618,124.939l-.95,1.324a5.5,5.5,0,0,0-3.2-1.024,3.286,3.286,0,0,0-1.875.462,1.5,1.5,0,0,0-.675,1.312,1.769,1.769,0,0,0,.275,1.026,2.051,2.051,0,0,0,.925.674,12.905,12.905,0,0,0,1.9.576,6.188,6.188,0,0,1,2.888,1.387,3.184,3.184,0,0,1,.937,2.388,3.415,3.415,0,0,1-1.4,2.912,5.634,5.634,0,0,1-3.45,1.037,7.147,7.147,0,0,1-4.6-1.474l.975-1.326a6.916,6.916,0,0,0,1.675.851,5.9,5.9,0,0,0,1.875.274,3.3,3.3,0,0,0,2.013-.549,1.849,1.849,0,0,0,.737-1.576,1.925,1.925,0,0,0-.275-1.086,2.014,2.014,0,0,0-.913-.688,13.591,13.591,0,0,0-1.912-.6,6.511,6.511,0,0,1-2.875-1.349,3.387,3.387,0,0,1,.363-4.938,5.363,5.363,0,0,1,3.337-.963A6.778,6.778,0,0,1,74.618,124.939Z" style="fill:#fff"/><path d="M98.268,120.689l-1.3,1.425a6.559,6.559,0,0,0-2.113-1.263,7.224,7.224,0,0,0-2.512-.437,5.948,5.948,0,0,0-4.9,2.025,9.458,9.458,0,0,0,0,10.675,5.893,5.893,0,0,0,4.85,2.024,6.868,6.868,0,0,0,2.7-.537,7.116,7.116,0,0,0,2.225-1.463l1.349,1.476a8.263,8.263,0,0,1-2.787,1.812,9.4,9.4,0,0,1-3.562.662,9.064,9.064,0,0,1-4.738-1.174,7.549,7.549,0,0,1-2.975-3.276,12.125,12.125,0,0,1,0-9.7,7.454,7.454,0,0,1,2.988-3.263,9.254,9.254,0,0,1,4.775-1.163,9.677,9.677,0,0,1,3.325.563A7.74,7.74,0,0,1,98.268,120.689Z" style="fill:#fff"/><path d="M103.417,118.963v17.7h-2.125v-17.7Z" style="fill:#fff"/><path d="M119.592,130.263a7.8,7.8,0,0,1-.762,3.513,5.606,5.606,0,0,1-2.2,2.388,6.645,6.645,0,0,1-3.438.849,6.569,6.569,0,0,1-3.424-.862,5.583,5.583,0,0,1-2.2-2.388,7.823,7.823,0,0,1-.75-3.5,6.881,6.881,0,0,1,1.675-4.862,6.084,6.084,0,0,1,4.7-1.813,6.772,6.772,0,0,1,3.463.838,5.491,5.491,0,0,1,2.187,2.337A7.733,7.733,0,0,1,119.592,130.263Zm-10.574,0a5.961,5.961,0,0,0,1.037,3.663,3.664,3.664,0,0,0,3.137,1.388,3.728,3.728,0,0,0,3.175-1.388,5.912,5.912,0,0,0,1.05-3.663,5.756,5.756,0,0,0-1.05-3.625,3.774,3.774,0,0,0-3.175-1.349,3.7,3.7,0,0,0-3.15,1.349A5.858,5.858,0,0,0,109.018,130.263Z" style="fill:#fff"/><path d="M122.817,131.739v-7.8h2.15v7.5a4.722,4.722,0,0,0,.763,2.813,2.71,2.71,0,0,0,2.362,1.062,3.4,3.4,0,0,0,2.8-1.312,5.058,5.058,0,0,0,1.05-3.263v-6.8h2.125v9.9a23.522,23.522,0,0,0,.175,2.826h-2.025a18.631,18.631,0,0,1-.175-2.026h-.05a4.7,4.7,0,0,1-4.4,2.375,4.355,4.355,0,0,1-3.575-1.462A5.817,5.817,0,0,1,122.817,131.739Z" style="fill:#fff"/><path d="M149.792,136.664h-1.975a12.434,12.434,0,0,1-.175-1.9h-.05a4.986,4.986,0,0,1-4.55,2.25,4.926,4.926,0,0,1-4.137-1.849,7.64,7.64,0,0,1-1.438-4.826,8.079,8.079,0,0,1,.713-3.437,5.766,5.766,0,0,1,2.037-2.425,6,6,0,0,1,7.275.763v-6.276h2.125v14.875A23.522,23.522,0,0,0,149.792,136.664Zm-2.3-5.475v-4a4.955,4.955,0,0,0-1.687-1.413,4.837,4.837,0,0,0-2.163-.462,3.459,3.459,0,0,0-2.912,1.4,6.838,6.838,0,0,0-.038,7.263,3.361,3.361,0,0,0,2.825,1.338,3.768,3.768,0,0,0,2.888-1.163A4.163,4.163,0,0,0,147.492,131.189Z" style="fill:#fff"/><path d="M32.569,151.689l-1.3,1.425a6.57,6.57,0,0,0-2.113-1.263,7.229,7.229,0,0,0-2.512-.437,5.948,5.948,0,0,0-4.9,2.025,9.458,9.458,0,0,0,0,10.675,5.893,5.893,0,0,0,4.85,2.024,6.867,6.867,0,0,0,2.7-.537,7.109,7.109,0,0,0,2.226-1.463l1.349,1.476a8.273,8.273,0,0,1-2.787,1.812,9.4,9.4,0,0,1-3.562.662,9.062,9.062,0,0,1-4.738-1.174,7.549,7.549,0,0,1-2.975-3.276,12.114,12.114,0,0,1,0-9.7,7.457,7.457,0,0,1,2.987-3.263,9.259,9.259,0,0,1,4.775-1.163,9.683,9.683,0,0,1,3.326.563A7.736,7.736,0,0,1,32.569,151.689Z" style="fill:#fff"/><path d="M46.8,161.263a7.8,7.8,0,0,1-.762,3.513,5.606,5.606,0,0,1-2.2,2.388,6.645,6.645,0,0,1-3.438.849,6.575,6.575,0,0,1-3.425-.862,5.581,5.581,0,0,1-2.2-2.388,7.823,7.823,0,0,1-.75-3.5A6.881,6.881,0,0,1,35.7,156.4a6.083,6.083,0,0,1,4.7-1.813,6.766,6.766,0,0,1,3.462.838,5.487,5.487,0,0,1,2.188,2.337A7.733,7.733,0,0,1,46.8,161.263Zm-10.575,0a5.967,5.967,0,0,0,1.037,3.663,3.667,3.667,0,0,0,3.138,1.388,3.728,3.728,0,0,0,3.175-1.388,5.912,5.912,0,0,0,1.05-3.663,5.756,5.756,0,0,0-1.05-3.625,3.774,3.774,0,0,0-3.175-1.349,3.7,3.7,0,0,0-3.15,1.349A5.858,5.858,0,0,0,36.22,161.263Z" style="fill:#fff"/><path d="M50.2,157.789a23.909,23.909,0,0,0-.175-2.85h2.025a13.628,13.628,0,0,1,.175,1.8h.05a4.5,4.5,0,0,1,1.75-1.563,5.714,5.714,0,0,1,2.675-.588,4.385,4.385,0,0,1,3.562,1.388,5.208,5.208,0,0,1,1.163,3.463v8.225H59.3v-7.8a4.037,4.037,0,0,0-.75-2.513,2.852,2.852,0,0,0-2.425-.987,3.558,3.558,0,0,0-2.763,1.138,4.083,4.083,0,0,0-1.037,2.862v7.3H50.2Z" style="fill:#fff"/><path d="M73.245,155.939l-.95,1.324a5.5,5.5,0,0,0-3.2-1.024,3.286,3.286,0,0,0-1.875.462,1.5,1.5,0,0,0-.675,1.312,1.769,1.769,0,0,0,.275,1.026,2.051,2.051,0,0,0,.925.674,12.905,12.905,0,0,0,1.9.576,6.188,6.188,0,0,1,2.888,1.387,3.184,3.184,0,0,1,.937,2.388,3.415,3.415,0,0,1-1.4,2.912,5.634,5.634,0,0,1-3.45,1.037,7.147,7.147,0,0,1-4.6-1.474L65,165.213a6.916,6.916,0,0,0,1.675.851,5.9,5.9,0,0,0,1.875.274,3.3,3.3,0,0,0,2.013-.549,1.849,1.849,0,0,0,.737-1.576,1.925,1.925,0,0,0-.275-1.086,2.014,2.014,0,0,0-.913-.688,13.591,13.591,0,0,0-1.912-.6,6.511,6.511,0,0,1-2.875-1.349,3.387,3.387,0,0,1,.363-4.938,5.363,5.363,0,0,1,3.337-.963A6.778,6.778,0,0,1,73.245,155.939Z" style="fill:#fff"/><path d="M76.42,162.739v-7.8h2.15v7.5a4.722,4.722,0,0,0,.763,2.813,2.709,2.709,0,0,0,2.362,1.062A3.4,3.4,0,0,0,84.5,165a5.058,5.058,0,0,0,1.05-3.263v-6.8H87.67v9.9a23.522,23.522,0,0,0,.175,2.826H85.82a18.139,18.139,0,0,1-.175-2.026H85.6a4.705,4.705,0,0,1-4.4,2.375,4.354,4.354,0,0,1-3.575-1.462A5.817,5.817,0,0,1,76.42,162.739Z" style="fill:#fff"/><path d="M94.12,149.963v17.7H92v-17.7Z" style="fill:#fff"/><path d="M101.02,154.939H104.4v1.625H101.02v7.675q0,2.049,1.875,2.05a4.3,4.3,0,0,0,1.25-.175l.325,1.575a5.529,5.529,0,0,1-1.975.324,3.62,3.62,0,0,1-2.638-.937,3.544,3.544,0,0,1-.962-2.662v-7.85h-2.25v-1.375l2.225-.25v-3.125l2.15-.75Z" style="fill:#fff"/><path d="M106.244,164.189a3.558,3.558,0,0,1,1.788-3.437,11.728,11.728,0,0,1,5.387-.963q.874,0,1.325.025v-.726a2.721,2.721,0,0,0-.775-2.125,3.463,3.463,0,0,0-2.375-.7,7.349,7.349,0,0,0-3.824,1.075l-.75-1.424a8.791,8.791,0,0,1,4.7-1.326,5.318,5.318,0,0,1,3.913,1.25,5.2,5.2,0,0,1,1.237,3.8v5.2a23.73,23.73,0,0,0,.175,2.826h-1.95a11.8,11.8,0,0,1-.175-1.725h-.075a4.562,4.562,0,0,1-1.762,1.55,6.205,6.205,0,0,1-2.738.524,4.348,4.348,0,0,1-2.975-.987A3.573,3.573,0,0,1,106.244,164.189Zm8.5-1.226v-1.649l-1.125-.025a14.228,14.228,0,0,0-2.987.25,3.05,3.05,0,0,0-1.65.849,2.423,2.423,0,0,0-.538,1.676,2.161,2.161,0,0,0,.65,1.688,2.59,2.59,0,0,0,1.8.586,4.028,4.028,0,0,0,2.074-.512,3.574,3.574,0,0,0,1.325-1.287A3.1,3.1,0,0,0,114.744,162.963Z" style="fill:#fff"/><path d="M120.994,157.789a23.7,23.7,0,0,0-.175-2.85h2.025a13.628,13.628,0,0,1,.175,1.8h.05a4.5,4.5,0,0,1,1.75-1.563,5.714,5.714,0,0,1,2.675-.588,4.387,4.387,0,0,1,3.563,1.388,5.208,5.208,0,0,1,1.162,3.463v8.225h-2.125v-7.8a4.037,4.037,0,0,0-.75-2.513,2.851,2.851,0,0,0-2.425-.987,3.554,3.554,0,0,0-2.762,1.138,4.079,4.079,0,0,0-1.038,2.862v7.3h-2.125Z" style="fill:#fff"/><path d="M138.794,154.939h3.375v1.625h-3.375v7.675q0,2.049,1.875,2.05a4.291,4.291,0,0,0,1.25-.175l.326,1.575a5.529,5.529,0,0,1-1.975.324,3.618,3.618,0,0,1-2.638-.937,3.545,3.545,0,0,1-.963-2.662v-7.85h-2.25v-1.375l2.226-.25v-3.125l2.149-.75Z" style="fill:#fff"/><g id="g3003"><path id="path3005" d="M260.557,58.506a6.71,6.71,0,0,1,4.857-2.084,6.78,6.78,0,0,1,5.905,3.5,8.166,8.166,0,0,1,3.338-.707,8.328,8.328,0,0,1,0,16.651,8.223,8.223,0,0,1-1.641-.165,6.036,6.036,0,0,1-7.889,2.481,6.885,6.885,0,0,1-12.8-.312,6.276,6.276,0,0,1-1.311.137,6.47,6.47,0,0,1-3.2-12.049A7.436,7.436,0,0,1,260.552,58.5" style="fill:#00a1e0"/></g></svg>