<svg id="Layer_1" data-name="Layer 1" xmlns="http://www.w3.org/2000/svg" width="300" height="185" viewBox="0 0 300 185"><title>SF_Crt</title><rect width="300" height="102.041" style="fill:#003c4d"/><rect y="101.733" width="300" height="83.267" style="fill:#00a1e0"/><path d="M15.324,43.913l2.4-3.161a10.574,10.574,0,0,0,3.218,1.637,12.635,12.635,0,0,0,3.638.495,6.529,6.529,0,0,0,3.79-.99A3.375,3.375,0,0,0,29.8,38.923a3.579,3.579,0,0,0-.686-2.3,4.832,4.832,0,0,0-1.961-1.39,29.663,29.663,0,0,0-3.523-1.143,12.147,12.147,0,0,1-5.542-2.8,6.639,6.639,0,0,1-1.886-4.97A6.76,6.76,0,0,1,17.458,22.2a7.724,7.724,0,0,1,3.408-2.59,12.783,12.783,0,0,1,4.857-.876A14.729,14.729,0,0,1,34.445,21.4L32.2,24.64a13.178,13.178,0,0,0-3.124-1.448,11.231,11.231,0,0,0-3.237-.457,6.249,6.249,0,0,0-3.409.819,2.727,2.727,0,0,0-1.276,2.457,2.839,2.839,0,0,0,1.295,2.533,15.515,15.515,0,0,0,4.3,1.657,14.066,14.066,0,0,1,6.056,2.952,7.2,7.2,0,0,1,2.095,5.58,7.653,7.653,0,0,1-1.371,4.627,8.106,8.106,0,0,1-3.714,2.8,14.182,14.182,0,0,1-5.2.914,15.354,15.354,0,0,1-5.066-.819A13.722,13.722,0,0,1,15.324,43.913Z" style="fill:#fff"/><path d="M58.137,40.523H47.167L45,46.351H39.778l10.36-26.968H55.28L65.6,46.351H60.193ZM48.5,36.714h8.342L52.69,24.487Z" style="fill:#fff"/><path d="M77.409,42.2H89.064v4.152H72.42V19.383h4.989Z" style="fill:#fff"/><path d="M113.137,23.383H101.1v7.2h10.284v3.847H101.1v7.846h12.683v4.076H96.111V19.383h17.026Z" style="fill:#fff"/><path d="M119.535,43.913l2.4-3.161a10.574,10.574,0,0,0,3.218,1.637,12.635,12.635,0,0,0,3.638.495,6.529,6.529,0,0,0,3.79-.99,3.375,3.375,0,0,0,1.428-2.971,3.579,3.579,0,0,0-.686-2.3,4.832,4.832,0,0,0-1.961-1.39,29.663,29.663,0,0,0-3.523-1.143,12.147,12.147,0,0,1-5.542-2.8,6.639,6.639,0,0,1-1.886-4.97,6.766,6.766,0,0,1,1.257-4.114,7.732,7.732,0,0,1,3.409-2.59,12.783,12.783,0,0,1,4.857-.876,14.729,14.729,0,0,1,8.722,2.666l-2.247,3.238a13.178,13.178,0,0,0-3.124-1.448,11.231,11.231,0,0,0-3.237-.457,6.247,6.247,0,0,0-3.409.819,2.727,2.727,0,0,0-1.276,2.457,2.839,2.839,0,0,0,1.3,2.533,15.515,15.515,0,0,0,4.3,1.657,14.066,14.066,0,0,1,6.056,2.952,7.2,7.2,0,0,1,2.095,5.58,7.653,7.653,0,0,1-1.371,4.627,8.106,8.106,0,0,1-3.714,2.8,14.182,14.182,0,0,1-5.2.914,15.354,15.354,0,0,1-5.066-.819A13.71,13.71,0,0,1,119.535,43.913Z" style="fill:#fff"/><path d="M164.367,23.459H152.33v7.5H162.8v4.075H152.33V46.351h-4.99V19.383h17.027Z" style="fill:#fff"/><path d="M169.737,32.867a16.2,16.2,0,0,1,1.638-7.446,11.756,11.756,0,0,1,4.742-4.99,16.421,16.421,0,0,1,14.836,0,11.726,11.726,0,0,1,4.76,4.99,16.2,16.2,0,0,1,1.638,7.446,16.2,16.2,0,0,1-1.638,7.447,11.713,11.713,0,0,1-4.76,4.989,16.421,16.421,0,0,1-14.836,0,11.742,11.742,0,0,1-4.742-4.989A16.2,16.2,0,0,1,169.737,32.867Zm22.511,0a11.066,11.066,0,0,0-2.191-7.237q-2.19-2.665-6.532-2.666-4.3,0-6.494,2.666a11.066,11.066,0,0,0-2.19,7.237,11.064,11.064,0,0,0,2.19,7.237q2.19,2.667,6.494,2.666,4.342,0,6.532-2.666A11.064,11.064,0,0,0,192.248,32.867Z" style="fill:#fff"/><path d="M220.776,46.351l-5.332-9.142h-4.57v9.142h-4.991V19.383h9.447a11.128,11.128,0,0,1,7.351,2.343,8.2,8.2,0,0,1,2.819,6.685,7.748,7.748,0,0,1-5.448,7.808l6.438,10.132ZM215.063,33.4a5.752,5.752,0,0,0,3.809-1.238,4.606,4.606,0,0,0,1.485-3.752,4.6,4.6,0,0,0-1.524-3.79,5.9,5.9,0,0,0-3.846-1.238h-4.152V33.4Z" style="fill:#fff"/><path d="M255.742,22.05l-2.819,3.2a9.6,9.6,0,0,0-2.97-1.714,10.215,10.215,0,0,0-3.5-.609q-4.419,0-6.513,2.685a11.426,11.426,0,0,0-2.095,7.218,11.294,11.294,0,0,0,2.095,7.142q2.094,2.685,6.4,2.685a9.3,9.3,0,0,0,3.734-.743,10.359,10.359,0,0,0,3.009-1.961l3.008,3.275a13.02,13.02,0,0,1-4.285,2.781,14.539,14.539,0,0,1-5.618,1.066,14.148,14.148,0,0,1-7.35-1.809,11.608,11.608,0,0,1-4.61-5.028,16.766,16.766,0,0,1-1.561-7.408,16.649,16.649,0,0,1,1.581-7.466,11.486,11.486,0,0,1,4.646-4.97,14.5,14.5,0,0,1,7.37-1.771,15.468,15.468,0,0,1,5.333.914A11.451,11.451,0,0,1,255.742,22.05Z" style="fill:#fff"/><path d="M280.728,23.383H268.692v7.2h10.284v3.847H268.692v7.846h12.683v4.076H263.7V19.383h17.026Z" style="fill:#fff"/><path d="M38.711,58.555,36.73,60.726A9.967,9.967,0,0,0,33.512,58.8a11.018,11.018,0,0,0-3.828-.666q-4.952,0-7.466,3.085A12.5,12.5,0,0,0,19.7,69.372a12.442,12.442,0,0,0,2.513,8.113q2.515,3.086,7.39,3.085a10.478,10.478,0,0,0,4.113-.819,10.822,10.822,0,0,0,3.39-2.228l2.057,2.247a12.6,12.6,0,0,1-4.247,2.762,14.355,14.355,0,0,1-5.427,1.009,13.813,13.813,0,0,1-7.219-1.79,11.5,11.5,0,0,1-4.532-4.99,18.463,18.463,0,0,1,0-14.778,11.36,11.36,0,0,1,4.551-4.971,14.1,14.1,0,0,1,7.276-1.771,14.719,14.719,0,0,1,5.065.857A11.8,11.8,0,0,1,38.711,58.555Z" style="fill:#fff"/><path d="M63.621,58.631H50.633V67.7H61.945v2.59H50.633v9.827H64.269v2.781H47.281V55.926h16.34Z" style="fill:#fff"/><path d="M87.731,82.894,81.6,73.028H75.961v9.866H72.572V55.926h8.874a11.5,11.5,0,0,1,4.781.972,7.747,7.747,0,0,1,3.408,2.933,8.67,8.67,0,0,1,1.258,4.78,7.651,7.651,0,0,1-1.658,5.142,8.88,8.88,0,0,1-4.4,2.742l6.78,10.4Zm-6.4-12.455a6.466,6.466,0,0,0,4.361-1.486,5.4,5.4,0,0,0,1.733-4.342,5.516,5.516,0,0,0-1.79-4.476,6.634,6.634,0,0,0-4.418-1.5h-5.3V70.439Z" style="fill:#fff"/><path d="M116.374,58.783H107.88V82.894h-3.39V58.783H95.958V55.926h20.416Z" style="fill:#fff"/><path d="M129.019,80.3h3.2v2.59h-9.751V80.3h3.2V58.441h-3.2V55.926h9.751v2.515h-3.2Z" style="fill:#fff"/><path d="M157.929,58.707H144.94v9.217h11.5v2.743h-11.5V82.894h-3.389V55.926h16.378Z" style="fill:#fff"/><path d="M171.07,80.3h3.2v2.59h-9.751V80.3h3.2V58.441h-3.2V55.926h9.751v2.515h-3.2Z" style="fill:#fff"/><path d="M199.941,58.631H186.953V67.7h11.312v2.59H186.953v9.827h13.635v2.781H183.6V55.926h16.341Z" style="fill:#fff"/><path d="M231.478,69.372q0,6.59-3.676,10.055t-10.226,3.467h-8.685V55.926H217.5q6.7,0,10.34,3.333T231.478,69.372ZM212.244,58.707V80.075h4.989q5.256,0,8.017-2.628t2.762-8.075q0-10.665-10.741-10.665Z" style="fill:#fff"/><path d="M28.944,148.452h-8.3l-1.651,4.3H16.669l7-17.7h2.325l6.95,17.7h-2.4Zm-7.674-1.725h7.049l-3.525-9.575Z" style="fill:#fff"/><path d="M46.494,152.752H44.519a12.286,12.286,0,0,1-.175-1.9h-.05a4.986,4.986,0,0,1-4.55,2.25,4.929,4.929,0,0,1-4.138-1.85,7.643,7.643,0,0,1-1.437-4.825,8.083,8.083,0,0,1,.712-3.438,5.759,5.759,0,0,1,2.038-2.424,6,6,0,0,1,7.275.762v-6.275h2.125v14.875A23.506,23.506,0,0,0,46.494,152.752Zm-2.3-5.475v-4a4.969,4.969,0,0,0-1.688-1.413,4.846,4.846,0,0,0-2.162-.462,3.456,3.456,0,0,0-2.912,1.4,6.838,6.838,0,0,0-.038,7.263,3.363,3.363,0,0,0,2.825,1.337,3.763,3.763,0,0,0,2.887-1.163A4.157,4.157,0,0,0,44.194,147.277Z" style="fill:#fff"/><path d="M50.594,142.877a23.909,23.909,0,0,0-.175-2.85h2.025a13.82,13.82,0,0,1,.175,1.8h.05a4.531,4.531,0,0,1,1.687-1.55,5.121,5.121,0,0,1,2.513-.6,4.674,4.674,0,0,1,2.65.687,3.98,3.98,0,0,1,1.5,1.888h.05a4.905,4.905,0,0,1,1.775-1.888,5.083,5.083,0,0,1,2.7-.687,4.7,4.7,0,0,1,2.625.687,4.163,4.163,0,0,1,1.55,1.8,5.887,5.887,0,0,1,.5,2.438v8.15H68.094V144.9a4.158,4.158,0,0,0-.713-2.475,2.615,2.615,0,0,0-2.287-1,3.266,3.266,0,0,0-1.975.6,3.742,3.742,0,0,0-1.25,1.6,5.431,5.431,0,0,0-.425,2.15v6.975H59.319v-7.9a4.013,4.013,0,0,0-.725-2.438,2.636,2.636,0,0,0-2.275-.987,3.25,3.25,0,0,0-2.625,1.163,4.3,4.3,0,0,0-.975,2.862v7.3H50.594Z" style="fill:#fff"/><path d="M74.044,135.677q0-1.35,1.4-1.35a1.2,1.2,0,0,1,1.375,1.35,1.2,1.2,0,0,1-1.375,1.3,1.377,1.377,0,0,1-1.075-.363A1.346,1.346,0,0,1,74.044,135.677Zm2.45,17.075H74.369V140.027h2.125Z" style="fill:#fff"/><path d="M80.793,142.877a23.9,23.9,0,0,0-.174-2.85h2.025a13.672,13.672,0,0,1,.174,1.8h.051a4.488,4.488,0,0,1,1.75-1.562,5.7,5.7,0,0,1,2.674-.588,4.386,4.386,0,0,1,3.563,1.388,5.206,5.206,0,0,1,1.163,3.462v8.225H89.894v-7.8a4.036,4.036,0,0,0-.75-2.512,2.85,2.85,0,0,0-2.425-.988,3.555,3.555,0,0,0-2.763,1.138,4.083,4.083,0,0,0-1.038,2.862v7.3H80.793Z" style="fill:#fff"/><path d="M95.844,135.677q0-1.35,1.4-1.35a1.2,1.2,0,0,1,1.375,1.35,1.205,1.205,0,0,1-1.375,1.3,1.381,1.381,0,0,1-1.076-.363A1.35,1.35,0,0,1,95.844,135.677Zm2.449,17.075H96.168V140.027h2.125Z" style="fill:#fff"/><path d="M110.293,141.027l-.95,1.325a5.5,5.5,0,0,0-3.2-1.025,3.289,3.289,0,0,0-1.875.462,1.5,1.5,0,0,0-.676,1.313,1.774,1.774,0,0,0,.275,1.025,2.057,2.057,0,0,0,.925.675,12.965,12.965,0,0,0,1.9.575,6.179,6.179,0,0,1,2.888,1.388,3.181,3.181,0,0,1,.938,2.387,3.416,3.416,0,0,1-1.4,2.913,5.636,5.636,0,0,1-3.45,1.037,7.15,7.15,0,0,1-4.6-1.475l.975-1.325a6.875,6.875,0,0,0,1.675.85,5.907,5.907,0,0,0,1.875.275,3.3,3.3,0,0,0,2.013-.55,1.847,1.847,0,0,0,.737-1.575,1.928,1.928,0,0,0-.275-1.087,2.017,2.017,0,0,0-.912-.688,13.818,13.818,0,0,0-1.913-.6,6.506,6.506,0,0,1-2.875-1.35,3.386,3.386,0,0,1,.363-4.937,5.358,5.358,0,0,1,3.337-.963A6.776,6.776,0,0,1,110.293,141.027Z" style="fill:#fff"/><path d="M116.243,140.027h3.375v1.625h-3.375v7.675q0,2.049,1.875,2.05a4.3,4.3,0,0,0,1.25-.175l.325,1.575a5.528,5.528,0,0,1-1.975.325,3.618,3.618,0,0,1-2.637-.938,3.545,3.545,0,0,1-.963-2.662v-7.85h-2.25v-1.375l2.225-.25V136.9l2.15-.75Z" style="fill:#fff"/><path d="M122.568,142.877a23.909,23.909,0,0,0-.175-2.85h2.025a20.02,20.02,0,0,1,.175,2.025h.05a4.02,4.02,0,0,1,4-2.375,6.133,6.133,0,0,1,.725.075l-.125,1.825a4.369,4.369,0,0,0-.775-.05,3.37,3.37,0,0,0-2.8,1.225,4.942,4.942,0,0,0-.975,3.175v6.825h-2.125Z" style="fill:#fff"/><path d="M130.068,149.277a3.56,3.56,0,0,1,1.787-3.437,11.733,11.733,0,0,1,5.388-.963q.875,0,1.325.025v-.725a2.721,2.721,0,0,0-.775-2.125,3.461,3.461,0,0,0-2.375-.7,7.346,7.346,0,0,0-3.825,1.075l-.75-1.425a8.791,8.791,0,0,1,4.7-1.325,5.32,5.32,0,0,1,3.913,1.25,5.2,5.2,0,0,1,1.237,3.8v5.2a23.506,23.506,0,0,0,.175,2.825h-1.95a11.651,11.651,0,0,1-.175-1.725h-.075a4.554,4.554,0,0,1-1.762,1.55,6.19,6.19,0,0,1-2.738.525,4.344,4.344,0,0,1-2.975-.988A3.572,3.572,0,0,1,130.068,149.277Zm8.5-1.225V146.4l-1.125-.025a14.228,14.228,0,0,0-2.987.25,3.044,3.044,0,0,0-1.65.85,2.421,2.421,0,0,0-.538,1.675,2.156,2.156,0,0,0,.65,1.688,2.584,2.584,0,0,0,1.8.587,4.032,4.032,0,0,0,2.075-.513,3.574,3.574,0,0,0,1.325-1.287A3.1,3.1,0,0,0,138.568,148.052Z" style="fill:#fff"/><path d="M147.268,140.027h3.375v1.625h-3.375v7.675q0,2.049,1.875,2.05a4.3,4.3,0,0,0,1.25-.175l.325,1.575a5.528,5.528,0,0,1-1.975.325,3.62,3.62,0,0,1-2.638-.938,3.548,3.548,0,0,1-.962-2.662v-7.85h-2.25v-1.375l2.225-.25V136.9l2.15-.75Z" style="fill:#fff"/><path d="M165.144,146.352a7.8,7.8,0,0,1-.763,3.512,5.589,5.589,0,0,1-2.2,2.388,6.642,6.642,0,0,1-3.437.85,6.564,6.564,0,0,1-3.425-.863,5.584,5.584,0,0,1-2.2-2.387,7.829,7.829,0,0,1-.75-3.5,6.886,6.886,0,0,1,1.674-4.863,6.084,6.084,0,0,1,4.7-1.812,6.765,6.765,0,0,1,3.463.838,5.485,5.485,0,0,1,2.187,2.337A7.733,7.733,0,0,1,165.144,146.352Zm-10.575,0a5.971,5.971,0,0,0,1.037,3.663,3.664,3.664,0,0,0,3.138,1.387,3.727,3.727,0,0,0,3.174-1.387,5.91,5.91,0,0,0,1.05-3.663,5.746,5.746,0,0,0-1.05-3.625,3.771,3.771,0,0,0-3.174-1.35,3.7,3.7,0,0,0-3.151,1.35A5.854,5.854,0,0,0,154.569,146.352Z" style="fill:#fff"/><path d="M168.543,142.877a23.7,23.7,0,0,0-.175-2.85h2.025a20.02,20.02,0,0,1,.175,2.025h.05a4.02,4.02,0,0,1,4-2.375,6.133,6.133,0,0,1,.725.075l-.125,1.825a4.369,4.369,0,0,0-.775-.05,3.37,3.37,0,0,0-2.8,1.225,4.942,4.942,0,0,0-.975,3.175v6.825h-2.125Z" style="fill:#fff"/><g id="g3003"><path id="path3005" d="M260.557,58.506a6.71,6.71,0,0,1,4.857-2.084,6.78,6.78,0,0,1,5.905,3.5,8.166,8.166,0,0,1,3.338-.707,8.328,8.328,0,0,1,0,16.651,8.223,8.223,0,0,1-1.641-.165,6.036,6.036,0,0,1-7.889,2.481,6.885,6.885,0,0,1-12.8-.312,6.276,6.276,0,0,1-1.311.137,6.47,6.47,0,0,1-3.2-12.049A7.436,7.436,0,0,1,260.552,58.5" style="fill:#00a1e0"/></g></svg>