<svg id="Layer_1" data-name="Layer 1" xmlns="http://www.w3.org/2000/svg" width="300" height="185" viewBox="0 0 300 185"><title>SF_Crt</title><rect width="300" height="102.041" style="fill:#003c4d"/><rect y="101.733" width="300" height="83.267" style="fill:#00a1e0"/><path d="M15.324,43.913l2.4-3.162a10.555,10.555,0,0,0,3.218,1.638,12.635,12.635,0,0,0,3.638.495,6.529,6.529,0,0,0,3.79-.99A3.376,3.376,0,0,0,29.8,38.923a3.582,3.582,0,0,0-.686-2.3,4.83,4.83,0,0,0-1.961-1.389,29.663,29.663,0,0,0-3.523-1.143,12.157,12.157,0,0,1-5.542-2.8,6.639,6.639,0,0,1-1.886-4.97A6.76,6.76,0,0,1,17.458,22.2a7.724,7.724,0,0,1,3.408-2.59,12.783,12.783,0,0,1,4.857-.877A14.73,14.73,0,0,1,34.445,21.4L32.2,24.64a13.178,13.178,0,0,0-3.124-1.448,11.231,11.231,0,0,0-3.237-.457,6.249,6.249,0,0,0-3.409.819,2.726,2.726,0,0,0-1.276,2.457,2.839,2.839,0,0,0,1.295,2.533,15.52,15.52,0,0,0,4.3,1.656,14.077,14.077,0,0,1,6.056,2.952A7.2,7.2,0,0,1,34.9,38.733a7.653,7.653,0,0,1-1.371,4.627,8.113,8.113,0,0,1-3.714,2.8,14.182,14.182,0,0,1-5.2.914,15.354,15.354,0,0,1-5.066-.819A13.742,13.742,0,0,1,15.324,43.913Z" style="fill:#fff"/><path d="M58.137,40.523H47.167L45,46.351H39.778l10.36-26.968H55.28L65.6,46.351H60.193ZM48.5,36.714h8.342L52.69,24.487Z" style="fill:#fff"/><path d="M77.409,42.2H89.064v4.153H72.42V19.383h4.989Z" style="fill:#fff"/><path d="M113.137,23.383H101.1v7.2h10.284v3.848H101.1v7.846h12.683v4.076H96.111V19.383h17.026Z" style="fill:#fff"/><path d="M119.535,43.913l2.4-3.162a10.555,10.555,0,0,0,3.218,1.638,12.635,12.635,0,0,0,3.638.495,6.529,6.529,0,0,0,3.79-.99,3.376,3.376,0,0,0,1.428-2.971,3.582,3.582,0,0,0-.686-2.3,4.83,4.83,0,0,0-1.961-1.389,29.663,29.663,0,0,0-3.523-1.143,12.157,12.157,0,0,1-5.542-2.8,6.639,6.639,0,0,1-1.886-4.97,6.766,6.766,0,0,1,1.257-4.114,7.732,7.732,0,0,1,3.409-2.59,12.783,12.783,0,0,1,4.857-.877,14.73,14.73,0,0,1,8.722,2.667l-2.247,3.238a13.178,13.178,0,0,0-3.124-1.448,11.231,11.231,0,0,0-3.237-.457,6.247,6.247,0,0,0-3.409.819,2.726,2.726,0,0,0-1.276,2.457,2.839,2.839,0,0,0,1.3,2.533,15.52,15.52,0,0,0,4.3,1.656,14.077,14.077,0,0,1,6.056,2.952,7.2,7.2,0,0,1,2.095,5.581,7.653,7.653,0,0,1-1.371,4.627,8.113,8.113,0,0,1-3.714,2.8,14.182,14.182,0,0,1-5.2.914,15.354,15.354,0,0,1-5.066-.819A13.731,13.731,0,0,1,119.535,43.913Z" style="fill:#fff"/><path d="M164.367,23.459H152.33v7.5H162.8v4.076H152.33V46.351h-4.99V19.383h17.027Z" style="fill:#fff"/><path d="M169.737,32.867a16.2,16.2,0,0,1,1.638-7.446,11.756,11.756,0,0,1,4.742-4.99,16.413,16.413,0,0,1,14.836,0,11.729,11.729,0,0,1,4.761,4.99,16.2,16.2,0,0,1,1.638,7.446,16.2,16.2,0,0,1-1.638,7.447,11.732,11.732,0,0,1-4.761,4.989,16.421,16.421,0,0,1-14.836,0,11.759,11.759,0,0,1-4.742-4.989A16.2,16.2,0,0,1,169.737,32.867Zm22.511,0a11.062,11.062,0,0,0-2.19-7.237q-2.19-2.665-6.533-2.666-4.3,0-6.494,2.666a11.062,11.062,0,0,0-2.189,7.237,11.065,11.065,0,0,0,2.189,7.237q2.19,2.667,6.494,2.666,4.344,0,6.533-2.666A11.066,11.066,0,0,0,192.248,32.867Z" style="fill:#fff"/><path d="M220.776,46.351l-5.332-9.142h-4.57v9.142h-4.99V19.383h9.446a11.124,11.124,0,0,1,7.352,2.343A8.2,8.2,0,0,1,225.5,28.41a7.748,7.748,0,0,1-5.447,7.809l6.437,10.132ZM215.063,33.4a5.751,5.751,0,0,0,3.809-1.239,4.606,4.606,0,0,0,1.485-3.752,4.6,4.6,0,0,0-1.523-3.79,5.91,5.91,0,0,0-3.847-1.237h-4.151V33.4Z" style="fill:#fff"/><path d="M255.742,22.05l-2.818,3.2a9.608,9.608,0,0,0-2.971-1.714,10.187,10.187,0,0,0-3.5-.609q-4.418,0-6.512,2.685a11.42,11.42,0,0,0-2.095,7.218,11.288,11.288,0,0,0,2.095,7.142q2.092,2.685,6.4,2.684a9.291,9.291,0,0,0,3.733-.742,10.314,10.314,0,0,0,3.009-1.962l3.009,3.276a13.03,13.03,0,0,1-4.285,2.781,14.539,14.539,0,0,1-5.618,1.066,14.149,14.149,0,0,1-7.351-1.809,11.611,11.611,0,0,1-4.609-5.028,16.769,16.769,0,0,1-1.562-7.408,16.66,16.66,0,0,1,1.581-7.466,11.488,11.488,0,0,1,4.647-4.97,14.5,14.5,0,0,1,7.37-1.772,15.472,15.472,0,0,1,5.333.915A11.446,11.446,0,0,1,255.742,22.05Z" style="fill:#fff"/><path d="M280.729,23.383H268.692v7.2h10.285v3.848H268.692v7.846h12.684v4.076H263.7V19.383h17.027Z" style="fill:#fff"/><path d="M38.711,58.555,36.73,60.726A9.95,9.95,0,0,0,33.512,58.8a11.018,11.018,0,0,0-3.828-.666q-4.952,0-7.466,3.085A12.5,12.5,0,0,0,19.7,69.372a12.437,12.437,0,0,0,2.513,8.112q2.515,3.086,7.39,3.086a10.478,10.478,0,0,0,4.113-.819,10.84,10.84,0,0,0,3.39-2.228l2.057,2.247a12.583,12.583,0,0,1-4.247,2.761,14.336,14.336,0,0,1-5.427,1.01,13.813,13.813,0,0,1-7.219-1.79,11.5,11.5,0,0,1-4.532-4.99,18.463,18.463,0,0,1,0-14.778,11.355,11.355,0,0,1,4.551-4.971A14.1,14.1,0,0,1,29.57,55.24a14.719,14.719,0,0,1,5.065.858A11.782,11.782,0,0,1,38.711,58.555Z" style="fill:#fff"/><path d="M63.621,58.631H50.633v9.064H61.945v2.591H50.633v9.827H64.269v2.781H47.281V55.926h16.34Z" style="fill:#fff"/><path d="M87.731,82.894,81.6,73.028H75.961v9.866H72.572V55.926h8.874a11.487,11.487,0,0,1,4.781.972,7.745,7.745,0,0,1,3.408,2.932,8.675,8.675,0,0,1,1.258,4.78,7.654,7.654,0,0,1-1.658,5.143,8.88,8.88,0,0,1-4.4,2.742l6.78,10.4Zm-6.4-12.455a6.466,6.466,0,0,0,4.361-1.486,5.4,5.4,0,0,0,1.733-4.343,5.515,5.515,0,0,0-1.79-4.475,6.634,6.634,0,0,0-4.418-1.5h-5.3V70.439Z" style="fill:#fff"/><path d="M116.374,58.783H107.88V82.894h-3.39V58.783H95.958V55.926h20.416Z" style="fill:#fff"/><path d="M129.019,80.3h3.2v2.59h-9.751V80.3h3.2V58.441h-3.2V55.926h9.751v2.515h-3.2Z" style="fill:#fff"/><path d="M157.929,58.707H144.94v9.217h11.5v2.743h-11.5V82.894h-3.389V55.926h16.378Z" style="fill:#fff"/><path d="M171.07,80.3h3.2v2.59h-9.752V80.3h3.2V58.441h-3.2V55.926h9.752v2.515h-3.2Z" style="fill:#fff"/><path d="M199.941,58.631H186.953v9.064h11.313v2.591H186.953v9.827h13.636v2.781H183.6V55.926h16.34Z" style="fill:#fff"/><path d="M231.479,69.372q0,6.59-3.676,10.055t-10.227,3.467h-8.684V55.926H217.5q6.7,0,10.341,3.333T231.479,69.372ZM212.244,58.707V80.075h4.989q5.256,0,8.018-2.629t2.762-8.074q0-10.665-10.742-10.665Z" style="fill:#fff"/><path d="M31.119,140.8a5.66,5.66,0,0,1-.875,3.213,5.4,5.4,0,0,1-2.312,1.962,7.415,7.415,0,0,1-3.088.65h-3.8v6.125H18.819v-17.7h5.975a7.124,7.124,0,0,1,4.55,1.4A5.2,5.2,0,0,1,31.119,140.8Zm-10.1-3.975v8h3.625a4.472,4.472,0,0,0,2.987-1.025,3.678,3.678,0,0,0,1.212-2.975,3.638,3.638,0,0,0-1.212-3.05,4.779,4.779,0,0,0-3.038-.95Z" style="fill:#fff"/><path d="M31.994,149.277a3.559,3.559,0,0,1,1.788-3.437,11.728,11.728,0,0,1,5.387-.963q.875,0,1.325.025v-.725a2.721,2.721,0,0,0-.775-2.125,3.458,3.458,0,0,0-2.375-.7,7.34,7.34,0,0,0-3.824,1.075L32.77,141a8.79,8.79,0,0,1,4.7-1.325,5.318,5.318,0,0,1,3.913,1.25,5.2,5.2,0,0,1,1.237,3.8v5.2a23.713,23.713,0,0,0,.175,2.825h-1.95a11.789,11.789,0,0,1-.175-1.725h-.075a4.554,4.554,0,0,1-1.762,1.55,6.19,6.19,0,0,1-2.738.525,4.344,4.344,0,0,1-2.975-.988A3.572,3.572,0,0,1,31.994,149.277Zm8.5-1.225V146.4l-1.125-.025a14.228,14.228,0,0,0-2.987.25,3.044,3.044,0,0,0-1.65.85,2.421,2.421,0,0,0-.538,1.675,2.16,2.16,0,0,0,.65,1.688,2.585,2.585,0,0,0,1.8.587,4.028,4.028,0,0,0,2.074-.513,3.566,3.566,0,0,0,1.325-1.287A3.1,3.1,0,0,0,40.494,148.052Z" style="fill:#fff"/><path d="M46.744,142.877a23.7,23.7,0,0,0-.175-2.85h2.025a20.02,20.02,0,0,1,.175,2.025h.05a4.021,4.021,0,0,1,4-2.375,6.113,6.113,0,0,1,.725.075l-.125,1.825a4.369,4.369,0,0,0-.775-.05,3.37,3.37,0,0,0-2.8,1.225,4.942,4.942,0,0,0-.975,3.175v6.825H46.744Z" style="fill:#fff"/><path d="M66.794,152.752H64.819a12.412,12.412,0,0,1-.175-1.9h-.05a4.986,4.986,0,0,1-4.55,2.25,4.927,4.927,0,0,1-4.137-1.85,7.637,7.637,0,0,1-1.438-4.825,8.084,8.084,0,0,1,.713-3.438,5.757,5.757,0,0,1,2.037-2.424,6,6,0,0,1,7.275.762v-6.275h2.125v14.875A23.506,23.506,0,0,0,66.794,152.752Zm-2.3-5.475v-4a4.966,4.966,0,0,0-1.687-1.413,4.85,4.85,0,0,0-2.163-.462,3.457,3.457,0,0,0-2.912,1.4,6.838,6.838,0,0,0-.038,7.263,3.363,3.363,0,0,0,2.825,1.337,3.765,3.765,0,0,0,2.888-1.163A4.161,4.161,0,0,0,64.494,147.277Z" style="fill:#fff"/><path d="M82.769,146.352a7.8,7.8,0,0,1-.763,3.512,5.589,5.589,0,0,1-2.2,2.388,6.639,6.639,0,0,1-3.437.85,6.564,6.564,0,0,1-3.425-.863,5.584,5.584,0,0,1-2.2-2.387,7.829,7.829,0,0,1-.75-3.5,6.886,6.886,0,0,1,1.674-4.863,6.084,6.084,0,0,1,4.7-1.812,6.756,6.756,0,0,1,3.462.838,5.481,5.481,0,0,1,2.188,2.337A7.733,7.733,0,0,1,82.769,146.352Zm-10.575,0a5.971,5.971,0,0,0,1.037,3.663,3.665,3.665,0,0,0,3.138,1.387,3.725,3.725,0,0,0,3.174-1.387,5.91,5.91,0,0,0,1.051-3.663,5.746,5.746,0,0,0-1.051-3.625,3.77,3.77,0,0,0-3.174-1.35,3.7,3.7,0,0,0-3.15,1.35A5.848,5.848,0,0,0,72.194,146.352Z" style="fill:#fff"/><path d="M88.619,140.027h3.375v1.625H88.619v7.675q0,2.049,1.875,2.05a4.3,4.3,0,0,0,1.25-.175l.325,1.575a5.528,5.528,0,0,1-1.975.325,3.62,3.62,0,0,1-2.638-.938,3.544,3.544,0,0,1-.962-2.662v-7.85h-2.25v-1.375l2.225-.25V136.9l2.15-.75Z" style="fill:#fff"/><path d="M99.993,151.1l1.125-1.4a7.163,7.163,0,0,0,2.225,1.225,8.368,8.368,0,0,0,2.6.375,4.711,4.711,0,0,0,2.912-.837,2.864,2.864,0,0,0,1.113-2.438,2.964,2.964,0,0,0-.525-1.825,3.692,3.692,0,0,0-1.45-1.125,15.442,15.442,0,0,0-2.45-.825,8.8,8.8,0,0,1-3.7-1.763,3.987,3.987,0,0,1-1.225-3.112,4.1,4.1,0,0,1,1.663-3.475,6.851,6.851,0,0,1,4.237-1.25,9.517,9.517,0,0,1,2.938.425,8.542,8.542,0,0,1,2.437,1.25l-1,1.45a8.684,8.684,0,0,0-2.087-1,7.648,7.648,0,0,0-2.288-.325,4.646,4.646,0,0,0-2.7.712,2.635,2.635,0,0,0-.088,4.1,9.36,9.36,0,0,0,3.063,1.237,9.98,9.98,0,0,1,4.05,1.9,4.459,4.459,0,0,1,1.375,3.55,4.825,4.825,0,0,1-.837,2.875,5.1,5.1,0,0,1-2.263,1.763,8.336,8.336,0,0,1-3.2.587A8.924,8.924,0,0,1,99.993,151.1Z" style="fill:#fff"/><path d="M127.543,146.377a8.112,8.112,0,0,1-.7,3.425,5.674,5.674,0,0,1-2.037,2.413,5.55,5.55,0,0,1-3.138.887,6.029,6.029,0,0,1-4.175-1.575v7.325h-2.125V142.877a23.7,23.7,0,0,0-.175-2.85h2.025a18.787,18.787,0,0,1,.175,1.95h.05a4.58,4.58,0,0,1,1.75-1.675,5.6,5.6,0,0,1,2.75-.625,5.172,5.172,0,0,1,3.075.888,5.467,5.467,0,0,1,1.888,2.4A8.705,8.705,0,0,1,127.543,146.377Zm-2.2,0a5.949,5.949,0,0,0-1.012-3.65,3.318,3.318,0,0,0-2.813-1.35,4.038,4.038,0,0,0-2.1.55,3.747,3.747,0,0,0-1.425,1.5,4.393,4.393,0,0,0-.5,2.075v4.225A6.207,6.207,0,0,0,119.231,151a4.669,4.669,0,0,0,1.987.4,3.627,3.627,0,0,0,3.063-1.387A5.826,5.826,0,0,0,125.343,146.377Z" style="fill:#fff"/><path d="M141.618,147.152h-9.45a4.909,4.909,0,0,0,1.175,3.1,3.856,3.856,0,0,0,3,1.15,6.363,6.363,0,0,0,2.063-.312,7.89,7.89,0,0,0,1.837-.938l.95,1.375a8.369,8.369,0,0,1-2.287,1.175,8.541,8.541,0,0,1-2.688.4,5.774,5.774,0,0,1-4.562-1.85,7.157,7.157,0,0,1-1.638-4.925,8.133,8.133,0,0,1,.7-3.475,5.365,5.365,0,0,1,2.037-2.337,5.928,5.928,0,0,1,3.213-.838,5.145,5.145,0,0,1,4.238,1.8,7.342,7.342,0,0,1,1.462,4.775A5.991,5.991,0,0,1,141.618,147.152Zm-2.025-1.65a4.941,4.941,0,0,0-.975-3.05,3.235,3.235,0,0,0-2.675-1.15,3.359,3.359,0,0,0-2.75,1.187,4.926,4.926,0,0,0-1.05,3.013Z" style="fill:#fff"/><path d="M150.443,139.677a7.206,7.206,0,0,1,2.287.362,6.6,6.6,0,0,1,1.937,1.013l-.849,1.475a5.519,5.519,0,0,0-3.375-1.075,3.7,3.7,0,0,0-3.1,1.337,6.607,6.607,0,0,0,0,7.151,3.642,3.642,0,0,0,3.074,1.362,6.366,6.366,0,0,0,3.426-1.075l.774,1.5a7.226,7.226,0,0,1-4.349,1.375,6.012,6.012,0,0,1-3.525-.962,5.47,5.47,0,0,1-1.988-2.488,8.707,8.707,0,0,1-.612-3.275,6.932,6.932,0,0,1,1.674-4.875A5.965,5.965,0,0,1,150.443,139.677Z" style="fill:#fff"/><path d="M157.317,135.677q0-1.35,1.4-1.35a1.2,1.2,0,0,1,1.375,1.35,1.2,1.2,0,0,1-1.375,1.3,1.379,1.379,0,0,1-1.075-.363A1.346,1.346,0,0,1,157.317,135.677Zm2.45,17.075h-2.125V140.027h2.125Z" style="fill:#fff"/><path d="M162.967,149.277a3.559,3.559,0,0,1,1.788-3.437,11.731,11.731,0,0,1,5.387-.963q.876,0,1.325.025v-.725a2.728,2.728,0,0,0-.774-2.125,3.463,3.463,0,0,0-2.375-.7,7.343,7.343,0,0,0-3.825,1.075l-.75-1.425a8.788,8.788,0,0,1,4.7-1.325,5.315,5.315,0,0,1,3.912,1.25,5.2,5.2,0,0,1,1.238,3.8v5.2a23.506,23.506,0,0,0,.175,2.825h-1.95a11.678,11.678,0,0,1-.176-1.725h-.074a4.557,4.557,0,0,1-1.763,1.55,6.189,6.189,0,0,1-2.737.525,4.343,4.343,0,0,1-2.976-.988A3.572,3.572,0,0,1,162.967,149.277Zm8.5-1.225V146.4l-1.125-.025a14.228,14.228,0,0,0-2.987.25,3.044,3.044,0,0,0-1.65.85,2.421,2.421,0,0,0-.538,1.675,2.157,2.157,0,0,0,.651,1.688,2.582,2.582,0,0,0,1.8.587,4.034,4.034,0,0,0,2.075-.513,3.57,3.57,0,0,0,1.324-1.287A3.094,3.094,0,0,0,171.467,148.052Z" style="fill:#fff"/><path d="M179.867,135.052v17.7h-2.125v-17.7Z" style="fill:#fff"/><path d="M183.867,135.677q0-1.35,1.4-1.35a1.2,1.2,0,0,1,1.375,1.35,1.205,1.205,0,0,1-1.375,1.3,1.381,1.381,0,0,1-1.076-.363A1.351,1.351,0,0,1,183.867,135.677Zm2.45,17.075h-2.125V140.027h2.125Z" style="fill:#fff"/><path d="M198.317,141.027l-.949,1.325a5.5,5.5,0,0,0-3.2-1.025,3.294,3.294,0,0,0-1.875.462,1.5,1.5,0,0,0-.675,1.313,1.766,1.766,0,0,0,.275,1.025,2.048,2.048,0,0,0,.924.675,12.946,12.946,0,0,0,1.9.575,6.175,6.175,0,0,1,2.887,1.388,3.181,3.181,0,0,1,.938,2.387,3.418,3.418,0,0,1-1.4,2.913,5.639,5.639,0,0,1-3.451,1.037,7.145,7.145,0,0,1-4.6-1.475l.974-1.325a6.863,6.863,0,0,0,1.676.85,5.9,5.9,0,0,0,1.875.275,3.292,3.292,0,0,0,2.012-.55,1.846,1.846,0,0,0,.738-1.575,1.928,1.928,0,0,0-.275-1.087,2.028,2.028,0,0,0-.912-.688,13.863,13.863,0,0,0-1.913-.6,6.5,6.5,0,0,1-2.875-1.35,3.387,3.387,0,0,1,.362-4.937,5.361,5.361,0,0,1,3.338-.963A6.775,6.775,0,0,1,198.317,141.027Z" style="fill:#fff"/><path d="M204.267,140.027h3.375v1.625h-3.375v7.675q0,2.049,1.875,2.05a4.3,4.3,0,0,0,1.25-.175l.325,1.575a5.538,5.538,0,0,1-1.976.325,3.618,3.618,0,0,1-2.637-.938,3.544,3.544,0,0,1-.962-2.662v-7.85h-2.25v-1.375l2.224-.25V136.9l2.151-.75Z" style="fill:#fff"/><g id="g3003"><path id="path3005" d="M260.557,58.506a6.71,6.71,0,0,1,4.857-2.084,6.78,6.78,0,0,1,5.905,3.5,8.166,8.166,0,0,1,3.338-.707,8.328,8.328,0,0,1,0,16.651,8.223,8.223,0,0,1-1.641-.165,6.036,6.036,0,0,1-7.889,2.481,6.885,6.885,0,0,1-12.8-.312,6.276,6.276,0,0,1-1.311.137,6.47,6.47,0,0,1-3.2-12.049A7.436,7.436,0,0,1,260.552,58.5" style="fill:#00a1e0"/></g></svg>