<svg id="Layer_1" data-name="Layer 1" xmlns="http://www.w3.org/2000/svg" width="60" height="60" viewBox="0 0 60 60"><title>SF_Crt</title><path d="M55,2a3,3,0,0,1,3,3V55a3,3,0,0,1-3,3H5a3,3,0,0,1-3-3V5A3,3,0,0,1,5,2H55m0-2H5A5,5,0,0,0,0,5V55a5,5,0,0,0,5,5H55a5,5,0,0,0,5-5V5a5,5,0,0,0-5-5Z" style="fill:#fff"/><path d="M31.636,13.848h5.781V19.41c-1.173,0-2.3,0-3.418,0a1.406,1.406,0,0,0-1.618,1.6c0,.988,0,1.976,0,2.964,0,.107.013.213.022.349h5.1l-.589,5.719H32.367V46.152h-6.7V30.936c0-.909,0-.909-.9-.909H22.5V24.305h3.164c0-1.145-.022-2.254.009-3.362a11.542,11.542,0,0,1,.2-2.1A5.763,5.763,0,0,1,30.3,14.1C30.735,13.987,31.189,13.931,31.636,13.848Z" style="fill:#fff"/></svg>