<svg id="Layer_1" data-name="Layer 1" xmlns="http://www.w3.org/2000/svg" width="300" height="185" viewBox="0 0 300 185"><title>SF_Crt</title><rect width="300" height="102.041" style="fill:#003c4d"/><rect y="101.733" width="300" height="83.267" style="fill:#00a1e0"/><path d="M15.324,43.913l2.4-3.162a10.539,10.539,0,0,0,3.217,1.638,12.64,12.64,0,0,0,3.638.495,6.527,6.527,0,0,0,3.79-.99A3.377,3.377,0,0,0,29.8,38.923a3.583,3.583,0,0,0-.687-2.3,4.823,4.823,0,0,0-1.961-1.389,29.6,29.6,0,0,0-3.523-1.143,12.157,12.157,0,0,1-5.542-2.8,6.639,6.639,0,0,1-1.886-4.97A6.76,6.76,0,0,1,17.458,22.2a7.735,7.735,0,0,1,3.408-2.59,12.786,12.786,0,0,1,4.857-.877A14.728,14.728,0,0,1,34.445,21.4L32.2,24.64a13.16,13.16,0,0,0-3.124-1.448,11.231,11.231,0,0,0-3.237-.457,6.249,6.249,0,0,0-3.409.819,2.726,2.726,0,0,0-1.276,2.457,2.841,2.841,0,0,0,1.295,2.533,15.533,15.533,0,0,0,4.3,1.656,14.088,14.088,0,0,1,6.057,2.952A7.2,7.2,0,0,1,34.9,38.733a7.653,7.653,0,0,1-1.371,4.627,8.113,8.113,0,0,1-3.714,2.8,14.178,14.178,0,0,1-5.2.914,15.348,15.348,0,0,1-5.065-.819A13.736,13.736,0,0,1,15.324,43.913Z" style="fill:#fff"/><path d="M58.137,40.523H47.167L45,46.351H39.778L50.139,19.383H55.28L65.6,46.351h-5.41ZM48.5,36.714h8.342L52.69,24.487Z" style="fill:#fff"/><path d="M77.409,42.2H89.064v4.153H72.42V19.383h4.989Z" style="fill:#fff"/><path d="M113.137,23.383H101.1v7.2h10.284v3.848H101.1v7.846h12.683v4.076H96.111V19.383h17.026Z" style="fill:#fff"/><path d="M119.535,43.913l2.4-3.162a10.539,10.539,0,0,0,3.217,1.638,12.64,12.64,0,0,0,3.638.495,6.527,6.527,0,0,0,3.79-.99,3.377,3.377,0,0,0,1.429-2.971,3.583,3.583,0,0,0-.687-2.3,4.823,4.823,0,0,0-1.961-1.389,29.6,29.6,0,0,0-3.523-1.143,12.157,12.157,0,0,1-5.542-2.8,6.639,6.639,0,0,1-1.886-4.97,6.76,6.76,0,0,1,1.258-4.114,7.735,7.735,0,0,1,3.408-2.59,12.786,12.786,0,0,1,4.857-.877,14.728,14.728,0,0,1,8.722,2.667l-2.247,3.238a13.16,13.16,0,0,0-3.124-1.448,11.231,11.231,0,0,0-3.237-.457,6.249,6.249,0,0,0-3.409.819,2.726,2.726,0,0,0-1.276,2.457,2.841,2.841,0,0,0,1.3,2.533,15.52,15.52,0,0,0,4.3,1.656,14.088,14.088,0,0,1,6.057,2.952,7.2,7.2,0,0,1,2.094,5.581,7.653,7.653,0,0,1-1.371,4.627,8.113,8.113,0,0,1-3.714,2.8,14.178,14.178,0,0,1-5.2.914,15.348,15.348,0,0,1-5.065-.819A13.724,13.724,0,0,1,119.535,43.913Z" style="fill:#fff"/><path d="M164.367,23.459H152.33v7.5h10.475v4.076H152.33V46.351h-4.989V19.383h17.026Z" style="fill:#fff"/><path d="M169.737,32.867a16.2,16.2,0,0,1,1.638-7.446,11.762,11.762,0,0,1,4.742-4.99,16.413,16.413,0,0,1,14.836,0,11.729,11.729,0,0,1,4.761,4.99,16.2,16.2,0,0,1,1.638,7.446,16.2,16.2,0,0,1-1.638,7.447,11.732,11.732,0,0,1-4.761,4.989,16.421,16.421,0,0,1-14.836,0,11.765,11.765,0,0,1-4.742-4.989A16.2,16.2,0,0,1,169.737,32.867Zm22.511,0a11.062,11.062,0,0,0-2.19-7.237q-2.19-2.665-6.533-2.666-4.3,0-6.494,2.666a11.062,11.062,0,0,0-2.189,7.237,11.065,11.065,0,0,0,2.189,7.237q2.19,2.667,6.494,2.666,4.344,0,6.533-2.666A11.066,11.066,0,0,0,192.248,32.867Z" style="fill:#fff"/><path d="M220.776,46.351l-5.332-9.142h-4.57v9.142h-4.99V19.383h9.446a11.124,11.124,0,0,1,7.352,2.343A8.2,8.2,0,0,1,225.5,28.41a7.748,7.748,0,0,1-5.447,7.809l6.437,10.132ZM215.063,33.4a5.751,5.751,0,0,0,3.809-1.239,4.606,4.606,0,0,0,1.485-3.752,4.6,4.6,0,0,0-1.523-3.79,5.91,5.91,0,0,0-3.847-1.237h-4.151V33.4Z" style="fill:#fff"/><path d="M255.742,22.05l-2.818,3.2a9.608,9.608,0,0,0-2.971-1.714,10.187,10.187,0,0,0-3.5-.609q-4.418,0-6.512,2.685a11.42,11.42,0,0,0-2.095,7.218,11.288,11.288,0,0,0,2.095,7.142q2.092,2.685,6.4,2.684a9.291,9.291,0,0,0,3.733-.742,10.314,10.314,0,0,0,3.009-1.962l3.009,3.276a13.03,13.03,0,0,1-4.285,2.781,14.539,14.539,0,0,1-5.618,1.066,14.149,14.149,0,0,1-7.351-1.809,11.611,11.611,0,0,1-4.609-5.028,16.769,16.769,0,0,1-1.562-7.408,16.66,16.66,0,0,1,1.581-7.466,11.488,11.488,0,0,1,4.647-4.97,14.5,14.5,0,0,1,7.37-1.772,15.472,15.472,0,0,1,5.333.915A11.446,11.446,0,0,1,255.742,22.05Z" style="fill:#fff"/><path d="M280.729,23.383H268.692v7.2h10.285v3.848H268.692v7.846h12.684v4.076H263.7V19.383h17.027Z" style="fill:#fff"/><path d="M38.711,58.555,36.73,60.726A9.95,9.95,0,0,0,33.512,58.8a11.017,11.017,0,0,0-3.827-.666q-4.953,0-7.466,3.085A12.5,12.5,0,0,0,19.7,69.372a12.438,12.438,0,0,0,2.514,8.112q2.514,3.086,7.389,3.086a10.48,10.48,0,0,0,4.114-.819,10.835,10.835,0,0,0,3.389-2.228l2.057,2.247a12.583,12.583,0,0,1-4.247,2.761,14.336,14.336,0,0,1-5.427,1.01,13.813,13.813,0,0,1-7.219-1.79,11.5,11.5,0,0,1-4.532-4.99,18.463,18.463,0,0,1,0-14.778A11.351,11.351,0,0,1,22.3,57.012,14.1,14.1,0,0,1,29.57,55.24a14.729,14.729,0,0,1,5.066.858A11.778,11.778,0,0,1,38.711,58.555Z" style="fill:#fff"/><path d="M63.621,58.631H50.633v9.064H61.945v2.591H50.633v9.827H64.269v2.781H47.281V55.926h16.34Z" style="fill:#fff"/><path d="M87.731,82.894,81.6,73.028H75.962v9.866h-3.39V55.926h8.874a11.487,11.487,0,0,1,4.781.972,7.747,7.747,0,0,1,3.409,2.932,8.683,8.683,0,0,1,1.257,4.78,7.649,7.649,0,0,1-1.658,5.143,8.881,8.881,0,0,1-4.4,2.742l6.779,10.4Zm-6.4-12.455a6.466,6.466,0,0,0,4.361-1.486,5.4,5.4,0,0,0,1.734-4.343,5.518,5.518,0,0,0-1.79-4.475,6.639,6.639,0,0,0-4.419-1.5H75.924V70.439Z" style="fill:#fff"/><path d="M116.374,58.783H107.88V82.894h-3.39V58.783H95.958V55.926h20.416Z" style="fill:#fff"/><path d="M129.02,80.3h3.2v2.59h-9.751V80.3h3.2V58.441h-3.2V55.926h9.751v2.515h-3.2Z" style="fill:#fff"/><path d="M157.93,58.707H144.94v9.217h11.5v2.743h-11.5V82.894h-3.389V55.926H157.93Z" style="fill:#fff"/><path d="M171.07,80.3h3.2v2.59h-9.751V80.3h3.2V58.441h-3.2V55.926h9.751v2.515h-3.2Z" style="fill:#fff"/><path d="M199.941,58.631H186.953v9.064h11.313v2.591H186.953v9.827h13.636v2.781H183.6V55.926h16.34Z" style="fill:#fff"/><path d="M231.479,69.372q0,6.59-3.676,10.055t-10.227,3.467h-8.684V55.926H217.5q6.7,0,10.341,3.333T231.479,69.372ZM212.244,58.707V80.075h4.989q5.256,0,8.018-2.629t2.762-8.074q0-10.665-10.742-10.665Z" style="fill:#fff"/><path d="M31.119,140.8a5.66,5.66,0,0,1-.875,3.213,5.391,5.391,0,0,1-2.312,1.962,7.411,7.411,0,0,1-3.087.65h-3.8v6.125H18.819v-17.7H24.8a7.128,7.128,0,0,1,4.55,1.4A5.206,5.206,0,0,1,31.119,140.8Zm-10.1-3.975v8h3.625a4.472,4.472,0,0,0,2.987-1.025,3.679,3.679,0,0,0,1.213-2.975,3.639,3.639,0,0,0-1.213-3.05,4.778,4.778,0,0,0-3.037-.95Z" style="fill:#fff"/><path d="M31.994,149.277a3.559,3.559,0,0,1,1.788-3.437,11.733,11.733,0,0,1,5.388-.963q.874,0,1.324.025v-.725a2.724,2.724,0,0,0-.774-2.125,3.461,3.461,0,0,0-2.375-.7,7.343,7.343,0,0,0-3.825,1.075L32.77,141a8.791,8.791,0,0,1,4.7-1.325,5.315,5.315,0,0,1,3.912,1.25,5.2,5.2,0,0,1,1.237,3.8v5.2a23.511,23.511,0,0,0,.176,2.825h-1.95a11.651,11.651,0,0,1-.175-1.725H40.6a4.557,4.557,0,0,1-1.763,1.55,6.189,6.189,0,0,1-2.737.525,4.345,4.345,0,0,1-2.976-.988A3.572,3.572,0,0,1,31.994,149.277Zm8.5-1.225V146.4l-1.125-.025a14.228,14.228,0,0,0-2.987.25,3.048,3.048,0,0,0-1.65.85,2.421,2.421,0,0,0-.538,1.675,2.157,2.157,0,0,0,.651,1.688,2.582,2.582,0,0,0,1.8.587,4.034,4.034,0,0,0,2.075-.513,3.581,3.581,0,0,0,1.325-1.287A3.1,3.1,0,0,0,40.494,148.052Z" style="fill:#fff"/><path d="M46.744,142.877a23.7,23.7,0,0,0-.175-2.85H48.6a20.316,20.316,0,0,1,.175,2.025h.049a4.022,4.022,0,0,1,4-2.375,6.144,6.144,0,0,1,.726.075l-.125,1.825a4.376,4.376,0,0,0-.775-.05,3.369,3.369,0,0,0-2.8,1.225,4.937,4.937,0,0,0-.976,3.175v6.825H46.744Z" style="fill:#fff"/><path d="M66.8,152.752H64.819a12.4,12.4,0,0,1-.174-1.9H64.6a4.986,4.986,0,0,1-4.55,2.25,4.927,4.927,0,0,1-4.138-1.85,7.637,7.637,0,0,1-1.437-4.825,8.083,8.083,0,0,1,.712-3.438,5.759,5.759,0,0,1,2.038-2.424,6,6,0,0,1,7.274.762v-6.275h2.125v14.875A23.511,23.511,0,0,0,66.8,152.752Zm-2.3-5.475v-4a4.966,4.966,0,0,0-1.687-1.413,4.846,4.846,0,0,0-2.162-.462,3.457,3.457,0,0,0-2.913,1.4,6.844,6.844,0,0,0-.038,7.263A3.365,3.365,0,0,0,60.52,151.4a3.763,3.763,0,0,0,2.887-1.163A4.161,4.161,0,0,0,64.494,147.277Z" style="fill:#fff"/><path d="M82.769,146.352a7.8,7.8,0,0,1-.762,3.512,5.6,5.6,0,0,1-2.2,2.388,6.646,6.646,0,0,1-3.438.85,6.564,6.564,0,0,1-3.425-.863,5.59,5.59,0,0,1-2.2-2.387,7.829,7.829,0,0,1-.75-3.5,6.882,6.882,0,0,1,1.675-4.863,6.082,6.082,0,0,1,4.7-1.812,6.756,6.756,0,0,1,3.462.838,5.481,5.481,0,0,1,2.188,2.337A7.733,7.733,0,0,1,82.769,146.352Zm-10.575,0a5.971,5.971,0,0,0,1.037,3.663,3.667,3.667,0,0,0,3.138,1.387,3.728,3.728,0,0,0,3.175-1.387,5.916,5.916,0,0,0,1.05-3.663,5.752,5.752,0,0,0-1.05-3.625,3.773,3.773,0,0,0-3.175-1.35,3.7,3.7,0,0,0-3.15,1.35A5.848,5.848,0,0,0,72.194,146.352Z" style="fill:#fff"/><path d="M88.619,140.027h3.375v1.625H88.619v7.675q0,2.049,1.875,2.05a4.3,4.3,0,0,0,1.25-.175l.325,1.575a5.528,5.528,0,0,1-1.975.325,3.622,3.622,0,0,1-2.638-.938,3.544,3.544,0,0,1-.962-2.662v-7.85h-2.25v-1.375l2.225-.25V136.9l2.15-.75Z" style="fill:#fff"/><path d="M115.243,136.777l-1.3,1.425a6.552,6.552,0,0,0-2.112-1.262,7.231,7.231,0,0,0-2.513-.438,5.95,5.95,0,0,0-4.9,2.025,9.463,9.463,0,0,0,0,10.675,5.893,5.893,0,0,0,4.851,2.025,6.888,6.888,0,0,0,2.7-.537,7.129,7.129,0,0,0,2.224-1.463l1.35,1.475a8.275,8.275,0,0,1-2.787,1.813,9.424,9.424,0,0,1-3.563.662A9.063,9.063,0,0,1,104.456,152a7.554,7.554,0,0,1-2.976-3.275,12.139,12.139,0,0,1,0-9.7,7.448,7.448,0,0,1,2.989-3.262,9.243,9.243,0,0,1,4.774-1.163,9.669,9.669,0,0,1,3.325.562A7.731,7.731,0,0,1,115.243,136.777Z" style="fill:#fff"/><path d="M129.469,146.352a7.8,7.8,0,0,1-.762,3.512,5.6,5.6,0,0,1-2.2,2.388,6.646,6.646,0,0,1-3.438.85,6.558,6.558,0,0,1-3.424-.863,5.586,5.586,0,0,1-2.2-2.387,7.829,7.829,0,0,1-.75-3.5,6.882,6.882,0,0,1,1.675-4.863,6.082,6.082,0,0,1,4.7-1.812,6.756,6.756,0,0,1,3.462.838,5.481,5.481,0,0,1,2.188,2.337A7.733,7.733,0,0,1,129.469,146.352Zm-10.574,0a5.965,5.965,0,0,0,1.037,3.663,3.663,3.663,0,0,0,3.137,1.387,3.728,3.728,0,0,0,3.175-1.387,5.916,5.916,0,0,0,1.05-3.663,5.752,5.752,0,0,0-1.05-3.625,3.773,3.773,0,0,0-3.175-1.35,3.7,3.7,0,0,0-3.15,1.35A5.847,5.847,0,0,0,118.9,146.352Z" style="fill:#fff"/><path d="M132.868,142.877a23.7,23.7,0,0,0-.175-2.85h2.026a13.82,13.82,0,0,1,.175,1.8h.049a4.5,4.5,0,0,1,1.75-1.562,5.7,5.7,0,0,1,2.675-.588,4.386,4.386,0,0,1,3.563,1.388,5.206,5.206,0,0,1,1.163,3.462v8.225h-2.125v-7.8a4.036,4.036,0,0,0-.75-2.512,2.85,2.85,0,0,0-2.425-.988,3.558,3.558,0,0,0-2.763,1.138,4.083,4.083,0,0,0-1.038,2.862v7.3h-2.125Z" style="fill:#fff"/><path d="M155.918,141.027l-.949,1.325a5.5,5.5,0,0,0-3.2-1.025,3.3,3.3,0,0,0-1.876.462,1.5,1.5,0,0,0-.675,1.313,1.773,1.773,0,0,0,.274,1.025,2.055,2.055,0,0,0,.926.675,12.867,12.867,0,0,0,1.9.575,6.178,6.178,0,0,1,2.889,1.388,3.181,3.181,0,0,1,.938,2.387,3.416,3.416,0,0,1-1.4,2.913,5.639,5.639,0,0,1-3.451,1.037,7.15,7.15,0,0,1-4.6-1.475l.976-1.325a6.858,6.858,0,0,0,1.675.85,5.9,5.9,0,0,0,1.875.275,3.288,3.288,0,0,0,2.011-.55,1.844,1.844,0,0,0,.739-1.575,1.92,1.92,0,0,0-.276-1.087,2.012,2.012,0,0,0-.912-.688,13.841,13.841,0,0,0-1.912-.6,6.51,6.51,0,0,1-2.876-1.35,3.388,3.388,0,0,1,.363-4.937,5.358,5.358,0,0,1,3.337-.963A6.78,6.78,0,0,1,155.918,141.027Z" style="fill:#fff"/><path d="M159.093,147.827v-7.8h2.15v7.5a4.722,4.722,0,0,0,.763,2.813,2.711,2.711,0,0,0,2.362,1.062,3.4,3.4,0,0,0,2.8-1.312,5.058,5.058,0,0,0,1.05-3.263v-6.8h2.125v9.9a23.307,23.307,0,0,0,.176,2.825h-2.026a18.361,18.361,0,0,1-.175-2.025h-.049a4.706,4.706,0,0,1-4.4,2.375,4.357,4.357,0,0,1-3.575-1.462A5.82,5.82,0,0,1,159.093,147.827Z" style="fill:#fff"/><path d="M176.793,135.052v17.7h-2.125v-17.7Z" style="fill:#fff"/><path d="M183.693,140.027h3.375v1.625h-3.375v7.675q0,2.049,1.875,2.05a4.291,4.291,0,0,0,1.25-.175l.326,1.575a5.538,5.538,0,0,1-1.976.325,3.618,3.618,0,0,1-2.637-.938,3.545,3.545,0,0,1-.963-2.662v-7.85h-2.25v-1.375l2.225-.25V136.9l2.15-.75Z" style="fill:#fff"/><path d="M188.918,149.277a3.559,3.559,0,0,1,1.788-3.437,11.725,11.725,0,0,1,5.387-.963q.876,0,1.325.025v-.725a2.728,2.728,0,0,0-.774-2.125,3.463,3.463,0,0,0-2.375-.7,7.349,7.349,0,0,0-3.826,1.075l-.75-1.425a8.792,8.792,0,0,1,4.7-1.325,5.317,5.317,0,0,1,3.912,1.25,5.2,5.2,0,0,1,1.237,3.8v5.2a23.713,23.713,0,0,0,.175,2.825h-1.949a11.542,11.542,0,0,1-.176-1.725h-.074a4.557,4.557,0,0,1-1.763,1.55,6.189,6.189,0,0,1-2.737.525,4.343,4.343,0,0,1-2.976-.988A3.572,3.572,0,0,1,188.918,149.277Zm8.5-1.225V146.4l-1.125-.025a14.228,14.228,0,0,0-2.987.25,3.048,3.048,0,0,0-1.651.85,2.425,2.425,0,0,0-.537,1.675,2.157,2.157,0,0,0,.651,1.688,2.581,2.581,0,0,0,1.8.587,4.036,4.036,0,0,0,2.076-.513,3.57,3.57,0,0,0,1.324-1.287A3.094,3.094,0,0,0,197.418,148.052Z" style="fill:#fff"/><path d="M203.668,142.877a23.7,23.7,0,0,0-.176-2.85h2.026a13.672,13.672,0,0,1,.174,1.8h.05a4.5,4.5,0,0,1,1.75-1.562,5.706,5.706,0,0,1,2.676-.588,4.385,4.385,0,0,1,3.562,1.388,5.206,5.206,0,0,1,1.163,3.462v8.225h-2.125v-7.8a4.036,4.036,0,0,0-.75-2.512,2.85,2.85,0,0,0-2.425-.988,3.555,3.555,0,0,0-2.763,1.138,4.087,4.087,0,0,0-1.037,2.862v7.3h-2.125Z" style="fill:#fff"/><path d="M221.468,140.027h3.375v1.625h-3.375v7.675q0,2.049,1.875,2.05a4.3,4.3,0,0,0,1.25-.175l.325,1.575a5.534,5.534,0,0,1-1.976.325,3.614,3.614,0,0,1-2.636-.938,3.541,3.541,0,0,1-.963-2.662v-7.85h-2.25v-1.375l2.224-.25V136.9l2.151-.75Z" style="fill:#fff"/><g id="g3003"><path id="path3005" d="M260.557,58.506a6.71,6.71,0,0,1,4.857-2.084,6.78,6.78,0,0,1,5.905,3.5,8.166,8.166,0,0,1,3.338-.707,8.328,8.328,0,0,1,0,16.651,8.223,8.223,0,0,1-1.641-.165,6.036,6.036,0,0,1-7.889,2.481,6.885,6.885,0,0,1-12.8-.312,6.276,6.276,0,0,1-1.311.137,6.47,6.47,0,0,1-3.2-12.049A7.436,7.436,0,0,1,260.552,58.5" style="fill:#00a1e0"/></g></svg>