<svg id="Layer_1" data-name="Layer 1" xmlns="http://www.w3.org/2000/svg" width="300" height="185" viewBox="0 0 300 185"><title>SF_Crt</title><rect width="300" height="102.041" style="fill:#003c4d"/><rect y="101.733" width="300" height="83.267" style="fill:#00a1e0"/><path d="M15.324,43.913l2.4-3.161a10.558,10.558,0,0,0,3.217,1.637,12.64,12.64,0,0,0,3.638.495,6.527,6.527,0,0,0,3.79-.99A3.376,3.376,0,0,0,29.8,38.923a3.58,3.58,0,0,0-.687-2.3,4.825,4.825,0,0,0-1.961-1.39,29.6,29.6,0,0,0-3.523-1.143,12.147,12.147,0,0,1-5.542-2.8,6.639,6.639,0,0,1-1.886-4.97A6.76,6.76,0,0,1,17.458,22.2a7.735,7.735,0,0,1,3.408-2.59,12.786,12.786,0,0,1,4.857-.876A14.727,14.727,0,0,1,34.445,21.4L32.2,24.64a13.16,13.16,0,0,0-3.124-1.448,11.231,11.231,0,0,0-3.237-.457,6.249,6.249,0,0,0-3.409.819,2.727,2.727,0,0,0-1.276,2.457,2.841,2.841,0,0,0,1.295,2.533,15.528,15.528,0,0,0,4.3,1.657,14.076,14.076,0,0,1,6.057,2.952,7.2,7.2,0,0,1,2.094,5.58,7.653,7.653,0,0,1-1.371,4.627,8.106,8.106,0,0,1-3.714,2.8,14.178,14.178,0,0,1-5.2.914,15.348,15.348,0,0,1-5.065-.819A13.715,13.715,0,0,1,15.324,43.913Z" style="fill:#fff"/><path d="M58.137,40.523H47.167L45,46.351H39.778L50.139,19.383H55.28L65.6,46.351h-5.41ZM48.5,36.714h8.342L52.69,24.487Z" style="fill:#fff"/><path d="M77.409,42.2H89.064v4.152H72.42V19.383h4.989Z" style="fill:#fff"/><path d="M113.137,23.383H101.1v7.2h10.284v3.847H101.1v7.846h12.683v4.076H96.111V19.383h17.026Z" style="fill:#fff"/><path d="M119.535,43.913l2.4-3.161a10.558,10.558,0,0,0,3.217,1.637,12.64,12.64,0,0,0,3.638.495,6.527,6.527,0,0,0,3.79-.99,3.376,3.376,0,0,0,1.429-2.971,3.58,3.58,0,0,0-.687-2.3,4.825,4.825,0,0,0-1.961-1.39,29.6,29.6,0,0,0-3.523-1.143,12.147,12.147,0,0,1-5.542-2.8,6.639,6.639,0,0,1-1.886-4.97,6.76,6.76,0,0,1,1.258-4.114,7.735,7.735,0,0,1,3.408-2.59,12.786,12.786,0,0,1,4.857-.876,14.727,14.727,0,0,1,8.722,2.666l-2.247,3.238a13.16,13.16,0,0,0-3.124-1.448,11.231,11.231,0,0,0-3.237-.457,6.249,6.249,0,0,0-3.409.819,2.727,2.727,0,0,0-1.276,2.457,2.841,2.841,0,0,0,1.3,2.533,15.515,15.515,0,0,0,4.3,1.657,14.076,14.076,0,0,1,6.057,2.952,7.2,7.2,0,0,1,2.094,5.58,7.653,7.653,0,0,1-1.371,4.627,8.106,8.106,0,0,1-3.714,2.8,14.178,14.178,0,0,1-5.2.914,15.348,15.348,0,0,1-5.065-.819A13.7,13.7,0,0,1,119.535,43.913Z" style="fill:#fff"/><path d="M164.367,23.459H152.33v7.5h10.475v4.075H152.33V46.351h-4.989V19.383h17.026Z" style="fill:#fff"/><path d="M169.737,32.867a16.2,16.2,0,0,1,1.638-7.446,11.768,11.768,0,0,1,4.742-4.99,16.421,16.421,0,0,1,14.836,0,11.734,11.734,0,0,1,4.761,4.99,16.2,16.2,0,0,1,1.638,7.446,16.2,16.2,0,0,1-1.638,7.447,11.721,11.721,0,0,1-4.761,4.989,16.421,16.421,0,0,1-14.836,0,11.754,11.754,0,0,1-4.742-4.989A16.2,16.2,0,0,1,169.737,32.867Zm22.511,0a11.066,11.066,0,0,0-2.19-7.237q-2.19-2.665-6.533-2.666-4.3,0-6.494,2.666a11.065,11.065,0,0,0-2.189,7.237,11.063,11.063,0,0,0,2.189,7.237q2.19,2.667,6.494,2.666,4.344,0,6.533-2.666A11.064,11.064,0,0,0,192.248,32.867Z" style="fill:#fff"/><path d="M220.776,46.351l-5.332-9.142h-4.57v9.142h-4.99V19.383h9.446a11.129,11.129,0,0,1,7.352,2.343,8.2,8.2,0,0,1,2.818,6.685,7.747,7.747,0,0,1-5.447,7.808l6.437,10.132ZM215.063,33.4a5.75,5.75,0,0,0,3.809-1.238,4.606,4.606,0,0,0,1.485-3.752,4.594,4.594,0,0,0-1.523-3.79,5.9,5.9,0,0,0-3.847-1.238h-4.151V33.4Z" style="fill:#fff"/><path d="M255.742,22.05l-2.818,3.2a9.608,9.608,0,0,0-2.971-1.714,10.211,10.211,0,0,0-3.5-.609q-4.418,0-6.512,2.685a11.42,11.42,0,0,0-2.095,7.218,11.288,11.288,0,0,0,2.095,7.142q2.092,2.685,6.4,2.685a9.291,9.291,0,0,0,3.733-.743,10.332,10.332,0,0,0,3.009-1.961l3.009,3.275a13.03,13.03,0,0,1-4.285,2.781,14.539,14.539,0,0,1-5.618,1.066,14.149,14.149,0,0,1-7.351-1.809,11.611,11.611,0,0,1-4.609-5.028,16.766,16.766,0,0,1-1.562-7.408,16.663,16.663,0,0,1,1.581-7.466,11.494,11.494,0,0,1,4.647-4.97,14.5,14.5,0,0,1,7.37-1.771,15.472,15.472,0,0,1,5.333.914A11.446,11.446,0,0,1,255.742,22.05Z" style="fill:#fff"/><path d="M280.729,23.383H268.692v7.2h10.285v3.847H268.692v7.846h12.684v4.076H263.7V19.383h17.027Z" style="fill:#fff"/><path d="M38.711,58.555,36.73,60.726A9.967,9.967,0,0,0,33.512,58.8a11.017,11.017,0,0,0-3.827-.666q-4.953,0-7.466,3.085A12.5,12.5,0,0,0,19.7,69.372a12.442,12.442,0,0,0,2.514,8.113q2.514,3.086,7.389,3.085a10.48,10.48,0,0,0,4.114-.819,10.818,10.818,0,0,0,3.389-2.228l2.057,2.247a12.6,12.6,0,0,1-4.247,2.762,14.355,14.355,0,0,1-5.427,1.009,13.813,13.813,0,0,1-7.219-1.79,11.5,11.5,0,0,1-4.532-4.99,18.463,18.463,0,0,1,0-14.778A11.356,11.356,0,0,1,22.3,57.012a14.1,14.1,0,0,1,7.275-1.771,14.729,14.729,0,0,1,5.066.857A11.793,11.793,0,0,1,38.711,58.555Z" style="fill:#fff"/><path d="M63.621,58.631H50.633V67.7H61.945v2.59H50.633v9.827H64.269v2.781H47.281V55.926h16.34Z" style="fill:#fff"/><path d="M87.731,82.894,81.6,73.028H75.962v9.866h-3.39V55.926h8.874a11.5,11.5,0,0,1,4.781.972,7.749,7.749,0,0,1,3.409,2.933,8.678,8.678,0,0,1,1.257,4.78,7.646,7.646,0,0,1-1.658,5.142,8.881,8.881,0,0,1-4.4,2.742l6.779,10.4Zm-6.4-12.455a6.466,6.466,0,0,0,4.361-1.486,5.4,5.4,0,0,0,1.734-4.342,5.519,5.519,0,0,0-1.79-4.476,6.639,6.639,0,0,0-4.419-1.5H75.924V70.439Z" style="fill:#fff"/><path d="M116.374,58.783H107.88V82.894h-3.39V58.783H95.958V55.926h20.416Z" style="fill:#fff"/><path d="M129.02,80.3h3.2v2.59h-9.751V80.3h3.2V58.441h-3.2V55.926h9.751v2.515h-3.2Z" style="fill:#fff"/><path d="M157.93,58.707H144.94v9.217h11.5v2.743h-11.5V82.894h-3.389V55.926H157.93Z" style="fill:#fff"/><path d="M171.07,80.3h3.2v2.59h-9.751V80.3h3.2V58.441h-3.2V55.926h9.751v2.515h-3.2Z" style="fill:#fff"/><path d="M199.941,58.631H186.953V67.7h11.313v2.59H186.953v9.827h13.636v2.781H183.6V55.926h16.34Z" style="fill:#fff"/><path d="M231.479,69.372q0,6.59-3.676,10.055t-10.227,3.467h-8.684V55.926H217.5q6.7,0,10.341,3.333T231.479,69.372ZM212.244,58.707V80.075h4.989q5.256,0,8.018-2.628t2.762-8.075q0-10.665-10.742-10.665Z" style="fill:#fff"/><path d="M17.319,135.013l1.125-1.4a7.185,7.185,0,0,0,2.226,1.224,8.364,8.364,0,0,0,2.6.375,4.719,4.719,0,0,0,2.912-.836,2.865,2.865,0,0,0,1.113-2.438,2.97,2.97,0,0,0-.525-1.825,3.689,3.689,0,0,0-1.451-1.125,15.307,15.307,0,0,0-2.45-.825,8.8,8.8,0,0,1-3.7-1.763,3.987,3.987,0,0,1-1.226-3.112,4.1,4.1,0,0,1,1.663-3.475,6.854,6.854,0,0,1,4.238-1.25,9.515,9.515,0,0,1,2.937.425,8.548,8.548,0,0,1,2.438,1.25l-1,1.45a8.69,8.69,0,0,0-2.088-1,7.614,7.614,0,0,0-2.287-.325,4.639,4.639,0,0,0-2.7.712,2.632,2.632,0,0,0-.088,4.1,9.382,9.382,0,0,0,3.062,1.238,9.959,9.959,0,0,1,4.051,1.9,4.461,4.461,0,0,1,1.375,3.55,4.818,4.818,0,0,1-.838,2.875,5.1,5.1,0,0,1-2.263,1.763,8.354,8.354,0,0,1-3.2.586A8.921,8.921,0,0,1,17.319,135.013Z" style="fill:#fff"/><path d="M32.719,118.963h2.125v6.75H34.9a4.675,4.675,0,0,1,1.7-1.537,5.474,5.474,0,0,1,2.65-.588,4.348,4.348,0,0,1,3.55,1.388,5.242,5.242,0,0,1,1.15,3.463v8.225H41.819v-7.8a4.037,4.037,0,0,0-.75-2.513,2.85,2.85,0,0,0-2.424-.987,3.555,3.555,0,0,0-2.763,1.138,4.075,4.075,0,0,0-1.038,2.862v7.3H32.719Z" style="fill:#fff"/><path d="M46.719,133.189a3.558,3.558,0,0,1,1.787-3.437,11.73,11.73,0,0,1,5.388-.963q.874,0,1.325.025v-.726a2.721,2.721,0,0,0-.776-2.125,3.463,3.463,0,0,0-2.375-.7,7.352,7.352,0,0,0-3.824,1.075l-.75-1.424a8.791,8.791,0,0,1,4.7-1.326,5.317,5.317,0,0,1,3.913,1.25,5.2,5.2,0,0,1,1.238,3.8v5.2a23.522,23.522,0,0,0,.175,2.826H55.568a11.774,11.774,0,0,1-.174-1.725h-.076a4.552,4.552,0,0,1-1.761,1.55,6.207,6.207,0,0,1-2.739.524,4.346,4.346,0,0,1-2.974-.987A3.573,3.573,0,0,1,46.719,133.189Zm8.5-1.226v-1.649l-1.125-.025a14.245,14.245,0,0,0-2.988.25,3.05,3.05,0,0,0-1.65.849,2.428,2.428,0,0,0-.537,1.676,2.161,2.161,0,0,0,.649,1.688,2.593,2.593,0,0,0,1.8.586,4.025,4.025,0,0,0,2.074-.512,3.577,3.577,0,0,0,1.326-1.287A3.114,3.114,0,0,0,55.219,131.963Z" style="fill:#fff"/><path d="M61.469,126.789a23.909,23.909,0,0,0-.175-2.85h2.024a19.972,19.972,0,0,1,.175,2.024h.051a4.019,4.019,0,0,1,4-2.375,6.2,6.2,0,0,1,.725.076l-.125,1.825a4.374,4.374,0,0,0-.776-.05,3.369,3.369,0,0,0-2.8,1.225,4.947,4.947,0,0,0-.974,3.174v6.826H61.469Z" style="fill:#fff"/><path d="M70.269,119.588q0-1.349,1.4-1.349a1.2,1.2,0,0,1,1.375,1.349,1.2,1.2,0,0,1-1.375,1.3,1.382,1.382,0,0,1-1.075-.362A1.349,1.349,0,0,1,70.269,119.588Zm2.45,17.076H70.594V123.939h2.125Z" style="fill:#fff"/><path d="M77.019,126.789a23.909,23.909,0,0,0-.175-2.85h2.024a13.628,13.628,0,0,1,.175,1.8h.051a4.49,4.49,0,0,1,1.75-1.563,5.711,5.711,0,0,1,2.675-.588,4.386,4.386,0,0,1,3.562,1.388,5.213,5.213,0,0,1,1.162,3.463v8.225H86.118v-7.8a4.037,4.037,0,0,0-.75-2.513,2.851,2.851,0,0,0-2.425-.987,3.554,3.554,0,0,0-2.762,1.138,4.079,4.079,0,0,0-1.037,2.862v7.3H77.019Z" style="fill:#fff"/><path d="M90.719,139.263a3.268,3.268,0,0,1,.612-1.937,5.34,5.34,0,0,1,2.013-1.563,1.781,1.781,0,0,1-1.226-1.675,1.716,1.716,0,0,1,.488-1.2,2.9,2.9,0,0,1,1.363-.774,3.943,3.943,0,0,1-1.838-1.45,4.31,4.31,0,0,1-.662-2.475,4.225,4.225,0,0,1,1.4-3.351,5.734,5.734,0,0,1,3.9-1.224,7.137,7.137,0,0,1,1.137.075,11.4,11.4,0,0,1,1.113.25h4.424v1.7l-2.825-.3a3.074,3.074,0,0,1,.976,1.2,4.206,4.206,0,0,1,.375,1.849,3.88,3.88,0,0,1-1.375,3.163,5.874,5.874,0,0,1-3.851,1.138,4.839,4.839,0,0,0-1.962.324,1.006,1.006,0,0,0-.713.9q0,1.025,2.425,1.049a11.37,11.37,0,0,1,5.113.938,2.889,2.889,0,0,1,1.587,2.687,3.755,3.755,0,0,1-1.787,3.326,9.085,9.085,0,0,1-5.012,1.174,7.414,7.414,0,0,1-4.238-1A3.238,3.238,0,0,1,90.719,139.263Zm10.375-.5a1.527,1.527,0,0,0-.563-1.224,4.213,4.213,0,0,0-1.913-.725,21.315,21.315,0,0,0-3.7-.25,4.18,4.18,0,0,0-1.625,1.137,2.3,2.3,0,0,0-.5,1.463q0,2.324,3.675,2.325a6.854,6.854,0,0,0,3.45-.7A2.228,2.228,0,0,0,101.094,138.763Zm-1.1-10.55a2.975,2.975,0,0,0-.824-2.2,3.326,3.326,0,0,0-2.45-.824,3.435,3.435,0,0,0-2.388.8,2.749,2.749,0,0,0-.888,2.149,2.982,2.982,0,0,0,.813,2.226,3.382,3.382,0,0,0,2.463.8Q99.992,131.164,99.993,128.213Z" style="fill:#fff"/><path d="M111.518,133.189a3.556,3.556,0,0,1,1.788-3.437,11.725,11.725,0,0,1,5.387-.963q.874,0,1.325.025v-.726a2.721,2.721,0,0,0-.775-2.125,3.463,3.463,0,0,0-2.375-.7,7.355,7.355,0,0,0-3.825,1.075l-.75-1.424a8.794,8.794,0,0,1,4.7-1.326,5.315,5.315,0,0,1,3.912,1.25,5.2,5.2,0,0,1,1.238,3.8v5.2a23.522,23.522,0,0,0,.175,2.826h-1.95a11.663,11.663,0,0,1-.175-1.725h-.075a4.565,4.565,0,0,1-1.763,1.55,6.2,6.2,0,0,1-2.737.524,4.348,4.348,0,0,1-2.975-.987A3.573,3.573,0,0,1,111.518,133.189Zm8.5-1.226v-1.649l-1.125-.025a14.238,14.238,0,0,0-2.988.25,3.047,3.047,0,0,0-1.649.849,2.419,2.419,0,0,0-.538,1.676,2.161,2.161,0,0,0,.65,1.688,2.589,2.589,0,0,0,1.8.586,4.032,4.032,0,0,0,2.075-.512,3.581,3.581,0,0,0,1.325-1.287A3.1,3.1,0,0,0,120.018,131.963Z" style="fill:#fff"/><path d="M126.268,126.789a23.909,23.909,0,0,0-.175-2.85h2.025a13.628,13.628,0,0,1,.175,1.8h.05a4.5,4.5,0,0,1,1.75-1.563,5.714,5.714,0,0,1,2.675-.588,4.384,4.384,0,0,1,3.562,1.388,5.208,5.208,0,0,1,1.163,3.463v8.225h-2.125v-7.8a4.037,4.037,0,0,0-.75-2.513,2.851,2.851,0,0,0-2.425-.987,3.554,3.554,0,0,0-2.762,1.138,4.075,4.075,0,0,0-1.038,2.862v7.3h-2.125Z" style="fill:#fff"/><path d="M153.043,136.664h-1.975a12.309,12.309,0,0,1-.175-1.9h-.049a4.989,4.989,0,0,1-4.551,2.25,4.928,4.928,0,0,1-4.138-1.849,7.646,7.646,0,0,1-1.437-4.826,8.064,8.064,0,0,1,.713-3.437,5.759,5.759,0,0,1,2.037-2.425,6,6,0,0,1,7.276.763v-6.276h2.125v14.875A23.517,23.517,0,0,0,153.043,136.664Zm-2.3-5.475v-4a4.967,4.967,0,0,0-1.688-1.413,4.837,4.837,0,0,0-2.163-.462,3.459,3.459,0,0,0-2.913,1.4,6.841,6.841,0,0,0-.037,7.263,3.361,3.361,0,0,0,2.825,1.338,3.765,3.765,0,0,0,2.887-1.163A4.16,4.16,0,0,0,150.744,131.189Z" style="fill:#fff"/><path d="M170.493,136.664h-2.3l-6.7-17.7h2.375l5.5,15.226h.075l5.425-15.226h2.351Z" style="fill:#fff"/><path d="M178.893,119.588q0-1.349,1.4-1.349a1.2,1.2,0,0,1,1.375,1.349,1.2,1.2,0,0,1-1.375,1.3,1.382,1.382,0,0,1-1.075-.362A1.349,1.349,0,0,1,178.893,119.588Zm2.45,17.076h-2.125V123.939h2.125Z" style="fill:#fff"/><path d="M193.343,124.939l-.949,1.324a5.51,5.51,0,0,0-3.2-1.024,3.29,3.29,0,0,0-1.875.462,1.5,1.5,0,0,0-.674,1.312,1.769,1.769,0,0,0,.274,1.026,2.051,2.051,0,0,0,.925.674,12.867,12.867,0,0,0,1.9.576,6.188,6.188,0,0,1,2.888,1.387,3.184,3.184,0,0,1,.937,2.388,3.412,3.412,0,0,1-1.4,2.912,5.631,5.631,0,0,1-3.45,1.037,7.149,7.149,0,0,1-4.6-1.474l.975-1.326a6.886,6.886,0,0,0,1.676.851,5.89,5.89,0,0,0,1.875.274,3.29,3.29,0,0,0,2.011-.549,1.848,1.848,0,0,0,.739-1.576,1.917,1.917,0,0,0-.276-1.086,2.01,2.01,0,0,0-.912-.688,13.657,13.657,0,0,0-1.913-.6,6.522,6.522,0,0,1-2.875-1.349,3.39,3.39,0,0,1,.362-4.938,5.368,5.368,0,0,1,3.338-.963A6.78,6.78,0,0,1,193.343,124.939Z" style="fill:#fff"/><path d="M196.393,119.588q0-1.349,1.4-1.349a1.2,1.2,0,0,1,1.375,1.349,1.2,1.2,0,0,1-1.375,1.3,1.382,1.382,0,0,1-1.075-.362A1.349,1.349,0,0,1,196.393,119.588Zm2.45,17.076h-2.125V123.939h2.125Z" style="fill:#fff"/><path d="M215.318,130.289a8.107,8.107,0,0,1-.7,3.424,5.579,5.579,0,0,1-2.075,2.414,5.921,5.921,0,0,1-3.274.886,5.793,5.793,0,0,1-4.151-1.675l-.2,1.326h-1.75v-17.7h2.125v6.8h.075a4.316,4.316,0,0,1,1.725-1.6,5.544,5.544,0,0,1,2.6-.576,5.133,5.133,0,0,1,5,3.289A8.867,8.867,0,0,1,215.318,130.289Zm-2.174,0a5.952,5.952,0,0,0-1.013-3.651,3.319,3.319,0,0,0-2.813-1.349,4.035,4.035,0,0,0-2.1.549,3.76,3.76,0,0,0-1.425,1.5,4.4,4.4,0,0,0-.5,2.076v4.224a6.106,6.106,0,0,0,1.737,1.263,4.662,4.662,0,0,0,1.989.413,3.631,3.631,0,0,0,3.049-1.388A5.775,5.775,0,0,0,213.144,130.289Z" style="fill:#fff"/><path d="M218.393,119.588q0-1.349,1.4-1.349a1.2,1.2,0,0,1,1.375,1.349,1.2,1.2,0,0,1-1.375,1.3,1.382,1.382,0,0,1-1.075-.362A1.349,1.349,0,0,1,218.393,119.588Zm2.45,17.076h-2.125V123.939h2.125Z" style="fill:#fff"/><path d="M227.293,118.963v17.7h-2.125v-17.7Z" style="fill:#fff"/><path d="M231.293,119.588q0-1.349,1.4-1.349a1.2,1.2,0,0,1,1.375,1.349,1.2,1.2,0,0,1-1.375,1.3,1.382,1.382,0,0,1-1.075-.362A1.349,1.349,0,0,1,231.293,119.588Zm2.45,17.076h-2.125V123.939h2.125Z" style="fill:#fff"/><path d="M240.644,123.939h3.375v1.625h-3.375v7.675q0,2.049,1.875,2.05a4.3,4.3,0,0,0,1.25-.175l.325,1.575a5.539,5.539,0,0,1-1.976.324,3.617,3.617,0,0,1-2.637-.937,3.544,3.544,0,0,1-.962-2.662v-7.85h-2.25v-1.375l2.224-.25v-3.125l2.151-.75Z" style="fill:#fff"/><path d="M250.943,139.763a5.973,5.973,0,0,1-1.549,2.526,3.619,3.619,0,0,1-2.451.8,5.02,5.02,0,0,1-1.775-.3l.426-1.576a4.026,4.026,0,0,0,1.074.151,1.911,1.911,0,0,0,1.437-.526,4.313,4.313,0,0,0,.888-1.575l.875-2.524-4.95-12.8h2.3l3.7,10.475h.051l3.4-10.475h2.175Z" style="fill:#fff"/><path d="M33.645,158.789q0,4.325-2.413,6.6a9.392,9.392,0,0,1-6.712,2.276h-5.7v-17.7H24.47q4.4,0,6.787,2.188T33.645,158.789Zm-12.625-7v14.025H24.3a7.342,7.342,0,0,0,5.262-1.726q1.814-1.724,1.812-5.3,0-7-7.05-7Z" style="fill:#fff"/><path d="M47.72,162.064H38.27a4.909,4.909,0,0,0,1.174,3.1,3.862,3.862,0,0,0,3,1.15A6.359,6.359,0,0,0,44.507,166a7.9,7.9,0,0,0,1.838-.938l.949,1.375a8.4,8.4,0,0,1-2.287,1.175,8.566,8.566,0,0,1-2.688.4,5.775,5.775,0,0,1-4.562-1.849,7.159,7.159,0,0,1-1.638-4.925,8.149,8.149,0,0,1,.7-3.476,5.371,5.371,0,0,1,2.037-2.337,5.937,5.937,0,0,1,3.213-.838,5.146,5.146,0,0,1,4.238,1.8,7.343,7.343,0,0,1,1.463,4.776A5.991,5.991,0,0,1,47.72,162.064Zm-2.026-1.65a4.938,4.938,0,0,0-.974-3.05,3.234,3.234,0,0,0-2.676-1.151,3.36,3.36,0,0,0-2.75,1.188,4.932,4.932,0,0,0-1.05,3.013Z" style="fill:#fff"/><path d="M58.844,155.939l-.95,1.324a5.505,5.505,0,0,0-3.2-1.024,3.286,3.286,0,0,0-1.875.462,1.5,1.5,0,0,0-.675,1.312,1.769,1.769,0,0,0,.275,1.026,2.051,2.051,0,0,0,.925.674,12.867,12.867,0,0,0,1.9.576,6.188,6.188,0,0,1,2.888,1.387,3.184,3.184,0,0,1,.937,2.388,3.412,3.412,0,0,1-1.4,2.912,5.634,5.634,0,0,1-3.45,1.037,7.149,7.149,0,0,1-4.6-1.474l.975-1.326a6.9,6.9,0,0,0,1.675.851,5.9,5.9,0,0,0,1.875.274,3.292,3.292,0,0,0,2.012-.549,1.85,1.85,0,0,0,.738-1.576,1.925,1.925,0,0,0-.275-1.086,2.008,2.008,0,0,0-.913-.688,13.635,13.635,0,0,0-1.912-.6,6.517,6.517,0,0,1-2.875-1.349,3.388,3.388,0,0,1,.362-4.938,5.368,5.368,0,0,1,3.338-.963A6.78,6.78,0,0,1,58.844,155.939Z" style="fill:#fff"/><path d="M61.894,150.588q0-1.349,1.4-1.349a1.2,1.2,0,0,1,1.375,1.349,1.2,1.2,0,0,1-1.375,1.3,1.382,1.382,0,0,1-1.075-.362A1.349,1.349,0,0,1,61.894,150.588Zm2.45,17.076H62.219V154.939h2.125Z" style="fill:#fff"/><path d="M66.993,170.263a3.268,3.268,0,0,1,.612-1.937,5.356,5.356,0,0,1,2.013-1.563,1.781,1.781,0,0,1-1.224-1.675,1.715,1.715,0,0,1,.487-1.2,2.905,2.905,0,0,1,1.362-.774,3.95,3.95,0,0,1-1.837-1.45,4.311,4.311,0,0,1-.663-2.475,4.223,4.223,0,0,1,1.4-3.351,5.727,5.727,0,0,1,3.9-1.224,7.159,7.159,0,0,1,1.138.075,11.389,11.389,0,0,1,1.112.25h4.426v1.7l-2.825-.3a3.088,3.088,0,0,1,.974,1.2,4.206,4.206,0,0,1,.375,1.849,3.877,3.877,0,0,1-1.375,3.163,5.872,5.872,0,0,1-3.849,1.138,4.841,4.841,0,0,0-1.963.324,1,1,0,0,0-.712.9q0,1.025,2.425,1.049a11.375,11.375,0,0,1,5.112.938,2.89,2.89,0,0,1,1.588,2.687,3.758,3.758,0,0,1-1.788,3.326,9.089,9.089,0,0,1-5.013,1.174,7.414,7.414,0,0,1-4.237-1A3.241,3.241,0,0,1,66.993,170.263Zm10.375-.5a1.526,1.526,0,0,0-.562-1.224,4.218,4.218,0,0,0-1.912-.725,21.348,21.348,0,0,0-3.7-.25,4.18,4.18,0,0,0-1.625,1.137,2.3,2.3,0,0,0-.5,1.463q0,2.324,3.675,2.325a6.849,6.849,0,0,0,3.45-.7A2.227,2.227,0,0,0,77.368,169.763Zm-1.1-10.55a2.977,2.977,0,0,0-.826-2.2,3.323,3.323,0,0,0-2.45-.824,3.435,3.435,0,0,0-2.388.8,2.751,2.751,0,0,0-.886,2.149,2.981,2.981,0,0,0,.812,2.226,3.381,3.381,0,0,0,2.462.8Q76.269,162.164,76.269,159.213Z" style="fill:#fff"/><path d="M82.443,157.789a23.9,23.9,0,0,0-.174-2.85h2.024a13.628,13.628,0,0,1,.175,1.8h.051a4.49,4.49,0,0,1,1.75-1.563,5.71,5.71,0,0,1,2.674-.588,4.388,4.388,0,0,1,3.563,1.388,5.213,5.213,0,0,1,1.162,3.463v8.225H91.543v-7.8a4.037,4.037,0,0,0-.75-2.513,2.852,2.852,0,0,0-2.425-.987,3.558,3.558,0,0,0-2.763,1.138,4.083,4.083,0,0,0-1.037,2.862v7.3H82.443Z" style="fill:#fff"/><path d="M108.493,162.064h-9.45a4.915,4.915,0,0,0,1.176,3.1,3.856,3.856,0,0,0,3,1.15,6.361,6.361,0,0,0,2.062-.312,7.871,7.871,0,0,0,1.837-.938l.95,1.375a8.383,8.383,0,0,1-2.287,1.175,8.564,8.564,0,0,1-2.687.4,5.776,5.776,0,0,1-4.563-1.849,7.158,7.158,0,0,1-1.637-4.925,8.134,8.134,0,0,1,.7-3.476,5.358,5.358,0,0,1,2.037-2.337,5.935,5.935,0,0,1,3.213-.838,5.147,5.147,0,0,1,4.237,1.8,7.343,7.343,0,0,1,1.462,4.776A5.991,5.991,0,0,1,108.493,162.064Zm-2.024-1.65a4.945,4.945,0,0,0-.976-3.05,3.232,3.232,0,0,0-2.675-1.151,3.362,3.362,0,0,0-2.75,1.188,4.919,4.919,0,0,0-1.049,3.013Z" style="fill:#fff"/><path d="M111.918,157.789a23.909,23.909,0,0,0-.175-2.85h2.025a20,20,0,0,1,.174,2.024h.051a4.021,4.021,0,0,1,4-2.375,6.2,6.2,0,0,1,.725.076l-.125,1.825a4.374,4.374,0,0,0-.776-.05,3.367,3.367,0,0,0-2.8,1.225,4.941,4.941,0,0,0-.975,3.174v6.826h-2.125Z" style="fill:#fff"/><g id="g3003"><path id="path3005" d="M260.557,58.506a6.71,6.71,0,0,1,4.857-2.084,6.78,6.78,0,0,1,5.905,3.5,8.166,8.166,0,0,1,3.338-.707,8.328,8.328,0,0,1,0,16.651,8.223,8.223,0,0,1-1.641-.165,6.036,6.036,0,0,1-7.889,2.481,6.885,6.885,0,0,1-12.8-.312,6.276,6.276,0,0,1-1.311.137,6.47,6.47,0,0,1-3.2-12.049A7.436,7.436,0,0,1,260.552,58.5" style="fill:#00a1e0"/></g></svg>