<svg id="Layer_1" data-name="Layer 1" xmlns="http://www.w3.org/2000/svg" viewBox="0 0 100 60"><defs><style>.cls-1{fill:#003c4d;}.cls-2{fill:#00a1e0;}.cls-3{fill:#fff;}</style></defs><title>SF_Crt</title><path class="cls-1" d="M5,0H95a5,5,0,0,1,5,5V33.094a0,0,0,0,1,0,0H0a0,0,0,0,1,0,0V5A5,5,0,0,1,5,0Z"/><path class="cls-2" d="M0,32.994H100a0,0,0,0,1,0,0V55a5,5,0,0,1-5,5H5a5,5,0,0,1-5-5V32.994A0,0,0,0,1,0,32.994Z"/><path class="cls-3" d="M7.763,14.7l.756-1a3.356,3.356,0,0,0,1.014.516,4,4,0,0,0,1.146.156,2.056,2.056,0,0,0,1.194-.312,1.061,1.061,0,0,0,.45-.936,1.134,1.134,0,0,0-.215-.727,1.53,1.53,0,0,0-.618-.437,9.3,9.3,0,0,0-1.11-.36,3.841,3.841,0,0,1-1.746-.882,2.094,2.094,0,0,1-.6-1.567,2.14,2.14,0,0,1,.4-1.3A2.438,2.438,0,0,1,9.51,7.041a4,4,0,0,1,1.529-.276,4.645,4.645,0,0,1,2.748.839l-.708,1.021a4.142,4.142,0,0,0-.984-.456,3.493,3.493,0,0,0-1.02-.145A1.958,1.958,0,0,0,10,8.283a.859.859,0,0,0-.4.774.893.893,0,0,0,.409.8,4.84,4.84,0,0,0,1.356.523,4.438,4.438,0,0,1,1.908.93,2.27,2.27,0,0,1,.659,1.757,2.414,2.414,0,0,1-.431,1.458,2.55,2.55,0,0,1-1.171.883,4.466,4.466,0,0,1-1.637.287,4.87,4.87,0,0,1-1.6-.257A4.342,4.342,0,0,1,7.763,14.7Z"/><path class="cls-3" d="M21.252,13.629H17.8l-.684,1.836H15.468l3.264-8.5h1.62l3.252,8.5H21.9Zm-3.036-1.2h2.628L19.536,8.577Z"/><path class="cls-3" d="M27.324,14.157H31v1.308H25.752v-8.5h1.572Z"/><path class="cls-3" d="M38.58,8.228H34.788V10.5h3.24v1.212h-3.24v2.472h4v1.284H33.216v-8.5H38.58Z"/><path class="cls-3" d="M40.6,14.7l.756-1a3.356,3.356,0,0,0,1.014.516,3.99,3.99,0,0,0,1.146.156,2.058,2.058,0,0,0,1.194-.312,1.063,1.063,0,0,0,.45-.936,1.134,1.134,0,0,0-.216-.727,1.53,1.53,0,0,0-.618-.437,9.184,9.184,0,0,0-1.11-.36,3.841,3.841,0,0,1-1.746-.882,2.093,2.093,0,0,1-.594-1.567,2.133,2.133,0,0,1,.4-1.3,2.44,2.44,0,0,1,1.074-.815,4.008,4.008,0,0,1,1.53-.276A4.645,4.645,0,0,1,46.62,7.6l-.708,1.021a4.142,4.142,0,0,0-.984-.456,3.5,3.5,0,0,0-1.02-.145,1.958,1.958,0,0,0-1.074.259.859.859,0,0,0-.4.774.892.892,0,0,0,.408.8,4.853,4.853,0,0,0,1.356.523,4.432,4.432,0,0,1,1.908.93,2.267,2.267,0,0,1,.66,1.757,2.408,2.408,0,0,1-.432,1.458,2.552,2.552,0,0,1-1.17.883,4.471,4.471,0,0,1-1.638.287,4.864,4.864,0,0,1-1.6-.257A4.331,4.331,0,0,1,40.6,14.7Z"/><path class="cls-3" d="M54.72,8.253H50.928v2.364h3.3V11.9h-3.3v3.565H49.356v-8.5H54.72Z"/><path class="cls-3" d="M56.412,11.217a5.1,5.1,0,0,1,.516-2.346A3.7,3.7,0,0,1,58.422,7.3a5.165,5.165,0,0,1,4.674,0,3.689,3.689,0,0,1,1.5,1.572,5.1,5.1,0,0,1,.516,2.346,5.1,5.1,0,0,1-.516,2.345,3.691,3.691,0,0,1-1.5,1.573,5.181,5.181,0,0,1-4.674,0,3.7,3.7,0,0,1-1.494-1.573A5.1,5.1,0,0,1,56.412,11.217Zm7.092,0a3.486,3.486,0,0,0-.69-2.28,2.926,2.926,0,0,0-4.1,0,3.486,3.486,0,0,0-.69,2.28,3.486,3.486,0,0,0,.69,2.28,2.926,2.926,0,0,0,4.1,0A3.486,3.486,0,0,0,63.5,11.217Z"/><path class="cls-3" d="M72.492,15.465l-1.68-2.88h-1.44v2.88H67.8v-8.5h2.976a3.5,3.5,0,0,1,2.316.738,2.581,2.581,0,0,1,.888,2.1,2.44,2.44,0,0,1-1.716,2.46l2.028,3.193Zm-1.8-4.08a1.811,1.811,0,0,0,1.2-.39,1.452,1.452,0,0,0,.468-1.183,1.447,1.447,0,0,0-.48-1.193,1.855,1.855,0,0,0-1.212-.391H69.36v3.157Z"/><path class="cls-3" d="M83.509,7.809,82.62,8.816a3.057,3.057,0,0,0-.936-.54,3.2,3.2,0,0,0-1.1-.191,2.441,2.441,0,0,0-2.052.846,3.6,3.6,0,0,0-.66,2.274,3.559,3.559,0,0,0,.66,2.25,2.4,2.4,0,0,0,2.016.846,2.906,2.906,0,0,0,1.176-.235,3.239,3.239,0,0,0,.948-.617l.948,1.031a4.064,4.064,0,0,1-1.35.876,4.556,4.556,0,0,1-1.77.336,4.458,4.458,0,0,1-2.316-.569,3.66,3.66,0,0,1-1.452-1.584,5.284,5.284,0,0,1-.492-2.334,5.246,5.246,0,0,1,.5-2.352A3.621,3.621,0,0,1,78.2,7.287a4.568,4.568,0,0,1,2.322-.559,4.855,4.855,0,0,1,1.68.289A3.615,3.615,0,0,1,83.509,7.809Z"/><path class="cls-3" d="M91.381,8.228H87.589V10.5h3.239v1.212H87.589v2.472h4v1.284H86.016v-8.5h5.365Z"/><path class="cls-3" d="M15.132,19.31l-.624.683a3.123,3.123,0,0,0-1.015-.6,3.43,3.43,0,0,0-1.206-.21,2.856,2.856,0,0,0-2.352.971,3.942,3.942,0,0,0-.792,2.569,3.917,3.917,0,0,0,.792,2.555,2.827,2.827,0,0,0,2.328.972,3.3,3.3,0,0,0,1.3-.258,3.4,3.4,0,0,0,1.069-.7l.648.708a3.993,3.993,0,0,1-1.338.87,4.522,4.522,0,0,1-1.711.319,4.352,4.352,0,0,1-2.274-.565,3.614,3.614,0,0,1-1.427-1.571,5.808,5.808,0,0,1,0-4.656,3.572,3.572,0,0,1,1.433-1.567,4.447,4.447,0,0,1,2.293-.557,4.637,4.637,0,0,1,1.595.269A3.726,3.726,0,0,1,15.132,19.31Z"/><path class="cls-3" d="M22.98,19.333H18.888v2.856h3.564v.817H18.888v3.1h4.3v.876H17.832v-8.5H22.98Z"/><path class="cls-3" d="M30.575,26.978l-1.932-3.109H26.867v3.109H25.8v-8.5H28.6a3.621,3.621,0,0,1,1.507.306,2.457,2.457,0,0,1,1.074.924,2.74,2.74,0,0,1,.4,1.507,2.411,2.411,0,0,1-.522,1.62,2.809,2.809,0,0,1-1.387.863L31.8,26.978Zm-2.016-3.924a2.038,2.038,0,0,0,1.374-.468,1.7,1.7,0,0,0,.547-1.368,1.738,1.738,0,0,0-.564-1.41,2.089,2.089,0,0,0-1.392-.475H26.856v3.721Z"/><path class="cls-3" d="M39.6,19.382H36.924v7.6H35.855v-7.6H33.167v-.9H39.6Z"/><path class="cls-3" d="M43.584,26.161h1.008v.817H41.52v-.817h1.008V19.273H41.52v-.792h3.072v.792H43.584Z"/><path class="cls-3" d="M52.692,19.357H48.6v2.905h3.624v.863H48.6v3.853H47.532v-8.5h5.16Z"/><path class="cls-3" d="M56.832,26.161H57.84v.817H54.768v-.817h1.008V19.273H54.768v-.792H57.84v.792H56.832Z"/><path class="cls-3" d="M65.928,19.333H61.836v2.856H65.4v.817H61.836v3.1h4.3v.876H60.78v-8.5h5.148Z"/><path class="cls-3" d="M75.864,22.718a4.148,4.148,0,0,1-1.158,3.168,4.515,4.515,0,0,1-3.222,1.092H68.748v-8.5H71.46a4.651,4.651,0,0,1,3.258,1.05A4.116,4.116,0,0,1,75.864,22.718ZM69.8,19.357V26.09h1.572a3.531,3.531,0,0,0,2.526-.828,3.363,3.363,0,0,0,.87-2.544q0-3.36-3.384-3.361Z"/><g id="g3003"><path id="path3005" class="cls-2" d="M85.026,19.3a2.109,2.109,0,0,1,1.53-.656,2.133,2.133,0,0,1,1.86,1.1,2.561,2.561,0,0,1,1.052-.223,2.624,2.624,0,0,1,0,5.246,2.562,2.562,0,0,1-.517-.052,1.9,1.9,0,0,1-2.486.782,2.169,2.169,0,0,1-4.032-.1,2.035,2.035,0,0,1-1.42-3.753,2.343,2.343,0,0,1,4.011-2.349"/></g><path class="cls-3" d="M43.182,51.555v2.439H33.119V51.577H37.2V40.985l-3.841,1.942-1.072-2.1L37.475,38h2.532V51.555Z"/><path class="cls-3" d="M55.39,51.555v2.439H45.327V51.577H49.4V40.985l-3.841,1.942-1.072-2.1L49.683,38h2.532V51.555Z"/><path class="cls-3" d="M68.684,53.994H65.466l-2.875-4.382-2.768,4.382H56.647l4.291-6.143-3.819-5.6h3.09L62.7,46.2l2.445-3.952h2.94l-3.754,5.6Z"/></svg>