<svg id="Layer_1" data-name="Layer 1" xmlns="http://www.w3.org/2000/svg" width="60" height="60" viewBox="0 0 60 60"><title>SF_Crt</title><path d="M55,2a3,3,0,0,1,3,3V55a3,3,0,0,1-3,3H5a3,3,0,0,1-3-3V5A3,3,0,0,1,5,2H55m0-2H5A5,5,0,0,0,0,5V55a5,5,0,0,0,5,5H55a5,5,0,0,0,5-5V5a5,5,0,0,0-5-5Z" style="fill:#fff"/><path d="M26.68,42.515H24.5a1.783,1.783,0,0,0-.227-.044,17.48,17.48,0,0,1-6.586-1.794c-.53-.263-1.038-.571-1.556-.858a14.335,14.335,0,0,0,4.761-.467,12.42,12.42,0,0,0,4.266-2.168,6.114,6.114,0,0,1-5.709-4.266,6.531,6.531,0,0,0,2.7-.138,6.169,6.169,0,0,1-3.564-2.2,6.027,6.027,0,0,1-1.341-3.917,6.272,6.272,0,0,0,2.714.745,6.193,6.193,0,0,1-1.816-8.2,17.8,17.8,0,0,0,5.666,4.548,17.056,17.056,0,0,0,7.018,1.868c-.041-.4-.095-.766-.115-1.136a6.175,6.175,0,0,1,10.5-4.669.5.5,0,0,0,.371.131,11.69,11.69,0,0,0,3.371-1.25c.1-.053.2-.1.349-.174a6.544,6.544,0,0,1-2.547,3.335,11.454,11.454,0,0,0,3.376-.9,12.524,12.524,0,0,1-2.848,3.011.441.441,0,0,0-.213.407,17.694,17.694,0,0,1-2.806,10.092,16.566,16.566,0,0,1-11.843,7.824C27.845,42.383,27.261,42.441,26.68,42.515Z" style="fill:#fff"/></svg>