<svg id="Layer_1" data-name="Layer 1" xmlns="http://www.w3.org/2000/svg" width="300" height="185" viewBox="0 0 300 185"><title>SF_Crt</title><rect width="300" height="102.041" style="fill:#003c4d"/><rect y="101.733" width="300" height="83.267" style="fill:#00a1e0"/><path d="M15.324,43.913l2.4-3.162a10.555,10.555,0,0,0,3.218,1.638,12.635,12.635,0,0,0,3.638.495,6.529,6.529,0,0,0,3.79-.99A3.376,3.376,0,0,0,29.8,38.923a3.582,3.582,0,0,0-.686-2.3,4.83,4.83,0,0,0-1.961-1.389,29.663,29.663,0,0,0-3.523-1.143,12.157,12.157,0,0,1-5.542-2.8,6.639,6.639,0,0,1-1.886-4.97A6.76,6.76,0,0,1,17.458,22.2a7.724,7.724,0,0,1,3.408-2.59,12.783,12.783,0,0,1,4.857-.877A14.73,14.73,0,0,1,34.445,21.4L32.2,24.64a13.178,13.178,0,0,0-3.124-1.448,11.231,11.231,0,0,0-3.237-.457,6.249,6.249,0,0,0-3.409.819,2.726,2.726,0,0,0-1.276,2.457,2.839,2.839,0,0,0,1.295,2.533,15.52,15.52,0,0,0,4.3,1.656,14.077,14.077,0,0,1,6.056,2.952A7.2,7.2,0,0,1,34.9,38.733a7.653,7.653,0,0,1-1.371,4.627,8.113,8.113,0,0,1-3.714,2.8,14.182,14.182,0,0,1-5.2.914,15.354,15.354,0,0,1-5.066-.819A13.742,13.742,0,0,1,15.324,43.913Z" style="fill:#fff"/><path d="M58.137,40.523H47.167L45,46.351H39.778l10.36-26.968H55.28L65.6,46.351H60.193ZM48.5,36.714h8.342L52.69,24.487Z" style="fill:#fff"/><path d="M77.409,42.2H89.064v4.153H72.42V19.383h4.989Z" style="fill:#fff"/><path d="M113.137,23.383H101.1v7.2h10.284v3.848H101.1v7.846h12.683v4.076H96.111V19.383h17.026Z" style="fill:#fff"/><path d="M119.535,43.913l2.4-3.162a10.555,10.555,0,0,0,3.218,1.638,12.635,12.635,0,0,0,3.638.495,6.529,6.529,0,0,0,3.79-.99,3.376,3.376,0,0,0,1.428-2.971,3.582,3.582,0,0,0-.686-2.3,4.83,4.83,0,0,0-1.961-1.389,29.663,29.663,0,0,0-3.523-1.143,12.157,12.157,0,0,1-5.542-2.8,6.639,6.639,0,0,1-1.886-4.97,6.766,6.766,0,0,1,1.257-4.114,7.732,7.732,0,0,1,3.409-2.59,12.783,12.783,0,0,1,4.857-.877,14.73,14.73,0,0,1,8.722,2.667l-2.247,3.238a13.178,13.178,0,0,0-3.124-1.448,11.231,11.231,0,0,0-3.237-.457,6.247,6.247,0,0,0-3.409.819,2.726,2.726,0,0,0-1.276,2.457,2.839,2.839,0,0,0,1.3,2.533,15.52,15.52,0,0,0,4.3,1.656,14.077,14.077,0,0,1,6.056,2.952,7.2,7.2,0,0,1,2.095,5.581,7.653,7.653,0,0,1-1.371,4.627,8.113,8.113,0,0,1-3.714,2.8,14.182,14.182,0,0,1-5.2.914,15.354,15.354,0,0,1-5.066-.819A13.731,13.731,0,0,1,119.535,43.913Z" style="fill:#fff"/><path d="M164.367,23.459H152.33v7.5H162.8v4.076H152.33V46.351h-4.99V19.383h17.027Z" style="fill:#fff"/><path d="M169.737,32.867a16.2,16.2,0,0,1,1.638-7.446,11.75,11.75,0,0,1,4.742-4.99,16.413,16.413,0,0,1,14.836,0,11.721,11.721,0,0,1,4.76,4.99,16.2,16.2,0,0,1,1.638,7.446,16.2,16.2,0,0,1-1.638,7.447,11.724,11.724,0,0,1-4.76,4.989,16.421,16.421,0,0,1-14.836,0,11.753,11.753,0,0,1-4.742-4.989A16.2,16.2,0,0,1,169.737,32.867Zm22.511,0a11.062,11.062,0,0,0-2.191-7.237q-2.19-2.665-6.532-2.666-4.3,0-6.494,2.666a11.062,11.062,0,0,0-2.19,7.237,11.066,11.066,0,0,0,2.19,7.237q2.19,2.667,6.494,2.666,4.342,0,6.532-2.666A11.066,11.066,0,0,0,192.248,32.867Z" style="fill:#fff"/><path d="M220.776,46.351l-5.332-9.142h-4.57v9.142h-4.991V19.383h9.447a11.123,11.123,0,0,1,7.351,2.343A8.2,8.2,0,0,1,225.5,28.41a7.749,7.749,0,0,1-5.448,7.809l6.438,10.132ZM215.063,33.4a5.753,5.753,0,0,0,3.809-1.239,4.606,4.606,0,0,0,1.485-3.752,4.6,4.6,0,0,0-1.524-3.79,5.905,5.905,0,0,0-3.846-1.237h-4.152V33.4Z" style="fill:#fff"/><path d="M255.742,22.05l-2.819,3.2a9.6,9.6,0,0,0-2.97-1.714,10.191,10.191,0,0,0-3.5-.609q-4.419,0-6.513,2.685a11.426,11.426,0,0,0-2.095,7.218,11.294,11.294,0,0,0,2.095,7.142q2.094,2.685,6.4,2.684a9.3,9.3,0,0,0,3.734-.742,10.341,10.341,0,0,0,3.009-1.962l3.008,3.276a13.02,13.02,0,0,1-4.285,2.781,14.539,14.539,0,0,1-5.618,1.066,14.148,14.148,0,0,1-7.35-1.809,11.608,11.608,0,0,1-4.61-5.028,16.769,16.769,0,0,1-1.561-7.408,16.646,16.646,0,0,1,1.581-7.466,11.48,11.48,0,0,1,4.646-4.97,14.5,14.5,0,0,1,7.37-1.772,15.468,15.468,0,0,1,5.333.915A11.451,11.451,0,0,1,255.742,22.05Z" style="fill:#fff"/><path d="M280.728,23.383H268.692v7.2h10.284v3.848H268.692v7.846h12.683v4.076H263.7V19.383h17.026Z" style="fill:#fff"/><path d="M38.711,58.555,36.73,60.726A9.95,9.95,0,0,0,33.512,58.8a11.018,11.018,0,0,0-3.828-.666q-4.952,0-7.466,3.085A12.5,12.5,0,0,0,19.7,69.372a12.437,12.437,0,0,0,2.513,8.112q2.515,3.086,7.39,3.086a10.478,10.478,0,0,0,4.113-.819,10.84,10.84,0,0,0,3.39-2.228l2.057,2.247a12.583,12.583,0,0,1-4.247,2.761,14.336,14.336,0,0,1-5.427,1.01,13.813,13.813,0,0,1-7.219-1.79,11.5,11.5,0,0,1-4.532-4.99,18.463,18.463,0,0,1,0-14.778,11.355,11.355,0,0,1,4.551-4.971A14.1,14.1,0,0,1,29.57,55.24a14.719,14.719,0,0,1,5.065.858A11.782,11.782,0,0,1,38.711,58.555Z" style="fill:#fff"/><path d="M63.621,58.631H50.633v9.064H61.945v2.591H50.633v9.827H64.269v2.781H47.281V55.926h16.34Z" style="fill:#fff"/><path d="M87.731,82.894,81.6,73.028H75.961v9.866H72.572V55.926h8.874a11.487,11.487,0,0,1,4.781.972,7.745,7.745,0,0,1,3.408,2.932,8.675,8.675,0,0,1,1.258,4.78,7.654,7.654,0,0,1-1.658,5.143,8.88,8.88,0,0,1-4.4,2.742l6.78,10.4Zm-6.4-12.455a6.466,6.466,0,0,0,4.361-1.486,5.4,5.4,0,0,0,1.733-4.343,5.515,5.515,0,0,0-1.79-4.475,6.634,6.634,0,0,0-4.418-1.5h-5.3V70.439Z" style="fill:#fff"/><path d="M116.374,58.783H107.88V82.894h-3.39V58.783H95.958V55.926h20.416Z" style="fill:#fff"/><path d="M129.019,80.3h3.2v2.59h-9.751V80.3h3.2V58.441h-3.2V55.926h9.751v2.515h-3.2Z" style="fill:#fff"/><path d="M157.929,58.707H144.94v9.217h11.5v2.743h-11.5V82.894h-3.389V55.926h16.378Z" style="fill:#fff"/><path d="M171.07,80.3h3.2v2.59h-9.751V80.3h3.2V58.441h-3.2V55.926h9.751v2.515h-3.2Z" style="fill:#fff"/><path d="M199.941,58.631H186.953v9.064h11.312v2.591H186.953v9.827h13.635v2.781H183.6V55.926h16.341Z" style="fill:#fff"/><path d="M231.478,69.372q0,6.59-3.676,10.055t-10.226,3.467h-8.685V55.926H217.5q6.7,0,10.34,3.333T231.478,69.372ZM212.244,58.707V80.075h4.989q5.256,0,8.017-2.629t2.762-8.074q0-10.665-10.741-10.665Z" style="fill:#fff"/><path d="M22.219,134.964h2.1v1.7h-6.4v-1.7h2.1v-14.35h-2.1v-1.65h6.4v1.65h-2.1Z" style="fill:#fff"/><path d="M27.819,126.789a23.888,23.888,0,0,0-.174-2.849h2.024a13.61,13.61,0,0,1,.175,1.8H29.9a4.488,4.488,0,0,1,1.75-1.562,5.7,5.7,0,0,1,2.674-.588,4.387,4.387,0,0,1,3.563,1.388,5.206,5.206,0,0,1,1.162,3.463v8.224H36.919v-7.8a4.036,4.036,0,0,0-.75-2.512,2.848,2.848,0,0,0-2.424-.988,3.555,3.555,0,0,0-2.763,1.138,4.083,4.083,0,0,0-1.038,2.862v7.3H27.819Z" style="fill:#fff"/><path d="M45.62,123.94H49v1.625H45.62v7.674q0,2.05,1.875,2.05a4.267,4.267,0,0,0,1.25-.175l.325,1.576a5.551,5.551,0,0,1-1.975.324,3.62,3.62,0,0,1-2.638-.938,3.543,3.543,0,0,1-.962-2.662v-7.849h-2.25V124.19l2.225-.25v-3.125l2.15-.75Z" style="fill:#fff"/><path d="M62.32,131.065H52.87a4.906,4.906,0,0,0,1.175,3.1,3.856,3.856,0,0,0,3,1.151A6.352,6.352,0,0,0,59.107,135a7.89,7.89,0,0,0,1.838-.937l.95,1.375a8.385,8.385,0,0,1-2.288,1.174,8.53,8.53,0,0,1-2.687.4,5.775,5.775,0,0,1-4.563-1.85,7.161,7.161,0,0,1-1.637-4.925,8.133,8.133,0,0,1,.7-3.475,5.352,5.352,0,0,1,2.037-2.337,5.928,5.928,0,0,1,3.213-.838,5.144,5.144,0,0,1,4.237,1.8,7.342,7.342,0,0,1,1.463,4.775A6.007,6.007,0,0,1,62.32,131.065ZM60.3,129.414a4.949,4.949,0,0,0-.975-3.05,3.235,3.235,0,0,0-2.675-1.15A3.359,3.359,0,0,0,53.9,126.4a4.926,4.926,0,0,0-1.05,3.013Z" style="fill:#fff"/><path d="M64.094,139.264a3.263,3.263,0,0,1,.613-1.938,5.342,5.342,0,0,1,2.012-1.562,1.781,1.781,0,0,1-1.225-1.675,1.714,1.714,0,0,1,.488-1.2,2.9,2.9,0,0,1,1.362-.775,3.932,3.932,0,0,1-1.837-1.45,4.305,4.305,0,0,1-.663-2.474,4.224,4.224,0,0,1,1.4-3.351,5.731,5.731,0,0,1,3.9-1.225,7.146,7.146,0,0,1,1.138.076,10.83,10.83,0,0,1,1.112.25h4.425v1.7l-2.825-.3a3.077,3.077,0,0,1,.975,1.2,4.214,4.214,0,0,1,.375,1.85,3.88,3.88,0,0,1-1.375,3.163,5.873,5.873,0,0,1-3.85,1.138,4.839,4.839,0,0,0-1.962.324,1,1,0,0,0-.713.9q0,1.026,2.425,1.05a11.379,11.379,0,0,1,5.113.937,2.891,2.891,0,0,1,1.587,2.688,3.754,3.754,0,0,1-1.787,3.325,9.088,9.088,0,0,1-5.013,1.175,7.412,7.412,0,0,1-4.237-1A3.24,3.24,0,0,1,64.094,139.264Zm10.375-.5a1.53,1.53,0,0,0-.562-1.225,4.23,4.23,0,0,0-1.913-.724,21.328,21.328,0,0,0-3.7-.25,4.179,4.179,0,0,0-1.625,1.136,2.3,2.3,0,0,0-.5,1.463q0,2.325,3.675,2.325a6.839,6.839,0,0,0,3.45-.7A2.225,2.225,0,0,0,74.469,138.764Zm-1.1-10.55a2.976,2.976,0,0,0-.825-2.2,3.324,3.324,0,0,0-2.45-.824,3.431,3.431,0,0,0-2.387.8,2.752,2.752,0,0,0-.888,2.15,2.979,2.979,0,0,0,.813,2.225,3.375,3.375,0,0,0,2.462.8Q73.369,131.164,73.369,128.214Z" style="fill:#fff"/><path d="M79.544,126.789a23.892,23.892,0,0,0-.175-2.849h2.025a19.972,19.972,0,0,1,.175,2.024h.05a4.021,4.021,0,0,1,4-2.375,6.133,6.133,0,0,1,.725.075l-.125,1.825a4.39,4.39,0,0,0-.775-.049,3.37,3.37,0,0,0-2.8,1.224,4.944,4.944,0,0,0-.975,3.175v6.825H79.544Z" style="fill:#fff"/><path d="M87.044,133.19a3.56,3.56,0,0,1,1.788-3.438,11.73,11.73,0,0,1,5.388-.963q.874,0,1.324.026v-.726a2.724,2.724,0,0,0-.774-2.125,3.461,3.461,0,0,0-2.375-.7,7.343,7.343,0,0,0-3.825,1.075l-.75-1.425a8.791,8.791,0,0,1,4.7-1.325,5.315,5.315,0,0,1,3.912,1.25,5.2,5.2,0,0,1,1.237,3.8v5.2a23.511,23.511,0,0,0,.176,2.825H95.9a11.64,11.64,0,0,1-.175-1.724h-.075a4.562,4.562,0,0,1-1.763,1.549,6.189,6.189,0,0,1-2.737.525,4.345,4.345,0,0,1-2.976-.988A3.571,3.571,0,0,1,87.044,133.19Zm8.5-1.226v-1.649l-1.125-.026a14.228,14.228,0,0,0-2.987.25,3.044,3.044,0,0,0-1.65.85,2.421,2.421,0,0,0-.537,1.676,2.156,2.156,0,0,0,.65,1.687,2.584,2.584,0,0,0,1.8.587,4.032,4.032,0,0,0,2.075-.513,3.581,3.581,0,0,0,1.325-1.287A3.1,3.1,0,0,0,95.544,131.964Z" style="fill:#fff"/><path d="M104.245,123.94h3.375v1.625h-3.375v7.674q0,2.05,1.875,2.05a4.267,4.267,0,0,0,1.25-.175l.325,1.576a5.551,5.551,0,0,1-1.975.324,3.62,3.62,0,0,1-2.638-.938,3.543,3.543,0,0,1-.962-2.662v-7.849H99.87V124.19l2.225-.25v-3.125l2.15-.75Z" style="fill:#fff"/><path d="M110.27,119.589a1.388,1.388,0,0,1,2.774,0,1.2,1.2,0,0,1-1.375,1.3,1.379,1.379,0,0,1-1.075-.363A1.345,1.345,0,0,1,110.27,119.589Zm2.449,17.075h-2.125V123.94h2.125Z" style="fill:#fff"/><path d="M128.894,130.264a7.8,7.8,0,0,1-.762,3.512,5.6,5.6,0,0,1-2.2,2.388,6.636,6.636,0,0,1-3.438.85,6.566,6.566,0,0,1-3.425-.863,5.59,5.59,0,0,1-2.2-2.387,7.829,7.829,0,0,1-.75-3.5,6.884,6.884,0,0,1,1.675-4.863,6.084,6.084,0,0,1,4.7-1.812,6.762,6.762,0,0,1,3.463.838,5.485,5.485,0,0,1,2.187,2.337A7.733,7.733,0,0,1,128.894,130.264Zm-10.575,0a5.971,5.971,0,0,0,1.037,3.663,3.667,3.667,0,0,0,3.138,1.388,3.728,3.728,0,0,0,3.175-1.388,5.916,5.916,0,0,0,1.05-3.663,5.752,5.752,0,0,0-1.05-3.625,3.772,3.772,0,0,0-3.175-1.35,3.7,3.7,0,0,0-3.15,1.35A5.854,5.854,0,0,0,118.319,130.264Z" style="fill:#fff"/><path d="M132.294,126.789a23.892,23.892,0,0,0-.175-2.849h2.025a13.61,13.61,0,0,1,.175,1.8h.05a4.5,4.5,0,0,1,1.75-1.562,5.7,5.7,0,0,1,2.675-.588,4.384,4.384,0,0,1,3.562,1.388,5.207,5.207,0,0,1,1.163,3.463v8.224h-2.125v-7.8a4.036,4.036,0,0,0-.75-2.512,2.85,2.85,0,0,0-2.425-.988,3.554,3.554,0,0,0-2.762,1.138,4.083,4.083,0,0,0-1.038,2.862v7.3h-2.125Z" style="fill:#fff"/><path d="M28.944,163.364h-8.3l-1.651,4.3H16.669l7-17.7h2.325l6.95,17.7h-2.4Zm-7.674-1.725h7.049l-3.525-9.574Z" style="fill:#fff"/><path d="M35.219,157.789a23.892,23.892,0,0,0-.175-2.849h2.025a20.266,20.266,0,0,1,.175,2.024h.05a4.02,4.02,0,0,1,4-2.375,6.133,6.133,0,0,1,.725.075l-.125,1.825a4.39,4.39,0,0,0-.775-.049,3.37,3.37,0,0,0-2.8,1.224,4.944,4.944,0,0,0-.975,3.175v6.825H35.219Z" style="fill:#fff"/><path d="M49.244,154.589a7.2,7.2,0,0,1,2.287.362,6.618,6.618,0,0,1,1.938,1.013l-.85,1.476a5.513,5.513,0,0,0-3.375-1.076,3.706,3.706,0,0,0-3.1,1.337,6.613,6.613,0,0,0,0,7.151,3.645,3.645,0,0,0,3.075,1.362,6.354,6.354,0,0,0,3.425-1.075l.775,1.5a7.229,7.229,0,0,1-4.35,1.375,6.012,6.012,0,0,1-3.525-.962,5.472,5.472,0,0,1-1.988-2.487,8.716,8.716,0,0,1-.612-3.276,6.928,6.928,0,0,1,1.675-4.875A5.962,5.962,0,0,1,49.244,154.589Z" style="fill:#fff"/><path d="M56.443,149.964h2.125v6.75h.051a4.665,4.665,0,0,1,1.7-1.537,5.464,5.464,0,0,1,2.651-.588,4.35,4.35,0,0,1,3.55,1.388,5.245,5.245,0,0,1,1.149,3.463v8.224H65.543v-7.8a4.036,4.036,0,0,0-.75-2.512,2.848,2.848,0,0,0-2.424-.988,3.556,3.556,0,0,0-2.763,1.138,4.083,4.083,0,0,0-1.038,2.862v7.3H56.443Z" style="fill:#fff"/><path d="M71.494,150.589q0-1.349,1.4-1.35a1.205,1.205,0,0,1,1.375,1.35,1.205,1.205,0,0,1-1.375,1.3,1.381,1.381,0,0,1-1.076-.363A1.35,1.35,0,0,1,71.494,150.589Zm2.449,17.075H71.818V154.94h2.125Z" style="fill:#fff"/><path d="M80.843,154.94h3.375v1.625H80.843v7.674q0,2.05,1.875,2.05a4.267,4.267,0,0,0,1.25-.175l.325,1.576a5.547,5.547,0,0,1-1.975.324,3.618,3.618,0,0,1-2.637-.938,3.543,3.543,0,0,1-.963-2.662v-7.849h-2.25V155.19l2.225-.25v-3.125l2.15-.75Z" style="fill:#fff"/><path d="M97.544,162.065h-9.45a4.906,4.906,0,0,0,1.175,3.1,3.856,3.856,0,0,0,3,1.151A6.363,6.363,0,0,0,94.332,166a7.9,7.9,0,0,0,1.837-.937l.95,1.375a8.394,8.394,0,0,1-2.287,1.174,8.541,8.541,0,0,1-2.688.4,5.771,5.771,0,0,1-4.562-1.85,7.157,7.157,0,0,1-1.638-4.925,8.133,8.133,0,0,1,.7-3.475,5.359,5.359,0,0,1,2.037-2.337,5.928,5.928,0,0,1,3.213-.838,5.144,5.144,0,0,1,4.237,1.8,7.342,7.342,0,0,1,1.463,4.775A6.007,6.007,0,0,1,97.544,162.065Zm-2.025-1.651a4.949,4.949,0,0,0-.975-3.05,3.235,3.235,0,0,0-2.675-1.15,3.359,3.359,0,0,0-2.75,1.187,4.926,4.926,0,0,0-1.05,3.013Z" style="fill:#fff"/><path d="M106.368,154.589a7.2,7.2,0,0,1,2.287.362,6.618,6.618,0,0,1,1.938,1.013l-.85,1.476a5.513,5.513,0,0,0-3.375-1.076,3.706,3.706,0,0,0-3.1,1.337,6.613,6.613,0,0,0,0,7.151,3.645,3.645,0,0,0,3.075,1.362,6.354,6.354,0,0,0,3.425-1.075l.775,1.5a7.229,7.229,0,0,1-4.35,1.375,6.012,6.012,0,0,1-3.525-.962,5.472,5.472,0,0,1-1.988-2.487,8.716,8.716,0,0,1-.612-3.276,6.928,6.928,0,0,1,1.675-4.875A5.962,5.962,0,0,1,106.368,154.589Z" style="fill:#fff"/><path d="M116.643,154.94h3.375v1.625h-3.375v7.674q0,2.05,1.875,2.05a4.267,4.267,0,0,0,1.25-.175l.325,1.576a5.551,5.551,0,0,1-1.975.324,3.62,3.62,0,0,1-2.638-.938,3.543,3.543,0,0,1-.962-2.662v-7.849h-2.25V155.19l2.225-.25v-3.125l2.15-.75Z" style="fill:#fff"/><path d="M122.792,162.739v-7.8h2.15v7.5a4.719,4.719,0,0,0,.763,2.812,2.711,2.711,0,0,0,2.362,1.063,3.4,3.4,0,0,0,2.8-1.313,5.058,5.058,0,0,0,1.05-3.263v-6.8h2.125v9.9a23.713,23.713,0,0,0,.175,2.825h-2.025a18.393,18.393,0,0,1-.174-2.025h-.051a4.7,4.7,0,0,1-4.4,2.375,4.358,4.358,0,0,1-3.575-1.462A5.82,5.82,0,0,1,122.792,162.739Z" style="fill:#fff"/><path d="M138.342,157.789a23.892,23.892,0,0,0-.175-2.849h2.025a20.266,20.266,0,0,1,.175,2.024h.05a4.02,4.02,0,0,1,4-2.375,6.133,6.133,0,0,1,.725.075l-.125,1.825a4.39,4.39,0,0,0-.775-.049,3.37,3.37,0,0,0-2.8,1.224,4.944,4.944,0,0,0-.975,3.175v6.825h-2.125Z" style="fill:#fff"/><path d="M157.667,162.065h-9.45a4.906,4.906,0,0,0,1.175,3.1,3.856,3.856,0,0,0,3,1.151,6.358,6.358,0,0,0,2.063-.313,7.885,7.885,0,0,0,1.837-.937l.95,1.375a8.408,8.408,0,0,1-2.287,1.174,8.541,8.541,0,0,1-2.688.4,5.771,5.771,0,0,1-4.562-1.85,7.157,7.157,0,0,1-1.638-4.925,8.133,8.133,0,0,1,.7-3.475,5.359,5.359,0,0,1,2.037-2.337,5.928,5.928,0,0,1,3.213-.838,5.143,5.143,0,0,1,4.237,1.8,7.342,7.342,0,0,1,1.463,4.775A6.007,6.007,0,0,1,157.667,162.065Zm-2.025-1.651a4.943,4.943,0,0,0-.975-3.05,3.234,3.234,0,0,0-2.675-1.15,3.359,3.359,0,0,0-2.75,1.187,4.926,4.926,0,0,0-1.05,3.013Z" style="fill:#fff"/><path d="M182.467,158.789q0,4.326-2.413,6.6a9.4,9.4,0,0,1-6.712,2.275h-5.7v-17.7h5.65q4.4,0,6.788,2.187T182.467,158.789Zm-12.625-7v14.026h3.275a7.346,7.346,0,0,0,5.262-1.726q1.812-1.724,1.813-5.3,0-7-7.05-7Z" style="fill:#fff"/><path d="M196.542,162.065h-9.45a4.906,4.906,0,0,0,1.175,3.1,3.856,3.856,0,0,0,3,1.151A6.358,6.358,0,0,0,193.33,166a7.885,7.885,0,0,0,1.837-.937l.95,1.375a8.408,8.408,0,0,1-2.287,1.174,8.541,8.541,0,0,1-2.688.4,5.77,5.77,0,0,1-4.562-1.85,7.157,7.157,0,0,1-1.638-4.925,8.133,8.133,0,0,1,.7-3.475,5.359,5.359,0,0,1,2.037-2.337,5.928,5.928,0,0,1,3.213-.838,5.143,5.143,0,0,1,4.237,1.8,7.342,7.342,0,0,1,1.463,4.775A6.007,6.007,0,0,1,196.542,162.065Zm-2.025-1.651a4.943,4.943,0,0,0-.975-3.05,3.234,3.234,0,0,0-2.675-1.15,3.359,3.359,0,0,0-2.75,1.187,4.926,4.926,0,0,0-1.05,3.013Z" style="fill:#fff"/><path d="M207.667,155.94l-.95,1.324a5.5,5.5,0,0,0-3.2-1.025,3.294,3.294,0,0,0-1.875.462,1.5,1.5,0,0,0-.675,1.313,1.764,1.764,0,0,0,.275,1.025,2.046,2.046,0,0,0,.925.675,12.765,12.765,0,0,0,1.9.575,6.188,6.188,0,0,1,2.888,1.388,3.181,3.181,0,0,1,.937,2.388,3.416,3.416,0,0,1-1.4,2.912,5.638,5.638,0,0,1-3.45,1.037,7.14,7.14,0,0,1-4.6-1.475l.975-1.325a6.9,6.9,0,0,0,1.675.851,5.927,5.927,0,0,0,1.875.274,3.292,3.292,0,0,0,2.012-.55,1.844,1.844,0,0,0,.738-1.575,1.928,1.928,0,0,0-.275-1.087,2.014,2.014,0,0,0-.912-.687,13.7,13.7,0,0,0-1.913-.6,6.5,6.5,0,0,1-2.875-1.35,3.387,3.387,0,0,1,.362-4.937,5.361,5.361,0,0,1,3.338-.963A6.774,6.774,0,0,1,207.667,155.94Z" style="fill:#fff"/><path d="M210.716,150.589q0-1.349,1.4-1.35a1.205,1.205,0,0,1,1.375,1.35,1.2,1.2,0,0,1-1.375,1.3,1.377,1.377,0,0,1-1.075-.363A1.347,1.347,0,0,1,210.716,150.589Zm2.451,17.075h-2.125V154.94h2.125Z" style="fill:#fff"/><path d="M215.817,170.264a3.269,3.269,0,0,1,.612-1.938,5.339,5.339,0,0,1,2.013-1.562,1.781,1.781,0,0,1-1.225-1.675,1.71,1.71,0,0,1,.488-1.2,2.893,2.893,0,0,1,1.362-.775,3.935,3.935,0,0,1-1.838-1.45,4.312,4.312,0,0,1-.662-2.474,4.224,4.224,0,0,1,1.4-3.351,5.73,5.73,0,0,1,3.9-1.225,7.124,7.124,0,0,1,1.137.076,10.783,10.783,0,0,1,1.113.25h4.425v1.7l-2.825-.3a3.077,3.077,0,0,1,.975,1.2,4.214,4.214,0,0,1,.375,1.85,3.883,3.883,0,0,1-1.375,3.163,5.873,5.873,0,0,1-3.85,1.138,4.841,4.841,0,0,0-1.963.324,1,1,0,0,0-.712.9q0,1.026,2.425,1.05a11.379,11.379,0,0,1,5.113.937,2.892,2.892,0,0,1,1.587,2.688,3.753,3.753,0,0,1-1.788,3.325,9.082,9.082,0,0,1-5.012,1.175,7.416,7.416,0,0,1-4.238-1A3.239,3.239,0,0,1,215.817,170.264Zm10.375-.5a1.531,1.531,0,0,0-.563-1.225,4.226,4.226,0,0,0-1.912-.724,21.336,21.336,0,0,0-3.7-.25,4.179,4.179,0,0,0-1.625,1.136,2.3,2.3,0,0,0-.5,1.463q0,2.325,3.675,2.325a6.844,6.844,0,0,0,3.45-.7A2.227,2.227,0,0,0,226.192,169.764Zm-1.1-10.55a2.976,2.976,0,0,0-.825-2.2,3.324,3.324,0,0,0-2.45-.824,3.435,3.435,0,0,0-2.388.8,2.751,2.751,0,0,0-.887,2.15,2.983,2.983,0,0,0,.812,2.225,3.38,3.38,0,0,0,2.463.8Q225.092,162.164,225.092,159.214Z" style="fill:#fff"/><path d="M231.267,157.789a23.689,23.689,0,0,0-.176-2.849h2.026a13.783,13.783,0,0,1,.175,1.8h.049a4.5,4.5,0,0,1,1.75-1.562,5.706,5.706,0,0,1,2.676-.588,4.388,4.388,0,0,1,3.563,1.388,5.211,5.211,0,0,1,1.162,3.463v8.224h-2.125v-7.8a4.036,4.036,0,0,0-.75-2.512,2.85,2.85,0,0,0-2.425-.988,3.558,3.558,0,0,0-2.763,1.138,4.087,4.087,0,0,0-1.037,2.862v7.3h-2.125Z" style="fill:#fff"/><path d="M257.316,162.065h-9.449a4.9,4.9,0,0,0,1.175,3.1,3.856,3.856,0,0,0,3,1.151A6.352,6.352,0,0,0,254.1,166a7.865,7.865,0,0,0,1.837-.937l.95,1.375a8.394,8.394,0,0,1-2.287,1.174,8.534,8.534,0,0,1-2.687.4,5.772,5.772,0,0,1-4.563-1.85,7.157,7.157,0,0,1-1.638-4.925,8.133,8.133,0,0,1,.7-3.475,5.346,5.346,0,0,1,2.037-2.337,5.926,5.926,0,0,1,3.213-.838,5.146,5.146,0,0,1,4.237,1.8,7.348,7.348,0,0,1,1.463,4.775A5.978,5.978,0,0,1,257.316,162.065Zm-2.024-1.651a4.949,4.949,0,0,0-.976-3.05,3.233,3.233,0,0,0-2.675-1.15,3.362,3.362,0,0,0-2.75,1.187,4.932,4.932,0,0,0-1.05,3.013Z" style="fill:#fff"/><path d="M260.742,157.789a23.689,23.689,0,0,0-.176-2.849h2.025a19.972,19.972,0,0,1,.175,2.024h.05a4.02,4.02,0,0,1,4-2.375,6.144,6.144,0,0,1,.726.075l-.125,1.825a4.4,4.4,0,0,0-.776-.049,3.371,3.371,0,0,0-2.8,1.224,4.944,4.944,0,0,0-.974,3.175v6.825h-2.125Z" style="fill:#fff"/><g id="g3003"><path id="path3005" d="M260.557,58.506a6.71,6.71,0,0,1,4.857-2.084,6.78,6.78,0,0,1,5.905,3.5,8.166,8.166,0,0,1,3.338-.707,8.328,8.328,0,0,1,0,16.651,8.223,8.223,0,0,1-1.641-.165,6.036,6.036,0,0,1-7.889,2.481,6.885,6.885,0,0,1-12.8-.312,6.276,6.276,0,0,1-1.311.137,6.47,6.47,0,0,1-3.2-12.049A7.436,7.436,0,0,1,260.552,58.5" style="fill:#00a1e0"/></g></svg>