<svg id="Layer_1" data-name="Layer 1" xmlns="http://www.w3.org/2000/svg" width="60" height="60" viewBox="0 0 60 60"><title>SF_Crt</title><path d="M55,2a3,3,0,0,1,3,3V55a3,3,0,0,1-3,3H5a3,3,0,0,1-3-3V5A3,3,0,0,1,5,2H55m0-2H5A5,5,0,0,0,0,5V55a5,5,0,0,0,5,5H55a5,5,0,0,0,5-5V5a5,5,0,0,0-5-5Z" style="fill:#fff"/><path id="LinkedIn" d="M44.609,32.024v10.8H38.347V32.747c0-2.532-.906-4.26-3.173-4.26a3.427,3.427,0,0,0-3.213,2.291,4.29,4.29,0,0,0-.208,1.527V42.826H25.489s.084-17.07,0-18.839h6.264v2.671c-.013.02-.03.041-.042.06h.042v-.06A6.218,6.218,0,0,1,37.4,23.545C41.519,23.545,44.609,26.237,44.609,32.024ZM18.936,14.906a3.265,3.265,0,1,0-.083,6.511H18.9a3.266,3.266,0,1,0,.041-6.511Zm-3.173,27.92h6.262V23.987H15.763Z" style="fill:#fff"/></svg>