<svg id="Layer_1" data-name="Layer 1" xmlns="http://www.w3.org/2000/svg" width="300" height="185" viewBox="0 0 300 185"><title>SF_Crt</title><rect width="300" height="102.041" style="fill:#003c4d"/><rect y="101.733" width="300" height="83.267" style="fill:#00a1e0"/><path d="M15.324,43.913l2.4-3.161a10.558,10.558,0,0,0,3.217,1.637,12.64,12.64,0,0,0,3.638.495,6.527,6.527,0,0,0,3.79-.99A3.376,3.376,0,0,0,29.8,38.923a3.58,3.58,0,0,0-.687-2.3,4.825,4.825,0,0,0-1.961-1.39,29.6,29.6,0,0,0-3.523-1.143,12.147,12.147,0,0,1-5.542-2.8,6.639,6.639,0,0,1-1.886-4.97A6.76,6.76,0,0,1,17.458,22.2a7.735,7.735,0,0,1,3.408-2.59,12.786,12.786,0,0,1,4.857-.876A14.727,14.727,0,0,1,34.445,21.4L32.2,24.64a13.16,13.16,0,0,0-3.124-1.448,11.231,11.231,0,0,0-3.237-.457,6.249,6.249,0,0,0-3.409.819,2.727,2.727,0,0,0-1.276,2.457,2.841,2.841,0,0,0,1.295,2.533,15.528,15.528,0,0,0,4.3,1.657,14.076,14.076,0,0,1,6.057,2.952,7.2,7.2,0,0,1,2.094,5.58,7.653,7.653,0,0,1-1.371,4.627,8.106,8.106,0,0,1-3.714,2.8,14.178,14.178,0,0,1-5.2.914,15.348,15.348,0,0,1-5.065-.819A13.715,13.715,0,0,1,15.324,43.913Z" style="fill:#fff"/><path d="M58.137,40.523H47.167L45,46.351H39.778L50.139,19.383H55.28L65.6,46.351h-5.41ZM48.5,36.714h8.342L52.69,24.487Z" style="fill:#fff"/><path d="M77.409,42.2H89.064v4.152H72.42V19.383h4.989Z" style="fill:#fff"/><path d="M113.137,23.383H101.1v7.2h10.284v3.847H101.1v7.846h12.683v4.076H96.111V19.383h17.026Z" style="fill:#fff"/><path d="M119.535,43.913l2.4-3.161a10.558,10.558,0,0,0,3.217,1.637,12.64,12.64,0,0,0,3.638.495,6.527,6.527,0,0,0,3.79-.99,3.376,3.376,0,0,0,1.429-2.971,3.58,3.58,0,0,0-.687-2.3,4.825,4.825,0,0,0-1.961-1.39,29.6,29.6,0,0,0-3.523-1.143,12.147,12.147,0,0,1-5.542-2.8,6.639,6.639,0,0,1-1.886-4.97,6.76,6.76,0,0,1,1.258-4.114,7.735,7.735,0,0,1,3.408-2.59,12.786,12.786,0,0,1,4.857-.876,14.727,14.727,0,0,1,8.722,2.666l-2.247,3.238a13.16,13.16,0,0,0-3.124-1.448,11.231,11.231,0,0,0-3.237-.457,6.249,6.249,0,0,0-3.409.819,2.727,2.727,0,0,0-1.276,2.457,2.841,2.841,0,0,0,1.3,2.533,15.515,15.515,0,0,0,4.3,1.657,14.076,14.076,0,0,1,6.057,2.952,7.2,7.2,0,0,1,2.094,5.58,7.653,7.653,0,0,1-1.371,4.627,8.106,8.106,0,0,1-3.714,2.8,14.178,14.178,0,0,1-5.2.914,15.348,15.348,0,0,1-5.065-.819A13.7,13.7,0,0,1,119.535,43.913Z" style="fill:#fff"/><path d="M164.367,23.459H152.33v7.5h10.475v4.075H152.33V46.351h-4.989V19.383h17.026Z" style="fill:#fff"/><path d="M169.737,32.867a16.2,16.2,0,0,1,1.638-7.446,11.768,11.768,0,0,1,4.742-4.99,16.421,16.421,0,0,1,14.836,0,11.734,11.734,0,0,1,4.761,4.99,16.2,16.2,0,0,1,1.638,7.446,16.2,16.2,0,0,1-1.638,7.447,11.721,11.721,0,0,1-4.761,4.989,16.421,16.421,0,0,1-14.836,0,11.754,11.754,0,0,1-4.742-4.989A16.2,16.2,0,0,1,169.737,32.867Zm22.511,0a11.066,11.066,0,0,0-2.19-7.237q-2.19-2.665-6.533-2.666-4.3,0-6.494,2.666a11.065,11.065,0,0,0-2.189,7.237,11.063,11.063,0,0,0,2.189,7.237q2.19,2.667,6.494,2.666,4.344,0,6.533-2.666A11.064,11.064,0,0,0,192.248,32.867Z" style="fill:#fff"/><path d="M220.776,46.351l-5.332-9.142h-4.57v9.142h-4.99V19.383h9.446a11.129,11.129,0,0,1,7.352,2.343,8.2,8.2,0,0,1,2.818,6.685,7.747,7.747,0,0,1-5.447,7.808l6.437,10.132ZM215.063,33.4a5.75,5.75,0,0,0,3.809-1.238,4.606,4.606,0,0,0,1.485-3.752,4.594,4.594,0,0,0-1.523-3.79,5.9,5.9,0,0,0-3.847-1.238h-4.151V33.4Z" style="fill:#fff"/><path d="M255.742,22.05l-2.818,3.2a9.608,9.608,0,0,0-2.971-1.714,10.211,10.211,0,0,0-3.5-.609q-4.418,0-6.512,2.685a11.42,11.42,0,0,0-2.095,7.218,11.288,11.288,0,0,0,2.095,7.142q2.092,2.685,6.4,2.685a9.291,9.291,0,0,0,3.733-.743,10.332,10.332,0,0,0,3.009-1.961l3.009,3.275a13.03,13.03,0,0,1-4.285,2.781,14.539,14.539,0,0,1-5.618,1.066,14.149,14.149,0,0,1-7.351-1.809,11.611,11.611,0,0,1-4.609-5.028,16.766,16.766,0,0,1-1.562-7.408,16.663,16.663,0,0,1,1.581-7.466,11.494,11.494,0,0,1,4.647-4.97,14.5,14.5,0,0,1,7.37-1.771,15.472,15.472,0,0,1,5.333.914A11.446,11.446,0,0,1,255.742,22.05Z" style="fill:#fff"/><path d="M280.729,23.383H268.692v7.2h10.285v3.847H268.692v7.846h12.684v4.076H263.7V19.383h17.027Z" style="fill:#fff"/><path d="M38.711,58.555,36.73,60.726A9.967,9.967,0,0,0,33.512,58.8a11.017,11.017,0,0,0-3.827-.666q-4.953,0-7.466,3.085A12.5,12.5,0,0,0,19.7,69.372a12.442,12.442,0,0,0,2.514,8.113q2.514,3.086,7.389,3.085a10.48,10.48,0,0,0,4.114-.819,10.818,10.818,0,0,0,3.389-2.228l2.057,2.247a12.6,12.6,0,0,1-4.247,2.762,14.355,14.355,0,0,1-5.427,1.009,13.813,13.813,0,0,1-7.219-1.79,11.5,11.5,0,0,1-4.532-4.99,18.463,18.463,0,0,1,0-14.778A11.356,11.356,0,0,1,22.3,57.012a14.1,14.1,0,0,1,7.275-1.771,14.729,14.729,0,0,1,5.066.857A11.793,11.793,0,0,1,38.711,58.555Z" style="fill:#fff"/><path d="M63.621,58.631H50.633V67.7H61.945v2.59H50.633v9.827H64.269v2.781H47.281V55.926h16.34Z" style="fill:#fff"/><path d="M87.731,82.894,81.6,73.028H75.962v9.866h-3.39V55.926h8.874a11.5,11.5,0,0,1,4.781.972,7.749,7.749,0,0,1,3.409,2.933,8.678,8.678,0,0,1,1.257,4.78,7.646,7.646,0,0,1-1.658,5.142,8.881,8.881,0,0,1-4.4,2.742l6.779,10.4Zm-6.4-12.455a6.466,6.466,0,0,0,4.361-1.486,5.4,5.4,0,0,0,1.734-4.342,5.519,5.519,0,0,0-1.79-4.476,6.639,6.639,0,0,0-4.419-1.5H75.924V70.439Z" style="fill:#fff"/><path d="M116.374,58.783H107.88V82.894h-3.39V58.783H95.958V55.926h20.416Z" style="fill:#fff"/><path d="M129.02,80.3h3.2v2.59h-9.751V80.3h3.2V58.441h-3.2V55.926h9.751v2.515h-3.2Z" style="fill:#fff"/><path d="M157.93,58.707H144.94v9.217h11.5v2.743h-11.5V82.894h-3.389V55.926H157.93Z" style="fill:#fff"/><path d="M171.07,80.3h3.2v2.59h-9.751V80.3h3.2V58.441h-3.2V55.926h9.751v2.515h-3.2Z" style="fill:#fff"/><path d="M199.941,58.631H186.953V67.7h11.313v2.59H186.953v9.827h13.636v2.781H183.6V55.926h16.34Z" style="fill:#fff"/><path d="M231.479,69.372q0,6.59-3.676,10.055t-10.227,3.467h-8.684V55.926H217.5q6.7,0,10.341,3.333T231.479,69.372ZM212.244,58.707V80.075h4.989q5.256,0,8.018-2.628t2.762-8.075q0-10.665-10.742-10.665Z" style="fill:#fff"/><path d="M31.119,140.8a5.66,5.66,0,0,1-.875,3.213,5.391,5.391,0,0,1-2.312,1.962,7.411,7.411,0,0,1-3.087.65h-3.8v6.125H18.819v-17.7H24.8a7.128,7.128,0,0,1,4.55,1.4A5.206,5.206,0,0,1,31.119,140.8Zm-10.1-3.975v8h3.625a4.472,4.472,0,0,0,2.987-1.025,3.679,3.679,0,0,0,1.213-2.975,3.639,3.639,0,0,0-1.213-3.05,4.778,4.778,0,0,0-3.037-.95Z" style="fill:#fff"/><path d="M36.145,135.052v17.7H34.02v-17.7Z" style="fill:#fff"/><path d="M39.344,149.277a3.557,3.557,0,0,1,1.788-3.437,11.727,11.727,0,0,1,5.388-.963q.874,0,1.324.025v-.725a2.721,2.721,0,0,0-.775-2.125,3.458,3.458,0,0,0-2.375-.7,7.346,7.346,0,0,0-3.825,1.075L40.119,141a8.793,8.793,0,0,1,4.7-1.325,5.314,5.314,0,0,1,3.912,1.25,5.2,5.2,0,0,1,1.238,3.8v5.2a23.307,23.307,0,0,0,.176,2.825H48.194a11.624,11.624,0,0,1-.174-1.725h-.076a4.547,4.547,0,0,1-1.762,1.55,6.19,6.19,0,0,1-2.738.525,4.344,4.344,0,0,1-2.975-.988A3.572,3.572,0,0,1,39.344,149.277Zm8.5-1.225V146.4l-1.125-.025a14.245,14.245,0,0,0-2.988.25,3.041,3.041,0,0,0-1.649.85,2.421,2.421,0,0,0-.538,1.675,2.16,2.16,0,0,0,.65,1.688,2.586,2.586,0,0,0,1.8.587,4.032,4.032,0,0,0,2.075-.513,3.584,3.584,0,0,0,1.326-1.287A3.112,3.112,0,0,0,47.844,148.052Z" style="fill:#fff"/><path d="M56.544,140.027h3.375v1.625H56.544v7.675q0,2.049,1.875,2.05a4.3,4.3,0,0,0,1.25-.175l.325,1.575a5.519,5.519,0,0,1-1.974.325,3.617,3.617,0,0,1-2.638-.938,3.545,3.545,0,0,1-.963-2.662v-7.85h-2.25v-1.375l2.226-.25V136.9l2.149-.75Z" style="fill:#fff"/><path d="M69.819,135.027l-.475,1.525a6.326,6.326,0,0,0-1.55-.15q-2.349.026-2.35,2.575v1.05h3.2v1.625h-3.2v11.1H63.319v-11.1H61.094V140.3l2.225-.275v-1.1a4.237,4.237,0,0,1,1.075-3.112,4.389,4.389,0,0,1,3.2-1.113A7.2,7.2,0,0,1,69.819,135.027Z" style="fill:#fff"/><path d="M82.993,146.352a7.8,7.8,0,0,1-.762,3.512,5.589,5.589,0,0,1-2.2,2.388,6.642,6.642,0,0,1-3.437.85,6.561,6.561,0,0,1-3.425-.863,5.584,5.584,0,0,1-2.2-2.387,7.829,7.829,0,0,1-.75-3.5,6.877,6.877,0,0,1,1.675-4.863,6.081,6.081,0,0,1,4.7-1.812,6.759,6.759,0,0,1,3.462.838,5.479,5.479,0,0,1,2.187,2.337A7.733,7.733,0,0,1,82.993,146.352Zm-10.574,0a5.971,5.971,0,0,0,1.037,3.663,3.664,3.664,0,0,0,3.138,1.387,3.73,3.73,0,0,0,3.175-1.387,5.916,5.916,0,0,0,1.049-3.663,5.752,5.752,0,0,0-1.049-3.625,3.775,3.775,0,0,0-3.175-1.35,3.7,3.7,0,0,0-3.151,1.35A5.854,5.854,0,0,0,72.419,146.352Z" style="fill:#fff"/><path d="M86.394,142.877a23.909,23.909,0,0,0-.175-2.85h2.024a20.02,20.02,0,0,1,.175,2.025h.051a4.019,4.019,0,0,1,4-2.375,6.1,6.1,0,0,1,.724.075l-.125,1.825a4.361,4.361,0,0,0-.775-.05,3.372,3.372,0,0,0-2.8,1.225,4.948,4.948,0,0,0-.974,3.175v6.825H86.394Z" style="fill:#fff"/><path d="M95.493,142.877a23.7,23.7,0,0,0-.175-2.85h2.026a13.82,13.82,0,0,1,.175,1.8h.049a4.542,4.542,0,0,1,1.688-1.55,5.115,5.115,0,0,1,2.513-.6,4.674,4.674,0,0,1,2.65.687,3.98,3.98,0,0,1,1.5,1.888h.05a4.9,4.9,0,0,1,1.774-1.888,5.085,5.085,0,0,1,2.7-.687,4.7,4.7,0,0,1,2.625.687,4.15,4.15,0,0,1,1.55,1.8,5.871,5.871,0,0,1,.5,2.438v8.15h-2.125V144.9a4.157,4.157,0,0,0-.712-2.475,2.616,2.616,0,0,0-2.288-1,3.263,3.263,0,0,0-1.974.6,3.742,3.742,0,0,0-1.25,1.6,5.431,5.431,0,0,0-.425,2.15v6.975h-2.125v-7.9a4.007,4.007,0,0,0-.726-2.438,2.633,2.633,0,0,0-2.274-.987,3.247,3.247,0,0,0-2.625,1.163,4.3,4.3,0,0,0-.976,2.862v7.3H95.493Z" style="fill:#fff"/><path d="M135.918,148.452h-8.3l-1.65,4.3h-2.324l7-17.7h2.324l6.95,17.7h-2.4Zm-7.675-1.725h7.05l-3.524-9.575Z" style="fill:#fff"/><path d="M154.368,146.377a8.112,8.112,0,0,1-.7,3.425,5.681,5.681,0,0,1-2.037,2.413,5.554,5.554,0,0,1-3.138.887,6.032,6.032,0,0,1-4.176-1.575v7.325h-2.125V142.877a23.9,23.9,0,0,0-.174-2.85h2.025a18.787,18.787,0,0,1,.175,1.95h.05a4.58,4.58,0,0,1,1.75-1.675,5.6,5.6,0,0,1,2.75-.625,5.174,5.174,0,0,1,3.075.888,5.465,5.465,0,0,1,1.887,2.4A8.705,8.705,0,0,1,154.368,146.377Zm-2.2,0a5.949,5.949,0,0,0-1.013-3.65,3.316,3.316,0,0,0-2.812-1.35,4.035,4.035,0,0,0-2.1.55,3.749,3.749,0,0,0-1.426,1.5,4.393,4.393,0,0,0-.5,2.075v4.225A6.2,6.2,0,0,0,146.056,151a4.666,4.666,0,0,0,1.987.4,3.625,3.625,0,0,0,3.062-1.387A5.826,5.826,0,0,0,152.168,146.377Z" style="fill:#fff"/><path d="M169.918,146.377a8.112,8.112,0,0,1-.7,3.425,5.681,5.681,0,0,1-2.037,2.413,5.552,5.552,0,0,1-3.138.887,6.027,6.027,0,0,1-4.175-1.575v7.325h-2.125V142.877a23.5,23.5,0,0,0-.176-2.85h2.026a19.067,19.067,0,0,1,.175,1.95h.049a4.58,4.58,0,0,1,1.75-1.675,5.6,5.6,0,0,1,2.75-.625,5.175,5.175,0,0,1,3.076.888,5.472,5.472,0,0,1,1.887,2.4A8.705,8.705,0,0,1,169.918,146.377Zm-2.2,0a5.949,5.949,0,0,0-1.013-3.65,3.316,3.316,0,0,0-2.812-1.35,4.033,4.033,0,0,0-2.1.55,3.74,3.74,0,0,0-1.425,1.5,4.381,4.381,0,0,0-.5,2.075v4.225A6.19,6.19,0,0,0,161.6,151a4.677,4.677,0,0,0,1.988.4,3.625,3.625,0,0,0,3.062-1.387A5.826,5.826,0,0,0,167.718,146.377Z" style="fill:#fff"/><path d="M191.393,139.377a3.892,3.892,0,0,1-.9,2.625,4.2,4.2,0,0,1-2.3,1.375v.05a4.622,4.622,0,0,1,2.9,1.362,4.943,4.943,0,0,1-.588,6.776,7.251,7.251,0,0,1-4.313,1.187h-6.349v-17.7h6.224a6.607,6.607,0,0,1,3.864,1.025A3.749,3.749,0,0,1,191.393,139.377Zm-9.4-2.625v5.975h3.55a4.114,4.114,0,0,0,2.638-.787,2.784,2.784,0,0,0,.987-2.313q0-2.874-3.6-2.875Zm0,7.575v6.7h3.75a5.079,5.079,0,0,0,3.012-.812,3.464,3.464,0,0,0,.088-5.051,4.674,4.674,0,0,0-2.975-.837Z" style="fill:#fff"/><path d="M195.093,147.827v-7.8h2.15v7.5a4.722,4.722,0,0,0,.763,2.813,2.711,2.711,0,0,0,2.362,1.062,3.4,3.4,0,0,0,2.8-1.312,5.058,5.058,0,0,0,1.05-3.263v-6.8h2.125v9.9a23.307,23.307,0,0,0,.176,2.825h-2.026a18.361,18.361,0,0,1-.175-2.025h-.049a4.706,4.706,0,0,1-4.4,2.375,4.357,4.357,0,0,1-3.575-1.462A5.82,5.82,0,0,1,195.093,147.827Z" style="fill:#fff"/><path d="M210.342,135.677q0-1.35,1.4-1.35a1.2,1.2,0,0,1,1.375,1.35,1.2,1.2,0,0,1-1.375,1.3,1.379,1.379,0,0,1-1.075-.363A1.346,1.346,0,0,1,210.342,135.677Zm2.45,17.075h-2.125V140.027h2.125Z" style="fill:#fff"/><path d="M219.242,135.052v17.7h-2.125v-17.7Z" style="fill:#fff"/><path d="M234.968,152.752h-1.976a12.412,12.412,0,0,1-.175-1.9h-.049a4.987,4.987,0,0,1-4.55,2.25,4.929,4.929,0,0,1-4.138-1.85,7.637,7.637,0,0,1-1.437-4.825,8.083,8.083,0,0,1,.712-3.438,5.759,5.759,0,0,1,2.038-2.424,6,6,0,0,1,7.275.762v-6.275h2.125v14.875A23.506,23.506,0,0,0,234.968,152.752Zm-2.3-5.475v-4a4.969,4.969,0,0,0-1.688-1.413,4.847,4.847,0,0,0-2.163-.462,3.457,3.457,0,0,0-2.912,1.4,6.844,6.844,0,0,0-.038,7.263,3.364,3.364,0,0,0,2.825,1.337,3.763,3.763,0,0,0,2.888-1.163A4.162,4.162,0,0,0,232.668,147.277Z" style="fill:#fff"/><path d="M249.767,147.152h-9.45a4.909,4.909,0,0,0,1.175,3.1,3.856,3.856,0,0,0,3,1.15,6.359,6.359,0,0,0,2.063-.312,7.89,7.89,0,0,0,1.837-.938l.95,1.375a8.384,8.384,0,0,1-2.287,1.175,8.536,8.536,0,0,1-2.688.4,5.774,5.774,0,0,1-4.562-1.85,7.157,7.157,0,0,1-1.638-4.925,8.133,8.133,0,0,1,.7-3.475,5.359,5.359,0,0,1,2.037-2.337,5.928,5.928,0,0,1,3.213-.838,5.14,5.14,0,0,1,4.237,1.8,7.342,7.342,0,0,1,1.463,4.775A5.991,5.991,0,0,1,249.767,147.152Zm-2.025-1.65a4.941,4.941,0,0,0-.975-3.05,3.234,3.234,0,0,0-2.675-1.15,3.359,3.359,0,0,0-2.75,1.187,4.926,4.926,0,0,0-1.05,3.013Z" style="fill:#fff"/><path d="M253.192,142.877a23.7,23.7,0,0,0-.175-2.85h2.025a20.02,20.02,0,0,1,.175,2.025h.05a4.02,4.02,0,0,1,4-2.375,6.133,6.133,0,0,1,.725.075l-.125,1.825a4.369,4.369,0,0,0-.775-.05,3.37,3.37,0,0,0-2.8,1.225,4.942,4.942,0,0,0-.975,3.175v6.825h-2.125Z" style="fill:#fff"/><g id="g3003"><path id="path3005" d="M260.557,58.506a6.71,6.71,0,0,1,4.857-2.084,6.78,6.78,0,0,1,5.905,3.5,8.166,8.166,0,0,1,3.338-.707,8.328,8.328,0,0,1,0,16.651,8.223,8.223,0,0,1-1.641-.165,6.036,6.036,0,0,1-7.889,2.481,6.885,6.885,0,0,1-12.8-.312,6.276,6.276,0,0,1-1.311.137,6.47,6.47,0,0,1-3.2-12.049A7.436,7.436,0,0,1,260.552,58.5" style="fill:#00a1e0"/></g></svg>