<svg id="Layer_1" data-name="Layer 1" xmlns="http://www.w3.org/2000/svg" width="60" height="60" viewBox="0 0 60 60"><title>SF_Crt</title><path d="M55,2a3,3,0,0,1,3,3V55a3,3,0,0,1-3,3H5a3,3,0,0,1-3-3V5A3,3,0,0,1,5,2H55m0-2H5A5,5,0,0,0,0,5V55a5,5,0,0,0,5,5H55a5,5,0,0,0,5-5V5a5,5,0,0,0-5-5Z" style="fill:#6d6e71"/><path id="LinkedIn" d="M46.351,32.024v10.8H40.088V32.747c0-2.532-.906-4.26-3.172-4.26A3.426,3.426,0,0,0,33.7,30.778a4.268,4.268,0,0,0-.208,1.527V42.826H27.23s.085-17.07,0-18.839h6.264v2.671c-.012.02-.029.041-.041.06h.041v-.06a6.22,6.22,0,0,1,5.645-3.113C43.261,23.545,46.351,26.237,46.351,32.024ZM20.678,14.906a3.265,3.265,0,1,0-.083,6.511h.041a3.266,3.266,0,1,0,.042-6.511Zm-3.173,27.92h6.262V23.987H17.505Z" style="fill:#6d6e71"/></svg>