<svg id="Layer_1" data-name="Layer 1" xmlns="http://www.w3.org/2000/svg" width="100" height="60" viewBox="0 0 100 60"><title>SF_Crt</title><path d="M5,0H95a5,5,0,0,1,5,5V33.094a0,0,0,0,1,0,0H0a0,0,0,0,1,0,0V5A5,5,0,0,1,5,0Z" style="fill:#003c4d"/><path d="M0,32.994H100a0,0,0,0,1,0,0V55a5,5,0,0,1-5,5H5a5,5,0,0,1-5-5V32.994A0,0,0,0,1,0,32.994Z" style="fill:#00a1e0"/><path d="M7.764,14.7l.756-1a3.334,3.334,0,0,0,1.014.516,3.99,3.99,0,0,0,1.146.156,2.058,2.058,0,0,0,1.194-.312,1.063,1.063,0,0,0,.45-.936,1.129,1.129,0,0,0-.216-.726,1.522,1.522,0,0,0-.618-.438,9.366,9.366,0,0,0-1.11-.36,3.821,3.821,0,0,1-1.746-.882A2.092,2.092,0,0,1,8.04,9.153a2.131,2.131,0,0,1,.4-1.3A2.435,2.435,0,0,1,9.51,7.041a4.023,4.023,0,0,1,1.53-.276,4.639,4.639,0,0,1,2.748.84l-.708,1.02a4.142,4.142,0,0,0-.984-.456,3.5,3.5,0,0,0-1.02-.144A1.97,1.97,0,0,0,10,8.283a.858.858,0,0,0-.4.774.9.9,0,0,0,.408.8,4.876,4.876,0,0,0,1.356.522,4.432,4.432,0,0,1,1.908.93,2.271,2.271,0,0,1,.66,1.758,2.412,2.412,0,0,1-.432,1.458,2.557,2.557,0,0,1-1.17.882,4.471,4.471,0,0,1-1.638.288,4.838,4.838,0,0,1-1.6-.258A4.331,4.331,0,0,1,7.764,14.7Z" style="fill:#fff"/><path d="M21.252,13.629H17.8l-.684,1.836H15.468l3.264-8.5h1.62l3.252,8.5H21.9Zm-3.036-1.2h2.628L19.536,8.577Z" style="fill:#fff"/><path d="M27.324,14.157H31v1.308H25.752v-8.5h1.572Z" style="fill:#fff"/><path d="M38.58,8.229H34.788V10.5h3.24v1.212h-3.24v2.472h4v1.284H33.216v-8.5H38.58Z" style="fill:#fff"/><path d="M40.6,14.7l.756-1a3.334,3.334,0,0,0,1.014.516,3.99,3.99,0,0,0,1.146.156,2.058,2.058,0,0,0,1.194-.312,1.063,1.063,0,0,0,.45-.936,1.129,1.129,0,0,0-.216-.726,1.522,1.522,0,0,0-.618-.438,9.366,9.366,0,0,0-1.11-.36,3.821,3.821,0,0,1-1.746-.882,2.092,2.092,0,0,1-.594-1.566,2.131,2.131,0,0,1,.4-1.3,2.435,2.435,0,0,1,1.074-.816,4.027,4.027,0,0,1,1.53-.276,4.639,4.639,0,0,1,2.748.84l-.708,1.02a4.142,4.142,0,0,0-.984-.456,3.5,3.5,0,0,0-1.02-.144,1.967,1.967,0,0,0-1.074.258.859.859,0,0,0-.4.774.9.9,0,0,0,.408.8,4.889,4.889,0,0,0,1.356.522,4.432,4.432,0,0,1,1.908.93,2.267,2.267,0,0,1,.66,1.758,2.418,2.418,0,0,1-.431,1.458,2.565,2.565,0,0,1-1.171.882,4.471,4.471,0,0,1-1.638.288,4.838,4.838,0,0,1-1.6-.258A4.331,4.331,0,0,1,40.6,14.7Z" style="fill:#fff"/><path d="M54.72,8.253H50.928v2.364h3.3V11.9h-3.3v3.564H49.356v-8.5H54.72Z" style="fill:#fff"/><path d="M56.412,11.217a5.1,5.1,0,0,1,.516-2.346A3.7,3.7,0,0,1,58.422,7.3a5.165,5.165,0,0,1,4.674,0,3.689,3.689,0,0,1,1.5,1.572,5.1,5.1,0,0,1,.516,2.346,5.1,5.1,0,0,1-.516,2.346,3.7,3.7,0,0,1-1.5,1.572,5.173,5.173,0,0,1-4.674,0,3.7,3.7,0,0,1-1.494-1.572A5.1,5.1,0,0,1,56.412,11.217Zm7.092,0a3.486,3.486,0,0,0-.69-2.28,2.926,2.926,0,0,0-4.1,0,3.485,3.485,0,0,0-.689,2.28,3.485,3.485,0,0,0,.689,2.28,2.926,2.926,0,0,0,4.1,0A3.486,3.486,0,0,0,63.5,11.217Z" style="fill:#fff"/><path d="M72.492,15.465l-1.68-2.88H69.373v2.88H67.8v-8.5h2.976a3.5,3.5,0,0,1,2.316.738,2.58,2.58,0,0,1,.888,2.106,2.442,2.442,0,0,1-1.715,2.46l2.027,3.192Zm-1.8-4.08a1.814,1.814,0,0,0,1.2-.39,1.449,1.449,0,0,0,.467-1.182,1.449,1.449,0,0,0-.48-1.194,1.858,1.858,0,0,0-1.212-.39H69.36v3.156Z" style="fill:#fff"/><path d="M83.509,7.809l-.888,1.008a3.017,3.017,0,0,0-.936-.54,3.209,3.209,0,0,0-1.1-.192,2.442,2.442,0,0,0-2.053.846,3.6,3.6,0,0,0-.659,2.274,3.558,3.558,0,0,0,.659,2.25,2.4,2.4,0,0,0,2.016.846,2.931,2.931,0,0,0,1.177-.234,3.257,3.257,0,0,0,.947-.618l.949,1.032a4.105,4.105,0,0,1-1.35.876,4.575,4.575,0,0,1-1.77.336,4.453,4.453,0,0,1-2.316-.57,3.66,3.66,0,0,1-1.452-1.584,5.27,5.27,0,0,1-.493-2.334,5.249,5.249,0,0,1,.5-2.352A3.623,3.623,0,0,1,78.2,7.287a4.562,4.562,0,0,1,2.322-.558,4.862,4.862,0,0,1,1.68.288A3.6,3.6,0,0,1,83.509,7.809Z" style="fill:#fff"/><path d="M91.381,8.229H87.589V10.5h3.24v1.212h-3.24v2.472h4v1.284H86.017v-8.5h5.364Z" style="fill:#fff"/><path d="M15.132,19.31l-.624.683a3.154,3.154,0,0,0-1.014-.6,3.438,3.438,0,0,0-1.206-.21,2.853,2.853,0,0,0-2.352.972,3.938,3.938,0,0,0-.792,2.568,3.92,3.92,0,0,0,.792,2.556,2.827,2.827,0,0,0,2.328.971,3.3,3.3,0,0,0,1.3-.258,3.382,3.382,0,0,0,1.068-.7l.648.708a3.968,3.968,0,0,1-1.338.87,4.517,4.517,0,0,1-1.71.319,4.349,4.349,0,0,1-2.274-.565,3.622,3.622,0,0,1-1.428-1.571,5.819,5.819,0,0,1,0-4.656,3.584,3.584,0,0,1,1.433-1.567,4.447,4.447,0,0,1,2.293-.557,4.667,4.667,0,0,1,1.6.269A3.731,3.731,0,0,1,15.132,19.31Z" style="fill:#fff"/><path d="M22.98,19.333H18.888V22.19h3.564v.816H18.888v3.1h4.3v.876H17.832v-8.5H22.98Z" style="fill:#fff"/><path d="M30.576,26.978l-1.932-3.109H26.868v3.109H25.8v-8.5h2.8a3.619,3.619,0,0,1,1.506.3,2.446,2.446,0,0,1,1.074.924,2.74,2.74,0,0,1,.4,1.507,2.411,2.411,0,0,1-.522,1.62,2.806,2.806,0,0,1-1.386.863L31.8,26.978ZM28.56,23.054a2.037,2.037,0,0,0,1.374-.468,1.7,1.7,0,0,0,.546-1.368,1.738,1.738,0,0,0-.564-1.41,2.086,2.086,0,0,0-1.392-.475H26.856v3.721Z" style="fill:#fff"/><path d="M39.6,19.382H36.924v7.6H35.855v-7.6H33.167v-.9H39.6Z" style="fill:#fff"/><path d="M43.584,26.161h1.008v.817H41.52v-.817h1.008V19.274H41.52v-.792h3.072v.792H43.584Z" style="fill:#fff"/><path d="M52.692,19.358H48.6v2.9h3.624v.863H48.6v3.853H47.532v-8.5h5.16Z" style="fill:#fff"/><path d="M56.832,26.161H57.84v.817H54.768v-.817h1.008V19.274H54.768v-.792H57.84v.792H56.832Z" style="fill:#fff"/><path d="M65.928,19.333H61.836V22.19H65.4v.816H61.836v3.1h4.3v.876H60.78v-8.5h5.148Z" style="fill:#fff"/><path d="M75.864,22.718a4.148,4.148,0,0,1-1.158,3.168,4.515,4.515,0,0,1-3.222,1.092H68.748v-8.5H71.46a4.651,4.651,0,0,1,3.258,1.049A4.117,4.117,0,0,1,75.864,22.718Zm-6.06-3.36V26.09h1.572a3.527,3.527,0,0,0,2.526-.828,3.363,3.363,0,0,0,.87-2.544q0-3.36-3.384-3.36Z" style="fill:#fff"/><g id="g3003"><path id="path3005" d="M85.026,19.3a2.109,2.109,0,0,1,1.53-.656,2.133,2.133,0,0,1,1.86,1.1,2.561,2.561,0,0,1,1.052-.223,2.624,2.624,0,0,1,0,5.246,2.562,2.562,0,0,1-.517-.052,1.9,1.9,0,0,1-2.486.782,2.169,2.169,0,0,1-4.032-.1,2.035,2.035,0,0,1-1.42-3.753,2.343,2.343,0,0,1,4.011-2.349" style="fill:#00a1e0"/></g><path d="M49.688,45.028A9.14,9.14,0,0,1,47.2,51.883q-2.49,2.427-7.273,2.428V51.894a8.243,8.243,0,0,0,4.9-1.277,4.918,4.918,0,0,0,2.027-3.647,5.687,5.687,0,0,1-3.862,1.514,5.159,5.159,0,0,1-2.5-.611A4.439,4.439,0,0,1,38.714,46.1a5.454,5.454,0,0,1-.654-2.722,6.264,6.264,0,0,1,.7-2.97,5.08,5.08,0,0,1,2.027-2.078,6.192,6.192,0,0,1,3.112-.757,5.051,5.051,0,0,1,4.323,1.977A9.007,9.007,0,0,1,49.688,45.028ZM46.9,44.644a7.072,7.072,0,0,0-.751-3.569,2.5,2.5,0,0,0-2.274-1.106,2.816,2.816,0,0,0-2.221.881,3.542,3.542,0,0,0-.783,2.439,2.993,2.993,0,0,0,.751,2.2,2.714,2.714,0,0,0,2.018.757,3.913,3.913,0,0,0,1.78-.418A4.588,4.588,0,0,0,46.9,44.644Z" style="fill:#fff"/><path d="M62.5,53.994H59.279L56.4,49.612l-2.767,4.382H50.461l4.291-6.143-3.819-5.6h3.089l2.49,3.952,2.445-3.952H61.9l-3.753,5.6Z" style="fill:#fff"/></svg>